%TF.GenerationSoftware,KiCad,Pcbnew,7.0.9*%
%TF.CreationDate,2024-01-02T13:31:38+01:00*%
%TF.ProjectId,kim-1-mtu-motherboard,6b696d2d-312d-46d7-9475-2d6d6f746865,rev?*%
%TF.SameCoordinates,Original*%
%TF.FileFunction,Profile,NP*%
%FSLAX46Y46*%
G04 Gerber Fmt 4.6, Leading zero omitted, Abs format (unit mm)*
G04 Created by KiCad (PCBNEW 7.0.9) date 2024-01-02 13:31:38*
%MOMM*%
%LPD*%
G01*
G04 APERTURE LIST*
%TA.AperFunction,Profile*%
%ADD10C,0.100000*%
%TD*%
G04 APERTURE END LIST*
D10*
X53000000Y-67000000D02*
X53000000Y-58000000D01*
X53000000Y-160000000D02*
X53000000Y-226000000D01*
X53000000Y-319000000D02*
X53000000Y-329000000D01*
X253000000Y-329000000D02*
X253000000Y-58000000D01*
X43000000Y-157000000D02*
X43000000Y-70000000D01*
X45000000Y-318000000D02*
X52000000Y-318000000D01*
X43000000Y-157000000D02*
G75*
G03*
X45000000Y-159000000I2000000J0D01*
G01*
X53000000Y-160000000D02*
G75*
G03*
X52000000Y-159000000I-1000000J0D01*
G01*
X253000000Y-58000000D02*
G75*
G03*
X252000000Y-57000000I-1000000J0D01*
G01*
X52000000Y-68000000D02*
G75*
G03*
X53000000Y-67000000I100J999900D01*
G01*
X43000000Y-316000000D02*
G75*
G03*
X45000000Y-318000000I2000000J0D01*
G01*
X54000000Y-330000000D02*
X252000000Y-330000000D01*
X45000000Y-68000000D02*
X52000000Y-68000000D01*
X252000000Y-330000000D02*
G75*
G03*
X253000000Y-329000000I100J999900D01*
G01*
X52000000Y-227000000D02*
X45000000Y-227000000D01*
X52000000Y-227000000D02*
G75*
G03*
X53000000Y-226000000I100J999900D01*
G01*
X54000000Y-57000000D02*
G75*
G03*
X53000000Y-58000000I100J-1000100D01*
G01*
X53000000Y-319000000D02*
G75*
G03*
X52000000Y-318000000I-1000000J0D01*
G01*
X54000000Y-57000000D02*
X252000000Y-57000000D01*
X43000000Y-229000000D02*
X43000000Y-316000000D01*
X53000000Y-329000000D02*
G75*
G03*
X54000000Y-330000000I1000000J0D01*
G01*
X45000000Y-227000000D02*
G75*
G03*
X43000000Y-229000000I0J-2000000D01*
G01*
X45000000Y-68000000D02*
G75*
G03*
X43000000Y-70000000I0J-2000000D01*
G01*
X52000000Y-159000000D02*
X45000000Y-159000000D01*
M02*
