M48
; DRILL file {KiCad 7.0.9} date Sun Nov 19 22:04:26 2023
; FORMAT={-:-/ absolute / inch / decimal}
; #@! TF.CreationDate,2023-11-19T22:04:26+01:00
; #@! TF.GenerationSoftware,Kicad,Pcbnew,7.0.9
; #@! TF.FileFunction,MixedPlating,1,2
FMAT,2
INCH
; #@! TA.AperFunction,Plated,PTH,ViaDrill
T1C0.0118
; #@! TA.AperFunction,Plated,PTH,ComponentDrill
T2C0.0315
; #@! TA.AperFunction,Plated,PTH,ComponentDrill
T3C0.0354
; #@! TA.AperFunction,Plated,PTH,ViaDrill
T4C0.0394
; #@! TA.AperFunction,Plated,PTH,ComponentDrill
T5C0.0394
; #@! TA.AperFunction,Plated,PTH,ComponentDrill
T6C0.0512
; #@! TA.AperFunction,Plated,PTH,ComponentDrill
T7C0.0787
; #@! TA.AperFunction,NonPlated,NPTH,ComponentDrill
T8C0.1063
; #@! TA.AperFunction,NonPlated,NPTH,ComponentDrill
T9C0.1252
; #@! TA.AperFunction,NonPlated,NPTH,ComponentDrill
T10C0.1693
%
G90
G05
T1
X2.1803Y-6.1346
X2.1803Y-6.1661
X2.1807Y-6.0197
X2.1807Y-6.0516
X2.2121Y-2.9216
X2.2121Y-3.0775
X2.2121Y-3.2334
X2.2121Y-3.3894
X2.2121Y-3.5453
X2.2121Y-3.7012
X2.2121Y-3.8571
X2.2121Y-4.013
X2.2121Y-4.1689
X2.2121Y-4.3248
X2.2121Y-4.4807
X2.2121Y-4.6366
X2.2121Y-4.7925
X2.2121Y-4.9484
X2.2121Y-5.1043
X2.2121Y-5.2602
X2.2121Y-5.4161
X2.2121Y-5.572
X2.2121Y-5.7279
X2.2244Y-2.8921
X2.2244Y-3.048
X2.2244Y-3.2039
X2.2244Y-3.3598
X2.2244Y-3.5157
X2.2244Y-3.6717
X2.2244Y-3.8276
X2.2244Y-3.9835
X2.2244Y-4.1394
X2.2244Y-4.2953
X2.2244Y-4.4512
X2.2244Y-4.6071
X2.2244Y-4.763
X2.2244Y-4.9189
X2.2244Y-5.0748
X2.2244Y-5.2307
X2.2244Y-5.3866
X2.2244Y-5.5425
X2.2244Y-5.6984
X2.2244Y-9.3079
X2.2244Y-9.4638
X2.2244Y-9.6197
X2.2244Y-9.7756
X2.2244Y-9.9315
X2.2244Y-10.0874
X2.2244Y-10.2433
X2.2244Y-10.3992
X2.2244Y-10.5551
X2.2244Y-10.711
X2.2244Y-11.0228
X2.2244Y-11.1787
X2.2244Y-11.3346
X2.2244Y-11.4906
X2.2244Y-11.6465
X2.2244Y-11.8024
X2.2244Y-11.9583
X2.2244Y-12.1142
X2.2244Y-12.2701
X2.2244Y-12.426
X2.2397Y-10.6815
X2.2398Y-9.3374
X2.2398Y-9.4933
X2.2398Y-9.6492
X2.2398Y-9.8051
X2.2398Y-9.961
X2.2398Y-10.1169
X2.2398Y-10.2728
X2.2398Y-10.4287
X2.2398Y-10.5846
X2.2398Y-11.0523
X2.2398Y-11.2082
X2.2398Y-11.3642
X2.2398Y-11.5201
X2.2398Y-11.676
X2.2398Y-11.8319
X2.2398Y-11.9878
X2.2398Y-12.1437
X2.2398Y-12.2996
X2.2398Y-12.4555
X2.2465Y-6.2252
X2.2465Y-6.2567
X2.2598Y-2.6756
X2.2913Y-2.6756
X2.2913Y-2.9701
X2.3035Y-5.2941
X2.3035Y-5.3256
X2.3035Y-6.2843
X2.3039Y-6.3157
X2.3094Y-2.9961
X2.3311Y-2.7146
X2.3583Y-2.7307
X2.3583Y-3.126
X2.3618Y-5.1378
X2.3618Y-5.1697
X2.3618Y-6.3433
X2.3618Y-6.3752
X2.3843Y-3.1441
X7.5091Y-10.3382
X7.5091Y-10.3697
X7.7843Y-11.0567
X7.7878Y-11.0882
X7.8343Y-10.2772
X7.8588Y-10.2477
X7.8843Y-9.4976
X7.8937Y-9.528
X7.9343Y-10.4331
X7.9449Y-10.463
X7.9843Y-9.3417
X7.9969Y-9.3712
X8.0343Y-10.589
X8.0429Y-10.6193
X8.0843Y-9.1858
X8.0945Y-9.2157
X8.1343Y-10.7449
X8.135Y-10.7764
X8.1843Y-9.6535
X8.1949Y-9.6835
X8.2343Y-10.9008
X8.2453Y-10.9303
X8.2843Y-9.8094
X8.2972Y-9.839
X8.3343Y-11.3685
X8.3394Y-11.3996
X8.3843Y-9.9654
X8.3965Y-9.9949
X8.4343Y-12.148
X8.439Y-12.1795
X8.4843Y-10.1213
X8.4953Y-10.1508
X8.5343Y-11.5854
X8.5488Y-11.6149
X8.5843Y-11.7417
X8.5843Y-11.7732
X8.6343Y-11.2126
X8.635Y-11.2441
X8.6843Y-11.1173
X8.6843Y-11.1488
X8.7343Y-11.4295
X8.7346Y-11.461
X8.7878Y-10.4937
X8.7878Y-10.5252
X8.8346Y-5.0768
X8.8346Y-5.1087
X8.8346Y-6.189
X8.848Y-10.9618
X8.848Y-10.9937
X8.8492Y-6.2169
X8.9071Y-10.65
X8.9071Y-10.6815
X9.0425Y-5.2646
X9.0425Y-6.1453
X9.0425Y-6.1772
X9.0433Y-5.2331
X9.1193Y-5.7614
X9.1193Y-5.7933
X9.1193Y-6.1016
X9.1193Y-6.1331
X9.1244Y-5.5843
X9.1247Y-5.5524
X9.2736Y-7.5209
X9.4508Y-2.9476
X9.4823Y-2.6957
X9.4823Y-2.9476
X9.4941Y-3.085
X9.5098Y-3.1898
X9.5098Y-3.3457
X9.5142Y-2.6953
X9.5157Y-2.7642
X9.5157Y-3.0614
X9.5287Y-3.2154
X9.5287Y-3.3713
X9.5382Y-5.7638
X9.539Y-9.2768
X9.539Y-9.4327
X9.539Y-9.5886
X9.539Y-9.7445
X9.539Y-9.9004
X9.539Y-10.0563
X9.539Y-10.2122
X9.539Y-10.3681
X9.539Y-10.524
X9.539Y-10.9917
X9.539Y-11.1476
X9.539Y-11.3035
X9.539Y-11.4594
X9.539Y-11.6154
X9.539Y-11.7713
X9.539Y-11.9272
X9.539Y-12.0831
X9.539Y-12.239
X9.539Y-12.3949
X9.5437Y-2.7496
X9.5492Y-3.4547
X9.5492Y-3.7665
X9.5492Y-4.0783
X9.5492Y-4.2343
X9.5492Y-4.3902
X9.5492Y-4.5461
X9.5492Y-4.7039
X9.5492Y-4.8579
X9.5492Y-5.0138
X9.5492Y-5.1697
X9.5492Y-5.3256
X9.5492Y-5.4815
X9.5492Y-5.6374
X9.5492Y-5.7933
X9.5492Y-5.9492
X9.5492Y-6.1051
X9.5492Y-9.2469
X9.5492Y-9.4028
X9.5492Y-9.5587
X9.5492Y-9.7146
X9.5492Y-9.8705
X9.5492Y-10.0264
X9.5492Y-10.1823
X9.5492Y-10.3382
X9.5492Y-10.4941
X9.5492Y-10.9618
X9.5492Y-11.1177
X9.5492Y-11.2736
X9.5492Y-11.4295
X9.5492Y-11.5854
X9.5492Y-11.7413
X9.5492Y-11.8972
X9.5492Y-12.0531
X9.5492Y-12.2091
X9.5492Y-12.365
X9.5622Y-3.4842
X9.5622Y-3.796
X9.5622Y-4.1079
X9.5622Y-4.2638
X9.5622Y-4.4197
X9.5622Y-4.5756
X9.5622Y-4.8874
X9.5622Y-5.0433
X9.5622Y-5.1992
X9.5622Y-5.3551
X9.5622Y-5.511
X9.5622Y-5.6669
X9.5622Y-5.9787
X9.5622Y-6.1346
X9.5626Y-4.7327
X9.5654Y-2.8622
X9.5654Y-3.0181
X9.5709Y-2.8311
X9.5709Y-2.987
X9.5803Y-10.65
X9.5914Y-10.6795
X9.6076Y-3.6447
X9.6177Y-3.6748
X9.6398Y-3.9224
X9.6527Y-3.9519
T2
X2.4724Y-5.4028
X2.4724Y-5.4815
X2.4724Y-5.8705
X2.4724Y-5.9492
X2.5442Y-5.6427
X2.6559Y-5.7524
X2.6559Y-5.9492
X2.6571Y-5.4815
X3.1315Y-9.0909
X3.1315Y-9.2878
X3.1315Y-10.8059
X3.1315Y-11.0028
X3.1339Y-5.7933
X3.1339Y-5.9902
X3.2709Y-5.7933
X3.3043Y-9.0909
X3.3043Y-9.1697
X3.3043Y-10.8059
X3.3043Y-10.8846
X3.3354Y-5.7481
X3.3937Y-5.4815
X3.4724Y-5.4815
X3.4724Y-5.8693
X3.4724Y-5.948
X3.5442Y-5.6427
X3.6559Y-5.7524
X3.6559Y-5.9492
X3.6571Y-5.4815
X4.1315Y-9.0909
X4.1315Y-9.2878
X4.1315Y-10.8059
X4.1315Y-11.0028
X4.1339Y-5.7933
X4.1339Y-5.9902
X4.2709Y-5.7933
X4.3043Y-9.0909
X4.3043Y-9.1697
X4.3043Y-10.8059
X4.3043Y-10.8846
X4.3354Y-5.7481
X4.3937Y-5.4815
X4.4724Y-5.4815
X4.4724Y-5.8693
X4.4724Y-5.948
X4.5442Y-5.6427
X4.6559Y-5.7524
X4.6559Y-5.9492
X4.6571Y-5.4815
X5.1315Y-9.0909
X5.1315Y-9.2878
X5.1315Y-10.8059
X5.1315Y-11.0028
X5.1339Y-5.7933
X5.1339Y-5.9902
X5.2709Y-5.7933
X5.3043Y-9.0909
X5.3043Y-9.1697
X5.3043Y-10.8059
X5.3043Y-10.8846
X5.3354Y-5.7481
X5.3937Y-5.4815
X5.4724Y-5.4815
X5.4724Y-5.8693
X5.4724Y-5.948
X5.5442Y-5.6427
X5.6559Y-5.7524
X5.6559Y-5.9492
X5.6571Y-5.4815
X6.1315Y-9.0909
X6.1315Y-9.2878
X6.1315Y-10.8059
X6.1315Y-11.0028
X6.1339Y-5.7933
X6.1339Y-5.9902
X6.2709Y-5.7933
X6.3043Y-9.0909
X6.3043Y-9.1697
X6.3043Y-10.8059
X6.3043Y-10.8846
X6.3354Y-5.7481
X6.3937Y-5.4815
X6.4724Y-5.4815
X6.4724Y-5.8693
X6.4724Y-5.948
X6.5442Y-5.6427
X6.6559Y-5.7524
X6.6559Y-5.9492
X6.6571Y-5.4815
X7.1315Y-9.0909
X7.1315Y-9.2878
X7.1315Y-10.8059
X7.1315Y-11.0028
X7.1339Y-5.7933
X7.1339Y-5.9902
X7.2709Y-5.7933
X7.3043Y-9.0909
X7.3043Y-9.1697
X7.3043Y-10.8059
X7.3043Y-10.8846
X7.3354Y-5.7481
X7.4697Y-3.0555
X7.4697Y-3.1555
X7.4697Y-3.2555
X7.4697Y-3.3555
X7.4697Y-3.4555
X7.4697Y-3.5555
X7.4697Y-3.6555
X7.4697Y-3.7555
X7.4697Y-4.1039
X7.4697Y-4.2039
X7.4697Y-4.3039
X7.4697Y-4.4039
X7.4697Y-4.5039
X7.4697Y-4.6039
X7.4697Y-4.7039
X7.4697Y-4.8039
X7.4697Y-5.152
X7.4697Y-5.252
X7.4697Y-5.352
X7.4697Y-5.452
X7.4697Y-5.552
X7.4697Y-5.652
X7.4697Y-5.752
X7.4697Y-5.852
X7.5921Y-3.9555
X7.5921Y-5.0039
X7.5921Y-6.0524
X7.7697Y-3.0555
X7.7697Y-3.1555
X7.7697Y-3.2555
X7.7697Y-3.3555
X7.7697Y-3.4555
X7.7697Y-3.5555
X7.7697Y-3.6555
X7.7697Y-3.7555
X7.7697Y-4.1039
X7.7697Y-4.2039
X7.7697Y-4.3039
X7.7697Y-4.4039
X7.7697Y-4.5039
X7.7697Y-4.6039
X7.7697Y-4.7039
X7.7697Y-4.8039
X7.7697Y-5.152
X7.7697Y-5.252
X7.7697Y-5.352
X7.7697Y-5.452
X7.7697Y-5.552
X7.7697Y-5.652
X7.7697Y-5.752
X7.7697Y-5.852
X7.789Y-3.9555
X7.789Y-5.0039
X7.789Y-6.0524
X7.8992Y-3.0555
X7.8992Y-3.1555
X7.8992Y-3.2555
X7.8992Y-3.3555
X7.8992Y-3.4555
X7.8992Y-3.5555
X7.8992Y-3.6555
X7.8992Y-3.7555
X7.8992Y-3.8555
X7.8992Y-3.9555
X7.8992Y-4.1039
X7.8992Y-4.2039
X7.8992Y-4.3039
X7.8992Y-4.4039
X7.8992Y-4.5039
X7.8992Y-4.6039
X7.8992Y-4.7039
X7.8992Y-4.8039
X7.8992Y-4.9039
X7.8992Y-5.0039
X7.8992Y-5.1524
X7.8992Y-5.2524
X7.8992Y-5.3524
X7.8992Y-5.4524
X7.8992Y-5.5524
X7.8992Y-5.6524
X7.8992Y-5.7524
X7.8992Y-5.8524
X7.8992Y-5.9524
X7.8992Y-6.0524
X8.1992Y-3.0555
X8.1992Y-3.1555
X8.1992Y-3.2555
X8.1992Y-3.3555
X8.1992Y-3.4555
X8.1992Y-3.5555
X8.1992Y-3.6555
X8.1992Y-3.7555
X8.1992Y-3.8555
X8.1992Y-3.9555
X8.1992Y-4.1039
X8.1992Y-4.2039
X8.1992Y-4.3039
X8.1992Y-4.4039
X8.1992Y-4.5039
X8.1992Y-4.6039
X8.1992Y-4.7039
X8.1992Y-4.8039
X8.1992Y-4.9039
X8.1992Y-5.0039
X8.1992Y-5.1524
X8.1992Y-5.2524
X8.1992Y-5.3524
X8.1992Y-5.4524
X8.1992Y-5.5524
X8.1992Y-5.6524
X8.1992Y-5.7524
X8.1992Y-5.8524
X8.1992Y-5.9524
X8.1992Y-6.0524
X8.2476Y-2.7154
X8.2476Y-2.8138
X8.3709Y-4.0539
X8.3709Y-4.1539
X8.3709Y-4.2539
X8.3709Y-4.3539
X8.3709Y-4.4539
X8.3709Y-4.5539
X8.3709Y-4.6539
X8.3709Y-4.7539
X8.415Y-2.9087
X8.415Y-3.1055
X8.4449Y-2.7154
X8.4898Y-4.9539
X8.5417Y-3.3555
X8.5417Y-3.4555
X8.5417Y-3.5555
X8.5417Y-3.6555
X8.5417Y-3.7555
X8.5417Y-3.8555
X8.563Y-2.9087
X8.6417Y-2.7154
X8.6614Y-2.9087
X8.6677Y-3.6583
X8.6677Y-3.8551
X8.6709Y-4.0539
X8.6709Y-4.1539
X8.6709Y-4.2539
X8.6709Y-4.3539
X8.6709Y-4.4539
X8.6709Y-4.5539
X8.6709Y-4.6539
X8.6709Y-4.7539
X8.6866Y-4.9539
X8.7366Y-2.7154
X8.7969Y-3.2555
X8.7969Y-3.3555
X8.7969Y-3.4555
X8.7969Y-3.5555
X8.7969Y-3.6555
X8.7969Y-3.7555
X8.7969Y-3.8555
X8.7969Y-4.0539
X8.7969Y-4.1539
X8.7969Y-4.2539
X8.7969Y-4.3539
X8.7969Y-4.4539
X8.7969Y-4.5539
X8.7969Y-4.6539
X8.7969Y-4.7539
X8.7969Y-4.8539
X8.7969Y-4.9539
X8.8358Y-2.9087
X8.9335Y-2.7154
X8.9343Y-2.9087
X9.0339Y-2.7154
X9.0969Y-3.2555
X9.0969Y-3.3555
X9.0969Y-3.4555
X9.0969Y-3.5555
X9.0969Y-3.6555
X9.0969Y-3.7555
X9.0969Y-3.8555
X9.0969Y-4.0539
X9.0969Y-4.1539
X9.0969Y-4.2539
X9.0969Y-4.3539
X9.0969Y-4.4539
X9.0969Y-4.5539
X9.0969Y-4.6539
X9.0969Y-4.7539
X9.0969Y-4.8539
X9.0969Y-4.9539
X9.1339Y-2.9087
X9.2307Y-2.7154
X9.2323Y-2.9087
X9.6713Y-6.9843
X9.6713Y-7.2843
X9.672Y-7.9106
X9.672Y-8.2106
T3
X9.6717Y-7.4209
X9.6717Y-7.5209
X9.672Y-7.6752
X9.672Y-7.7752
T4
X2.1555Y-6.2264
X2.2417Y-8.576
X2.2795Y-9.0909
X2.5177Y-8.9634
X2.6559Y-6.635
X2.6575Y-2.3031
X3.1315Y-8.576
X3.1339Y-2.6043
X3.4161Y-8.9634
X3.6559Y-6.6339
X3.6575Y-2.3031
X4.1315Y-8.576
X4.1339Y-2.6043
X4.4161Y-8.9634
X4.6425Y-6.635
X4.6575Y-2.3031
X5.1315Y-8.576
X5.1339Y-2.6043
X5.4161Y-8.9634
X5.6559Y-6.635
X5.6575Y-2.3031
X6.1315Y-8.576
X6.1339Y-2.6043
X6.4161Y-8.9634
X6.6559Y-6.635
X6.6575Y-2.3031
X7.1315Y-8.576
X7.1339Y-2.6043
X7.4161Y-8.9634
X8.0362Y-6.2882
X8.9343Y-5.8713
X8.9343Y-6.2882
X9.2315Y-6.1339
X9.2736Y-8.576
X9.4563Y-8.9634
X9.6524Y-9.0909
X9.8248Y-6.2138
T5
X5.2429Y-5.4764
X5.2429Y-5.5764
X5.2638Y-5.9508
X5.2638Y-6.0508
X6.2429Y-5.4764
X6.2429Y-5.5764
X6.2638Y-5.9508
X6.2638Y-6.0508
X7.4091Y-7.1803
X7.5091Y-7.1803
X7.6091Y-7.1803
X7.8858Y-6.4346
X7.8858Y-6.5346
X7.9858Y-6.4346
X7.9858Y-6.5346
X8.0858Y-6.4346
X8.0858Y-6.5346
X8.1858Y-6.4346
X8.1858Y-6.5346
X8.2858Y-6.4346
X8.2858Y-6.5346
X8.3858Y-6.4346
X8.3858Y-6.5346
X8.4858Y-6.4346
X8.4858Y-6.5346
X8.5449Y-3.1591
X8.5858Y-6.4346
X8.5858Y-6.5346
X8.6858Y-6.4346
X8.6858Y-6.5346
X8.7858Y-6.4346
X8.7858Y-6.5346
X8.8858Y-6.4346
X8.8858Y-6.5346
X8.9039Y-7.0346
X8.9039Y-7.1803
X9.0039Y-7.0346
X9.0039Y-7.1803
X9.1039Y-7.1803
X9.5346Y-3.5547
X9.5346Y-3.7063
T6
X2.7992Y-2.8311
X2.7992Y-2.987
X2.7992Y-3.1429
X2.7992Y-3.2988
X2.7992Y-3.4547
X2.7992Y-3.6106
X2.7992Y-3.7665
X2.7992Y-3.9224
X2.7992Y-4.0783
X2.7992Y-4.2343
X2.7992Y-4.3902
X2.7992Y-4.5461
X2.7992Y-4.702
X2.7992Y-4.8579
X2.7992Y-5.0138
X2.7992Y-5.1697
X2.7992Y-5.3256
X2.7992Y-5.4815
X2.7992Y-5.6374
X2.7992Y-5.7933
X2.7992Y-5.9492
X2.7992Y-6.1051
X2.7992Y-9.0909
X2.7992Y-9.2469
X2.7992Y-9.4028
X2.7992Y-9.5587
X2.7992Y-9.7146
X2.7992Y-9.8705
X2.7992Y-10.0264
X2.7992Y-10.1823
X2.7992Y-10.3382
X2.7992Y-10.4941
X2.7992Y-10.65
X2.7992Y-10.8059
X2.7992Y-10.9618
X2.7992Y-11.1177
X2.7992Y-11.2736
X2.7992Y-11.4295
X2.7992Y-11.5854
X2.7992Y-11.7413
X2.7992Y-11.8972
X2.7992Y-12.0531
X2.7992Y-12.2091
X2.7992Y-12.365
X2.9992Y-2.8311
X2.9992Y-2.987
X2.9992Y-3.1429
X2.9992Y-3.2988
X2.9992Y-3.4547
X2.9992Y-3.6106
X2.9992Y-3.7665
X2.9992Y-3.9224
X2.9992Y-4.0783
X2.9992Y-4.2343
X2.9992Y-4.3902
X2.9992Y-4.5461
X2.9992Y-4.702
X2.9992Y-4.8579
X2.9992Y-5.0138
X2.9992Y-5.1697
X2.9992Y-5.3256
X2.9992Y-5.4815
X2.9992Y-5.6374
X2.9992Y-5.7933
X2.9992Y-5.9492
X2.9992Y-6.1051
X2.9992Y-9.0909
X2.9992Y-9.2469
X2.9992Y-9.4028
X2.9992Y-9.5587
X2.9992Y-9.7146
X2.9992Y-9.8705
X2.9992Y-10.0264
X2.9992Y-10.1823
X2.9992Y-10.3382
X2.9992Y-10.4941
X2.9992Y-10.65
X2.9992Y-10.8059
X2.9992Y-10.9618
X2.9992Y-11.1177
X2.9992Y-11.2736
X2.9992Y-11.4295
X2.9992Y-11.5854
X2.9992Y-11.7413
X2.9992Y-11.8972
X2.9992Y-12.0531
X2.9992Y-12.2091
X2.9992Y-12.365
X3.7992Y-2.8311
X3.7992Y-2.987
X3.7992Y-3.1429
X3.7992Y-3.2988
X3.7992Y-3.4547
X3.7992Y-3.6106
X3.7992Y-3.7665
X3.7992Y-3.9224
X3.7992Y-4.0783
X3.7992Y-4.2343
X3.7992Y-4.3902
X3.7992Y-4.5461
X3.7992Y-4.702
X3.7992Y-4.8579
X3.7992Y-5.0138
X3.7992Y-5.1697
X3.7992Y-5.3256
X3.7992Y-5.4815
X3.7992Y-5.6374
X3.7992Y-5.7933
X3.7992Y-5.9492
X3.7992Y-6.1051
X3.7992Y-9.0909
X3.7992Y-9.2469
X3.7992Y-9.4028
X3.7992Y-9.5587
X3.7992Y-9.7146
X3.7992Y-9.8705
X3.7992Y-10.0264
X3.7992Y-10.1823
X3.7992Y-10.3382
X3.7992Y-10.4941
X3.7992Y-10.65
X3.7992Y-10.8059
X3.7992Y-10.9618
X3.7992Y-11.1177
X3.7992Y-11.2736
X3.7992Y-11.4295
X3.7992Y-11.5854
X3.7992Y-11.7413
X3.7992Y-11.8972
X3.7992Y-12.0531
X3.7992Y-12.2091
X3.7992Y-12.365
X3.9992Y-2.8311
X3.9992Y-2.987
X3.9992Y-3.1429
X3.9992Y-3.2988
X3.9992Y-3.4547
X3.9992Y-3.6106
X3.9992Y-3.7665
X3.9992Y-3.9224
X3.9992Y-4.0783
X3.9992Y-4.2343
X3.9992Y-4.3902
X3.9992Y-4.5461
X3.9992Y-4.702
X3.9992Y-4.8579
X3.9992Y-5.0138
X3.9992Y-5.1697
X3.9992Y-5.3256
X3.9992Y-5.4815
X3.9992Y-5.6374
X3.9992Y-5.7933
X3.9992Y-5.9492
X3.9992Y-6.1051
X3.9992Y-9.0909
X3.9992Y-9.2469
X3.9992Y-9.4028
X3.9992Y-9.5587
X3.9992Y-9.7146
X3.9992Y-9.8705
X3.9992Y-10.0264
X3.9992Y-10.1823
X3.9992Y-10.3382
X3.9992Y-10.4941
X3.9992Y-10.65
X3.9992Y-10.8059
X3.9992Y-10.9618
X3.9992Y-11.1177
X3.9992Y-11.2736
X3.9992Y-11.4295
X3.9992Y-11.5854
X3.9992Y-11.7413
X3.9992Y-11.8972
X3.9992Y-12.0531
X3.9992Y-12.2091
X3.9992Y-12.365
X4.7992Y-2.8311
X4.7992Y-2.987
X4.7992Y-3.1429
X4.7992Y-3.2988
X4.7992Y-3.4547
X4.7992Y-3.6106
X4.7992Y-3.7665
X4.7992Y-3.9224
X4.7992Y-4.0783
X4.7992Y-4.2343
X4.7992Y-4.3902
X4.7992Y-4.5461
X4.7992Y-4.702
X4.7992Y-4.8579
X4.7992Y-5.0138
X4.7992Y-5.1697
X4.7992Y-5.3256
X4.7992Y-5.4815
X4.7992Y-5.6374
X4.7992Y-5.7933
X4.7992Y-5.9492
X4.7992Y-6.1051
X4.7992Y-9.0909
X4.7992Y-9.2469
X4.7992Y-9.4028
X4.7992Y-9.5587
X4.7992Y-9.7146
X4.7992Y-9.8705
X4.7992Y-10.0264
X4.7992Y-10.1823
X4.7992Y-10.3382
X4.7992Y-10.4941
X4.7992Y-10.65
X4.7992Y-10.8059
X4.7992Y-10.9618
X4.7992Y-11.1177
X4.7992Y-11.2736
X4.7992Y-11.4295
X4.7992Y-11.5854
X4.7992Y-11.7413
X4.7992Y-11.8972
X4.7992Y-12.0531
X4.7992Y-12.2091
X4.7992Y-12.365
X4.9992Y-2.8311
X4.9992Y-2.987
X4.9992Y-3.1429
X4.9992Y-3.2988
X4.9992Y-3.4547
X4.9992Y-3.6106
X4.9992Y-3.7665
X4.9992Y-3.9224
X4.9992Y-4.0783
X4.9992Y-4.2343
X4.9992Y-4.3902
X4.9992Y-4.5461
X4.9992Y-4.702
X4.9992Y-4.8579
X4.9992Y-5.0138
X4.9992Y-5.1697
X4.9992Y-5.3256
X4.9992Y-5.4815
X4.9992Y-5.6374
X4.9992Y-5.7933
X4.9992Y-5.9492
X4.9992Y-6.1051
X4.9992Y-9.0909
X4.9992Y-9.2469
X4.9992Y-9.4028
X4.9992Y-9.5587
X4.9992Y-9.7146
X4.9992Y-9.8705
X4.9992Y-10.0264
X4.9992Y-10.1823
X4.9992Y-10.3382
X4.9992Y-10.4941
X4.9992Y-10.65
X4.9992Y-10.8059
X4.9992Y-10.9618
X4.9992Y-11.1177
X4.9992Y-11.2736
X4.9992Y-11.4295
X4.9992Y-11.5854
X4.9992Y-11.7413
X4.9992Y-11.8972
X4.9992Y-12.0531
X4.9992Y-12.2091
X4.9992Y-12.365
X5.7992Y-2.8311
X5.7992Y-2.987
X5.7992Y-3.1429
X5.7992Y-3.2988
X5.7992Y-3.4547
X5.7992Y-3.6106
X5.7992Y-3.7665
X5.7992Y-3.9224
X5.7992Y-4.0783
X5.7992Y-4.2343
X5.7992Y-4.3902
X5.7992Y-4.5461
X5.7992Y-4.702
X5.7992Y-4.8579
X5.7992Y-5.0138
X5.7992Y-5.1697
X5.7992Y-5.3256
X5.7992Y-5.4815
X5.7992Y-5.6374
X5.7992Y-5.7933
X5.7992Y-5.9492
X5.7992Y-6.1051
X5.7992Y-9.0909
X5.7992Y-9.2469
X5.7992Y-9.4028
X5.7992Y-9.5587
X5.7992Y-9.7146
X5.7992Y-9.8705
X5.7992Y-10.0264
X5.7992Y-10.1823
X5.7992Y-10.3382
X5.7992Y-10.4941
X5.7992Y-10.65
X5.7992Y-10.8059
X5.7992Y-10.9618
X5.7992Y-11.1177
X5.7992Y-11.2736
X5.7992Y-11.4295
X5.7992Y-11.5854
X5.7992Y-11.7413
X5.7992Y-11.8972
X5.7992Y-12.0531
X5.7992Y-12.2091
X5.7992Y-12.365
X5.9992Y-2.8311
X5.9992Y-2.987
X5.9992Y-3.1429
X5.9992Y-3.2988
X5.9992Y-3.4547
X5.9992Y-3.6106
X5.9992Y-3.7665
X5.9992Y-3.9224
X5.9992Y-4.0783
X5.9992Y-4.2343
X5.9992Y-4.3902
X5.9992Y-4.5461
X5.9992Y-4.702
X5.9992Y-4.8579
X5.9992Y-5.0138
X5.9992Y-5.1697
X5.9992Y-5.3256
X5.9992Y-5.4815
X5.9992Y-5.6374
X5.9992Y-5.7933
X5.9992Y-5.9492
X5.9992Y-6.1051
X5.9992Y-9.0909
X5.9992Y-9.2469
X5.9992Y-9.4028
X5.9992Y-9.5587
X5.9992Y-9.7146
X5.9992Y-9.8705
X5.9992Y-10.0264
X5.9992Y-10.1823
X5.9992Y-10.3382
X5.9992Y-10.4941
X5.9992Y-10.65
X5.9992Y-10.8059
X5.9992Y-10.9618
X5.9992Y-11.1177
X5.9992Y-11.2736
X5.9992Y-11.4295
X5.9992Y-11.5854
X5.9992Y-11.7413
X5.9992Y-11.8972
X5.9992Y-12.0531
X5.9992Y-12.2091
X5.9992Y-12.365
X6.7992Y-2.8311
X6.7992Y-2.987
X6.7992Y-3.1429
X6.7992Y-3.2988
X6.7992Y-3.4547
X6.7992Y-3.6106
X6.7992Y-3.7665
X6.7992Y-3.9224
X6.7992Y-4.0783
X6.7992Y-4.2343
X6.7992Y-4.3902
X6.7992Y-4.5461
X6.7992Y-4.702
X6.7992Y-4.8579
X6.7992Y-5.0138
X6.7992Y-5.1697
X6.7992Y-5.3256
X6.7992Y-5.4815
X6.7992Y-5.6374
X6.7992Y-5.7933
X6.7992Y-5.9492
X6.7992Y-6.1051
X6.7992Y-9.0909
X6.7992Y-9.2469
X6.7992Y-9.4028
X6.7992Y-9.5587
X6.7992Y-9.7146
X6.7992Y-9.8705
X6.7992Y-10.0264
X6.7992Y-10.1823
X6.7992Y-10.3382
X6.7992Y-10.4941
X6.7992Y-10.65
X6.7992Y-10.8059
X6.7992Y-10.9618
X6.7992Y-11.1177
X6.7992Y-11.2736
X6.7992Y-11.4295
X6.7992Y-11.5854
X6.7992Y-11.7413
X6.7992Y-11.8972
X6.7992Y-12.0531
X6.7992Y-12.2091
X6.7992Y-12.365
X6.9992Y-2.8311
X6.9992Y-2.987
X6.9992Y-3.1429
X6.9992Y-3.2988
X6.9992Y-3.4547
X6.9992Y-3.6106
X6.9992Y-3.7665
X6.9992Y-3.9224
X6.9992Y-4.0783
X6.9992Y-4.2343
X6.9992Y-4.3902
X6.9992Y-4.5461
X6.9992Y-4.702
X6.9992Y-4.8579
X6.9992Y-5.0138
X6.9992Y-5.1697
X6.9992Y-5.3256
X6.9992Y-5.4815
X6.9992Y-5.6374
X6.9992Y-5.7933
X6.9992Y-5.9492
X6.9992Y-6.1051
X6.9992Y-9.0909
X6.9992Y-9.2469
X6.9992Y-9.4028
X6.9992Y-9.5587
X6.9992Y-9.7146
X6.9992Y-9.8705
X6.9992Y-10.0264
X6.9992Y-10.1823
X6.9992Y-10.3382
X6.9992Y-10.4941
X6.9992Y-10.65
X6.9992Y-10.8059
X6.9992Y-10.9618
X6.9992Y-11.1177
X6.9992Y-11.2736
X6.9992Y-11.4295
X6.9992Y-11.5854
X6.9992Y-11.7413
X6.9992Y-11.8972
X6.9992Y-12.0531
X6.9992Y-12.2091
X6.9992Y-12.365
X8.4449Y-2.4313
X8.6417Y-2.4313
X8.8386Y-2.4313
X9.0354Y-2.4313
X9.2323Y-2.4313
T7
X7.5311Y-2.315
X7.5311Y-2.7795
X7.6098Y-2.4114
X7.9059Y-2.315
X7.9059Y-2.7795
X7.9846Y-2.4114
T8
X7.2378Y-2.3602
X7.2378Y-3.9244
X7.6984Y-6.4846
X9.0736Y-6.4846
X9.5346Y-2.3602
X9.5346Y-3.9244
T9
X2.8992Y-2.4541
X2.8992Y-6.4821
X2.8992Y-8.714
X2.8992Y-12.7419
X3.8992Y-2.4541
X3.8992Y-6.4821
X3.8992Y-8.714
X3.8992Y-12.7419
X4.8992Y-2.4541
X4.8992Y-6.4821
X4.8992Y-8.714
X4.8992Y-12.7419
X5.8992Y-2.4541
X5.8992Y-6.4821
X5.8992Y-8.714
X5.8992Y-12.7419
X6.8992Y-2.4541
X6.8992Y-6.4821
X6.8992Y-8.714
X6.8992Y-12.7419
T10
X2.4016Y-2.5394
X2.4016Y-7.6181
X2.4016Y-12.6969
X5.3992Y-2.5394
X5.3992Y-7.6181
X5.3992Y-12.6969
T0
M30
