%TF.GenerationSoftware,KiCad,Pcbnew,7.0.11*%
%TF.CreationDate,2024-10-03T18:10:16+02:00*%
%TF.ProjectId,kim-1-aux-card-esp,6b696d2d-312d-4617-9578-2d636172642d,rev?*%
%TF.SameCoordinates,Original*%
%TF.FileFunction,Soldermask,Bot*%
%TF.FilePolarity,Negative*%
%FSLAX46Y46*%
G04 Gerber Fmt 4.6, Leading zero omitted, Abs format (unit mm)*
G04 Created by KiCad (PCBNEW 7.0.11) date 2024-10-03 18:10:16*
%MOMM*%
%LPD*%
G01*
G04 APERTURE LIST*
G04 Aperture macros list*
%AMRoundRect*
0 Rectangle with rounded corners*
0 $1 Rounding radius*
0 $2 $3 $4 $5 $6 $7 $8 $9 X,Y pos of 4 corners*
0 Add a 4 corners polygon primitive as box body*
4,1,4,$2,$3,$4,$5,$6,$7,$8,$9,$2,$3,0*
0 Add four circle primitives for the rounded corners*
1,1,$1+$1,$2,$3*
1,1,$1+$1,$4,$5*
1,1,$1+$1,$6,$7*
1,1,$1+$1,$8,$9*
0 Add four rect primitives between the rounded corners*
20,1,$1+$1,$2,$3,$4,$5,0*
20,1,$1+$1,$4,$5,$6,$7,0*
20,1,$1+$1,$6,$7,$8,$9,0*
20,1,$1+$1,$8,$9,$2,$3,0*%
G04 Aperture macros list end*
%ADD10C,2.700000*%
%ADD11O,1.600000X1.600000*%
%ADD12R,1.600000X1.600000*%
%ADD13C,1.600000*%
%ADD14R,1.700000X1.700000*%
%ADD15O,1.700000X1.700000*%
%ADD16R,1.500000X1.050000*%
%ADD17O,1.500000X1.050000*%
%ADD18O,1.600000X2.400000*%
%ADD19R,1.600000X2.400000*%
%ADD20RoundRect,0.250000X0.600000X-0.600000X0.600000X0.600000X-0.600000X0.600000X-0.600000X-0.600000X0*%
%ADD21C,1.700000*%
%ADD22C,2.400000*%
%ADD23RoundRect,0.102000X0.975000X0.975000X-0.975000X0.975000X-0.975000X-0.975000X0.975000X-0.975000X0*%
%ADD24C,2.154000*%
%ADD25C,0.500000*%
%ADD26C,0.600000*%
G04 APERTURE END LIST*
D10*
%TO.C,REF\u002A\u002A*%
X112780000Y-43040000D03*
%TD*%
%TO.C,REF\u002A\u002A*%
X124490000Y-147800000D03*
%TD*%
%TO.C,REF\u002A\u002A*%
X159410000Y-147800000D03*
%TD*%
%TO.C,REF\u002A\u002A*%
X171120000Y-82770000D03*
%TD*%
%TO.C,REF\u002A\u002A*%
X171120000Y-43040000D03*
%TD*%
%TO.C,REF\u002A\u002A*%
X112780000Y-82770000D03*
%TD*%
D11*
%TO.C,RN1*%
X166690000Y-73380000D03*
X164150000Y-73380000D03*
X161610000Y-73380000D03*
X159070000Y-73380000D03*
X156530000Y-73380000D03*
X153990000Y-73380000D03*
D12*
X151450000Y-73380000D03*
%TD*%
D13*
%TO.C,C1*%
X148400000Y-60440000D03*
X148400000Y-65440000D03*
%TD*%
D14*
%TO.C,J9*%
X115930000Y-51160000D03*
D15*
X118470000Y-51160000D03*
X121010000Y-51160000D03*
%TD*%
%TO.C,J10*%
X140280000Y-50600000D03*
X137740000Y-50600000D03*
X135200000Y-50600000D03*
D14*
X132660000Y-50600000D03*
%TD*%
D16*
%TO.C,Q1*%
X165610000Y-77560000D03*
D17*
X165610000Y-78830000D03*
X165610000Y-80100000D03*
%TD*%
D18*
%TO.C,U1*%
X151450000Y-60440000D03*
X153990000Y-60440000D03*
X156530000Y-60440000D03*
X159070000Y-60440000D03*
X161610000Y-60440000D03*
X164150000Y-60440000D03*
X166690000Y-60440000D03*
X166690000Y-68060000D03*
X164150000Y-68060000D03*
X161610000Y-68060000D03*
X159070000Y-68060000D03*
X156530000Y-68060000D03*
X153990000Y-68060000D03*
D19*
X151450000Y-68060000D03*
%TD*%
D12*
%TO.C,SW1*%
X150820000Y-141700000D03*
D11*
X143200000Y-141700000D03*
%TD*%
D20*
%TO.C,J2*%
X126710000Y-82920000D03*
D21*
X126710000Y-80380000D03*
X129250000Y-82920000D03*
X129250000Y-80380000D03*
X131790000Y-82920000D03*
X131790000Y-80380000D03*
X134330000Y-82920000D03*
X134330000Y-80380000D03*
X136870000Y-82920000D03*
X136870000Y-80380000D03*
X139410000Y-82920000D03*
X139410000Y-80380000D03*
X141950000Y-82920000D03*
X141950000Y-80380000D03*
X144490000Y-82920000D03*
X144490000Y-80380000D03*
X147030000Y-82920000D03*
X147030000Y-80380000D03*
X149570000Y-82920000D03*
X149570000Y-80380000D03*
X152110000Y-82920000D03*
X152110000Y-80380000D03*
X154650000Y-82920000D03*
X154650000Y-80380000D03*
X157190000Y-82920000D03*
X157190000Y-80380000D03*
%TD*%
D11*
%TO.C,SW2*%
X152110000Y-91110000D03*
X152110000Y-93650000D03*
X144490000Y-93650000D03*
D12*
X144490000Y-91110000D03*
%TD*%
D15*
%TO.C,J8*%
X121010000Y-53700000D03*
X121010000Y-56240000D03*
X118470000Y-53700000D03*
X118470000Y-56240000D03*
X115930000Y-53700000D03*
D14*
X115930000Y-56240000D03*
%TD*%
D22*
%TO.C,J3*%
X165400000Y-47590000D03*
X150400000Y-47590000D03*
D23*
X150400000Y-52590000D03*
D24*
X152900000Y-55090000D03*
X157900000Y-52590000D03*
X162900000Y-55090000D03*
X165400000Y-52590000D03*
X157900000Y-57590000D03*
X162900000Y-42590000D03*
X160400000Y-42590000D03*
X155400000Y-42590000D03*
X152900000Y-42590000D03*
%TD*%
D14*
%TO.C,J5*%
X171120000Y-73380000D03*
%TD*%
%TO.C,J1*%
X129250000Y-149070000D03*
D15*
X129250000Y-146530000D03*
X131790000Y-149070000D03*
X131790000Y-146530000D03*
X134330000Y-149070000D03*
X134330000Y-146530000D03*
X136870000Y-149070000D03*
X136870000Y-146530000D03*
X139410000Y-149070000D03*
X139410000Y-146530000D03*
X141950000Y-149070000D03*
X141950000Y-146530000D03*
X144490000Y-149070000D03*
X144490000Y-146530000D03*
X147030000Y-149070000D03*
X147030000Y-146530000D03*
X149570000Y-149070000D03*
X149570000Y-146530000D03*
X152110000Y-149070000D03*
X152110000Y-146530000D03*
X154650000Y-149070000D03*
X154650000Y-146530000D03*
%TD*%
D14*
%TO.C,J6*%
X144980000Y-63330000D03*
%TD*%
%TO.C,J4*%
X171120000Y-77230000D03*
%TD*%
D25*
X135070000Y-75360000D03*
X136790000Y-75070000D03*
X138950000Y-75070000D03*
X136790000Y-67870000D03*
X138950000Y-67870000D03*
X136790000Y-65510000D03*
X138950000Y-65510000D03*
X138950000Y-58310000D03*
X136790000Y-58310000D03*
D26*
X127660000Y-52390000D03*
X129400000Y-55150000D03*
X125080000Y-53800000D03*
D25*
X132470000Y-61050000D03*
X132470000Y-57820000D03*
M02*
