M48
; DRILL file {KiCad 7.0.11} date Thu Oct  3 18:02:57 2024
; FORMAT={-:-/ absolute / inch / decimal}
; #@! TF.CreationDate,2024-10-03T18:02:57+02:00
; #@! TF.GenerationSoftware,Kicad,Pcbnew,7.0.11
; #@! TF.FileFunction,MixedPlating,1,2
FMAT,2
INCH
; #@! TA.AperFunction,Plated,PTH,ViaDrill
T1C0.0118
; #@! TA.AperFunction,Plated,PTH,ComponentDrill
T2C0.0295
; #@! TA.AperFunction,Plated,PTH,ComponentDrill
T3C0.0315
; #@! TA.AperFunction,Plated,PTH,ComponentDrill
T4C0.0394
; #@! TA.AperFunction,Plated,PTH,ComponentDrill
T5C0.0512
; #@! TA.AperFunction,NonPlated,NPTH,ComponentDrill
T6C0.0945
; #@! TA.AperFunction,NonPlated,NPTH,ComponentDrill
T7C0.1063
%
G90
G05
T1
X4.9244Y-2.1181
X5.026Y-2.0626
X5.0945Y-2.1713
X5.2154Y-2.2764
X5.2154Y-2.4035
X5.3177Y-2.9669
X5.3854Y-2.2957
X5.3854Y-2.5791
X5.3854Y-2.672
X5.3854Y-2.9555
X5.4705Y-2.2957
X5.4705Y-2.5791
X5.4705Y-2.672
X5.4705Y-2.9555
T2
X6.5201Y-3.0535
X6.5201Y-3.1035
X6.5201Y-3.1535
T3
X5.6378Y-5.5787
X5.6886Y-3.587
X5.6886Y-3.687
X5.8425Y-2.3795
X5.8425Y-2.5764
X5.9378Y-5.5787
X5.9626Y-2.3795
X5.9626Y-2.6795
X5.9626Y-2.889
X5.9886Y-3.587
X5.9886Y-3.687
X6.0626Y-2.3795
X6.0626Y-2.6795
X6.0626Y-2.889
X6.1626Y-2.3795
X6.1626Y-2.6795
X6.1626Y-2.889
X6.2626Y-2.3795
X6.2626Y-2.6795
X6.2626Y-2.889
X6.3626Y-2.3795
X6.3626Y-2.6795
X6.3626Y-2.889
X6.4626Y-2.3795
X6.4626Y-2.6795
X6.4626Y-2.889
X6.5626Y-2.3795
X6.5626Y-2.6795
X6.5626Y-2.889
T4
X4.5642Y-2.0142
X4.5642Y-2.1142
X4.5642Y-2.2142
X4.6642Y-2.0142
X4.6642Y-2.1142
X4.6642Y-2.2142
X4.7642Y-2.0142
X4.7642Y-2.1142
X4.7642Y-2.2142
X4.9886Y-3.1646
X4.9886Y-3.2646
X5.0886Y-3.1646
X5.0886Y-3.2646
X5.0886Y-5.7689
X5.0886Y-5.8689
X5.1886Y-3.1646
X5.1886Y-3.2646
X5.1886Y-5.7689
X5.1886Y-5.8689
X5.2228Y-1.9921
X5.2886Y-3.1646
X5.2886Y-3.2646
X5.2886Y-5.7689
X5.2886Y-5.8689
X5.3228Y-1.9921
X5.3886Y-3.1646
X5.3886Y-3.2646
X5.3886Y-5.7689
X5.3886Y-5.8689
X5.4228Y-1.9921
X5.4886Y-3.1646
X5.4886Y-3.2646
X5.4886Y-5.7689
X5.4886Y-5.8689
X5.5228Y-1.9921
X5.5886Y-3.1646
X5.5886Y-3.2646
X5.5886Y-5.7689
X5.5886Y-5.8689
X5.6886Y-3.1646
X5.6886Y-3.2646
X5.6886Y-5.7689
X5.6886Y-5.8689
X5.7079Y-2.4933
X5.7886Y-3.1646
X5.7886Y-3.2646
X5.7886Y-5.7689
X5.7886Y-5.8689
X5.8886Y-3.1646
X5.8886Y-3.2646
X5.8886Y-5.7689
X5.8886Y-5.8689
X5.9886Y-3.1646
X5.9886Y-3.2646
X5.9886Y-5.7689
X5.9886Y-5.8689
X6.0886Y-3.1646
X6.0886Y-3.2646
X6.0886Y-5.7689
X6.0886Y-5.8689
X6.1886Y-3.1646
X6.1886Y-3.2646
X6.737Y-2.889
X6.737Y-3.0406
T5
X5.9213Y-2.0705
X6.0197Y-1.6768
X6.0197Y-2.1689
X6.1181Y-1.6768
X6.2165Y-2.0705
X6.2165Y-2.2673
X6.315Y-1.6768
X6.4134Y-1.6768
X6.4134Y-2.1689
X6.5118Y-2.0705
T6
X5.9213Y-1.8736
X6.5118Y-1.8736
T7
X4.4402Y-1.6945
X4.4402Y-3.2587
X4.9012Y-5.8189
X6.276Y-5.8189
X6.737Y-1.6945
X6.737Y-3.2587
M30
