%TF.GenerationSoftware,KiCad,Pcbnew,7.0.11*%
%TF.CreationDate,2024-10-03T18:10:15+02:00*%
%TF.ProjectId,kim-1-aux-card-esp,6b696d2d-312d-4617-9578-2d636172642d,rev?*%
%TF.SameCoordinates,Original*%
%TF.FileFunction,Copper,L1,Top*%
%TF.FilePolarity,Positive*%
%FSLAX46Y46*%
G04 Gerber Fmt 4.6, Leading zero omitted, Abs format (unit mm)*
G04 Created by KiCad (PCBNEW 7.0.11) date 2024-10-03 18:10:15*
%MOMM*%
%LPD*%
G01*
G04 APERTURE LIST*
G04 Aperture macros list*
%AMRoundRect*
0 Rectangle with rounded corners*
0 $1 Rounding radius*
0 $2 $3 $4 $5 $6 $7 $8 $9 X,Y pos of 4 corners*
0 Add a 4 corners polygon primitive as box body*
4,1,4,$2,$3,$4,$5,$6,$7,$8,$9,$2,$3,0*
0 Add four circle primitives for the rounded corners*
1,1,$1+$1,$2,$3*
1,1,$1+$1,$4,$5*
1,1,$1+$1,$6,$7*
1,1,$1+$1,$8,$9*
0 Add four rect primitives between the rounded corners*
20,1,$1+$1,$2,$3,$4,$5,0*
20,1,$1+$1,$4,$5,$6,$7,0*
20,1,$1+$1,$6,$7,$8,$9,0*
20,1,$1+$1,$8,$9,$2,$3,0*%
G04 Aperture macros list end*
%TA.AperFunction,SMDPad,CuDef*%
%ADD10R,1.400000X1.600000*%
%TD*%
%TA.AperFunction,ComponentPad*%
%ADD11O,1.600000X1.600000*%
%TD*%
%TA.AperFunction,ComponentPad*%
%ADD12R,1.600000X1.600000*%
%TD*%
%TA.AperFunction,SMDPad,CuDef*%
%ADD13RoundRect,0.237500X-0.237500X0.250000X-0.237500X-0.250000X0.237500X-0.250000X0.237500X0.250000X0*%
%TD*%
%TA.AperFunction,ComponentPad*%
%ADD14C,1.600000*%
%TD*%
%TA.AperFunction,ComponentPad*%
%ADD15R,1.700000X1.700000*%
%TD*%
%TA.AperFunction,ComponentPad*%
%ADD16O,1.700000X1.700000*%
%TD*%
%TA.AperFunction,SMDPad,CuDef*%
%ADD17R,1.000000X2.500000*%
%TD*%
%TA.AperFunction,SMDPad,CuDef*%
%ADD18R,1.800000X1.000000*%
%TD*%
%TA.AperFunction,SMDPad,CuDef*%
%ADD19RoundRect,0.150000X0.150000X-0.512500X0.150000X0.512500X-0.150000X0.512500X-0.150000X-0.512500X0*%
%TD*%
%TA.AperFunction,SMDPad,CuDef*%
%ADD20RoundRect,0.237500X0.250000X0.237500X-0.250000X0.237500X-0.250000X-0.237500X0.250000X-0.237500X0*%
%TD*%
%TA.AperFunction,SMDPad,CuDef*%
%ADD21RoundRect,0.237500X-0.250000X-0.237500X0.250000X-0.237500X0.250000X0.237500X-0.250000X0.237500X0*%
%TD*%
%TA.AperFunction,SMDPad,CuDef*%
%ADD22RoundRect,0.237500X0.237500X-0.300000X0.237500X0.300000X-0.237500X0.300000X-0.237500X-0.300000X0*%
%TD*%
%TA.AperFunction,SMDPad,CuDef*%
%ADD23RoundRect,0.237500X-0.237500X0.300000X-0.237500X-0.300000X0.237500X-0.300000X0.237500X0.300000X0*%
%TD*%
%TA.AperFunction,SMDPad,CuDef*%
%ADD24RoundRect,0.237500X-0.300000X-0.237500X0.300000X-0.237500X0.300000X0.237500X-0.300000X0.237500X0*%
%TD*%
%TA.AperFunction,ComponentPad*%
%ADD25R,1.500000X1.050000*%
%TD*%
%TA.AperFunction,ComponentPad*%
%ADD26O,1.500000X1.050000*%
%TD*%
%TA.AperFunction,ComponentPad*%
%ADD27O,1.600000X2.400000*%
%TD*%
%TA.AperFunction,ComponentPad*%
%ADD28R,1.600000X2.400000*%
%TD*%
%TA.AperFunction,ComponentPad*%
%ADD29RoundRect,0.250000X0.600000X-0.600000X0.600000X0.600000X-0.600000X0.600000X-0.600000X-0.600000X0*%
%TD*%
%TA.AperFunction,ComponentPad*%
%ADD30C,1.700000*%
%TD*%
%TA.AperFunction,ComponentPad*%
%ADD31R,1.950000X1.950000*%
%TD*%
%TA.AperFunction,ComponentPad*%
%ADD32C,1.950000*%
%TD*%
%TA.AperFunction,ViaPad*%
%ADD33C,0.500000*%
%TD*%
%TA.AperFunction,ViaPad*%
%ADD34C,0.600000*%
%TD*%
%TA.AperFunction,Conductor*%
%ADD35C,0.127000*%
%TD*%
%TA.AperFunction,Conductor*%
%ADD36C,0.400000*%
%TD*%
%TA.AperFunction,Conductor*%
%ADD37C,0.600000*%
%TD*%
%TA.AperFunction,Conductor*%
%ADD38C,1.600000*%
%TD*%
G04 APERTURE END LIST*
D10*
%TO.P,SW4,1,A*%
%TO.N,GND*%
X137870000Y-75070000D03*
X137870000Y-67870000D03*
%TO.P,SW4,2,B*%
%TO.N,Net-(SW4-B)*%
X140870000Y-75070000D03*
X140870000Y-67870000D03*
%TD*%
D11*
%TO.P,RN1,7,R6.2*%
%TO.N,Net-(J4-Pin_1)*%
X166690000Y-73380000D03*
%TO.P,RN1,6,R5.2*%
%TO.N,Net-(RN1E-R5.2)*%
X164150000Y-73380000D03*
%TO.P,RN1,5,R4.2*%
%TO.N,Net-(RN1D-R4.2)*%
X161610000Y-73380000D03*
%TO.P,RN1,4,R3.2*%
%TO.N,Net-(RN1C-R3.2)*%
X159070000Y-73380000D03*
%TO.P,RN1,3,R2.2*%
%TO.N,Net-(Q1-B)*%
X156530000Y-73380000D03*
%TO.P,RN1,2,R1.2*%
%TO.N,/PTR*%
X153990000Y-73380000D03*
D12*
%TO.P,RN1,1,R1*%
%TO.N,+5V*%
X151450000Y-73380000D03*
%TD*%
D13*
%TO.P,R5,2*%
%TO.N,Net-(J8-Pin_5)*%
X123510000Y-52932500D03*
%TO.P,R5,1*%
%TO.N,+3V3*%
X123510000Y-51107500D03*
%TD*%
D14*
%TO.P,C1,1*%
%TO.N,+5V*%
X148400000Y-60440000D03*
%TO.P,C1,2*%
%TO.N,GND*%
X148400000Y-65440000D03*
%TD*%
D15*
%TO.P,J9,1,Pin_1*%
%TO.N,Net-(J10-Pin_4)*%
X115930000Y-51160000D03*
D16*
%TO.P,J9,2,Pin_2*%
%TO.N,Net-(J9-Pin_2)*%
X118470000Y-51160000D03*
%TO.P,J9,3,Pin_3*%
%TO.N,+3V3*%
X121010000Y-51160000D03*
%TD*%
%TO.P,J10,4,Pin_4*%
%TO.N,Net-(J10-Pin_4)*%
X140280000Y-50600000D03*
%TO.P,J10,3,Pin_3*%
%TO.N,Net-(J10-Pin_3)*%
X137740000Y-50600000D03*
%TO.P,J10,2,Pin_2*%
%TO.N,Net-(J10-Pin_2)*%
X135200000Y-50600000D03*
D15*
%TO.P,J10,1,Pin_1*%
%TO.N,GND*%
X132660000Y-50600000D03*
%TD*%
D17*
%TO.P,U3,1,~{RST}*%
%TO.N,Net-(SW4-B)*%
X118470000Y-74690000D03*
%TO.P,U3,2,ADC*%
%TO.N,unconnected-(U3-ADC-Pad2)*%
X120470000Y-74690000D03*
%TO.P,U3,3,EN*%
%TO.N,Net-(J9-Pin_2)*%
X122470000Y-74690000D03*
%TO.P,U3,4,GPIO16*%
%TO.N,unconnected-(U3-GPIO16-Pad4)*%
X124470000Y-74690000D03*
%TO.P,U3,5,GPIO14*%
%TO.N,unconnected-(U3-GPIO14-Pad5)*%
X126470000Y-74690000D03*
%TO.P,U3,6,GPIO12*%
%TO.N,unconnected-(U3-GPIO12-Pad6)*%
X128470000Y-74690000D03*
%TO.P,U3,7,GPIO13*%
%TO.N,unconnected-(U3-GPIO13-Pad7)*%
X130470000Y-74690000D03*
%TO.P,U3,8,VCC*%
%TO.N,Net-(J9-Pin_2)*%
X132470000Y-74690000D03*
D18*
%TO.P,U3,9,CS0*%
%TO.N,unconnected-(U3-CS0-Pad9)*%
X133970000Y-72090000D03*
%TO.P,U3,10,MISO*%
%TO.N,unconnected-(U3-MISO-Pad10)*%
X133970000Y-70090000D03*
%TO.P,U3,11,GPIO9*%
%TO.N,unconnected-(U3-GPIO9-Pad11)*%
X133970000Y-68090000D03*
%TO.P,U3,12,GPIO10*%
%TO.N,unconnected-(U3-GPIO10-Pad12)*%
X133970000Y-66090000D03*
%TO.P,U3,13,MOSI*%
%TO.N,unconnected-(U3-MOSI-Pad13)*%
X133970000Y-64090000D03*
%TO.P,U3,14,SCLK*%
%TO.N,unconnected-(U3-SCLK-Pad14)*%
X133970000Y-62090000D03*
D17*
%TO.P,U3,15,GND*%
%TO.N,GND*%
X132470000Y-59490000D03*
%TO.P,U3,16,GPIO15*%
%TO.N,Net-(U3-GPIO15)*%
X130470000Y-59490000D03*
%TO.P,U3,17,GPIO2*%
%TO.N,Net-(U3-GPIO2)*%
X128470000Y-59490000D03*
%TO.P,U3,18,GPIO0*%
%TO.N,Net-(SW3-B)*%
X126470000Y-59490000D03*
%TO.P,U3,19,GPIO4*%
%TO.N,unconnected-(U3-GPIO4-Pad19)*%
X124470000Y-59490000D03*
%TO.P,U3,20,GPIO5*%
%TO.N,unconnected-(U3-GPIO5-Pad20)*%
X122470000Y-59490000D03*
%TO.P,U3,21,GPIO3/RXD*%
%TO.N,Net-(J8-Pin_3)*%
X120470000Y-59490000D03*
%TO.P,U3,22,GPIO1/TXD*%
%TO.N,Net-(J8-Pin_4)*%
X118470000Y-59490000D03*
%TD*%
D19*
%TO.P,U2,5,OUT*%
%TO.N,+3V3*%
X126710000Y-51162500D03*
%TO.P,U2,4,NC*%
%TO.N,unconnected-(U2-NC-Pad4)*%
X128610000Y-51162500D03*
%TO.P,U2,3,EN*%
%TO.N,+5V*%
X128610000Y-53437500D03*
%TO.P,U2,2,GND*%
%TO.N,GND*%
X127660000Y-53437500D03*
%TO.P,U2,1,IN*%
%TO.N,+5V*%
X126710000Y-53437500D03*
%TD*%
D10*
%TO.P,SW3,1,A*%
%TO.N,GND*%
X137870000Y-65510000D03*
X137870000Y-58310000D03*
%TO.P,SW3,2,B*%
%TO.N,Net-(SW3-B)*%
X140870000Y-65510000D03*
X140870000Y-58310000D03*
%TD*%
D20*
%TO.P,R4,2*%
%TO.N,Net-(SW4-B)*%
X118470000Y-77420000D03*
%TO.P,R4,1*%
%TO.N,Net-(J9-Pin_2)*%
X120295000Y-77420000D03*
%TD*%
D21*
%TO.P,R3,2*%
%TO.N,GND*%
X132830000Y-57010000D03*
%TO.P,R3,1*%
%TO.N,Net-(U3-GPIO15)*%
X131005000Y-57010000D03*
%TD*%
%TO.P,R2,1*%
%TO.N,Net-(J9-Pin_2)*%
X127697500Y-57010000D03*
%TO.P,R2,2*%
%TO.N,Net-(U3-GPIO2)*%
X129522500Y-57010000D03*
%TD*%
%TO.P,R1,2*%
%TO.N,Net-(SW3-B)*%
X126215000Y-57010000D03*
%TO.P,R1,1*%
%TO.N,Net-(J9-Pin_2)*%
X124390000Y-57010000D03*
%TD*%
D22*
%TO.P,C4,2*%
%TO.N,Net-(J9-Pin_2)*%
X135930000Y-73630000D03*
%TO.P,C4,1*%
%TO.N,GND*%
X135930000Y-75355000D03*
%TD*%
D23*
%TO.P,C3,1*%
%TO.N,+3V3*%
X125080000Y-51147500D03*
%TO.P,C3,2*%
%TO.N,GND*%
X125080000Y-52872500D03*
%TD*%
D24*
%TO.P,C2,2*%
%TO.N,GND*%
X128440000Y-55150000D03*
%TO.P,C2,1*%
%TO.N,+5V*%
X126715000Y-55150000D03*
%TD*%
D25*
%TO.P,Q1,1,E*%
%TO.N,GND*%
X165610000Y-77560000D03*
D26*
%TO.P,Q1,2,B*%
%TO.N,Net-(Q1-B)*%
X165610000Y-78830000D03*
%TO.P,Q1,3,C*%
%TO.N,/KBD*%
X165610000Y-80100000D03*
%TD*%
D27*
%TO.P,U1,14,VCC*%
%TO.N,+5V*%
X151450000Y-60440000D03*
%TO.P,U1,13*%
%TO.N,Net-(J8-Pin_6)*%
X153990000Y-60440000D03*
%TO.P,U1,12*%
%TO.N,Net-(Q1-B)*%
X156530000Y-60440000D03*
%TO.P,U1,11*%
%TO.N,/PA5*%
X159070000Y-60440000D03*
%TO.P,U1,10*%
%TO.N,Net-(RN1D-R4.2)*%
X161610000Y-60440000D03*
%TO.P,U1,9*%
%TO.N,GND*%
X164150000Y-60440000D03*
%TO.P,U1,8*%
%TO.N,unconnected-(U1-Pad8)*%
X166690000Y-60440000D03*
%TO.P,U1,7,GND*%
%TO.N,GND*%
X166690000Y-68060000D03*
%TO.P,U1,6*%
%TO.N,Net-(RN1E-R5.2)*%
X164150000Y-68060000D03*
%TO.P,U1,5*%
%TO.N,/PA4*%
X161610000Y-68060000D03*
%TO.P,U1,4*%
%TO.N,Net-(RN1C-R3.2)*%
X159070000Y-68060000D03*
%TO.P,U1,3*%
%TO.N,/PA3*%
X156530000Y-68060000D03*
%TO.P,U1,2*%
%TO.N,Net-(J8-Pin_5)*%
X153990000Y-68060000D03*
D28*
%TO.P,U1,1*%
%TO.N,/PTR*%
X151450000Y-68060000D03*
%TD*%
D12*
%TO.P,SW1,1*%
%TO.N,/ROW3*%
X150820000Y-141700000D03*
D11*
%TO.P,SW1,2*%
%TO.N,/COLA*%
X143200000Y-141700000D03*
%TD*%
D29*
%TO.P,J2,1,Pin_1*%
%TO.N,/PA0*%
X126710000Y-82920000D03*
D30*
%TO.P,J2,2,Pin_2*%
%TO.N,/PB0*%
X126710000Y-80380000D03*
%TO.P,J2,3,Pin_3*%
%TO.N,/PA1*%
X129250000Y-82920000D03*
%TO.P,J2,4,Pin_4*%
%TO.N,/PB1*%
X129250000Y-80380000D03*
%TO.P,J2,5,Pin_5*%
%TO.N,/PA2*%
X131790000Y-82920000D03*
%TO.P,J2,6,Pin_6*%
%TO.N,/PB2*%
X131790000Y-80380000D03*
%TO.P,J2,7,Pin_7*%
%TO.N,/PA3*%
X134330000Y-82920000D03*
%TO.P,J2,8,Pin_8*%
%TO.N,/PB3*%
X134330000Y-80380000D03*
%TO.P,J2,9,Pin_9*%
%TO.N,/PA4*%
X136870000Y-82920000D03*
%TO.P,J2,10,Pin_10*%
%TO.N,/PB4*%
X136870000Y-80380000D03*
%TO.P,J2,11,Pin_11*%
%TO.N,/PA5*%
X139410000Y-82920000D03*
%TO.P,J2,12,Pin_12*%
%TO.N,/PB5*%
X139410000Y-80380000D03*
%TO.P,J2,13,Pin_13*%
%TO.N,/PA6*%
X141950000Y-82920000D03*
%TO.P,J2,14,Pin_14*%
%TO.N,unconnected-(J2-Pin_14-Pad14)*%
X141950000Y-80380000D03*
%TO.P,J2,15,Pin_15*%
%TO.N,/PA7*%
X144490000Y-82920000D03*
%TO.P,J2,16,Pin_16*%
%TO.N,unconnected-(J2-Pin_16-Pad16)*%
X144490000Y-80380000D03*
%TO.P,J2,17,Pin_17*%
%TO.N,unconnected-(J2-Pin_17-Pad17)*%
X147030000Y-82920000D03*
%TO.P,J2,18,Pin_18*%
%TO.N,/PB7*%
X147030000Y-80380000D03*
%TO.P,J2,19,Pin_19*%
%TO.N,unconnected-(J2-Pin_19-Pad19)*%
X149570000Y-82920000D03*
%TO.P,J2,20,Pin_20*%
%TO.N,unconnected-(J2-Pin_20-Pad20)*%
X149570000Y-80380000D03*
%TO.P,J2,21,Pin_21*%
%TO.N,unconnected-(J2-Pin_21-Pad21)*%
X152110000Y-82920000D03*
%TO.P,J2,22,Pin_22*%
%TO.N,unconnected-(J2-Pin_22-Pad22)*%
X152110000Y-80380000D03*
%TO.P,J2,23,Pin_23*%
%TO.N,unconnected-(J2-Pin_23-Pad23)*%
X154650000Y-82920000D03*
%TO.P,J2,24,Pin_24*%
%TO.N,unconnected-(J2-Pin_24-Pad24)*%
X154650000Y-80380000D03*
%TO.P,J2,25,Pin_25*%
%TO.N,GND*%
X157190000Y-82920000D03*
%TO.P,J2,26,Pin_26*%
X157190000Y-80380000D03*
%TD*%
D11*
%TO.P,SW2,4*%
%TO.N,Net-(RN1D-R4.2)*%
X152110000Y-91110000D03*
%TO.P,SW2,3*%
%TO.N,Net-(RN1E-R5.2)*%
X152110000Y-93650000D03*
%TO.P,SW2,2*%
%TO.N,/PA6*%
X144490000Y-93650000D03*
D12*
%TO.P,SW2,1*%
%TO.N,/PA7*%
X144490000Y-91110000D03*
%TD*%
D16*
%TO.P,J8,6,Pin_6*%
%TO.N,Net-(J8-Pin_6)*%
X121010000Y-53700000D03*
%TO.P,J8,5,Pin_5*%
%TO.N,Net-(J8-Pin_5)*%
X121010000Y-56240000D03*
%TO.P,J8,4,Pin_4*%
%TO.N,Net-(J8-Pin_4)*%
X118470000Y-53700000D03*
%TO.P,J8,3,Pin_3*%
%TO.N,Net-(J8-Pin_3)*%
X118470000Y-56240000D03*
%TO.P,J8,2,Pin_2*%
%TO.N,Net-(J10-Pin_3)*%
X115930000Y-53700000D03*
D15*
%TO.P,J8,1,Pin_1*%
%TO.N,Net-(J10-Pin_2)*%
X115930000Y-56240000D03*
%TD*%
D31*
%TO.P,J3,1*%
%TO.N,unconnected-(J3-Pad1)*%
X150400000Y-52590000D03*
D32*
%TO.P,J3,2*%
%TO.N,GND*%
X152900000Y-55090000D03*
%TO.P,J3,3*%
%TO.N,Net-(RN1C-R3.2)*%
X157900000Y-52590000D03*
%TO.P,J3,4*%
%TO.N,Net-(RN1E-R5.2)*%
X162900000Y-55090000D03*
%TO.P,J3,5*%
%TO.N,Net-(RN1D-R4.2)*%
X165400000Y-52590000D03*
%TO.P,J3,6*%
%TO.N,Net-(J4-Pin_1)*%
X157900000Y-57590000D03*
%TO.P,J3,E1*%
%TO.N,GND*%
X162900000Y-42590000D03*
X160400000Y-42590000D03*
%TO.P,J3,E2*%
X155400000Y-42590000D03*
X152900000Y-42590000D03*
%TD*%
D15*
%TO.P,J5,1,Pin_1*%
%TO.N,GND*%
X171120000Y-73380000D03*
%TD*%
%TO.P,J1,1,Pin_1*%
%TO.N,/PA0*%
X129250000Y-149070000D03*
D16*
%TO.P,J1,2,Pin_2*%
%TO.N,/PB0*%
X129250000Y-146530000D03*
%TO.P,J1,3,Pin_3*%
%TO.N,/PA1*%
X131790000Y-149070000D03*
%TO.P,J1,4,Pin_4*%
%TO.N,/PB1*%
X131790000Y-146530000D03*
%TO.P,J1,5,Pin_5*%
%TO.N,/PA2*%
X134330000Y-149070000D03*
%TO.P,J1,6,Pin_6*%
%TO.N,/PB2*%
X134330000Y-146530000D03*
%TO.P,J1,7,Pin_7*%
%TO.N,/PA3*%
X136870000Y-149070000D03*
%TO.P,J1,8,Pin_8*%
%TO.N,/PB3*%
X136870000Y-146530000D03*
%TO.P,J1,9,Pin_9*%
%TO.N,/PA4*%
X139410000Y-149070000D03*
%TO.P,J1,10,Pin_10*%
%TO.N,/PB4*%
X139410000Y-146530000D03*
%TO.P,J1,11,Pin_11*%
%TO.N,/PA5*%
X141950000Y-149070000D03*
%TO.P,J1,12,Pin_12*%
%TO.N,/PB5*%
X141950000Y-146530000D03*
%TO.P,J1,13,Pin_13*%
%TO.N,/PA6*%
X144490000Y-149070000D03*
%TO.P,J1,14,Pin_14*%
%TO.N,/COLA*%
X144490000Y-146530000D03*
%TO.P,J1,15,Pin_15*%
%TO.N,/PA7*%
X147030000Y-149070000D03*
%TO.P,J1,16,Pin_16*%
%TO.N,/PTR*%
X147030000Y-146530000D03*
%TO.P,J1,17,Pin_17*%
%TO.N,/ROW3*%
X149570000Y-149070000D03*
%TO.P,J1,18,Pin_18*%
%TO.N,/PB7*%
X149570000Y-146530000D03*
%TO.P,J1,19,Pin_19*%
%TO.N,/KBD*%
X152110000Y-149070000D03*
%TO.P,J1,20,Pin_20*%
X152110000Y-146530000D03*
%TO.P,J1,21,Pin_21*%
%TO.N,GND*%
X154650000Y-149070000D03*
%TO.P,J1,22,Pin_22*%
X154650000Y-146530000D03*
%TD*%
D15*
%TO.P,J6,1,Pin_1*%
%TO.N,+5V*%
X144980000Y-63330000D03*
%TD*%
%TO.P,J4,1,Pin_1*%
%TO.N,Net-(J4-Pin_1)*%
X171120000Y-77230000D03*
%TD*%
D33*
%TO.N,GND*%
X135070000Y-75360000D03*
X136790000Y-75070000D03*
X138950000Y-75070000D03*
X136790000Y-67870000D03*
X138950000Y-67870000D03*
X136790000Y-65510000D03*
X138950000Y-65510000D03*
X138950000Y-58310000D03*
X136790000Y-58310000D03*
D34*
X127660000Y-52390000D03*
X129400000Y-55150000D03*
X125080000Y-53800000D03*
D33*
X132470000Y-61050000D03*
X132470000Y-57820000D03*
%TD*%
D35*
%TO.N,Net-(J9-Pin_2)*%
X127178450Y-56490944D02*
G75*
G03*
X126824893Y-56344500I-353550J-353556D01*
G01*
X125262607Y-56344505D02*
G75*
G03*
X124909054Y-56490946I-7J-499995D01*
G01*
X125262607Y-56344500D02*
X126824893Y-56344500D01*
X124390000Y-57010000D02*
X124909054Y-56490946D01*
X127178447Y-56490947D02*
X127697500Y-57010000D01*
%TO.N,Net-(J10-Pin_3)*%
X116897061Y-52720745D02*
G75*
G03*
X117043500Y-52367183I-353561J353545D01*
G01*
D36*
%TO.N,Net-(J10-Pin_4)*%
X138251950Y-48571944D02*
G75*
G03*
X137898393Y-48425500I-353550J-353556D01*
G01*
D35*
%TO.N,Net-(J10-Pin_3)*%
X136518949Y-49378943D02*
G75*
G03*
X136165393Y-49232500I-353549J-353557D01*
G01*
X117189938Y-50046256D02*
G75*
G03*
X117043500Y-50399817I353562J-353544D01*
G01*
X118210817Y-49232512D02*
G75*
G03*
X117857263Y-49378947I-17J-499988D01*
G01*
D36*
%TO.N,Net-(J10-Pin_4)*%
X117550147Y-48425534D02*
G75*
G03*
X117196595Y-48571947I-47J-499966D01*
G01*
X116076424Y-49692070D02*
G75*
G03*
X115930000Y-50045647I353576J-353530D01*
G01*
D35*
%TO.N,Net-(U3-GPIO15)*%
X130616444Y-57398550D02*
G75*
G03*
X130470000Y-57752107I353556J-353550D01*
G01*
%TO.N,Net-(SW4-B)*%
X122727107Y-76620005D02*
G75*
G03*
X122373554Y-76766446I-7J-499995D01*
G01*
%TO.N,Net-(J9-Pin_2)*%
X122323557Y-75391449D02*
G75*
G03*
X122470000Y-75037893I-353557J353549D01*
G01*
%TO.N,Net-(SW4-B)*%
X138532893Y-76619995D02*
G75*
G03*
X138886447Y-76473553I7J499995D01*
G01*
X120847393Y-78085495D02*
G75*
G03*
X121200947Y-77939053I7J499995D01*
G01*
X118989051Y-77939057D02*
G75*
G03*
X119342607Y-78085500I353549J353557D01*
G01*
%TO.N,Net-(J9-Pin_2)*%
X132323557Y-75586449D02*
G75*
G03*
X132470000Y-75232893I-353557J353549D01*
G01*
X131572393Y-76130495D02*
G75*
G03*
X131925947Y-75984053I7J499995D01*
G01*
X123633051Y-75984057D02*
G75*
G03*
X123986607Y-76130500I353549J353557D01*
G01*
D36*
%TO.N,GND*%
X136422107Y-75070005D02*
G75*
G03*
X136068553Y-75216447I-7J-499995D01*
G01*
D35*
%TO.N,Net-(SW3-B)*%
X126469995Y-57472107D02*
G75*
G03*
X126323553Y-57118553I-499995J7D01*
G01*
%TO.N,Net-(J8-Pin_5)*%
X152926488Y-59942817D02*
G75*
G03*
X152780054Y-59589264I-499988J17D01*
G01*
X152926505Y-66789393D02*
G75*
G03*
X153072947Y-67142947I499995J-7D01*
G01*
X148931245Y-55740439D02*
G75*
G03*
X148577683Y-55594000I-353545J-353561D01*
G01*
X135067551Y-55447557D02*
G75*
G03*
X135421107Y-55594000I353549J353557D01*
G01*
X119983957Y-50611336D02*
G75*
G03*
X119837500Y-50964880I353543J-353564D01*
G01*
X119837505Y-51370393D02*
G75*
G03*
X119983946Y-51723946I499995J-7D01*
G01*
X129806450Y-50186444D02*
G75*
G03*
X129452893Y-50040000I-353550J-353556D01*
G01*
X120762380Y-50039986D02*
G75*
G03*
X120408827Y-50186446I20J-500014D01*
G01*
D36*
%TO.N,GND*%
X132616444Y-57223550D02*
G75*
G03*
X132470000Y-57577107I353556J-353550D01*
G01*
%TO.N,Net-(J9-Pin_2)*%
X133737107Y-73630005D02*
G75*
G03*
X133383553Y-73776447I-7J-499995D01*
G01*
D35*
%TO.N,Net-(J8-Pin_5)*%
X120700050Y-52440056D02*
G75*
G03*
X121053607Y-52586500I353550J353556D01*
G01*
X123310449Y-52732943D02*
G75*
G03*
X122956893Y-52586500I-353549J-353557D01*
G01*
%TO.N,Net-(J10-Pin_2)*%
X116956062Y-54264744D02*
G75*
G03*
X117102500Y-53911183I-353562J353544D01*
G01*
X118700607Y-49486505D02*
G75*
G03*
X118347054Y-49632946I-7J-499995D01*
G01*
X117502944Y-50477050D02*
G75*
G03*
X117356500Y-50830607I353556J-353550D01*
G01*
%TO.N,Net-(J8-Pin_4)*%
X118323552Y-54525654D02*
G75*
G03*
X118470000Y-54172103I-353552J353554D01*
G01*
X117502939Y-55346255D02*
G75*
G03*
X117356500Y-55699817I353561J-353545D01*
G01*
%TO.N,Net-(J10-Pin_2)*%
X117248949Y-52921845D02*
G75*
G03*
X117102500Y-53275397I353551J-353555D01*
G01*
X116076449Y-55144345D02*
G75*
G03*
X115930000Y-55497897I353551J-353555D01*
G01*
%TO.N,Net-(J8-Pin_4)*%
X117356505Y-58169393D02*
G75*
G03*
X117502946Y-58522946I499995J-7D01*
G01*
%TO.N,Net-(J10-Pin_2)*%
X134232950Y-49632944D02*
G75*
G03*
X133879393Y-49486500I-353550J-353556D01*
G01*
D36*
%TO.N,/PTR*%
X145759981Y-141702169D02*
G75*
G03*
X145760000Y-141697832I-522281J4469D01*
G01*
D35*
%TO.N,Net-(SW3-B)*%
X132461519Y-61620013D02*
G75*
G03*
X132815072Y-61473554I-19J500013D01*
G01*
X135195233Y-59300524D02*
G75*
G03*
X134841680Y-59446948I-33J-499976D01*
G01*
X126903550Y-61473556D02*
G75*
G03*
X127257107Y-61620000I353550J353556D01*
G01*
X139092393Y-59300495D02*
G75*
G03*
X139445946Y-59154054I7J499995D01*
G01*
X126470005Y-60832893D02*
G75*
G03*
X126616446Y-61186446I499995J-7D01*
G01*
%TO.N,+5V*%
X128212392Y-54290494D02*
G75*
G03*
X128565945Y-54144054I8J499994D01*
G01*
X126769050Y-54144056D02*
G75*
G03*
X127122607Y-54290500I353550J353556D01*
G01*
%TO.N,Net-(J8-Pin_5)*%
X123363557Y-53886449D02*
G75*
G03*
X123510000Y-53532893I-353557J353549D01*
G01*
%TO.N,Net-(U3-GPIO2)*%
X128616444Y-57916050D02*
G75*
G03*
X128470000Y-58269607I353556J-353550D01*
G01*
D36*
%TO.N,Net-(J4-Pin_1)*%
X157876443Y-57613551D02*
G75*
G03*
X157730000Y-57967107I353557J-353549D01*
G01*
D35*
%TO.N,Net-(J9-Pin_2)*%
X122407107Y-57010005D02*
G75*
G03*
X122053553Y-57156447I-7J-499995D01*
G01*
D36*
X132469995Y-73967107D02*
G75*
G03*
X132323554Y-73613554I-499995J7D01*
G01*
X121297005Y-62379893D02*
G75*
G03*
X121443447Y-62733447I499995J-7D01*
G01*
X120416551Y-57766557D02*
G75*
G03*
X120770107Y-57913000I353549J353557D01*
G01*
X119720005Y-56862893D02*
G75*
G03*
X119866447Y-57216447I499995J-7D01*
G01*
X119719995Y-52617107D02*
G75*
G03*
X119573554Y-52263554I-499995J7D01*
G01*
D35*
%TO.N,Net-(J8-Pin_3)*%
X118470005Y-56532893D02*
G75*
G03*
X118616446Y-56886446I499995J-7D01*
G01*
X120469995Y-58947107D02*
G75*
G03*
X120323553Y-58593553I-499995J7D01*
G01*
%TO.N,Net-(J8-Pin_6)*%
X121009988Y-53316317D02*
G75*
G03*
X120863553Y-52962763I-499988J17D01*
G01*
X129911655Y-49932449D02*
G75*
G03*
X129558103Y-49786000I-353555J-353551D01*
G01*
X119583498Y-51475603D02*
G75*
G03*
X119729946Y-51829156I500002J3D01*
G01*
X149036450Y-55486444D02*
G75*
G03*
X148682893Y-55340000I-353550J-353556D01*
G01*
X135172756Y-55193562D02*
G75*
G03*
X135526317Y-55340000I353544J353562D01*
G01*
X120621107Y-49786005D02*
G75*
G03*
X120267554Y-49932446I-7J-499995D01*
G01*
X119729944Y-50470050D02*
G75*
G03*
X119583500Y-50823607I353556J-353550D01*
G01*
%TO.N,Net-(J8-Pin_5)*%
X121010000Y-56240000D02*
X123363554Y-53886446D01*
X123510000Y-53532893D02*
X123510000Y-52932500D01*
X122956893Y-52586500D02*
X121053607Y-52586500D01*
X123510000Y-52932500D02*
X123310446Y-52732946D01*
D36*
%TO.N,+3V3*%
X121010000Y-51160000D02*
X126707500Y-51160000D01*
X126707500Y-51160000D02*
X126710000Y-51162500D01*
D37*
%TO.N,+5V*%
X127372100Y-55807114D02*
G75*
G03*
X128079214Y-56100000I707100J707114D01*
G01*
X144645801Y-56685773D02*
G75*
G03*
X143231573Y-56100000I-1414201J-1414227D01*
G01*
X144645787Y-56685787D02*
X148400000Y-60440000D01*
X128079214Y-56100000D02*
X143231573Y-56100000D01*
X126715000Y-55150000D02*
X127372107Y-55807107D01*
D35*
%TO.N,Net-(J8-Pin_5)*%
X152926500Y-59942817D02*
X152926500Y-66789393D01*
X148931237Y-55740447D02*
X152780054Y-59589264D01*
X153072947Y-67142947D02*
X153990000Y-68060000D01*
X135421107Y-55594000D02*
X148577683Y-55594000D01*
X129806447Y-50186447D02*
X135067554Y-55447554D01*
X119983947Y-50611326D02*
X120408827Y-50186446D01*
X119837500Y-51370393D02*
X119837500Y-50964880D01*
X120700053Y-52440053D02*
X119983946Y-51723946D01*
X120762380Y-50040000D02*
X129452893Y-50040000D01*
%TO.N,Net-(J8-Pin_6)*%
X120621107Y-49786000D02*
X129558103Y-49786000D01*
X129911657Y-49932447D02*
X135172764Y-55193554D01*
X119729947Y-50470053D02*
X120267554Y-49932446D01*
X119583500Y-51475603D02*
X119583500Y-50823607D01*
X120863553Y-52962763D02*
X119729946Y-51829156D01*
X149036447Y-55486447D02*
X153990000Y-60440000D01*
X135526317Y-55340000D02*
X148682893Y-55340000D01*
X121010000Y-53700000D02*
X121010000Y-53316317D01*
%TO.N,Net-(J10-Pin_2)*%
X134232947Y-49632947D02*
X135200000Y-50600000D01*
X118700607Y-49486500D02*
X133879393Y-49486500D01*
X117502947Y-50477053D02*
X118347054Y-49632946D01*
X117356500Y-52814290D02*
X117356500Y-50830607D01*
X116076447Y-55144343D02*
X116956054Y-54264736D01*
X117248947Y-52921843D02*
X117356500Y-52814290D01*
X115930000Y-56240000D02*
X115930000Y-55497897D01*
%TO.N,Net-(J8-Pin_4)*%
X117502947Y-55346263D02*
X118323554Y-54525656D01*
X118470000Y-54172103D02*
X118470000Y-53700000D01*
X118470000Y-59490000D02*
X117502946Y-58522946D01*
X117356500Y-58169393D02*
X117356500Y-55699817D01*
%TO.N,Net-(J10-Pin_2)*%
X117102500Y-53911183D02*
X117102500Y-53275397D01*
D38*
%TO.N,+5V*%
X148284200Y-72794228D02*
G75*
G03*
X149698427Y-73380000I1414200J1414228D01*
G01*
X144980020Y-68661573D02*
G75*
G03*
X145565788Y-70075786I1999980J-27D01*
G01*
X149698427Y-73380000D02*
X151450000Y-73380000D01*
X145565787Y-70075787D02*
X148284214Y-72794214D01*
X144980000Y-63330000D02*
X144980000Y-68661573D01*
D36*
%TO.N,/PTR*%
X152105786Y-76919990D02*
G75*
G03*
X152812893Y-76627107I14J999990D01*
G01*
X153697114Y-75742900D02*
G75*
G03*
X153990000Y-75035786I-707114J707100D01*
G01*
X153990000Y-75035786D02*
X153990000Y-73380000D01*
X152812893Y-76627107D02*
X153697107Y-75742893D01*
X146052893Y-77927107D02*
X146767107Y-77212893D01*
X145760000Y-86105786D02*
X145760000Y-78634214D01*
X146697107Y-87457107D02*
X146052893Y-86812893D01*
X146990000Y-95295786D02*
X146990000Y-88164214D01*
X146052893Y-96647107D02*
X146697107Y-96002893D01*
X145740000Y-144005786D02*
X145759981Y-141702169D01*
X147474214Y-76920010D02*
G75*
G03*
X146767107Y-77212893I-14J-999990D01*
G01*
X146989990Y-88164214D02*
G75*
G03*
X146697107Y-87457107I-999990J14D01*
G01*
X146052886Y-77927100D02*
G75*
G03*
X145760000Y-78634214I707114J-707100D01*
G01*
X146697114Y-96002900D02*
G75*
G03*
X146990000Y-95295786I-707114J707100D01*
G01*
X147474214Y-76920000D02*
X152105786Y-76920000D01*
X145760000Y-141697832D02*
X145760000Y-97354214D01*
X146052886Y-96647100D02*
G75*
G03*
X145760000Y-97354214I707114J-707100D01*
G01*
X145760010Y-86105786D02*
G75*
G03*
X146052893Y-86812893I999990J-14D01*
G01*
X153989990Y-72474214D02*
G75*
G03*
X153697107Y-71767107I-999990J14D01*
G01*
X151450010Y-69105786D02*
G75*
G03*
X151742893Y-69812893I999990J-14D01*
G01*
X151742893Y-69812893D02*
X153697107Y-71767107D01*
X153990000Y-72474214D02*
X153990000Y-73380000D01*
X151450000Y-68060000D02*
X151450000Y-69105786D01*
%TO.N,Net-(Q1-B)*%
X155330010Y-71765786D02*
G75*
G03*
X155622893Y-72472893I999990J-14D01*
G01*
X155330000Y-71765786D02*
X155330000Y-65204214D01*
X156530000Y-73380000D02*
X155622893Y-72472893D01*
X156530010Y-75135786D02*
G75*
G03*
X156822893Y-75842893I999990J-14D01*
G01*
X156530000Y-75135786D02*
X156530000Y-73380000D01*
%TO.N,Net-(RN1C-R3.2)*%
X159070000Y-68060000D02*
X159070000Y-73380000D01*
D35*
%TO.N,Net-(J10-Pin_3)*%
X115930000Y-53687790D02*
X115930000Y-53700000D01*
X116897053Y-52720737D02*
X115930000Y-53687790D01*
X117043500Y-50399817D02*
X117043500Y-52367183D01*
X117857263Y-49378947D02*
X117189946Y-50046264D01*
X137740000Y-50600000D02*
X136518946Y-49378946D01*
D36*
%TO.N,Net-(J10-Pin_4)*%
X117550147Y-48425500D02*
X137898393Y-48425500D01*
X138251947Y-48571947D02*
X140280000Y-50600000D01*
X116076447Y-49692093D02*
X117196594Y-48571946D01*
X115930000Y-51160000D02*
X115930000Y-50045647D01*
D35*
%TO.N,Net-(J10-Pin_3)*%
X136165393Y-49232500D02*
X118210817Y-49232500D01*
D36*
%TO.N,GND*%
X135925000Y-75360000D02*
X135930000Y-75355000D01*
X135070000Y-75360000D02*
X135925000Y-75360000D01*
%TO.N,Net-(J9-Pin_2)*%
X133383553Y-73776447D02*
X132470000Y-74690000D01*
X135930000Y-73630000D02*
X133737107Y-73630000D01*
D35*
X132470000Y-75232893D02*
X132470000Y-74690000D01*
X131925947Y-75984053D02*
X132323554Y-75586446D01*
X123986607Y-76130500D02*
X131572393Y-76130500D01*
X122470000Y-74821000D02*
X123633054Y-75984054D01*
X122470000Y-74690000D02*
X122470000Y-74821000D01*
D36*
%TO.N,GND*%
X136068553Y-75216447D02*
X135930000Y-75355000D01*
X136790000Y-75070000D02*
X136422107Y-75070000D01*
X132616447Y-57223553D02*
X132830000Y-57010000D01*
X132470000Y-57820000D02*
X132470000Y-57577107D01*
D35*
%TO.N,Net-(U3-GPIO15)*%
X130616447Y-57398553D02*
X131005000Y-57010000D01*
X130470000Y-59490000D02*
X130470000Y-57752107D01*
%TO.N,Net-(J9-Pin_2)*%
X127697500Y-57010000D02*
X127521471Y-57010000D01*
%TO.N,Net-(U3-GPIO2)*%
X128470000Y-59490000D02*
X128470000Y-58269607D01*
X128616447Y-57916053D02*
X129522500Y-57010000D01*
%TO.N,Net-(SW3-B)*%
X126323553Y-57118553D02*
X126215000Y-57010000D01*
X126470000Y-59490000D02*
X126470000Y-57472107D01*
X126470000Y-60832893D02*
X126470000Y-59490000D01*
X132461519Y-61620000D02*
X127257107Y-61620000D01*
X134841679Y-59446947D02*
X132815072Y-61473554D01*
X139092393Y-59300500D02*
X135195233Y-59300500D01*
X126903553Y-61473553D02*
X126616446Y-61186446D01*
X140290000Y-58310000D02*
X139445946Y-59154054D01*
%TO.N,Net-(SW4-B)*%
X122727107Y-76620000D02*
X138532893Y-76620000D01*
X121200947Y-77939053D02*
X122373554Y-76766446D01*
X119342607Y-78085500D02*
X120847393Y-78085500D01*
X118470000Y-77420000D02*
X118989054Y-77939054D01*
X138886447Y-76473553D02*
X140290000Y-75070000D01*
%TO.N,Net-(J9-Pin_2)*%
X122470000Y-75037893D02*
X122470000Y-74690000D01*
X120295000Y-77420000D02*
X122323554Y-75391446D01*
%TO.N,Net-(SW4-B)*%
X118470000Y-77420000D02*
X118470000Y-74690000D01*
%TO.N,Net-(J9-Pin_2)*%
X122053553Y-57156447D02*
X121297000Y-57913000D01*
X124390000Y-57010000D02*
X122407107Y-57010000D01*
%TO.N,Net-(SW4-B)*%
X140870000Y-75070000D02*
X140870000Y-67870000D01*
%TO.N,Net-(SW3-B)*%
X140870000Y-65510000D02*
X140870000Y-58310000D01*
D36*
%TO.N,GND*%
X138950000Y-58310000D02*
X137870000Y-58310000D01*
X136790000Y-58310000D02*
X137870000Y-58310000D01*
X136790000Y-65510000D02*
X137870000Y-65510000D01*
X138950000Y-65510000D02*
X137870000Y-65510000D01*
X138950000Y-67870000D02*
X137870000Y-67870000D01*
X136790000Y-67870000D02*
X137870000Y-67870000D01*
X138950000Y-75070000D02*
X137870000Y-75070000D01*
X136790000Y-75070000D02*
X137870000Y-75070000D01*
%TO.N,Net-(J9-Pin_2)*%
X132470000Y-73967107D02*
X132470000Y-74690000D01*
X121443447Y-62733447D02*
X132323554Y-73613554D01*
X121297000Y-57913000D02*
X121297000Y-62379893D01*
X120770107Y-57913000D02*
X121297000Y-57913000D01*
X119866447Y-57216447D02*
X120416554Y-57766554D01*
X119720000Y-52617107D02*
X119720000Y-56862893D01*
X118470000Y-51160000D02*
X119573554Y-52263554D01*
D35*
%TO.N,Net-(J8-Pin_3)*%
X118470000Y-56532893D02*
X118470000Y-56240000D01*
X120323553Y-58593553D02*
X118616446Y-56886446D01*
X120470000Y-59490000D02*
X120470000Y-58947107D01*
%TO.N,+5V*%
X126769053Y-54144053D02*
X126710000Y-54085000D01*
X128212392Y-54290500D02*
X127122607Y-54290500D01*
X128610000Y-54099999D02*
X128565945Y-54144054D01*
D37*
%TO.N,GND*%
X127660000Y-53437500D02*
X127660000Y-52390000D01*
X129400000Y-55150000D02*
X128440000Y-55150000D01*
%TO.N,+5V*%
X126715000Y-55150000D02*
X126715000Y-53442500D01*
%TO.N,GND*%
X125080000Y-53800000D02*
X125080000Y-52872500D01*
D36*
X132470000Y-57820000D02*
X132470000Y-59490000D01*
X132470000Y-61050000D02*
X132470000Y-59490000D01*
D35*
%TO.N,Net-(J9-Pin_2)*%
X122470000Y-74690000D02*
X122470000Y-74559000D01*
D38*
%TO.N,+5V*%
X148400000Y-60440000D02*
X151450000Y-60440000D01*
X145565787Y-61074213D02*
X145614214Y-61025786D01*
X147028427Y-60440000D02*
X148400000Y-60440000D01*
X144980000Y-63330000D02*
X144980000Y-62488427D01*
X145565773Y-61074199D02*
G75*
G03*
X144980000Y-62488427I1414227J-1414201D01*
G01*
X147028427Y-60440020D02*
G75*
G03*
X145614215Y-61025787I-27J-1999980D01*
G01*
D36*
%TO.N,/PA0*%
X127960000Y-147365786D02*
X127960000Y-146124214D01*
X126710000Y-82920000D02*
X126710000Y-144045786D01*
X129250000Y-149070000D02*
X128252893Y-148072893D01*
X127667107Y-145417107D02*
X127002893Y-144752893D01*
X126710010Y-144045786D02*
G75*
G03*
X127002893Y-144752893I999990J-14D01*
G01*
X127960010Y-147365786D02*
G75*
G03*
X128252893Y-148072893I999990J-14D01*
G01*
X127959990Y-146124214D02*
G75*
G03*
X127667107Y-145417107I-999990J14D01*
G01*
%TO.N,/PB0*%
X128957107Y-145437107D02*
X128252893Y-144732893D01*
X127960000Y-144025786D02*
X127960000Y-82044214D01*
X127667107Y-81337107D02*
X126710000Y-80380000D01*
X129250000Y-146530000D02*
X129250000Y-146144214D01*
X127959990Y-82044214D02*
G75*
G03*
X127667107Y-81337107I-999990J14D01*
G01*
X127960010Y-144025786D02*
G75*
G03*
X128252893Y-144732893I999990J-14D01*
G01*
X129249990Y-146144214D02*
G75*
G03*
X128957107Y-145437107I-999990J14D01*
G01*
%TO.N,/PA1*%
X129250000Y-82920000D02*
X129250000Y-144045786D01*
X130500000Y-147365786D02*
X130500000Y-146124214D01*
X131790000Y-149070000D02*
X130792893Y-148072893D01*
X130207107Y-145417107D02*
X129542893Y-144752893D01*
X130499990Y-146124214D02*
G75*
G03*
X130207107Y-145417107I-999990J14D01*
G01*
X129250010Y-144045786D02*
G75*
G03*
X129542893Y-144752893I999990J-14D01*
G01*
X130500010Y-147365786D02*
G75*
G03*
X130792893Y-148072893I999990J-14D01*
G01*
%TO.N,/PB1*%
X130207107Y-81337107D02*
X129250000Y-80380000D01*
X131790000Y-146530000D02*
X131790000Y-146144214D01*
X131497107Y-145437107D02*
X130792893Y-144732893D01*
X130500000Y-144025786D02*
X130500000Y-82044214D01*
X130499990Y-82044214D02*
G75*
G03*
X130207107Y-81337107I-999990J14D01*
G01*
X130500010Y-144025786D02*
G75*
G03*
X130792893Y-144732893I999990J-14D01*
G01*
X131789990Y-146144214D02*
G75*
G03*
X131497107Y-145437107I-999990J14D01*
G01*
%TO.N,/PA2*%
X134330000Y-149070000D02*
X133332893Y-148072893D01*
X131790000Y-82920000D02*
X131790000Y-144045786D01*
X132747107Y-145417107D02*
X132082893Y-144752893D01*
X133040000Y-147365786D02*
X133040000Y-146124214D01*
X133039990Y-146124214D02*
G75*
G03*
X132747107Y-145417107I-999990J14D01*
G01*
X133040010Y-147365786D02*
G75*
G03*
X133332893Y-148072893I999990J-14D01*
G01*
X131790010Y-144045786D02*
G75*
G03*
X132082893Y-144752893I999990J-14D01*
G01*
%TO.N,/PB2*%
X132747107Y-81337107D02*
X131790000Y-80380000D01*
X133040000Y-144025786D02*
X133040000Y-82044214D01*
X134037107Y-145437107D02*
X133332893Y-144732893D01*
X134330000Y-146530000D02*
X134330000Y-146144214D01*
X133039990Y-82044214D02*
G75*
G03*
X132747107Y-81337107I-999990J14D01*
G01*
X133040010Y-144025786D02*
G75*
G03*
X133332893Y-144732893I999990J-14D01*
G01*
X134329990Y-146144214D02*
G75*
G03*
X134037107Y-145437107I-999990J14D01*
G01*
%TO.N,/PA3*%
X136870000Y-149070000D02*
X135872893Y-148072893D01*
X135580000Y-147365786D02*
X135580000Y-146124214D01*
X134330000Y-82920000D02*
X134330000Y-144045786D01*
X135287107Y-145417107D02*
X134622893Y-144752893D01*
X135580010Y-147365786D02*
G75*
G03*
X135872893Y-148072893I999990J-14D01*
G01*
X135579990Y-146124214D02*
G75*
G03*
X135287107Y-145417107I-999990J14D01*
G01*
X134330010Y-144045786D02*
G75*
G03*
X134622893Y-144752893I999990J-14D01*
G01*
%TO.N,/PB3*%
X136577107Y-145437107D02*
X135872893Y-144732893D01*
X135287107Y-81337107D02*
X134330000Y-80380000D01*
X135580000Y-144025786D02*
X135580000Y-82044214D01*
X136870000Y-146530000D02*
X136870000Y-146144214D01*
X136869990Y-146144214D02*
G75*
G03*
X136577107Y-145437107I-999990J14D01*
G01*
X135580010Y-144025786D02*
G75*
G03*
X135872893Y-144732893I999990J-14D01*
G01*
X135579990Y-82044214D02*
G75*
G03*
X135287107Y-81337107I-999990J14D01*
G01*
%TO.N,/PA4*%
X138120000Y-147365786D02*
X138120000Y-146124214D01*
X136870000Y-82920000D02*
X136870000Y-144045786D01*
X137827107Y-145417107D02*
X137162893Y-144752893D01*
X139410000Y-149070000D02*
X138412893Y-148072893D01*
X138120010Y-147365786D02*
G75*
G03*
X138412893Y-148072893I999990J-14D01*
G01*
X136870010Y-144045786D02*
G75*
G03*
X137162893Y-144752893I999990J-14D01*
G01*
X138119990Y-146124214D02*
G75*
G03*
X137827107Y-145417107I-999990J14D01*
G01*
%TO.N,/PB4*%
X138120000Y-144025786D02*
X138120000Y-82044214D01*
X139410000Y-146530000D02*
X139410000Y-146144214D01*
X137827107Y-81337107D02*
X136870000Y-80380000D01*
X139117107Y-145437107D02*
X138412893Y-144732893D01*
X139409990Y-146144214D02*
G75*
G03*
X139117107Y-145437107I-999990J14D01*
G01*
X138120010Y-144025786D02*
G75*
G03*
X138412893Y-144732893I999990J-14D01*
G01*
X138119990Y-82044214D02*
G75*
G03*
X137827107Y-81337107I-999990J14D01*
G01*
%TO.N,/PA5*%
X140660000Y-147365786D02*
X140660000Y-146124214D01*
X140367107Y-145417107D02*
X139702893Y-144752893D01*
X139410000Y-82920000D02*
X139410000Y-144045786D01*
X141950000Y-149070000D02*
X140952893Y-148072893D01*
X140660010Y-147365786D02*
G75*
G03*
X140952893Y-148072893I999990J-14D01*
G01*
X139410010Y-144045786D02*
G75*
G03*
X139702893Y-144752893I999990J-14D01*
G01*
X140659990Y-146124214D02*
G75*
G03*
X140367107Y-145417107I-999990J14D01*
G01*
%TO.N,/PB5*%
X141950000Y-146530000D02*
X141950000Y-146144214D01*
X141657107Y-145437107D02*
X140952893Y-144732893D01*
X140660000Y-144025786D02*
X140660000Y-82044214D01*
X140367107Y-81337107D02*
X139410000Y-80380000D01*
X140660010Y-144025786D02*
G75*
G03*
X140952893Y-144732893I999990J-14D01*
G01*
X140659990Y-82044214D02*
G75*
G03*
X140367107Y-81337107I-999990J14D01*
G01*
X141949990Y-146144214D02*
G75*
G03*
X141657107Y-145437107I-999990J14D01*
G01*
%TO.N,/PA6*%
X142242893Y-144752893D02*
X142907107Y-145417107D01*
X144197107Y-95672893D02*
X142242893Y-97627107D01*
X141950000Y-98334214D02*
X141950000Y-144045786D01*
X143492893Y-148072893D02*
X144490000Y-149070000D01*
X141950000Y-82920000D02*
X141950000Y-90695786D01*
X144490000Y-93650000D02*
X144490000Y-94965786D01*
X143200000Y-146124214D02*
X143200000Y-147365786D01*
X142242893Y-91402893D02*
X144490000Y-93650000D01*
X143199990Y-146124214D02*
G75*
G03*
X142907107Y-145417107I-999990J14D01*
G01*
X142242886Y-97627100D02*
G75*
G03*
X141950000Y-98334214I707114J-707100D01*
G01*
X143200010Y-147365786D02*
G75*
G03*
X143492893Y-148072893I999990J-14D01*
G01*
X141950010Y-90695786D02*
G75*
G03*
X142242893Y-91402893I999990J-14D01*
G01*
X144197114Y-95672900D02*
G75*
G03*
X144490000Y-94965786I-707114J707100D01*
G01*
X141950039Y-144045786D02*
G75*
G03*
X142242893Y-144752893I1000061J-14D01*
G01*
%TO.N,/PB7*%
X148280000Y-144025786D02*
X148280000Y-82044214D01*
X149570000Y-146530000D02*
X149570000Y-146144214D01*
X147987107Y-81337107D02*
X147030000Y-80380000D01*
X149277107Y-145437107D02*
X148572893Y-144732893D01*
X149569990Y-146144214D02*
G75*
G03*
X149277107Y-145437107I-999990J14D01*
G01*
X148280010Y-144025786D02*
G75*
G03*
X148572893Y-144732893I999990J-14D01*
G01*
X148279990Y-82044214D02*
G75*
G03*
X147987107Y-81337107I-999990J14D01*
G01*
%TO.N,/PA7*%
X147030000Y-149070000D02*
X146032893Y-148072893D01*
X144490000Y-97224214D02*
X144490000Y-144045786D01*
X144490000Y-91110000D02*
X144490000Y-82920000D01*
X145447107Y-145417107D02*
X144782893Y-144752893D01*
X145980000Y-94905786D02*
X145980000Y-93014214D01*
X145687107Y-92307107D02*
X144490000Y-91110000D01*
X145740000Y-147365786D02*
X145740000Y-146124214D01*
X144782893Y-96517107D02*
X145687107Y-95612893D01*
X145739990Y-146124214D02*
G75*
G03*
X145447107Y-145417107I-999990J14D01*
G01*
X145979990Y-93014214D02*
G75*
G03*
X145687107Y-92307107I-999990J14D01*
G01*
X144782886Y-96517100D02*
G75*
G03*
X144490000Y-97224214I707114J-707100D01*
G01*
X144490010Y-144045786D02*
G75*
G03*
X144782893Y-144752893I999990J-14D01*
G01*
X145687114Y-95612900D02*
G75*
G03*
X145980000Y-94905786I-707114J707100D01*
G01*
X145740010Y-147365786D02*
G75*
G03*
X146032893Y-148072893I999990J-14D01*
G01*
%TO.N,/COLA*%
X144490000Y-146530000D02*
X144490000Y-146144214D01*
X143200000Y-144005786D02*
X143220000Y-141700000D01*
X144197107Y-145437107D02*
X143492893Y-144732893D01*
X143200010Y-144025786D02*
G75*
G03*
X143492893Y-144732893I999990J-14D01*
G01*
X144489990Y-146144214D02*
G75*
G03*
X144197107Y-145437107I-999990J14D01*
G01*
%TO.N,/ROW3*%
X150820000Y-147405786D02*
X150820000Y-141700000D01*
X149570000Y-149070000D02*
X150527107Y-148112893D01*
X150527114Y-148112900D02*
G75*
G03*
X150820000Y-147405786I-707114J707100D01*
G01*
%TO.N,/PTR*%
X146737107Y-145437107D02*
X146032893Y-144732893D01*
%TO.N,+5V*%
X151400000Y-73380000D02*
X151430000Y-73350000D01*
%TO.N,/PTR*%
X147030000Y-146530000D02*
X147030000Y-146144214D01*
X145740010Y-144025786D02*
G75*
G03*
X146032893Y-144732893I999990J-14D01*
G01*
X147029990Y-146144214D02*
G75*
G03*
X146737107Y-145437107I-999990J14D01*
G01*
%TO.N,Net-(Q1-B)*%
X159517107Y-78537107D02*
X156822893Y-75842893D01*
X155622893Y-64497107D02*
X156237107Y-63882893D01*
X165610000Y-78830000D02*
X160224214Y-78830000D01*
X156530000Y-63175786D02*
X156530000Y-60440000D01*
X155622886Y-64497100D02*
G75*
G03*
X155330000Y-65204214I707114J-707100D01*
G01*
X156237114Y-63882900D02*
G75*
G03*
X156530000Y-63175786I-707114J707100D01*
G01*
X159517100Y-78537114D02*
G75*
G03*
X160224214Y-78830000I707100J707114D01*
G01*
%TO.N,Net-(J4-Pin_1)*%
X171120000Y-77230000D02*
X169414214Y-77230000D01*
X157730000Y-57967107D02*
X157730000Y-73322843D01*
X159007157Y-74600000D02*
X165055786Y-74600000D01*
X168707107Y-76937107D02*
X166982893Y-75212893D01*
X157900000Y-57590000D02*
X157876446Y-57613554D01*
X166690000Y-74505786D02*
X166690000Y-73380000D01*
X165762893Y-74307107D02*
X166690000Y-73380000D01*
X158022893Y-74029950D02*
X158300050Y-74307107D01*
X166670000Y-73410000D02*
X166640000Y-73380000D01*
X168707100Y-76937114D02*
G75*
G03*
X169414214Y-77230000I707100J707114D01*
G01*
X165055786Y-74599990D02*
G75*
G03*
X165762893Y-74307107I14J999990D01*
G01*
X158300072Y-74307085D02*
G75*
G03*
X159007157Y-74600000I707128J707085D01*
G01*
X157729970Y-73322843D02*
G75*
G03*
X158022894Y-74029949I1000030J43D01*
G01*
X166690010Y-74505786D02*
G75*
G03*
X166982893Y-75212893I999990J-14D01*
G01*
%TO.N,Net-(RN1C-R3.2)*%
X159070000Y-65764214D02*
X159070000Y-68060000D01*
X160270000Y-55374214D02*
X160270000Y-63735786D01*
X159977107Y-64442893D02*
X159362893Y-65057107D01*
X157900000Y-52590000D02*
X159977107Y-54667107D01*
X159362886Y-65057100D02*
G75*
G03*
X159070000Y-65764214I707114J-707100D01*
G01*
X159977114Y-64442900D02*
G75*
G03*
X160270000Y-63735786I-707114J707100D01*
G01*
X160269990Y-55374214D02*
G75*
G03*
X159977107Y-54667107I-999990J14D01*
G01*
%TO.N,/PTR*%
X153940000Y-73380000D02*
X153970000Y-73350000D01*
%TO.N,Net-(RN1E-R5.2)*%
X163192893Y-64112893D02*
X163857107Y-64777107D01*
X164150000Y-68060000D02*
X164150000Y-73380000D01*
X164150000Y-65484214D02*
X164150000Y-68060000D01*
X162900000Y-55090000D02*
X162900000Y-63405786D01*
X162900000Y-55090000D02*
X162880000Y-55110000D01*
X164149990Y-65484214D02*
G75*
G03*
X163857107Y-64777107I-999990J14D01*
G01*
X162900010Y-63405786D02*
G75*
G03*
X163192893Y-64112893I999990J-14D01*
G01*
%TO.N,Net-(RN1D-R4.2)*%
X165400000Y-52590000D02*
X163869670Y-52590000D01*
X161902893Y-66255837D02*
X162517107Y-66870051D01*
X161525000Y-60355000D02*
X161610000Y-60440000D01*
X163162563Y-52882893D02*
X161817893Y-54227563D01*
X161525000Y-54934670D02*
X161525000Y-60355000D01*
X161610000Y-72304214D02*
X161610000Y-73380000D01*
X162810000Y-67577158D02*
X162810000Y-70275786D01*
X161610000Y-60440000D02*
X161610000Y-65548730D01*
X162517107Y-70982893D02*
X161902893Y-71597107D01*
X161609979Y-65548730D02*
G75*
G03*
X161902893Y-66255837I1000021J30D01*
G01*
X162517114Y-70982900D02*
G75*
G03*
X162810000Y-70275786I-707114J707100D01*
G01*
X161817908Y-54227578D02*
G75*
G03*
X161525000Y-54934670I707092J-707122D01*
G01*
X161902886Y-71597100D02*
G75*
G03*
X161610000Y-72304214I707114J-707100D01*
G01*
X163869670Y-52589979D02*
G75*
G03*
X163162563Y-52882893I30J-1000021D01*
G01*
X162810030Y-67577158D02*
G75*
G03*
X162517107Y-66870051I-1000030J-42D01*
G01*
%TO.N,/KBD*%
X152402893Y-98037107D02*
X159152107Y-91287893D01*
X165610000Y-80100000D02*
X159737893Y-85972107D01*
X152110000Y-98744214D02*
X152110000Y-146530000D01*
X152110000Y-149070000D02*
X152110000Y-146530000D01*
X159445000Y-90580786D02*
X159445000Y-86679214D01*
X152402886Y-98037100D02*
G75*
G03*
X152110000Y-98744214I707114J-707100D01*
G01*
X159737886Y-85972100D02*
G75*
G03*
X159445000Y-86679214I707114J-707100D01*
G01*
X159152114Y-91287900D02*
G75*
G03*
X159445000Y-90580786I-707114J707100D01*
G01*
%TD*%
M02*
