%TF.GenerationSoftware,KiCad,Pcbnew,7.0.11*%
%TF.CreationDate,2024-10-03T18:10:16+02:00*%
%TF.ProjectId,kim-1-aux-card-esp,6b696d2d-312d-4617-9578-2d636172642d,rev?*%
%TF.SameCoordinates,Original*%
%TF.FileFunction,Copper,L2,Bot*%
%TF.FilePolarity,Positive*%
%FSLAX46Y46*%
G04 Gerber Fmt 4.6, Leading zero omitted, Abs format (unit mm)*
G04 Created by KiCad (PCBNEW 7.0.11) date 2024-10-03 18:10:16*
%MOMM*%
%LPD*%
G01*
G04 APERTURE LIST*
G04 Aperture macros list*
%AMRoundRect*
0 Rectangle with rounded corners*
0 $1 Rounding radius*
0 $2 $3 $4 $5 $6 $7 $8 $9 X,Y pos of 4 corners*
0 Add a 4 corners polygon primitive as box body*
4,1,4,$2,$3,$4,$5,$6,$7,$8,$9,$2,$3,0*
0 Add four circle primitives for the rounded corners*
1,1,$1+$1,$2,$3*
1,1,$1+$1,$4,$5*
1,1,$1+$1,$6,$7*
1,1,$1+$1,$8,$9*
0 Add four rect primitives between the rounded corners*
20,1,$1+$1,$2,$3,$4,$5,0*
20,1,$1+$1,$4,$5,$6,$7,0*
20,1,$1+$1,$6,$7,$8,$9,0*
20,1,$1+$1,$8,$9,$2,$3,0*%
G04 Aperture macros list end*
%TA.AperFunction,ComponentPad*%
%ADD10O,1.600000X1.600000*%
%TD*%
%TA.AperFunction,ComponentPad*%
%ADD11R,1.600000X1.600000*%
%TD*%
%TA.AperFunction,ComponentPad*%
%ADD12C,1.600000*%
%TD*%
%TA.AperFunction,ComponentPad*%
%ADD13R,1.700000X1.700000*%
%TD*%
%TA.AperFunction,ComponentPad*%
%ADD14O,1.700000X1.700000*%
%TD*%
%TA.AperFunction,ComponentPad*%
%ADD15R,1.500000X1.050000*%
%TD*%
%TA.AperFunction,ComponentPad*%
%ADD16O,1.500000X1.050000*%
%TD*%
%TA.AperFunction,ComponentPad*%
%ADD17O,1.600000X2.400000*%
%TD*%
%TA.AperFunction,ComponentPad*%
%ADD18R,1.600000X2.400000*%
%TD*%
%TA.AperFunction,ComponentPad*%
%ADD19RoundRect,0.250000X0.600000X-0.600000X0.600000X0.600000X-0.600000X0.600000X-0.600000X-0.600000X0*%
%TD*%
%TA.AperFunction,ComponentPad*%
%ADD20C,1.700000*%
%TD*%
%TA.AperFunction,ComponentPad*%
%ADD21R,1.950000X1.950000*%
%TD*%
%TA.AperFunction,ComponentPad*%
%ADD22C,1.950000*%
%TD*%
%TA.AperFunction,ViaPad*%
%ADD23C,0.500000*%
%TD*%
%TA.AperFunction,ViaPad*%
%ADD24C,0.600000*%
%TD*%
%TA.AperFunction,Conductor*%
%ADD25C,0.400000*%
%TD*%
G04 APERTURE END LIST*
D10*
%TO.P,RN1,7,R6.2*%
%TO.N,Net-(J4-Pin_1)*%
X166690000Y-73380000D03*
%TO.P,RN1,6,R5.2*%
%TO.N,Net-(RN1E-R5.2)*%
X164150000Y-73380000D03*
%TO.P,RN1,5,R4.2*%
%TO.N,Net-(RN1D-R4.2)*%
X161610000Y-73380000D03*
%TO.P,RN1,4,R3.2*%
%TO.N,Net-(RN1C-R3.2)*%
X159070000Y-73380000D03*
%TO.P,RN1,3,R2.2*%
%TO.N,Net-(Q1-B)*%
X156530000Y-73380000D03*
%TO.P,RN1,2,R1.2*%
%TO.N,/PTR*%
X153990000Y-73380000D03*
D11*
%TO.P,RN1,1,R1*%
%TO.N,+5V*%
X151450000Y-73380000D03*
%TD*%
D12*
%TO.P,C1,1*%
%TO.N,+5V*%
X148400000Y-60440000D03*
%TO.P,C1,2*%
%TO.N,GND*%
X148400000Y-65440000D03*
%TD*%
D13*
%TO.P,J9,1,Pin_1*%
%TO.N,Net-(J10-Pin_4)*%
X115930000Y-51160000D03*
D14*
%TO.P,J9,2,Pin_2*%
%TO.N,Net-(J9-Pin_2)*%
X118470000Y-51160000D03*
%TO.P,J9,3,Pin_3*%
%TO.N,+3V3*%
X121010000Y-51160000D03*
%TD*%
%TO.P,J10,4,Pin_4*%
%TO.N,Net-(J10-Pin_4)*%
X140280000Y-50600000D03*
%TO.P,J10,3,Pin_3*%
%TO.N,Net-(J10-Pin_3)*%
X137740000Y-50600000D03*
%TO.P,J10,2,Pin_2*%
%TO.N,Net-(J10-Pin_2)*%
X135200000Y-50600000D03*
D13*
%TO.P,J10,1,Pin_1*%
%TO.N,GND*%
X132660000Y-50600000D03*
%TD*%
D15*
%TO.P,Q1,1,E*%
%TO.N,GND*%
X165610000Y-77560000D03*
D16*
%TO.P,Q1,2,B*%
%TO.N,Net-(Q1-B)*%
X165610000Y-78830000D03*
%TO.P,Q1,3,C*%
%TO.N,/KBD*%
X165610000Y-80100000D03*
%TD*%
D17*
%TO.P,U1,14,VCC*%
%TO.N,+5V*%
X151450000Y-60440000D03*
%TO.P,U1,13*%
%TO.N,Net-(J8-Pin_6)*%
X153990000Y-60440000D03*
%TO.P,U1,12*%
%TO.N,Net-(Q1-B)*%
X156530000Y-60440000D03*
%TO.P,U1,11*%
%TO.N,/PA5*%
X159070000Y-60440000D03*
%TO.P,U1,10*%
%TO.N,Net-(RN1D-R4.2)*%
X161610000Y-60440000D03*
%TO.P,U1,9*%
%TO.N,GND*%
X164150000Y-60440000D03*
%TO.P,U1,8*%
%TO.N,unconnected-(U1-Pad8)*%
X166690000Y-60440000D03*
%TO.P,U1,7,GND*%
%TO.N,GND*%
X166690000Y-68060000D03*
%TO.P,U1,6*%
%TO.N,Net-(RN1E-R5.2)*%
X164150000Y-68060000D03*
%TO.P,U1,5*%
%TO.N,/PA4*%
X161610000Y-68060000D03*
%TO.P,U1,4*%
%TO.N,Net-(RN1C-R3.2)*%
X159070000Y-68060000D03*
%TO.P,U1,3*%
%TO.N,/PA3*%
X156530000Y-68060000D03*
%TO.P,U1,2*%
%TO.N,Net-(J8-Pin_5)*%
X153990000Y-68060000D03*
D18*
%TO.P,U1,1*%
%TO.N,/PTR*%
X151450000Y-68060000D03*
%TD*%
D11*
%TO.P,SW1,1*%
%TO.N,/ROW3*%
X150820000Y-141700000D03*
D10*
%TO.P,SW1,2*%
%TO.N,/COLA*%
X143200000Y-141700000D03*
%TD*%
D19*
%TO.P,J2,1,Pin_1*%
%TO.N,/PA0*%
X126710000Y-82920000D03*
D20*
%TO.P,J2,2,Pin_2*%
%TO.N,/PB0*%
X126710000Y-80380000D03*
%TO.P,J2,3,Pin_3*%
%TO.N,/PA1*%
X129250000Y-82920000D03*
%TO.P,J2,4,Pin_4*%
%TO.N,/PB1*%
X129250000Y-80380000D03*
%TO.P,J2,5,Pin_5*%
%TO.N,/PA2*%
X131790000Y-82920000D03*
%TO.P,J2,6,Pin_6*%
%TO.N,/PB2*%
X131790000Y-80380000D03*
%TO.P,J2,7,Pin_7*%
%TO.N,/PA3*%
X134330000Y-82920000D03*
%TO.P,J2,8,Pin_8*%
%TO.N,/PB3*%
X134330000Y-80380000D03*
%TO.P,J2,9,Pin_9*%
%TO.N,/PA4*%
X136870000Y-82920000D03*
%TO.P,J2,10,Pin_10*%
%TO.N,/PB4*%
X136870000Y-80380000D03*
%TO.P,J2,11,Pin_11*%
%TO.N,/PA5*%
X139410000Y-82920000D03*
%TO.P,J2,12,Pin_12*%
%TO.N,/PB5*%
X139410000Y-80380000D03*
%TO.P,J2,13,Pin_13*%
%TO.N,/PA6*%
X141950000Y-82920000D03*
%TO.P,J2,14,Pin_14*%
%TO.N,unconnected-(J2-Pin_14-Pad14)*%
X141950000Y-80380000D03*
%TO.P,J2,15,Pin_15*%
%TO.N,/PA7*%
X144490000Y-82920000D03*
%TO.P,J2,16,Pin_16*%
%TO.N,unconnected-(J2-Pin_16-Pad16)*%
X144490000Y-80380000D03*
%TO.P,J2,17,Pin_17*%
%TO.N,unconnected-(J2-Pin_17-Pad17)*%
X147030000Y-82920000D03*
%TO.P,J2,18,Pin_18*%
%TO.N,/PB7*%
X147030000Y-80380000D03*
%TO.P,J2,19,Pin_19*%
%TO.N,unconnected-(J2-Pin_19-Pad19)*%
X149570000Y-82920000D03*
%TO.P,J2,20,Pin_20*%
%TO.N,unconnected-(J2-Pin_20-Pad20)*%
X149570000Y-80380000D03*
%TO.P,J2,21,Pin_21*%
%TO.N,unconnected-(J2-Pin_21-Pad21)*%
X152110000Y-82920000D03*
%TO.P,J2,22,Pin_22*%
%TO.N,unconnected-(J2-Pin_22-Pad22)*%
X152110000Y-80380000D03*
%TO.P,J2,23,Pin_23*%
%TO.N,unconnected-(J2-Pin_23-Pad23)*%
X154650000Y-82920000D03*
%TO.P,J2,24,Pin_24*%
%TO.N,unconnected-(J2-Pin_24-Pad24)*%
X154650000Y-80380000D03*
%TO.P,J2,25,Pin_25*%
%TO.N,GND*%
X157190000Y-82920000D03*
%TO.P,J2,26,Pin_26*%
X157190000Y-80380000D03*
%TD*%
D10*
%TO.P,SW2,4*%
%TO.N,Net-(RN1D-R4.2)*%
X152110000Y-91110000D03*
%TO.P,SW2,3*%
%TO.N,Net-(RN1E-R5.2)*%
X152110000Y-93650000D03*
%TO.P,SW2,2*%
%TO.N,/PA6*%
X144490000Y-93650000D03*
D11*
%TO.P,SW2,1*%
%TO.N,/PA7*%
X144490000Y-91110000D03*
%TD*%
D14*
%TO.P,J8,6,Pin_6*%
%TO.N,Net-(J8-Pin_6)*%
X121010000Y-53700000D03*
%TO.P,J8,5,Pin_5*%
%TO.N,Net-(J8-Pin_5)*%
X121010000Y-56240000D03*
%TO.P,J8,4,Pin_4*%
%TO.N,Net-(J8-Pin_4)*%
X118470000Y-53700000D03*
%TO.P,J8,3,Pin_3*%
%TO.N,Net-(J8-Pin_3)*%
X118470000Y-56240000D03*
%TO.P,J8,2,Pin_2*%
%TO.N,Net-(J10-Pin_3)*%
X115930000Y-53700000D03*
D13*
%TO.P,J8,1,Pin_1*%
%TO.N,Net-(J10-Pin_2)*%
X115930000Y-56240000D03*
%TD*%
D21*
%TO.P,J3,1*%
%TO.N,unconnected-(J3-Pad1)*%
X150400000Y-52590000D03*
D22*
%TO.P,J3,2*%
%TO.N,GND*%
X152900000Y-55090000D03*
%TO.P,J3,3*%
%TO.N,Net-(RN1C-R3.2)*%
X157900000Y-52590000D03*
%TO.P,J3,4*%
%TO.N,Net-(RN1E-R5.2)*%
X162900000Y-55090000D03*
%TO.P,J3,5*%
%TO.N,Net-(RN1D-R4.2)*%
X165400000Y-52590000D03*
%TO.P,J3,6*%
%TO.N,Net-(J4-Pin_1)*%
X157900000Y-57590000D03*
%TO.P,J3,E1*%
%TO.N,GND*%
X162900000Y-42590000D03*
X160400000Y-42590000D03*
%TO.P,J3,E2*%
X155400000Y-42590000D03*
X152900000Y-42590000D03*
%TD*%
D13*
%TO.P,J5,1,Pin_1*%
%TO.N,GND*%
X171120000Y-73380000D03*
%TD*%
%TO.P,J1,1,Pin_1*%
%TO.N,/PA0*%
X129250000Y-149070000D03*
D14*
%TO.P,J1,2,Pin_2*%
%TO.N,/PB0*%
X129250000Y-146530000D03*
%TO.P,J1,3,Pin_3*%
%TO.N,/PA1*%
X131790000Y-149070000D03*
%TO.P,J1,4,Pin_4*%
%TO.N,/PB1*%
X131790000Y-146530000D03*
%TO.P,J1,5,Pin_5*%
%TO.N,/PA2*%
X134330000Y-149070000D03*
%TO.P,J1,6,Pin_6*%
%TO.N,/PB2*%
X134330000Y-146530000D03*
%TO.P,J1,7,Pin_7*%
%TO.N,/PA3*%
X136870000Y-149070000D03*
%TO.P,J1,8,Pin_8*%
%TO.N,/PB3*%
X136870000Y-146530000D03*
%TO.P,J1,9,Pin_9*%
%TO.N,/PA4*%
X139410000Y-149070000D03*
%TO.P,J1,10,Pin_10*%
%TO.N,/PB4*%
X139410000Y-146530000D03*
%TO.P,J1,11,Pin_11*%
%TO.N,/PA5*%
X141950000Y-149070000D03*
%TO.P,J1,12,Pin_12*%
%TO.N,/PB5*%
X141950000Y-146530000D03*
%TO.P,J1,13,Pin_13*%
%TO.N,/PA6*%
X144490000Y-149070000D03*
%TO.P,J1,14,Pin_14*%
%TO.N,/COLA*%
X144490000Y-146530000D03*
%TO.P,J1,15,Pin_15*%
%TO.N,/PA7*%
X147030000Y-149070000D03*
%TO.P,J1,16,Pin_16*%
%TO.N,/PTR*%
X147030000Y-146530000D03*
%TO.P,J1,17,Pin_17*%
%TO.N,/ROW3*%
X149570000Y-149070000D03*
%TO.P,J1,18,Pin_18*%
%TO.N,/PB7*%
X149570000Y-146530000D03*
%TO.P,J1,19,Pin_19*%
%TO.N,/KBD*%
X152110000Y-149070000D03*
%TO.P,J1,20,Pin_20*%
X152110000Y-146530000D03*
%TO.P,J1,21,Pin_21*%
%TO.N,GND*%
X154650000Y-149070000D03*
%TO.P,J1,22,Pin_22*%
X154650000Y-146530000D03*
%TD*%
D13*
%TO.P,J6,1,Pin_1*%
%TO.N,+5V*%
X144980000Y-63330000D03*
%TD*%
%TO.P,J4,1,Pin_1*%
%TO.N,Net-(J4-Pin_1)*%
X171120000Y-77230000D03*
%TD*%
D23*
%TO.N,GND*%
X135070000Y-75360000D03*
X136790000Y-75070000D03*
X138950000Y-75070000D03*
X136790000Y-67870000D03*
X138950000Y-67870000D03*
X136790000Y-65510000D03*
X138950000Y-65510000D03*
X138950000Y-58310000D03*
X136790000Y-58310000D03*
D24*
X127660000Y-52390000D03*
X129400000Y-55150000D03*
X125080000Y-53800000D03*
D23*
X132470000Y-61050000D03*
X132470000Y-57820000D03*
%TD*%
D25*
%TO.N,/PA3*%
X133372893Y-79569340D02*
X133609340Y-79332893D01*
X136922893Y-78747107D02*
X143247107Y-72422893D01*
X134330000Y-82920000D02*
X133372893Y-81962893D01*
X134316447Y-79040000D02*
X136215786Y-79040000D01*
X152752893Y-71837107D02*
X156530000Y-68060000D01*
X133080000Y-81255786D02*
X133080000Y-80276447D01*
X143954214Y-72130000D02*
X152045786Y-72130000D01*
X133080010Y-81255786D02*
G75*
G03*
X133372893Y-81962893I999990J-14D01*
G01*
X143954214Y-72130010D02*
G75*
G03*
X143247107Y-72422893I-14J-999990D01*
G01*
X152045786Y-72129990D02*
G75*
G03*
X152752893Y-71837107I14J999990D01*
G01*
X134316447Y-79040033D02*
G75*
G03*
X133609340Y-79332893I-47J-999967D01*
G01*
X133372870Y-79569317D02*
G75*
G03*
X133080000Y-80276447I707130J-707083D01*
G01*
X136215786Y-79039990D02*
G75*
G03*
X136922893Y-78747107I14J999990D01*
G01*
%TO.N,/PA4*%
X159977107Y-74822893D02*
X159632893Y-75167107D01*
X158925786Y-75460000D02*
X144764214Y-75460000D01*
X139483553Y-84200000D02*
X138564214Y-84200000D01*
X161610000Y-68060000D02*
X161610000Y-69995786D01*
X140660000Y-79564214D02*
X140660000Y-83023553D01*
X140367107Y-83730660D02*
X140190660Y-83907107D01*
X144057107Y-75752893D02*
X140952893Y-78857107D01*
X160270000Y-72164214D02*
X160270000Y-74115786D01*
X137857107Y-83907107D02*
X136870000Y-82920000D01*
X161317107Y-70702893D02*
X160562893Y-71457107D01*
X140367130Y-83730683D02*
G75*
G03*
X140660000Y-83023553I-707130J707083D01*
G01*
X158925786Y-75459990D02*
G75*
G03*
X159632893Y-75167107I14J999990D01*
G01*
X139483553Y-84199967D02*
G75*
G03*
X140190660Y-83907107I47J999967D01*
G01*
X159977114Y-74822900D02*
G75*
G03*
X160270000Y-74115786I-707114J707100D01*
G01*
X137857100Y-83907114D02*
G75*
G03*
X138564214Y-84200000I707100J707114D01*
G01*
X161317114Y-70702900D02*
G75*
G03*
X161610000Y-69995786I-707114J707100D01*
G01*
X144764214Y-75460010D02*
G75*
G03*
X144057107Y-75752893I-14J-999990D01*
G01*
X140952886Y-78857100D02*
G75*
G03*
X140660000Y-79564214I707114J-707100D01*
G01*
X160562886Y-71457100D02*
G75*
G03*
X160270000Y-72164214I707114J-707100D01*
G01*
%TO.N,/PA5*%
X138452893Y-81962893D02*
X139410000Y-82920000D01*
X159070000Y-60440000D02*
X160270000Y-61640000D01*
X159977107Y-70242893D02*
X158162893Y-72057107D01*
X138160000Y-79974214D02*
X138160000Y-81255786D01*
X157577107Y-74272893D02*
X157502893Y-74347107D01*
X156795786Y-74640000D02*
X143494214Y-74640000D01*
X160270000Y-61640000D02*
X160270000Y-69535786D01*
X142787107Y-74932893D02*
X138452893Y-79267107D01*
X157870000Y-72764214D02*
X157870000Y-73565786D01*
X143494214Y-74640010D02*
G75*
G03*
X142787107Y-74932893I-14J-999990D01*
G01*
X158162886Y-72057100D02*
G75*
G03*
X157870000Y-72764214I707114J-707100D01*
G01*
X138452886Y-79267100D02*
G75*
G03*
X138160000Y-79974214I707114J-707100D01*
G01*
X159977114Y-70242900D02*
G75*
G03*
X160270000Y-69535786I-707114J707100D01*
G01*
X138160010Y-81255786D02*
G75*
G03*
X138452893Y-81962893I999990J-14D01*
G01*
X156795786Y-74639990D02*
G75*
G03*
X157502893Y-74347107I14J999990D01*
G01*
X157577114Y-74272900D02*
G75*
G03*
X157870000Y-73565786I-707114J707100D01*
G01*
%TO.N,Net-(RN1E-R5.2)*%
X152110000Y-93650000D02*
X153145786Y-93650000D01*
X153852893Y-93357107D02*
X163857107Y-83352893D01*
X164150000Y-82645786D02*
X164150000Y-73380000D01*
X153145786Y-93649990D02*
G75*
G03*
X153852893Y-93357107I14J999990D01*
G01*
X163857114Y-83352900D02*
G75*
G03*
X164150000Y-82645786I-707114J707100D01*
G01*
%TO.N,Net-(RN1D-R4.2)*%
X161610000Y-82195786D02*
X161610000Y-73380000D01*
X153402893Y-90817107D02*
X161317107Y-82902893D01*
X152110000Y-91110000D02*
X152695786Y-91110000D01*
X161317114Y-82902900D02*
G75*
G03*
X161610000Y-82195786I-707114J707100D01*
G01*
X152695786Y-91109990D02*
G75*
G03*
X153402893Y-90817107I14J999990D01*
G01*
%TD*%
%TA.AperFunction,Conductor*%
%TO.N,GND*%
G36*
X154900000Y-148634498D02*
G01*
X154792315Y-148585320D01*
X154685763Y-148570000D01*
X154614237Y-148570000D01*
X154507685Y-148585320D01*
X154400000Y-148634498D01*
X154400000Y-146965501D01*
X154507685Y-147014680D01*
X154614237Y-147030000D01*
X154685763Y-147030000D01*
X154792315Y-147014680D01*
X154900000Y-146965501D01*
X154900000Y-148634498D01*
G37*
%TD.AperFunction*%
%TA.AperFunction,Conductor*%
G36*
X171123243Y-40090669D02*
G01*
X171253379Y-40097490D01*
X171433908Y-40107628D01*
X171446309Y-40108955D01*
X171594990Y-40132504D01*
X171596245Y-40132709D01*
X171755324Y-40159738D01*
X171766606Y-40162202D01*
X171915635Y-40202134D01*
X171917761Y-40202725D01*
X172069174Y-40246347D01*
X172079260Y-40249729D01*
X172224710Y-40305562D01*
X172227599Y-40306714D01*
X172371768Y-40366430D01*
X172380594Y-40370500D01*
X172520064Y-40441565D01*
X172523748Y-40443521D01*
X172613848Y-40493316D01*
X172659548Y-40518574D01*
X172667061Y-40523081D01*
X172798754Y-40608604D01*
X172802947Y-40611452D01*
X172929147Y-40700996D01*
X172935428Y-40705759D01*
X173057567Y-40804665D01*
X173062158Y-40808571D01*
X173177424Y-40911579D01*
X173182478Y-40916358D01*
X173293640Y-41027520D01*
X173298419Y-41032574D01*
X173401427Y-41147840D01*
X173405333Y-41152431D01*
X173504239Y-41274570D01*
X173509002Y-41280851D01*
X173598546Y-41407051D01*
X173601409Y-41411266D01*
X173686907Y-41542921D01*
X173691430Y-41550460D01*
X173766477Y-41686250D01*
X173768433Y-41689934D01*
X173839498Y-41829404D01*
X173843575Y-41838247D01*
X173903259Y-41982337D01*
X173904462Y-41985353D01*
X173960265Y-42130727D01*
X173963655Y-42140836D01*
X174007258Y-42292185D01*
X174007879Y-42294419D01*
X174047791Y-42443370D01*
X174050264Y-42454694D01*
X174077282Y-42613715D01*
X174077507Y-42615087D01*
X174101040Y-42763666D01*
X174102372Y-42776111D01*
X174112498Y-42956421D01*
X174112523Y-42956884D01*
X174119330Y-43086756D01*
X174119500Y-43093246D01*
X174119500Y-82766753D01*
X174119330Y-82773243D01*
X174112523Y-82903114D01*
X174112498Y-82903577D01*
X174102372Y-83083887D01*
X174101040Y-83096332D01*
X174077507Y-83244911D01*
X174077282Y-83246283D01*
X174050264Y-83405304D01*
X174047791Y-83416628D01*
X174007879Y-83565579D01*
X174007258Y-83567813D01*
X173963655Y-83719162D01*
X173960265Y-83729271D01*
X173904462Y-83874645D01*
X173903259Y-83877661D01*
X173843575Y-84021751D01*
X173839498Y-84030594D01*
X173768433Y-84170064D01*
X173766477Y-84173748D01*
X173691430Y-84309538D01*
X173686897Y-84317094D01*
X173601412Y-84448728D01*
X173598546Y-84452947D01*
X173509002Y-84579147D01*
X173504239Y-84585428D01*
X173405333Y-84707567D01*
X173401427Y-84712158D01*
X173298419Y-84827424D01*
X173293640Y-84832478D01*
X173182478Y-84943640D01*
X173177424Y-84948419D01*
X173062158Y-85051427D01*
X173057567Y-85055333D01*
X172935428Y-85154239D01*
X172929147Y-85159002D01*
X172802947Y-85248546D01*
X172798728Y-85251412D01*
X172667094Y-85336897D01*
X172659538Y-85341430D01*
X172523748Y-85416477D01*
X172520064Y-85418433D01*
X172380594Y-85489498D01*
X172371751Y-85493575D01*
X172227661Y-85553259D01*
X172224645Y-85554462D01*
X172079271Y-85610265D01*
X172069162Y-85613655D01*
X171917813Y-85657258D01*
X171915579Y-85657879D01*
X171766628Y-85697791D01*
X171755304Y-85700264D01*
X171596283Y-85727282D01*
X171594911Y-85727507D01*
X171446332Y-85751040D01*
X171433887Y-85752372D01*
X171253577Y-85762498D01*
X171253114Y-85762523D01*
X171123243Y-85769330D01*
X171116753Y-85769500D01*
X165410500Y-85769500D01*
X165410000Y-85769500D01*
X165252750Y-85769500D01*
X164939974Y-85802374D01*
X164939970Y-85802374D01*
X164939968Y-85802375D01*
X164632352Y-85867760D01*
X164632350Y-85867761D01*
X164333248Y-85964944D01*
X164045931Y-86092866D01*
X164045924Y-86092869D01*
X163773571Y-86250112D01*
X163773566Y-86250115D01*
X163519139Y-86434967D01*
X163519130Y-86434974D01*
X163285414Y-86645414D01*
X163074974Y-86879130D01*
X163074967Y-86879139D01*
X162890115Y-87133566D01*
X162890112Y-87133571D01*
X162732869Y-87405924D01*
X162732866Y-87405931D01*
X162604944Y-87693248D01*
X162507761Y-87992350D01*
X162507760Y-87992352D01*
X162442375Y-88299968D01*
X162409500Y-88612754D01*
X162409500Y-147796753D01*
X162409330Y-147803243D01*
X162402523Y-147933114D01*
X162402498Y-147933577D01*
X162392372Y-148113887D01*
X162391040Y-148126332D01*
X162367507Y-148274911D01*
X162367282Y-148276283D01*
X162340264Y-148435304D01*
X162337791Y-148446628D01*
X162297879Y-148595579D01*
X162297258Y-148597813D01*
X162253655Y-148749162D01*
X162250265Y-148759271D01*
X162194462Y-148904645D01*
X162193259Y-148907661D01*
X162133575Y-149051751D01*
X162129498Y-149060594D01*
X162058433Y-149200064D01*
X162056477Y-149203748D01*
X161981430Y-149339538D01*
X161976897Y-149347094D01*
X161891412Y-149478728D01*
X161888546Y-149482947D01*
X161799002Y-149609147D01*
X161794239Y-149615428D01*
X161695333Y-149737567D01*
X161691427Y-149742158D01*
X161588419Y-149857424D01*
X161583640Y-149862478D01*
X161472478Y-149973640D01*
X161467424Y-149978419D01*
X161352158Y-150081427D01*
X161347567Y-150085333D01*
X161225428Y-150184239D01*
X161219147Y-150189002D01*
X161092947Y-150278546D01*
X161088728Y-150281412D01*
X160957094Y-150366897D01*
X160949538Y-150371430D01*
X160813748Y-150446477D01*
X160810064Y-150448433D01*
X160670594Y-150519498D01*
X160661751Y-150523575D01*
X160517661Y-150583259D01*
X160514645Y-150584462D01*
X160369271Y-150640265D01*
X160359162Y-150643655D01*
X160207813Y-150687258D01*
X160205579Y-150687879D01*
X160056628Y-150727791D01*
X160045304Y-150730264D01*
X159886283Y-150757282D01*
X159884911Y-150757507D01*
X159736332Y-150781040D01*
X159723887Y-150782372D01*
X159543577Y-150792498D01*
X159543114Y-150792523D01*
X159413243Y-150799330D01*
X159406753Y-150799500D01*
X124493247Y-150799500D01*
X124486757Y-150799330D01*
X124356884Y-150792523D01*
X124356421Y-150792498D01*
X124176111Y-150782372D01*
X124163666Y-150781040D01*
X124015087Y-150757507D01*
X124013715Y-150757282D01*
X123854694Y-150730264D01*
X123843370Y-150727791D01*
X123694419Y-150687879D01*
X123692185Y-150687258D01*
X123540836Y-150643655D01*
X123530727Y-150640265D01*
X123385353Y-150584462D01*
X123382337Y-150583259D01*
X123238247Y-150523575D01*
X123229404Y-150519498D01*
X123089934Y-150448433D01*
X123086250Y-150446477D01*
X122950460Y-150371430D01*
X122942921Y-150366907D01*
X122811266Y-150281409D01*
X122807051Y-150278546D01*
X122680851Y-150189002D01*
X122674570Y-150184239D01*
X122552431Y-150085333D01*
X122547840Y-150081427D01*
X122432574Y-149978419D01*
X122427520Y-149973640D01*
X122386438Y-149932558D01*
X128272500Y-149932558D01*
X128279898Y-149969749D01*
X128308077Y-150011922D01*
X128350250Y-150040101D01*
X128350252Y-150040102D01*
X128378205Y-150045662D01*
X128387441Y-150047500D01*
X128387442Y-150047500D01*
X130112559Y-150047500D01*
X130119957Y-150046028D01*
X130149748Y-150040102D01*
X130191922Y-150011922D01*
X130220102Y-149969748D01*
X130227500Y-149932558D01*
X130227500Y-149070000D01*
X130807770Y-149070000D01*
X130826643Y-149261626D01*
X130882538Y-149445884D01*
X130973302Y-149615692D01*
X130973306Y-149615699D01*
X131095458Y-149764541D01*
X131244300Y-149886693D01*
X131244307Y-149886697D01*
X131414115Y-149977461D01*
X131414117Y-149977462D01*
X131598376Y-150033357D01*
X131790000Y-150052230D01*
X131981624Y-150033357D01*
X132165883Y-149977462D01*
X132335698Y-149886694D01*
X132484541Y-149764541D01*
X132606694Y-149615698D01*
X132697462Y-149445883D01*
X132753357Y-149261624D01*
X132772230Y-149070000D01*
X133347770Y-149070000D01*
X133366643Y-149261626D01*
X133422538Y-149445884D01*
X133513302Y-149615692D01*
X133513306Y-149615699D01*
X133635458Y-149764541D01*
X133784300Y-149886693D01*
X133784307Y-149886697D01*
X133954115Y-149977461D01*
X133954117Y-149977462D01*
X134138376Y-150033357D01*
X134330000Y-150052230D01*
X134521624Y-150033357D01*
X134705883Y-149977462D01*
X134875698Y-149886694D01*
X135024541Y-149764541D01*
X135146694Y-149615698D01*
X135237462Y-149445883D01*
X135293357Y-149261624D01*
X135312230Y-149070000D01*
X135887770Y-149070000D01*
X135906643Y-149261626D01*
X135962538Y-149445884D01*
X136053302Y-149615692D01*
X136053306Y-149615699D01*
X136175458Y-149764541D01*
X136324300Y-149886693D01*
X136324307Y-149886697D01*
X136494115Y-149977461D01*
X136494117Y-149977462D01*
X136678376Y-150033357D01*
X136870000Y-150052230D01*
X137061624Y-150033357D01*
X137245883Y-149977462D01*
X137415698Y-149886694D01*
X137564541Y-149764541D01*
X137686694Y-149615698D01*
X137777462Y-149445883D01*
X137833357Y-149261624D01*
X137852230Y-149070000D01*
X138427770Y-149070000D01*
X138446643Y-149261626D01*
X138502538Y-149445884D01*
X138593302Y-149615692D01*
X138593306Y-149615699D01*
X138715458Y-149764541D01*
X138864300Y-149886693D01*
X138864307Y-149886697D01*
X139034115Y-149977461D01*
X139034117Y-149977462D01*
X139218376Y-150033357D01*
X139410000Y-150052230D01*
X139601624Y-150033357D01*
X139785883Y-149977462D01*
X139955698Y-149886694D01*
X140104541Y-149764541D01*
X140226694Y-149615698D01*
X140317462Y-149445883D01*
X140373357Y-149261624D01*
X140392230Y-149070000D01*
X140967770Y-149070000D01*
X140986643Y-149261626D01*
X141042538Y-149445884D01*
X141133302Y-149615692D01*
X141133306Y-149615699D01*
X141255458Y-149764541D01*
X141404300Y-149886693D01*
X141404307Y-149886697D01*
X141574115Y-149977461D01*
X141574117Y-149977462D01*
X141758376Y-150033357D01*
X141950000Y-150052230D01*
X142141624Y-150033357D01*
X142325883Y-149977462D01*
X142495698Y-149886694D01*
X142644541Y-149764541D01*
X142766694Y-149615698D01*
X142857462Y-149445883D01*
X142913357Y-149261624D01*
X142932230Y-149070000D01*
X143507770Y-149070000D01*
X143526643Y-149261626D01*
X143582538Y-149445884D01*
X143673302Y-149615692D01*
X143673306Y-149615699D01*
X143795458Y-149764541D01*
X143944300Y-149886693D01*
X143944307Y-149886697D01*
X144114115Y-149977461D01*
X144114117Y-149977462D01*
X144298376Y-150033357D01*
X144490000Y-150052230D01*
X144681624Y-150033357D01*
X144865883Y-149977462D01*
X145035698Y-149886694D01*
X145184541Y-149764541D01*
X145306694Y-149615698D01*
X145397462Y-149445883D01*
X145453357Y-149261624D01*
X145472230Y-149070000D01*
X146047770Y-149070000D01*
X146066643Y-149261626D01*
X146122538Y-149445884D01*
X146213302Y-149615692D01*
X146213306Y-149615699D01*
X146335458Y-149764541D01*
X146484300Y-149886693D01*
X146484307Y-149886697D01*
X146654115Y-149977461D01*
X146654117Y-149977462D01*
X146838376Y-150033357D01*
X147030000Y-150052230D01*
X147221624Y-150033357D01*
X147405883Y-149977462D01*
X147575698Y-149886694D01*
X147724541Y-149764541D01*
X147846694Y-149615698D01*
X147937462Y-149445883D01*
X147993357Y-149261624D01*
X148012230Y-149070000D01*
X148587770Y-149070000D01*
X148606643Y-149261626D01*
X148662538Y-149445884D01*
X148753302Y-149615692D01*
X148753306Y-149615699D01*
X148875458Y-149764541D01*
X149024300Y-149886693D01*
X149024307Y-149886697D01*
X149194115Y-149977461D01*
X149194117Y-149977462D01*
X149378376Y-150033357D01*
X149570000Y-150052230D01*
X149761624Y-150033357D01*
X149945883Y-149977462D01*
X150115698Y-149886694D01*
X150264541Y-149764541D01*
X150386694Y-149615698D01*
X150477462Y-149445883D01*
X150533357Y-149261624D01*
X150552230Y-149070000D01*
X151127770Y-149070000D01*
X151146643Y-149261626D01*
X151202538Y-149445884D01*
X151293302Y-149615692D01*
X151293306Y-149615699D01*
X151415458Y-149764541D01*
X151564300Y-149886693D01*
X151564307Y-149886697D01*
X151734115Y-149977461D01*
X151734117Y-149977462D01*
X151918376Y-150033357D01*
X152110000Y-150052230D01*
X152301624Y-150033357D01*
X152485883Y-149977462D01*
X152655698Y-149886694D01*
X152804541Y-149764541D01*
X152926694Y-149615698D01*
X153017462Y-149445883D01*
X153072012Y-149266056D01*
X153110308Y-149207621D01*
X153174120Y-149179165D01*
X153243187Y-149189725D01*
X153295581Y-149235949D01*
X153314199Y-149291242D01*
X153315431Y-149305318D01*
X153315432Y-149305326D01*
X153376566Y-149533483D01*
X153376570Y-149533492D01*
X153476399Y-149747578D01*
X153611894Y-149941082D01*
X153778917Y-150108105D01*
X153972421Y-150243600D01*
X154186507Y-150343429D01*
X154186516Y-150343433D01*
X154400000Y-150400634D01*
X154400000Y-149505501D01*
X154507685Y-149554680D01*
X154614237Y-149570000D01*
X154685763Y-149570000D01*
X154792315Y-149554680D01*
X154900000Y-149505501D01*
X154900000Y-150400633D01*
X155113483Y-150343433D01*
X155113492Y-150343429D01*
X155327578Y-150243600D01*
X155521082Y-150108105D01*
X155688105Y-149941082D01*
X155823600Y-149747578D01*
X155923429Y-149533492D01*
X155923432Y-149533486D01*
X155980636Y-149320000D01*
X155083686Y-149320000D01*
X155109493Y-149279844D01*
X155150000Y-149141889D01*
X155150000Y-148998111D01*
X155109493Y-148860156D01*
X155083686Y-148820000D01*
X155980636Y-148820000D01*
X155980635Y-148819999D01*
X155923432Y-148606513D01*
X155923429Y-148606507D01*
X155823600Y-148392422D01*
X155823599Y-148392420D01*
X155688113Y-148198926D01*
X155688108Y-148198920D01*
X155521082Y-148031894D01*
X155334968Y-147901575D01*
X155291344Y-147846998D01*
X155284151Y-147777499D01*
X155315673Y-147715145D01*
X155334968Y-147698425D01*
X155521082Y-147568105D01*
X155688105Y-147401082D01*
X155823600Y-147207578D01*
X155923429Y-146993492D01*
X155923432Y-146993486D01*
X155980636Y-146780000D01*
X155083686Y-146780000D01*
X155109493Y-146739844D01*
X155150000Y-146601889D01*
X155150000Y-146458111D01*
X155109493Y-146320156D01*
X155083686Y-146280000D01*
X155980636Y-146280000D01*
X155980635Y-146279999D01*
X155923432Y-146066513D01*
X155923429Y-146066507D01*
X155823600Y-145852422D01*
X155823599Y-145852420D01*
X155688113Y-145658926D01*
X155688108Y-145658920D01*
X155521082Y-145491894D01*
X155327578Y-145356399D01*
X155113492Y-145256570D01*
X155113486Y-145256567D01*
X154900000Y-145199364D01*
X154900000Y-146094498D01*
X154792315Y-146045320D01*
X154685763Y-146030000D01*
X154614237Y-146030000D01*
X154507685Y-146045320D01*
X154400000Y-146094498D01*
X154400000Y-145199364D01*
X154399999Y-145199364D01*
X154186513Y-145256567D01*
X154186507Y-145256570D01*
X153972422Y-145356399D01*
X153972420Y-145356400D01*
X153778926Y-145491886D01*
X153778920Y-145491891D01*
X153611891Y-145658920D01*
X153611886Y-145658926D01*
X153476400Y-145852420D01*
X153476399Y-145852422D01*
X153376570Y-146066507D01*
X153376566Y-146066516D01*
X153315432Y-146294673D01*
X153315431Y-146294681D01*
X153314199Y-146308757D01*
X153288743Y-146373825D01*
X153232150Y-146414801D01*
X153162388Y-146418675D01*
X153101605Y-146384219D01*
X153072012Y-146333942D01*
X153017462Y-146154117D01*
X153017460Y-146154114D01*
X153017460Y-146154112D01*
X152926697Y-145984307D01*
X152926693Y-145984300D01*
X152804541Y-145835458D01*
X152655699Y-145713306D01*
X152655692Y-145713302D01*
X152485884Y-145622538D01*
X152301626Y-145566643D01*
X152110000Y-145547770D01*
X151918373Y-145566643D01*
X151734115Y-145622538D01*
X151564307Y-145713302D01*
X151564300Y-145713306D01*
X151415458Y-145835458D01*
X151293306Y-145984300D01*
X151293302Y-145984307D01*
X151202538Y-146154115D01*
X151146643Y-146338373D01*
X151127770Y-146530000D01*
X151146643Y-146721626D01*
X151202538Y-146905884D01*
X151293302Y-147075692D01*
X151293306Y-147075699D01*
X151415458Y-147224541D01*
X151564300Y-147346693D01*
X151564307Y-147346697D01*
X151734115Y-147437461D01*
X151734117Y-147437462D01*
X151918376Y-147493357D01*
X152110000Y-147512230D01*
X152301624Y-147493357D01*
X152485883Y-147437462D01*
X152655698Y-147346694D01*
X152804541Y-147224541D01*
X152926694Y-147075698D01*
X153017462Y-146905883D01*
X153072012Y-146726056D01*
X153110308Y-146667621D01*
X153174120Y-146639165D01*
X153243187Y-146649725D01*
X153295581Y-146695949D01*
X153314199Y-146751242D01*
X153315431Y-146765318D01*
X153315432Y-146765326D01*
X153376566Y-146993483D01*
X153376570Y-146993492D01*
X153476399Y-147207578D01*
X153611894Y-147401082D01*
X153778917Y-147568105D01*
X153965031Y-147698425D01*
X154008656Y-147753003D01*
X154015848Y-147822501D01*
X153984326Y-147884856D01*
X153965031Y-147901575D01*
X153778922Y-148031890D01*
X153778920Y-148031891D01*
X153611891Y-148198920D01*
X153611886Y-148198926D01*
X153476400Y-148392420D01*
X153476399Y-148392422D01*
X153376570Y-148606507D01*
X153376566Y-148606516D01*
X153315432Y-148834673D01*
X153315431Y-148834681D01*
X153314199Y-148848757D01*
X153288743Y-148913825D01*
X153232150Y-148954801D01*
X153162388Y-148958675D01*
X153101605Y-148924219D01*
X153072012Y-148873942D01*
X153017462Y-148694117D01*
X153017460Y-148694114D01*
X153017460Y-148694112D01*
X152926697Y-148524307D01*
X152926693Y-148524300D01*
X152804541Y-148375458D01*
X152655699Y-148253306D01*
X152655692Y-148253302D01*
X152485884Y-148162538D01*
X152301626Y-148106643D01*
X152110000Y-148087770D01*
X151918373Y-148106643D01*
X151734115Y-148162538D01*
X151564307Y-148253302D01*
X151564300Y-148253306D01*
X151415458Y-148375458D01*
X151293306Y-148524300D01*
X151293302Y-148524307D01*
X151202538Y-148694115D01*
X151146643Y-148878373D01*
X151127770Y-149070000D01*
X150552230Y-149070000D01*
X150533357Y-148878376D01*
X150477462Y-148694117D01*
X150430637Y-148606513D01*
X150386697Y-148524307D01*
X150386693Y-148524300D01*
X150264541Y-148375458D01*
X150115699Y-148253306D01*
X150115692Y-148253302D01*
X149945884Y-148162538D01*
X149761626Y-148106643D01*
X149570000Y-148087770D01*
X149378373Y-148106643D01*
X149194115Y-148162538D01*
X149024307Y-148253302D01*
X149024300Y-148253306D01*
X148875458Y-148375458D01*
X148753306Y-148524300D01*
X148753302Y-148524307D01*
X148662538Y-148694115D01*
X148606643Y-148878373D01*
X148587770Y-149070000D01*
X148012230Y-149070000D01*
X147993357Y-148878376D01*
X147937462Y-148694117D01*
X147890637Y-148606513D01*
X147846697Y-148524307D01*
X147846693Y-148524300D01*
X147724541Y-148375458D01*
X147575699Y-148253306D01*
X147575692Y-148253302D01*
X147405884Y-148162538D01*
X147221626Y-148106643D01*
X147030000Y-148087770D01*
X146838373Y-148106643D01*
X146654115Y-148162538D01*
X146484307Y-148253302D01*
X146484300Y-148253306D01*
X146335458Y-148375458D01*
X146213306Y-148524300D01*
X146213302Y-148524307D01*
X146122538Y-148694115D01*
X146066643Y-148878373D01*
X146047770Y-149070000D01*
X145472230Y-149070000D01*
X145453357Y-148878376D01*
X145397462Y-148694117D01*
X145350637Y-148606513D01*
X145306697Y-148524307D01*
X145306693Y-148524300D01*
X145184541Y-148375458D01*
X145035699Y-148253306D01*
X145035692Y-148253302D01*
X144865884Y-148162538D01*
X144681626Y-148106643D01*
X144490000Y-148087770D01*
X144298373Y-148106643D01*
X144114115Y-148162538D01*
X143944307Y-148253302D01*
X143944300Y-148253306D01*
X143795458Y-148375458D01*
X143673306Y-148524300D01*
X143673302Y-148524307D01*
X143582538Y-148694115D01*
X143526643Y-148878373D01*
X143507770Y-149070000D01*
X142932230Y-149070000D01*
X142913357Y-148878376D01*
X142857462Y-148694117D01*
X142810637Y-148606513D01*
X142766697Y-148524307D01*
X142766693Y-148524300D01*
X142644541Y-148375458D01*
X142495699Y-148253306D01*
X142495692Y-148253302D01*
X142325884Y-148162538D01*
X142141626Y-148106643D01*
X141950000Y-148087770D01*
X141758373Y-148106643D01*
X141574115Y-148162538D01*
X141404307Y-148253302D01*
X141404300Y-148253306D01*
X141255458Y-148375458D01*
X141133306Y-148524300D01*
X141133302Y-148524307D01*
X141042538Y-148694115D01*
X140986643Y-148878373D01*
X140967770Y-149070000D01*
X140392230Y-149070000D01*
X140373357Y-148878376D01*
X140317462Y-148694117D01*
X140270637Y-148606513D01*
X140226697Y-148524307D01*
X140226693Y-148524300D01*
X140104541Y-148375458D01*
X139955699Y-148253306D01*
X139955692Y-148253302D01*
X139785884Y-148162538D01*
X139601626Y-148106643D01*
X139410000Y-148087770D01*
X139218373Y-148106643D01*
X139034115Y-148162538D01*
X138864307Y-148253302D01*
X138864300Y-148253306D01*
X138715458Y-148375458D01*
X138593306Y-148524300D01*
X138593302Y-148524307D01*
X138502538Y-148694115D01*
X138446643Y-148878373D01*
X138427770Y-149070000D01*
X137852230Y-149070000D01*
X137833357Y-148878376D01*
X137777462Y-148694117D01*
X137730637Y-148606513D01*
X137686697Y-148524307D01*
X137686693Y-148524300D01*
X137564541Y-148375458D01*
X137415699Y-148253306D01*
X137415692Y-148253302D01*
X137245884Y-148162538D01*
X137061626Y-148106643D01*
X136870000Y-148087770D01*
X136678373Y-148106643D01*
X136494115Y-148162538D01*
X136324307Y-148253302D01*
X136324300Y-148253306D01*
X136175458Y-148375458D01*
X136053306Y-148524300D01*
X136053302Y-148524307D01*
X135962538Y-148694115D01*
X135906643Y-148878373D01*
X135887770Y-149070000D01*
X135312230Y-149070000D01*
X135293357Y-148878376D01*
X135237462Y-148694117D01*
X135190637Y-148606513D01*
X135146697Y-148524307D01*
X135146693Y-148524300D01*
X135024541Y-148375458D01*
X134875699Y-148253306D01*
X134875692Y-148253302D01*
X134705884Y-148162538D01*
X134521626Y-148106643D01*
X134330000Y-148087770D01*
X134138373Y-148106643D01*
X133954115Y-148162538D01*
X133784307Y-148253302D01*
X133784300Y-148253306D01*
X133635458Y-148375458D01*
X133513306Y-148524300D01*
X133513302Y-148524307D01*
X133422538Y-148694115D01*
X133366643Y-148878373D01*
X133347770Y-149070000D01*
X132772230Y-149070000D01*
X132753357Y-148878376D01*
X132697462Y-148694117D01*
X132650637Y-148606513D01*
X132606697Y-148524307D01*
X132606693Y-148524300D01*
X132484541Y-148375458D01*
X132335699Y-148253306D01*
X132335692Y-148253302D01*
X132165884Y-148162538D01*
X131981626Y-148106643D01*
X131790000Y-148087770D01*
X131598373Y-148106643D01*
X131414115Y-148162538D01*
X131244307Y-148253302D01*
X131244300Y-148253306D01*
X131095458Y-148375458D01*
X130973306Y-148524300D01*
X130973302Y-148524307D01*
X130882538Y-148694115D01*
X130826643Y-148878373D01*
X130807770Y-149070000D01*
X130227500Y-149070000D01*
X130227500Y-148207442D01*
X130220102Y-148170252D01*
X130214948Y-148162538D01*
X130191922Y-148128077D01*
X130149749Y-148099898D01*
X130112559Y-148092500D01*
X130112558Y-148092500D01*
X128387442Y-148092500D01*
X128387441Y-148092500D01*
X128350250Y-148099898D01*
X128308077Y-148128077D01*
X128279898Y-148170250D01*
X128272500Y-148207441D01*
X128272500Y-149932558D01*
X122386438Y-149932558D01*
X122316358Y-149862478D01*
X122311579Y-149857424D01*
X122208571Y-149742158D01*
X122204665Y-149737567D01*
X122105978Y-149615699D01*
X122105757Y-149615426D01*
X122100996Y-149609147D01*
X122011452Y-149482947D01*
X122008604Y-149478754D01*
X121923081Y-149347061D01*
X121918568Y-149339538D01*
X121843521Y-149203748D01*
X121841565Y-149200064D01*
X121770500Y-149060594D01*
X121766430Y-149051768D01*
X121706714Y-148907599D01*
X121705562Y-148904710D01*
X121649729Y-148759260D01*
X121646347Y-148749174D01*
X121602725Y-148597761D01*
X121602134Y-148595635D01*
X121562202Y-148446606D01*
X121559738Y-148435324D01*
X121532709Y-148276245D01*
X121532491Y-148274911D01*
X121508955Y-148126309D01*
X121507628Y-148113908D01*
X121497485Y-147933285D01*
X121497476Y-147933114D01*
X121490670Y-147803243D01*
X121490500Y-147796754D01*
X121490500Y-146530000D01*
X128267770Y-146530000D01*
X128286643Y-146721626D01*
X128342538Y-146905884D01*
X128433302Y-147075692D01*
X128433306Y-147075699D01*
X128555458Y-147224541D01*
X128704300Y-147346693D01*
X128704307Y-147346697D01*
X128874115Y-147437461D01*
X128874117Y-147437462D01*
X129058376Y-147493357D01*
X129250000Y-147512230D01*
X129441624Y-147493357D01*
X129625883Y-147437462D01*
X129795698Y-147346694D01*
X129944541Y-147224541D01*
X130066694Y-147075698D01*
X130157462Y-146905883D01*
X130213357Y-146721624D01*
X130232230Y-146530000D01*
X130807770Y-146530000D01*
X130826643Y-146721626D01*
X130882538Y-146905884D01*
X130973302Y-147075692D01*
X130973306Y-147075699D01*
X131095458Y-147224541D01*
X131244300Y-147346693D01*
X131244307Y-147346697D01*
X131414115Y-147437461D01*
X131414117Y-147437462D01*
X131598376Y-147493357D01*
X131790000Y-147512230D01*
X131981624Y-147493357D01*
X132165883Y-147437462D01*
X132335698Y-147346694D01*
X132484541Y-147224541D01*
X132606694Y-147075698D01*
X132697462Y-146905883D01*
X132753357Y-146721624D01*
X132772230Y-146530000D01*
X133347770Y-146530000D01*
X133366643Y-146721626D01*
X133422538Y-146905884D01*
X133513302Y-147075692D01*
X133513306Y-147075699D01*
X133635458Y-147224541D01*
X133784300Y-147346693D01*
X133784307Y-147346697D01*
X133954115Y-147437461D01*
X133954117Y-147437462D01*
X134138376Y-147493357D01*
X134330000Y-147512230D01*
X134521624Y-147493357D01*
X134705883Y-147437462D01*
X134875698Y-147346694D01*
X135024541Y-147224541D01*
X135146694Y-147075698D01*
X135237462Y-146905883D01*
X135293357Y-146721624D01*
X135312230Y-146530000D01*
X135887770Y-146530000D01*
X135906643Y-146721626D01*
X135962538Y-146905884D01*
X136053302Y-147075692D01*
X136053306Y-147075699D01*
X136175458Y-147224541D01*
X136324300Y-147346693D01*
X136324307Y-147346697D01*
X136494115Y-147437461D01*
X136494117Y-147437462D01*
X136678376Y-147493357D01*
X136870000Y-147512230D01*
X137061624Y-147493357D01*
X137245883Y-147437462D01*
X137415698Y-147346694D01*
X137564541Y-147224541D01*
X137686694Y-147075698D01*
X137777462Y-146905883D01*
X137833357Y-146721624D01*
X137852230Y-146530000D01*
X138427770Y-146530000D01*
X138446643Y-146721626D01*
X138502538Y-146905884D01*
X138593302Y-147075692D01*
X138593306Y-147075699D01*
X138715458Y-147224541D01*
X138864300Y-147346693D01*
X138864307Y-147346697D01*
X139034115Y-147437461D01*
X139034117Y-147437462D01*
X139218376Y-147493357D01*
X139410000Y-147512230D01*
X139601624Y-147493357D01*
X139785883Y-147437462D01*
X139955698Y-147346694D01*
X140104541Y-147224541D01*
X140226694Y-147075698D01*
X140317462Y-146905883D01*
X140373357Y-146721624D01*
X140392230Y-146530000D01*
X140967770Y-146530000D01*
X140986643Y-146721626D01*
X141042538Y-146905884D01*
X141133302Y-147075692D01*
X141133306Y-147075699D01*
X141255458Y-147224541D01*
X141404300Y-147346693D01*
X141404307Y-147346697D01*
X141574115Y-147437461D01*
X141574117Y-147437462D01*
X141758376Y-147493357D01*
X141950000Y-147512230D01*
X142141624Y-147493357D01*
X142325883Y-147437462D01*
X142495698Y-147346694D01*
X142644541Y-147224541D01*
X142766694Y-147075698D01*
X142857462Y-146905883D01*
X142913357Y-146721624D01*
X142932230Y-146530000D01*
X143507770Y-146530000D01*
X143526643Y-146721626D01*
X143582538Y-146905884D01*
X143673302Y-147075692D01*
X143673306Y-147075699D01*
X143795458Y-147224541D01*
X143944300Y-147346693D01*
X143944307Y-147346697D01*
X144114115Y-147437461D01*
X144114117Y-147437462D01*
X144298376Y-147493357D01*
X144490000Y-147512230D01*
X144681624Y-147493357D01*
X144865883Y-147437462D01*
X145035698Y-147346694D01*
X145184541Y-147224541D01*
X145306694Y-147075698D01*
X145397462Y-146905883D01*
X145453357Y-146721624D01*
X145472230Y-146530000D01*
X146047770Y-146530000D01*
X146066643Y-146721626D01*
X146122538Y-146905884D01*
X146213302Y-147075692D01*
X146213306Y-147075699D01*
X146335458Y-147224541D01*
X146484300Y-147346693D01*
X146484307Y-147346697D01*
X146654115Y-147437461D01*
X146654117Y-147437462D01*
X146838376Y-147493357D01*
X147030000Y-147512230D01*
X147221624Y-147493357D01*
X147405883Y-147437462D01*
X147575698Y-147346694D01*
X147724541Y-147224541D01*
X147846694Y-147075698D01*
X147937462Y-146905883D01*
X147993357Y-146721624D01*
X148012230Y-146530000D01*
X148587770Y-146530000D01*
X148606643Y-146721626D01*
X148662538Y-146905884D01*
X148753302Y-147075692D01*
X148753306Y-147075699D01*
X148875458Y-147224541D01*
X149024300Y-147346693D01*
X149024307Y-147346697D01*
X149194115Y-147437461D01*
X149194117Y-147437462D01*
X149378376Y-147493357D01*
X149570000Y-147512230D01*
X149761624Y-147493357D01*
X149945883Y-147437462D01*
X150115698Y-147346694D01*
X150264541Y-147224541D01*
X150386694Y-147075698D01*
X150477462Y-146905883D01*
X150533357Y-146721624D01*
X150552230Y-146530000D01*
X150533357Y-146338376D01*
X150477462Y-146154117D01*
X150430637Y-146066513D01*
X150386697Y-145984307D01*
X150386693Y-145984300D01*
X150264541Y-145835458D01*
X150115699Y-145713306D01*
X150115692Y-145713302D01*
X149945884Y-145622538D01*
X149761626Y-145566643D01*
X149570000Y-145547770D01*
X149378373Y-145566643D01*
X149194115Y-145622538D01*
X149024307Y-145713302D01*
X149024300Y-145713306D01*
X148875458Y-145835458D01*
X148753306Y-145984300D01*
X148753302Y-145984307D01*
X148662538Y-146154115D01*
X148606643Y-146338373D01*
X148587770Y-146530000D01*
X148012230Y-146530000D01*
X147993357Y-146338376D01*
X147937462Y-146154117D01*
X147890637Y-146066513D01*
X147846697Y-145984307D01*
X147846693Y-145984300D01*
X147724541Y-145835458D01*
X147575699Y-145713306D01*
X147575692Y-145713302D01*
X147405884Y-145622538D01*
X147221626Y-145566643D01*
X147030000Y-145547770D01*
X146838373Y-145566643D01*
X146654115Y-145622538D01*
X146484307Y-145713302D01*
X146484300Y-145713306D01*
X146335458Y-145835458D01*
X146213306Y-145984300D01*
X146213302Y-145984307D01*
X146122538Y-146154115D01*
X146066643Y-146338373D01*
X146047770Y-146530000D01*
X145472230Y-146530000D01*
X145453357Y-146338376D01*
X145397462Y-146154117D01*
X145350637Y-146066513D01*
X145306697Y-145984307D01*
X145306693Y-145984300D01*
X145184541Y-145835458D01*
X145035699Y-145713306D01*
X145035692Y-145713302D01*
X144865884Y-145622538D01*
X144681626Y-145566643D01*
X144490000Y-145547770D01*
X144298373Y-145566643D01*
X144114115Y-145622538D01*
X143944307Y-145713302D01*
X143944300Y-145713306D01*
X143795458Y-145835458D01*
X143673306Y-145984300D01*
X143673302Y-145984307D01*
X143582538Y-146154115D01*
X143526643Y-146338373D01*
X143507770Y-146530000D01*
X142932230Y-146530000D01*
X142913357Y-146338376D01*
X142857462Y-146154117D01*
X142810637Y-146066513D01*
X142766697Y-145984307D01*
X142766693Y-145984300D01*
X142644541Y-145835458D01*
X142495699Y-145713306D01*
X142495692Y-145713302D01*
X142325884Y-145622538D01*
X142141626Y-145566643D01*
X141950000Y-145547770D01*
X141758373Y-145566643D01*
X141574115Y-145622538D01*
X141404307Y-145713302D01*
X141404300Y-145713306D01*
X141255458Y-145835458D01*
X141133306Y-145984300D01*
X141133302Y-145984307D01*
X141042538Y-146154115D01*
X140986643Y-146338373D01*
X140967770Y-146530000D01*
X140392230Y-146530000D01*
X140373357Y-146338376D01*
X140317462Y-146154117D01*
X140270637Y-146066513D01*
X140226697Y-145984307D01*
X140226693Y-145984300D01*
X140104541Y-145835458D01*
X139955699Y-145713306D01*
X139955692Y-145713302D01*
X139785884Y-145622538D01*
X139601626Y-145566643D01*
X139410000Y-145547770D01*
X139218373Y-145566643D01*
X139034115Y-145622538D01*
X138864307Y-145713302D01*
X138864300Y-145713306D01*
X138715458Y-145835458D01*
X138593306Y-145984300D01*
X138593302Y-145984307D01*
X138502538Y-146154115D01*
X138446643Y-146338373D01*
X138427770Y-146530000D01*
X137852230Y-146530000D01*
X137833357Y-146338376D01*
X137777462Y-146154117D01*
X137730637Y-146066513D01*
X137686697Y-145984307D01*
X137686693Y-145984300D01*
X137564541Y-145835458D01*
X137415699Y-145713306D01*
X137415692Y-145713302D01*
X137245884Y-145622538D01*
X137061626Y-145566643D01*
X136870000Y-145547770D01*
X136678373Y-145566643D01*
X136494115Y-145622538D01*
X136324307Y-145713302D01*
X136324300Y-145713306D01*
X136175458Y-145835458D01*
X136053306Y-145984300D01*
X136053302Y-145984307D01*
X135962538Y-146154115D01*
X135906643Y-146338373D01*
X135887770Y-146530000D01*
X135312230Y-146530000D01*
X135293357Y-146338376D01*
X135237462Y-146154117D01*
X135190637Y-146066513D01*
X135146697Y-145984307D01*
X135146693Y-145984300D01*
X135024541Y-145835458D01*
X134875699Y-145713306D01*
X134875692Y-145713302D01*
X134705884Y-145622538D01*
X134521626Y-145566643D01*
X134330000Y-145547770D01*
X134138373Y-145566643D01*
X133954115Y-145622538D01*
X133784307Y-145713302D01*
X133784300Y-145713306D01*
X133635458Y-145835458D01*
X133513306Y-145984300D01*
X133513302Y-145984307D01*
X133422538Y-146154115D01*
X133366643Y-146338373D01*
X133347770Y-146530000D01*
X132772230Y-146530000D01*
X132753357Y-146338376D01*
X132697462Y-146154117D01*
X132650637Y-146066513D01*
X132606697Y-145984307D01*
X132606693Y-145984300D01*
X132484541Y-145835458D01*
X132335699Y-145713306D01*
X132335692Y-145713302D01*
X132165884Y-145622538D01*
X131981626Y-145566643D01*
X131790000Y-145547770D01*
X131598373Y-145566643D01*
X131414115Y-145622538D01*
X131244307Y-145713302D01*
X131244300Y-145713306D01*
X131095458Y-145835458D01*
X130973306Y-145984300D01*
X130973302Y-145984307D01*
X130882538Y-146154115D01*
X130826643Y-146338373D01*
X130807770Y-146530000D01*
X130232230Y-146530000D01*
X130213357Y-146338376D01*
X130157462Y-146154117D01*
X130110637Y-146066513D01*
X130066697Y-145984307D01*
X130066693Y-145984300D01*
X129944541Y-145835458D01*
X129795699Y-145713306D01*
X129795692Y-145713302D01*
X129625884Y-145622538D01*
X129441626Y-145566643D01*
X129250000Y-145547770D01*
X129058373Y-145566643D01*
X128874115Y-145622538D01*
X128704307Y-145713302D01*
X128704300Y-145713306D01*
X128555458Y-145835458D01*
X128433306Y-145984300D01*
X128433302Y-145984307D01*
X128342538Y-146154115D01*
X128286643Y-146338373D01*
X128267770Y-146530000D01*
X121490500Y-146530000D01*
X121490500Y-141700000D01*
X142267391Y-141700000D01*
X142287771Y-141893901D01*
X142348019Y-142079328D01*
X142348020Y-142079329D01*
X142445501Y-142248172D01*
X142445503Y-142248174D01*
X142575963Y-142393064D01*
X142733695Y-142507663D01*
X142911802Y-142586962D01*
X142911808Y-142586964D01*
X143102516Y-142627500D01*
X143102517Y-142627500D01*
X143297482Y-142627500D01*
X143297484Y-142627500D01*
X143488192Y-142586964D01*
X143488194Y-142586962D01*
X143488197Y-142586962D01*
X143571778Y-142549749D01*
X143655311Y-142512558D01*
X149892500Y-142512558D01*
X149899898Y-142549749D01*
X149928077Y-142591922D01*
X149970250Y-142620101D01*
X149970252Y-142620102D01*
X149998205Y-142625662D01*
X150007441Y-142627500D01*
X150007442Y-142627500D01*
X151632559Y-142627500D01*
X151639957Y-142626028D01*
X151669748Y-142620102D01*
X151711922Y-142591922D01*
X151740102Y-142549748D01*
X151747500Y-142512558D01*
X151747500Y-140887442D01*
X151740102Y-140850252D01*
X151715235Y-140813036D01*
X151711922Y-140808077D01*
X151669749Y-140779898D01*
X151632559Y-140772500D01*
X151632558Y-140772500D01*
X150007442Y-140772500D01*
X150007441Y-140772500D01*
X149970250Y-140779898D01*
X149928077Y-140808077D01*
X149899898Y-140850250D01*
X149892500Y-140887441D01*
X149892500Y-142512558D01*
X143655311Y-142512558D01*
X143666305Y-142507663D01*
X143824037Y-142393064D01*
X143954497Y-142248174D01*
X144051981Y-142079326D01*
X144112229Y-141893900D01*
X144132609Y-141700000D01*
X144112229Y-141506100D01*
X144051981Y-141320674D01*
X144051980Y-141320673D01*
X144051980Y-141320671D01*
X144051979Y-141320670D01*
X143954498Y-141151827D01*
X143824038Y-141006937D01*
X143824035Y-141006935D01*
X143666305Y-140892337D01*
X143666304Y-140892336D01*
X143488197Y-140813037D01*
X143488191Y-140813035D01*
X143332289Y-140779898D01*
X143297484Y-140772500D01*
X143102516Y-140772500D01*
X143069086Y-140779605D01*
X142911808Y-140813035D01*
X142911803Y-140813037D01*
X142733696Y-140892336D01*
X142733691Y-140892339D01*
X142575969Y-141006930D01*
X142575963Y-141006935D01*
X142445501Y-141151827D01*
X142348020Y-141320670D01*
X142348019Y-141320671D01*
X142287771Y-141506098D01*
X142267391Y-141700000D01*
X121490500Y-141700000D01*
X121490500Y-93650000D01*
X143557391Y-93650000D01*
X143577771Y-93843901D01*
X143638019Y-94029328D01*
X143638020Y-94029329D01*
X143735501Y-94198172D01*
X143735503Y-94198174D01*
X143865963Y-94343064D01*
X144023695Y-94457663D01*
X144201802Y-94536962D01*
X144201808Y-94536964D01*
X144392516Y-94577500D01*
X144392517Y-94577500D01*
X144587482Y-94577500D01*
X144587484Y-94577500D01*
X144778192Y-94536964D01*
X144778194Y-94536962D01*
X144778197Y-94536962D01*
X144838190Y-94510251D01*
X144956305Y-94457663D01*
X145114037Y-94343064D01*
X145244497Y-94198174D01*
X145341981Y-94029326D01*
X145402229Y-93843900D01*
X145422609Y-93650000D01*
X151177391Y-93650000D01*
X151197771Y-93843901D01*
X151258019Y-94029328D01*
X151258020Y-94029329D01*
X151355501Y-94198172D01*
X151355503Y-94198174D01*
X151485963Y-94343064D01*
X151643695Y-94457663D01*
X151821802Y-94536962D01*
X151821808Y-94536964D01*
X152012516Y-94577500D01*
X152012517Y-94577500D01*
X152207482Y-94577500D01*
X152207484Y-94577500D01*
X152398192Y-94536964D01*
X152398194Y-94536962D01*
X152398197Y-94536962D01*
X152458190Y-94510251D01*
X152576305Y-94457663D01*
X152734037Y-94343064D01*
X152864497Y-94198174D01*
X152877500Y-94175651D01*
X152956108Y-94039500D01*
X153006675Y-93991284D01*
X153063495Y-93977500D01*
X153180012Y-93977500D01*
X153180224Y-93977490D01*
X153232790Y-93977491D01*
X153334724Y-93964072D01*
X153405315Y-93954780D01*
X153405316Y-93954779D01*
X153405319Y-93954779D01*
X153502350Y-93928780D01*
X153573402Y-93909744D01*
X153573404Y-93909742D01*
X153573408Y-93909742D01*
X153734180Y-93843151D01*
X153884884Y-93756144D01*
X154022943Y-93650210D01*
X154025877Y-93647275D01*
X154025881Y-93647273D01*
X154084468Y-93588687D01*
X154121147Y-93552009D01*
X154121147Y-93552007D01*
X154130044Y-93543111D01*
X154130052Y-93543100D01*
X164041797Y-83631356D01*
X164041807Y-83631349D01*
X164052363Y-83620794D01*
X164052393Y-83620777D01*
X164088694Y-83584475D01*
X164150218Y-83522949D01*
X164256152Y-83384890D01*
X164343160Y-83234184D01*
X164409752Y-83073411D01*
X164409878Y-83072944D01*
X164450856Y-82919999D01*
X164454789Y-82905321D01*
X164455082Y-82903100D01*
X164462320Y-82848111D01*
X164477501Y-82732791D01*
X164477500Y-82645781D01*
X164477500Y-82623411D01*
X164477500Y-78654576D01*
X164497185Y-78587537D01*
X164549989Y-78541782D01*
X164619147Y-78531838D01*
X164644833Y-78538394D01*
X164669537Y-78547608D01*
X164725471Y-78589479D01*
X164749888Y-78654943D01*
X164748008Y-78687024D01*
X164728611Y-78788707D01*
X164738961Y-78953234D01*
X164789908Y-79110029D01*
X164878244Y-79249225D01*
X164998418Y-79362076D01*
X165004733Y-79366664D01*
X165003052Y-79368977D01*
X165042770Y-79408930D01*
X165057420Y-79477246D01*
X165032811Y-79542638D01*
X165006649Y-79568353D01*
X164934785Y-79620565D01*
X164934778Y-79620572D01*
X164829696Y-79747593D01*
X164759503Y-79896763D01*
X164759502Y-79896765D01*
X164728611Y-80058707D01*
X164738961Y-80223234D01*
X164789908Y-80380029D01*
X164878244Y-80519225D01*
X164998418Y-80632076D01*
X164998426Y-80632082D01*
X165141611Y-80710798D01*
X165142890Y-80711501D01*
X165302570Y-80752500D01*
X165302574Y-80752500D01*
X165876050Y-80752500D01*
X165876052Y-80752500D01*
X165876055Y-80752499D01*
X165876063Y-80752499D01*
X165998556Y-80737025D01*
X165998557Y-80737025D01*
X165998560Y-80737024D01*
X166151843Y-80676335D01*
X166285217Y-80579432D01*
X166390303Y-80452406D01*
X166460497Y-80303236D01*
X166491388Y-80141296D01*
X166491388Y-80141292D01*
X166481038Y-79976765D01*
X166470899Y-79945562D01*
X166430092Y-79819971D01*
X166341756Y-79680775D01*
X166277642Y-79620568D01*
X166221581Y-79567923D01*
X166215267Y-79563336D01*
X166216945Y-79561025D01*
X166177219Y-79521050D01*
X166162580Y-79452731D01*
X166187202Y-79387343D01*
X166213345Y-79361650D01*
X166285217Y-79309432D01*
X166390303Y-79182406D01*
X166460497Y-79033236D01*
X166491388Y-78871296D01*
X166491388Y-78871292D01*
X166481038Y-78706766D01*
X166481037Y-78706762D01*
X166479130Y-78700895D01*
X166477132Y-78631057D01*
X166513209Y-78571222D01*
X166553727Y-78546391D01*
X166602086Y-78528354D01*
X166602093Y-78528350D01*
X166717187Y-78442190D01*
X166717190Y-78442187D01*
X166803350Y-78327093D01*
X166803354Y-78327086D01*
X166853596Y-78192379D01*
X166853598Y-78192372D01*
X166859999Y-78132844D01*
X166860000Y-78132827D01*
X166860000Y-78092558D01*
X170142500Y-78092558D01*
X170149898Y-78129749D01*
X170178077Y-78171922D01*
X170220250Y-78200101D01*
X170220252Y-78200102D01*
X170248205Y-78205662D01*
X170257441Y-78207500D01*
X170257442Y-78207500D01*
X171982559Y-78207500D01*
X171989957Y-78206028D01*
X172019748Y-78200102D01*
X172061922Y-78171922D01*
X172090102Y-78129748D01*
X172097500Y-78092558D01*
X172097500Y-76367442D01*
X172090102Y-76330252D01*
X172090101Y-76330250D01*
X172061922Y-76288077D01*
X172019749Y-76259898D01*
X171982559Y-76252500D01*
X171982558Y-76252500D01*
X170257442Y-76252500D01*
X170257441Y-76252500D01*
X170220250Y-76259898D01*
X170178077Y-76288077D01*
X170149898Y-76330250D01*
X170142500Y-76367441D01*
X170142500Y-78092558D01*
X166860000Y-78092558D01*
X166860000Y-77810000D01*
X165889560Y-77810000D01*
X165928278Y-77767941D01*
X165978551Y-77653330D01*
X165988886Y-77528605D01*
X165958163Y-77407281D01*
X165894606Y-77310000D01*
X166860000Y-77310000D01*
X166860000Y-76987172D01*
X166859999Y-76987155D01*
X166853598Y-76927627D01*
X166853596Y-76927620D01*
X166803354Y-76792913D01*
X166803350Y-76792906D01*
X166717190Y-76677812D01*
X166717187Y-76677809D01*
X166602093Y-76591649D01*
X166602086Y-76591645D01*
X166467379Y-76541403D01*
X166467372Y-76541401D01*
X166407844Y-76535000D01*
X165860000Y-76535000D01*
X165860000Y-77279382D01*
X165790948Y-77225637D01*
X165672576Y-77185000D01*
X165578927Y-77185000D01*
X165486554Y-77200414D01*
X165376486Y-77259981D01*
X165360000Y-77277889D01*
X165360000Y-76535000D01*
X164812155Y-76535000D01*
X164752627Y-76541401D01*
X164752620Y-76541403D01*
X164644833Y-76581605D01*
X164575141Y-76586589D01*
X164513818Y-76553104D01*
X164480334Y-76491780D01*
X164477500Y-76465423D01*
X164477500Y-74329989D01*
X164497185Y-74262950D01*
X164549989Y-74217195D01*
X164551066Y-74216709D01*
X164616301Y-74187665D01*
X164616301Y-74187664D01*
X164616305Y-74187663D01*
X164774037Y-74073064D01*
X164904497Y-73928174D01*
X165001981Y-73759326D01*
X165062229Y-73573900D01*
X165082609Y-73380000D01*
X165757391Y-73380000D01*
X165777771Y-73573901D01*
X165838019Y-73759328D01*
X165838020Y-73759329D01*
X165935501Y-73928172D01*
X166057730Y-74063920D01*
X166065963Y-74073064D01*
X166177608Y-74154179D01*
X166223695Y-74187663D01*
X166401802Y-74266962D01*
X166401808Y-74266964D01*
X166592516Y-74307500D01*
X166592517Y-74307500D01*
X166787482Y-74307500D01*
X166787484Y-74307500D01*
X166927005Y-74277844D01*
X169770000Y-74277844D01*
X169776401Y-74337372D01*
X169776403Y-74337379D01*
X169826645Y-74472086D01*
X169826649Y-74472093D01*
X169912809Y-74587187D01*
X169912812Y-74587190D01*
X170027906Y-74673350D01*
X170027913Y-74673354D01*
X170162620Y-74723596D01*
X170162627Y-74723598D01*
X170222155Y-74729999D01*
X170222172Y-74730000D01*
X170870000Y-74730000D01*
X170870000Y-73815501D01*
X170977685Y-73864680D01*
X171084237Y-73880000D01*
X171155763Y-73880000D01*
X171262315Y-73864680D01*
X171370000Y-73815501D01*
X171370000Y-74730000D01*
X172017828Y-74730000D01*
X172017844Y-74729999D01*
X172077372Y-74723598D01*
X172077379Y-74723596D01*
X172212086Y-74673354D01*
X172212093Y-74673350D01*
X172327187Y-74587190D01*
X172327190Y-74587187D01*
X172413350Y-74472093D01*
X172413354Y-74472086D01*
X172463596Y-74337379D01*
X172463598Y-74337372D01*
X172469999Y-74277844D01*
X172470000Y-74277827D01*
X172470000Y-73630000D01*
X171553686Y-73630000D01*
X171579493Y-73589844D01*
X171620000Y-73451889D01*
X171620000Y-73308111D01*
X171579493Y-73170156D01*
X171553686Y-73130000D01*
X172470000Y-73130000D01*
X172470000Y-72482172D01*
X172469999Y-72482155D01*
X172463598Y-72422627D01*
X172463596Y-72422620D01*
X172413354Y-72287913D01*
X172413350Y-72287906D01*
X172327190Y-72172812D01*
X172327187Y-72172809D01*
X172212093Y-72086649D01*
X172212086Y-72086645D01*
X172077379Y-72036403D01*
X172077372Y-72036401D01*
X172017844Y-72030000D01*
X171370000Y-72030000D01*
X171370000Y-72944498D01*
X171262315Y-72895320D01*
X171155763Y-72880000D01*
X171084237Y-72880000D01*
X170977685Y-72895320D01*
X170870000Y-72944498D01*
X170870000Y-72030000D01*
X170222155Y-72030000D01*
X170162627Y-72036401D01*
X170162620Y-72036403D01*
X170027913Y-72086645D01*
X170027906Y-72086649D01*
X169912812Y-72172809D01*
X169912809Y-72172812D01*
X169826649Y-72287906D01*
X169826645Y-72287913D01*
X169776403Y-72422620D01*
X169776401Y-72422627D01*
X169770000Y-72482155D01*
X169770000Y-73130000D01*
X170686314Y-73130000D01*
X170660507Y-73170156D01*
X170620000Y-73308111D01*
X170620000Y-73451889D01*
X170660507Y-73589844D01*
X170686314Y-73630000D01*
X169770000Y-73630000D01*
X169770000Y-74277844D01*
X166927005Y-74277844D01*
X166978192Y-74266964D01*
X166978194Y-74266962D01*
X166978197Y-74266962D01*
X167050359Y-74234833D01*
X167156305Y-74187663D01*
X167314037Y-74073064D01*
X167444497Y-73928174D01*
X167541981Y-73759326D01*
X167602229Y-73573900D01*
X167622609Y-73380000D01*
X167602229Y-73186100D01*
X167541981Y-73000674D01*
X167541980Y-73000673D01*
X167541980Y-73000671D01*
X167541979Y-73000670D01*
X167444498Y-72831827D01*
X167314038Y-72686937D01*
X167314035Y-72686935D01*
X167164912Y-72578590D01*
X167156304Y-72572336D01*
X166978197Y-72493037D01*
X166978191Y-72493035D01*
X166811007Y-72457500D01*
X166787484Y-72452500D01*
X166592516Y-72452500D01*
X166568993Y-72457500D01*
X166401808Y-72493035D01*
X166401803Y-72493037D01*
X166223696Y-72572336D01*
X166223691Y-72572339D01*
X166065969Y-72686930D01*
X166065963Y-72686935D01*
X165935501Y-72831827D01*
X165838020Y-73000670D01*
X165838019Y-73000671D01*
X165777771Y-73186098D01*
X165757391Y-73380000D01*
X165082609Y-73380000D01*
X165062229Y-73186100D01*
X165001981Y-73000674D01*
X165001980Y-73000673D01*
X165001980Y-73000671D01*
X165001979Y-73000670D01*
X164904498Y-72831827D01*
X164774038Y-72686937D01*
X164774035Y-72686935D01*
X164624912Y-72578590D01*
X164616304Y-72572336D01*
X164438197Y-72493037D01*
X164438191Y-72493035D01*
X164271007Y-72457500D01*
X164247484Y-72452500D01*
X164052516Y-72452500D01*
X164028993Y-72457500D01*
X163861808Y-72493035D01*
X163861803Y-72493037D01*
X163683696Y-72572336D01*
X163683691Y-72572339D01*
X163525969Y-72686930D01*
X163525963Y-72686935D01*
X163395501Y-72831827D01*
X163298020Y-73000670D01*
X163298019Y-73000671D01*
X163237771Y-73186098D01*
X163217391Y-73380000D01*
X163237771Y-73573901D01*
X163298019Y-73759328D01*
X163298020Y-73759329D01*
X163395501Y-73928172D01*
X163517730Y-74063920D01*
X163525963Y-74073064D01*
X163660558Y-74170853D01*
X163683698Y-74187665D01*
X163748934Y-74216709D01*
X163802172Y-74261958D01*
X163822494Y-74328807D01*
X163822500Y-74329989D01*
X163822500Y-82639701D01*
X163821903Y-82651853D01*
X163810777Y-82764834D01*
X163806035Y-82788676D01*
X163774857Y-82891459D01*
X163765555Y-82913917D01*
X163714924Y-83008644D01*
X163701419Y-83028856D01*
X163629460Y-83116539D01*
X163621287Y-83125556D01*
X155277097Y-91469749D01*
X153645020Y-93101826D01*
X153628601Y-93118244D01*
X153625621Y-93121224D01*
X153616608Y-93129392D01*
X153528853Y-93201409D01*
X153508641Y-93214914D01*
X153413913Y-93265546D01*
X153391455Y-93274848D01*
X153288674Y-93306025D01*
X153264833Y-93310766D01*
X153151749Y-93321903D01*
X153139601Y-93322500D01*
X153063495Y-93322500D01*
X152996456Y-93302815D01*
X152956108Y-93260500D01*
X152864498Y-93101827D01*
X152734038Y-92956937D01*
X152734035Y-92956935D01*
X152576305Y-92842337D01*
X152576304Y-92842336D01*
X152398197Y-92763037D01*
X152398191Y-92763035D01*
X152248019Y-92731115D01*
X152207484Y-92722500D01*
X152012516Y-92722500D01*
X151979086Y-92729605D01*
X151821808Y-92763035D01*
X151821803Y-92763037D01*
X151643696Y-92842336D01*
X151643691Y-92842339D01*
X151485969Y-92956930D01*
X151485963Y-92956935D01*
X151355501Y-93101827D01*
X151258020Y-93270670D01*
X151258019Y-93270671D01*
X151197771Y-93456098D01*
X151177391Y-93650000D01*
X145422609Y-93650000D01*
X145402229Y-93456100D01*
X145341981Y-93270674D01*
X145341980Y-93270673D01*
X145341980Y-93270671D01*
X145341979Y-93270670D01*
X145244498Y-93101827D01*
X145114038Y-92956937D01*
X145114035Y-92956935D01*
X144956305Y-92842337D01*
X144956304Y-92842336D01*
X144778197Y-92763037D01*
X144778191Y-92763035D01*
X144628019Y-92731115D01*
X144587484Y-92722500D01*
X144392516Y-92722500D01*
X144359086Y-92729605D01*
X144201808Y-92763035D01*
X144201803Y-92763037D01*
X144023696Y-92842336D01*
X144023691Y-92842339D01*
X143865969Y-92956930D01*
X143865963Y-92956935D01*
X143735501Y-93101827D01*
X143638020Y-93270670D01*
X143638019Y-93270671D01*
X143577771Y-93456098D01*
X143557391Y-93650000D01*
X121490500Y-93650000D01*
X121490500Y-91922558D01*
X143562500Y-91922558D01*
X143569898Y-91959749D01*
X143598077Y-92001922D01*
X143640250Y-92030101D01*
X143640252Y-92030102D01*
X143668205Y-92035662D01*
X143677441Y-92037500D01*
X143677442Y-92037500D01*
X145302559Y-92037500D01*
X145309957Y-92036028D01*
X145339748Y-92030102D01*
X145381922Y-92001922D01*
X145410102Y-91959748D01*
X145417500Y-91922558D01*
X145417500Y-90297442D01*
X145410102Y-90260252D01*
X145385235Y-90223036D01*
X145381922Y-90218077D01*
X145339749Y-90189898D01*
X145302559Y-90182500D01*
X145302558Y-90182500D01*
X143677442Y-90182500D01*
X143677441Y-90182500D01*
X143640250Y-90189898D01*
X143598077Y-90218077D01*
X143569898Y-90260250D01*
X143562500Y-90297441D01*
X143562500Y-91922558D01*
X121490500Y-91922558D01*
X121490500Y-88612754D01*
X121490500Y-88612750D01*
X121457626Y-88299974D01*
X121392238Y-87992348D01*
X121295053Y-87693241D01*
X121167134Y-87405932D01*
X121167131Y-87405928D01*
X121167130Y-87405924D01*
X121009887Y-87133571D01*
X121009884Y-87133566D01*
X120825032Y-86879139D01*
X120825025Y-86879130D01*
X120720409Y-86762943D01*
X120614586Y-86645414D01*
X120490885Y-86534033D01*
X120380869Y-86434974D01*
X120380860Y-86434967D01*
X120126433Y-86250115D01*
X120126428Y-86250112D01*
X119854075Y-86092869D01*
X119854068Y-86092866D01*
X119712465Y-86029820D01*
X119566759Y-85964947D01*
X119566754Y-85964945D01*
X119566751Y-85964944D01*
X119267649Y-85867761D01*
X119267647Y-85867760D01*
X119002415Y-85811384D01*
X118960026Y-85802374D01*
X118647250Y-85769500D01*
X118647245Y-85769500D01*
X112783247Y-85769500D01*
X112776757Y-85769330D01*
X112646884Y-85762523D01*
X112646421Y-85762498D01*
X112466111Y-85752372D01*
X112453666Y-85751040D01*
X112305087Y-85727507D01*
X112303715Y-85727282D01*
X112144694Y-85700264D01*
X112133370Y-85697791D01*
X111984419Y-85657879D01*
X111982185Y-85657258D01*
X111830836Y-85613655D01*
X111820727Y-85610265D01*
X111675353Y-85554462D01*
X111672337Y-85553259D01*
X111528247Y-85493575D01*
X111519404Y-85489498D01*
X111379934Y-85418433D01*
X111376250Y-85416477D01*
X111240460Y-85341430D01*
X111232921Y-85336907D01*
X111101266Y-85251409D01*
X111097051Y-85248546D01*
X110970851Y-85159002D01*
X110964570Y-85154239D01*
X110842431Y-85055333D01*
X110837840Y-85051427D01*
X110722574Y-84948419D01*
X110717520Y-84943640D01*
X110606358Y-84832478D01*
X110601579Y-84827424D01*
X110498571Y-84712158D01*
X110494665Y-84707567D01*
X110395759Y-84585428D01*
X110390996Y-84579147D01*
X110301452Y-84452947D01*
X110298604Y-84448754D01*
X110213081Y-84317061D01*
X110208568Y-84309538D01*
X110206694Y-84306148D01*
X110178187Y-84254567D01*
X110133521Y-84173748D01*
X110131565Y-84170064D01*
X110075609Y-84060248D01*
X110060497Y-84030589D01*
X110056430Y-84021768D01*
X109996714Y-83877599D01*
X109995562Y-83874710D01*
X109939729Y-83729260D01*
X109936347Y-83719174D01*
X109892725Y-83567761D01*
X109892134Y-83565635D01*
X109889505Y-83555825D01*
X125732500Y-83555825D01*
X125743191Y-83629204D01*
X125798525Y-83742392D01*
X125887607Y-83831474D01*
X125887608Y-83831474D01*
X125887610Y-83831476D01*
X126000796Y-83886809D01*
X126074173Y-83897500D01*
X127345826Y-83897499D01*
X127419204Y-83886809D01*
X127532390Y-83831476D01*
X127621476Y-83742390D01*
X127676809Y-83629204D01*
X127687500Y-83555827D01*
X127687499Y-82920000D01*
X128267770Y-82920000D01*
X128286643Y-83111626D01*
X128342538Y-83295884D01*
X128433302Y-83465692D01*
X128433306Y-83465699D01*
X128555458Y-83614541D01*
X128704300Y-83736693D01*
X128704307Y-83736697D01*
X128862611Y-83821312D01*
X128874117Y-83827462D01*
X129058376Y-83883357D01*
X129250000Y-83902230D01*
X129441624Y-83883357D01*
X129625883Y-83827462D01*
X129795698Y-83736694D01*
X129944541Y-83614541D01*
X130066694Y-83465698D01*
X130157462Y-83295883D01*
X130213357Y-83111624D01*
X130232230Y-82920000D01*
X130807770Y-82920000D01*
X130826643Y-83111626D01*
X130882538Y-83295884D01*
X130973302Y-83465692D01*
X130973306Y-83465699D01*
X131095458Y-83614541D01*
X131244300Y-83736693D01*
X131244307Y-83736697D01*
X131402611Y-83821312D01*
X131414117Y-83827462D01*
X131598376Y-83883357D01*
X131790000Y-83902230D01*
X131981624Y-83883357D01*
X132165883Y-83827462D01*
X132335698Y-83736694D01*
X132484541Y-83614541D01*
X132606694Y-83465698D01*
X132697462Y-83295883D01*
X132753357Y-83111624D01*
X132772230Y-82920000D01*
X132753357Y-82728376D01*
X132697462Y-82544117D01*
X132650638Y-82456516D01*
X132606697Y-82374307D01*
X132606693Y-82374300D01*
X132484541Y-82225458D01*
X132335699Y-82103306D01*
X132335692Y-82103302D01*
X132165884Y-82012538D01*
X131981626Y-81956643D01*
X131790000Y-81937770D01*
X131598373Y-81956643D01*
X131414115Y-82012538D01*
X131244307Y-82103302D01*
X131244300Y-82103306D01*
X131095458Y-82225458D01*
X130973306Y-82374300D01*
X130973302Y-82374307D01*
X130882538Y-82544115D01*
X130826643Y-82728373D01*
X130807770Y-82920000D01*
X130232230Y-82920000D01*
X130213357Y-82728376D01*
X130157462Y-82544117D01*
X130110638Y-82456516D01*
X130066697Y-82374307D01*
X130066693Y-82374300D01*
X129944541Y-82225458D01*
X129795699Y-82103306D01*
X129795692Y-82103302D01*
X129625884Y-82012538D01*
X129441626Y-81956643D01*
X129250000Y-81937770D01*
X129058373Y-81956643D01*
X128874115Y-82012538D01*
X128704307Y-82103302D01*
X128704300Y-82103306D01*
X128555458Y-82225458D01*
X128433306Y-82374300D01*
X128433302Y-82374307D01*
X128342538Y-82544115D01*
X128286643Y-82728373D01*
X128267770Y-82920000D01*
X127687499Y-82920000D01*
X127687499Y-82284174D01*
X127676809Y-82210796D01*
X127621476Y-82097610D01*
X127621474Y-82097608D01*
X127621474Y-82097607D01*
X127532392Y-82008525D01*
X127529045Y-82006889D01*
X127419204Y-81953191D01*
X127419202Y-81953190D01*
X127345827Y-81942500D01*
X126074174Y-81942500D01*
X126000795Y-81953191D01*
X125887607Y-82008525D01*
X125798525Y-82097607D01*
X125743190Y-82210797D01*
X125732500Y-82284172D01*
X125732500Y-83555825D01*
X109889505Y-83555825D01*
X109852202Y-83416606D01*
X109849738Y-83405324D01*
X109822709Y-83246245D01*
X109822491Y-83244911D01*
X109798955Y-83096309D01*
X109797628Y-83083908D01*
X109787485Y-82903285D01*
X109787476Y-82903114D01*
X109780670Y-82773243D01*
X109780500Y-82766754D01*
X109780500Y-80380000D01*
X125727770Y-80380000D01*
X125746643Y-80571626D01*
X125802538Y-80755884D01*
X125893302Y-80925692D01*
X125893306Y-80925699D01*
X126015458Y-81074541D01*
X126164300Y-81196693D01*
X126164307Y-81196697D01*
X126334115Y-81287461D01*
X126334117Y-81287462D01*
X126518376Y-81343357D01*
X126710000Y-81362230D01*
X126901624Y-81343357D01*
X127085883Y-81287462D01*
X127255698Y-81196694D01*
X127404541Y-81074541D01*
X127526694Y-80925698D01*
X127617462Y-80755883D01*
X127673357Y-80571624D01*
X127692230Y-80380000D01*
X128267770Y-80380000D01*
X128286643Y-80571626D01*
X128342538Y-80755884D01*
X128433302Y-80925692D01*
X128433306Y-80925699D01*
X128555458Y-81074541D01*
X128704300Y-81196693D01*
X128704307Y-81196697D01*
X128874115Y-81287461D01*
X128874117Y-81287462D01*
X129058376Y-81343357D01*
X129250000Y-81362230D01*
X129441624Y-81343357D01*
X129625883Y-81287462D01*
X129795698Y-81196694D01*
X129944541Y-81074541D01*
X130066694Y-80925698D01*
X130157462Y-80755883D01*
X130213357Y-80571624D01*
X130232230Y-80380000D01*
X130807770Y-80380000D01*
X130826643Y-80571626D01*
X130882538Y-80755884D01*
X130973302Y-80925692D01*
X130973306Y-80925699D01*
X131095458Y-81074541D01*
X131244300Y-81196693D01*
X131244307Y-81196697D01*
X131414115Y-81287461D01*
X131414117Y-81287462D01*
X131598376Y-81343357D01*
X131790000Y-81362230D01*
X131981624Y-81343357D01*
X132165883Y-81287462D01*
X132335698Y-81196694D01*
X132484541Y-81074541D01*
X132532646Y-81015924D01*
X132590392Y-80976590D01*
X132660237Y-80974719D01*
X132720005Y-81010906D01*
X132750721Y-81073662D01*
X132752500Y-81094589D01*
X132752500Y-81289452D01*
X132752509Y-81289669D01*
X132752509Y-81342792D01*
X132775219Y-81515315D01*
X132775220Y-81515317D01*
X132820255Y-81683402D01*
X132825887Y-81696999D01*
X132886849Y-81844180D01*
X132973856Y-81994884D01*
X132973858Y-81994886D01*
X132973860Y-81994890D01*
X132987402Y-82012538D01*
X133079790Y-82132943D01*
X133082720Y-82135873D01*
X133082725Y-82135883D01*
X133082728Y-82135881D01*
X133182320Y-82235476D01*
X133182331Y-82235486D01*
X133285521Y-82338676D01*
X133385909Y-82439063D01*
X133419394Y-82500386D01*
X133416889Y-82562738D01*
X133407500Y-82593690D01*
X133366642Y-82728378D01*
X133347770Y-82920000D01*
X133366643Y-83111626D01*
X133422538Y-83295884D01*
X133513302Y-83465692D01*
X133513306Y-83465699D01*
X133635458Y-83614541D01*
X133784300Y-83736693D01*
X133784307Y-83736697D01*
X133942611Y-83821312D01*
X133954117Y-83827462D01*
X134138376Y-83883357D01*
X134330000Y-83902230D01*
X134521624Y-83883357D01*
X134705883Y-83827462D01*
X134875698Y-83736694D01*
X135024541Y-83614541D01*
X135146694Y-83465698D01*
X135237462Y-83295883D01*
X135293357Y-83111624D01*
X135312230Y-82920000D01*
X135293357Y-82728376D01*
X135237462Y-82544117D01*
X135190638Y-82456516D01*
X135146697Y-82374307D01*
X135146693Y-82374300D01*
X135024541Y-82225458D01*
X134875699Y-82103306D01*
X134875692Y-82103302D01*
X134705884Y-82012538D01*
X134521626Y-81956643D01*
X134330000Y-81937770D01*
X134138378Y-81956642D01*
X134074865Y-81975909D01*
X133972739Y-82006889D01*
X133902873Y-82007512D01*
X133849063Y-81975909D01*
X133622116Y-81748962D01*
X133622114Y-81748959D01*
X133608775Y-81735620D01*
X133600619Y-81726622D01*
X133528582Y-81638842D01*
X133515087Y-81618644D01*
X133464451Y-81523908D01*
X133455153Y-81501460D01*
X133423972Y-81398666D01*
X133419233Y-81374840D01*
X133408096Y-81261751D01*
X133407500Y-81249600D01*
X133407500Y-81143329D01*
X133427185Y-81076290D01*
X133479989Y-81030535D01*
X133549147Y-81020591D01*
X133612703Y-81049616D01*
X133627355Y-81064666D01*
X133635460Y-81074542D01*
X133784300Y-81196693D01*
X133784307Y-81196697D01*
X133954115Y-81287461D01*
X133954117Y-81287462D01*
X134138376Y-81343357D01*
X134330000Y-81362230D01*
X134521624Y-81343357D01*
X134705883Y-81287462D01*
X134875698Y-81196694D01*
X135024541Y-81074541D01*
X135146694Y-80925698D01*
X135237462Y-80755883D01*
X135293357Y-80571624D01*
X135312230Y-80380000D01*
X135293357Y-80188376D01*
X135237462Y-80004117D01*
X135222842Y-79976765D01*
X135146697Y-79834307D01*
X135146693Y-79834300D01*
X135024541Y-79685458D01*
X134905000Y-79587353D01*
X134865666Y-79529607D01*
X134863795Y-79459763D01*
X134899983Y-79399994D01*
X134962739Y-79369279D01*
X134983665Y-79367500D01*
X136216335Y-79367500D01*
X136283374Y-79387185D01*
X136329129Y-79439989D01*
X136339073Y-79509147D01*
X136310048Y-79572703D01*
X136295000Y-79587353D01*
X136175458Y-79685458D01*
X136053306Y-79834300D01*
X136053302Y-79834307D01*
X135962538Y-80004115D01*
X135906643Y-80188373D01*
X135887770Y-80380000D01*
X135906643Y-80571626D01*
X135962538Y-80755884D01*
X136053302Y-80925692D01*
X136053306Y-80925699D01*
X136175458Y-81074541D01*
X136324300Y-81196693D01*
X136324307Y-81196697D01*
X136494115Y-81287461D01*
X136494117Y-81287462D01*
X136678376Y-81343357D01*
X136870000Y-81362230D01*
X137061624Y-81343357D01*
X137245883Y-81287462D01*
X137415698Y-81196694D01*
X137564541Y-81074541D01*
X137612646Y-81015924D01*
X137670392Y-80976590D01*
X137740237Y-80974719D01*
X137800005Y-81010906D01*
X137830721Y-81073662D01*
X137832500Y-81094589D01*
X137832500Y-81289452D01*
X137832509Y-81289669D01*
X137832509Y-81342792D01*
X137855219Y-81515315D01*
X137855220Y-81515317D01*
X137900255Y-81683402D01*
X137905887Y-81696999D01*
X137966849Y-81844180D01*
X138053856Y-81994884D01*
X138053858Y-81994886D01*
X138053860Y-81994890D01*
X138067402Y-82012538D01*
X138159790Y-82132943D01*
X138162720Y-82135873D01*
X138162725Y-82135883D01*
X138162728Y-82135881D01*
X138262320Y-82235476D01*
X138262331Y-82235486D01*
X138365521Y-82338676D01*
X138465909Y-82439063D01*
X138499394Y-82500386D01*
X138496889Y-82562738D01*
X138487500Y-82593690D01*
X138446642Y-82728378D01*
X138427770Y-82920000D01*
X138446643Y-83111626D01*
X138502538Y-83295884D01*
X138593302Y-83465692D01*
X138593306Y-83465699D01*
X138715458Y-83614541D01*
X138761890Y-83652647D01*
X138801224Y-83710393D01*
X138803095Y-83780238D01*
X138766907Y-83840006D01*
X138704151Y-83870722D01*
X138683225Y-83872500D01*
X138570299Y-83872500D01*
X138558147Y-83871903D01*
X138445165Y-83860777D01*
X138421323Y-83856035D01*
X138318540Y-83824857D01*
X138296086Y-83815557D01*
X138201354Y-83764923D01*
X138181144Y-83751418D01*
X138093459Y-83679459D01*
X138084441Y-83671286D01*
X137960807Y-83547652D01*
X137814089Y-83400935D01*
X137780605Y-83339613D01*
X137783110Y-83277261D01*
X137833357Y-83111624D01*
X137852230Y-82920000D01*
X137833357Y-82728376D01*
X137777462Y-82544117D01*
X137730638Y-82456516D01*
X137686697Y-82374307D01*
X137686693Y-82374300D01*
X137564541Y-82225458D01*
X137415699Y-82103306D01*
X137415692Y-82103302D01*
X137245884Y-82012538D01*
X137061626Y-81956643D01*
X136870000Y-81937770D01*
X136678373Y-81956643D01*
X136494115Y-82012538D01*
X136324307Y-82103302D01*
X136324300Y-82103306D01*
X136175458Y-82225458D01*
X136053306Y-82374300D01*
X136053302Y-82374307D01*
X135962538Y-82544115D01*
X135906643Y-82728373D01*
X135887770Y-82920000D01*
X135906643Y-83111626D01*
X135962538Y-83295884D01*
X136053302Y-83465692D01*
X136053306Y-83465699D01*
X136175458Y-83614541D01*
X136324300Y-83736693D01*
X136324307Y-83736697D01*
X136482611Y-83821312D01*
X136494117Y-83827462D01*
X136678376Y-83883357D01*
X136870000Y-83902230D01*
X137061624Y-83883357D01*
X137227261Y-83833110D01*
X137297126Y-83832487D01*
X137350935Y-83864089D01*
X137476852Y-83990007D01*
X137584513Y-84097668D01*
X137584523Y-84097679D01*
X137588851Y-84102006D01*
X137588853Y-84102009D01*
X137589198Y-84102354D01*
X137589216Y-84102387D01*
X137655979Y-84169147D01*
X137687051Y-84200218D01*
X137825110Y-84306152D01*
X137975816Y-84393160D01*
X138109974Y-84448728D01*
X138136594Y-84459754D01*
X138304679Y-84504789D01*
X138304684Y-84504790D01*
X138366959Y-84512987D01*
X138477209Y-84527501D01*
X138564219Y-84527500D01*
X139483538Y-84527500D01*
X139512205Y-84527500D01*
X139517341Y-84527500D01*
X139518050Y-84527468D01*
X139570546Y-84527471D01*
X139570554Y-84527470D01*
X139570555Y-84527470D01*
X139618917Y-84521105D01*
X139743075Y-84504765D01*
X139743079Y-84504764D01*
X139743084Y-84504763D01*
X139886224Y-84466414D01*
X139911164Y-84459733D01*
X140071937Y-84393146D01*
X140222643Y-84306144D01*
X140360703Y-84200214D01*
X140391767Y-84169151D01*
X140391773Y-84169147D01*
X140401975Y-84158944D01*
X140401977Y-84158944D01*
X140412802Y-84148118D01*
X140412808Y-84148115D01*
X140412807Y-84148114D01*
X140422231Y-84138691D01*
X140469105Y-84091819D01*
X140469119Y-84091801D01*
X140553108Y-84007812D01*
X140553120Y-84007803D01*
X140562013Y-83998909D01*
X140562015Y-83998909D01*
X140562349Y-83998574D01*
X140562452Y-83998518D01*
X140598714Y-83962252D01*
X140598715Y-83962253D01*
X140660239Y-83900725D01*
X140766171Y-83762661D01*
X140853176Y-83611951D01*
X140909275Y-83476498D01*
X140953113Y-83422094D01*
X141019407Y-83400026D01*
X141087107Y-83417302D01*
X141129081Y-83461191D01*
X141129920Y-83460631D01*
X141133105Y-83465398D01*
X141133196Y-83465493D01*
X141133304Y-83465696D01*
X141133306Y-83465699D01*
X141255458Y-83614541D01*
X141404300Y-83736693D01*
X141404307Y-83736697D01*
X141562611Y-83821312D01*
X141574117Y-83827462D01*
X141758376Y-83883357D01*
X141950000Y-83902230D01*
X142141624Y-83883357D01*
X142325883Y-83827462D01*
X142495698Y-83736694D01*
X142644541Y-83614541D01*
X142766694Y-83465698D01*
X142857462Y-83295883D01*
X142913357Y-83111624D01*
X142932230Y-82920000D01*
X143507770Y-82920000D01*
X143526643Y-83111626D01*
X143582538Y-83295884D01*
X143673302Y-83465692D01*
X143673306Y-83465699D01*
X143795458Y-83614541D01*
X143944300Y-83736693D01*
X143944307Y-83736697D01*
X144102611Y-83821312D01*
X144114117Y-83827462D01*
X144298376Y-83883357D01*
X144490000Y-83902230D01*
X144681624Y-83883357D01*
X144865883Y-83827462D01*
X145035698Y-83736694D01*
X145184541Y-83614541D01*
X145306694Y-83465698D01*
X145397462Y-83295883D01*
X145453357Y-83111624D01*
X145472230Y-82920000D01*
X146047770Y-82920000D01*
X146066643Y-83111626D01*
X146122538Y-83295884D01*
X146213302Y-83465692D01*
X146213306Y-83465699D01*
X146335458Y-83614541D01*
X146484300Y-83736693D01*
X146484307Y-83736697D01*
X146642611Y-83821312D01*
X146654117Y-83827462D01*
X146838376Y-83883357D01*
X147030000Y-83902230D01*
X147221624Y-83883357D01*
X147405883Y-83827462D01*
X147575698Y-83736694D01*
X147724541Y-83614541D01*
X147846694Y-83465698D01*
X147937462Y-83295883D01*
X147993357Y-83111624D01*
X148012230Y-82920000D01*
X148587770Y-82920000D01*
X148606643Y-83111626D01*
X148662538Y-83295884D01*
X148753302Y-83465692D01*
X148753306Y-83465699D01*
X148875458Y-83614541D01*
X149024300Y-83736693D01*
X149024307Y-83736697D01*
X149182611Y-83821312D01*
X149194117Y-83827462D01*
X149378376Y-83883357D01*
X149570000Y-83902230D01*
X149761624Y-83883357D01*
X149945883Y-83827462D01*
X150115698Y-83736694D01*
X150264541Y-83614541D01*
X150386694Y-83465698D01*
X150477462Y-83295883D01*
X150533357Y-83111624D01*
X150552230Y-82920000D01*
X151127770Y-82920000D01*
X151146643Y-83111626D01*
X151202538Y-83295884D01*
X151293302Y-83465692D01*
X151293306Y-83465699D01*
X151415458Y-83614541D01*
X151564300Y-83736693D01*
X151564307Y-83736697D01*
X151722611Y-83821312D01*
X151734117Y-83827462D01*
X151918376Y-83883357D01*
X152110000Y-83902230D01*
X152301624Y-83883357D01*
X152485883Y-83827462D01*
X152655698Y-83736694D01*
X152804541Y-83614541D01*
X152926694Y-83465698D01*
X153017462Y-83295883D01*
X153073357Y-83111624D01*
X153092230Y-82920000D01*
X153667770Y-82920000D01*
X153686643Y-83111626D01*
X153742538Y-83295884D01*
X153833302Y-83465692D01*
X153833306Y-83465699D01*
X153955458Y-83614541D01*
X154104300Y-83736693D01*
X154104307Y-83736697D01*
X154262611Y-83821312D01*
X154274117Y-83827462D01*
X154458376Y-83883357D01*
X154650000Y-83902230D01*
X154841624Y-83883357D01*
X155025883Y-83827462D01*
X155195698Y-83736694D01*
X155344541Y-83614541D01*
X155466694Y-83465698D01*
X155557462Y-83295883D01*
X155612012Y-83116056D01*
X155650308Y-83057621D01*
X155714120Y-83029165D01*
X155783187Y-83039725D01*
X155835581Y-83085949D01*
X155854199Y-83141242D01*
X155855431Y-83155318D01*
X155855432Y-83155326D01*
X155916566Y-83383483D01*
X155916570Y-83383492D01*
X156016400Y-83597579D01*
X156016402Y-83597583D01*
X156075072Y-83681373D01*
X156075073Y-83681373D01*
X156706923Y-83049523D01*
X156730507Y-83129844D01*
X156808239Y-83250798D01*
X156916900Y-83344952D01*
X157047685Y-83404680D01*
X157057466Y-83406086D01*
X156428625Y-84034925D01*
X156512421Y-84093599D01*
X156726507Y-84193429D01*
X156726516Y-84193433D01*
X156954673Y-84254567D01*
X156954684Y-84254569D01*
X157189998Y-84275157D01*
X157190002Y-84275157D01*
X157425315Y-84254569D01*
X157425326Y-84254567D01*
X157653483Y-84193433D01*
X157653492Y-84193429D01*
X157867578Y-84093600D01*
X157867582Y-84093598D01*
X157951373Y-84034926D01*
X157951373Y-84034925D01*
X157322533Y-83406086D01*
X157332315Y-83404680D01*
X157463100Y-83344952D01*
X157571761Y-83250798D01*
X157649493Y-83129844D01*
X157673076Y-83049524D01*
X158304925Y-83681373D01*
X158304926Y-83681373D01*
X158363598Y-83597582D01*
X158363600Y-83597578D01*
X158463429Y-83383492D01*
X158463433Y-83383483D01*
X158524567Y-83155326D01*
X158524569Y-83155315D01*
X158545157Y-82920001D01*
X158545157Y-82919998D01*
X158524569Y-82684684D01*
X158524567Y-82684673D01*
X158463433Y-82456516D01*
X158463429Y-82456507D01*
X158363600Y-82242423D01*
X158363599Y-82242421D01*
X158304925Y-82158626D01*
X158304925Y-82158625D01*
X157673076Y-82790475D01*
X157649493Y-82710156D01*
X157571761Y-82589202D01*
X157463100Y-82495048D01*
X157332315Y-82435320D01*
X157322533Y-82433913D01*
X157951373Y-81805073D01*
X157874969Y-81751576D01*
X157831344Y-81696999D01*
X157824150Y-81627501D01*
X157855672Y-81565146D01*
X157874968Y-81548425D01*
X157951373Y-81494925D01*
X157322533Y-80866086D01*
X157332315Y-80864680D01*
X157463100Y-80804952D01*
X157571761Y-80710798D01*
X157649493Y-80589844D01*
X157673076Y-80509524D01*
X158304925Y-81141373D01*
X158304926Y-81141373D01*
X158363598Y-81057582D01*
X158363600Y-81057578D01*
X158463429Y-80843492D01*
X158463433Y-80843483D01*
X158524567Y-80615326D01*
X158524569Y-80615315D01*
X158545157Y-80380001D01*
X158545157Y-80379998D01*
X158524569Y-80144684D01*
X158524567Y-80144673D01*
X158463433Y-79916516D01*
X158463429Y-79916507D01*
X158363600Y-79702423D01*
X158363599Y-79702421D01*
X158304925Y-79618626D01*
X158304925Y-79618625D01*
X157673076Y-80250475D01*
X157649493Y-80170156D01*
X157571761Y-80049202D01*
X157463100Y-79955048D01*
X157332315Y-79895320D01*
X157322533Y-79893913D01*
X157951373Y-79265073D01*
X157951373Y-79265072D01*
X157867583Y-79206402D01*
X157867579Y-79206400D01*
X157653492Y-79106570D01*
X157653483Y-79106566D01*
X157425326Y-79045432D01*
X157425315Y-79045430D01*
X157190002Y-79024843D01*
X157189998Y-79024843D01*
X156954684Y-79045430D01*
X156954673Y-79045432D01*
X156726516Y-79106566D01*
X156726507Y-79106570D01*
X156512419Y-79206401D01*
X156428625Y-79265072D01*
X157057466Y-79893913D01*
X157047685Y-79895320D01*
X156916900Y-79955048D01*
X156808239Y-80049202D01*
X156730507Y-80170156D01*
X156706923Y-80250475D01*
X156075073Y-79618625D01*
X156075072Y-79618625D01*
X156016401Y-79702419D01*
X155916570Y-79916507D01*
X155916566Y-79916516D01*
X155855432Y-80144673D01*
X155855431Y-80144681D01*
X155854199Y-80158757D01*
X155828743Y-80223825D01*
X155772150Y-80264801D01*
X155702388Y-80268675D01*
X155641605Y-80234219D01*
X155612012Y-80183942D01*
X155557462Y-80004117D01*
X155557460Y-80004114D01*
X155557460Y-80004112D01*
X155466697Y-79834307D01*
X155466693Y-79834300D01*
X155344541Y-79685458D01*
X155195699Y-79563306D01*
X155195692Y-79563302D01*
X155025884Y-79472538D01*
X154841626Y-79416643D01*
X154650000Y-79397770D01*
X154458373Y-79416643D01*
X154274115Y-79472538D01*
X154104307Y-79563302D01*
X154104300Y-79563306D01*
X153955458Y-79685458D01*
X153833306Y-79834300D01*
X153833302Y-79834307D01*
X153742538Y-80004115D01*
X153686643Y-80188373D01*
X153667770Y-80380000D01*
X153686643Y-80571626D01*
X153742538Y-80755884D01*
X153833302Y-80925692D01*
X153833306Y-80925699D01*
X153955458Y-81074541D01*
X154104300Y-81196693D01*
X154104307Y-81196697D01*
X154274115Y-81287461D01*
X154274117Y-81287462D01*
X154458376Y-81343357D01*
X154650000Y-81362230D01*
X154841624Y-81343357D01*
X155025883Y-81287462D01*
X155195698Y-81196694D01*
X155344541Y-81074541D01*
X155466694Y-80925698D01*
X155557462Y-80755883D01*
X155612012Y-80576056D01*
X155650308Y-80517621D01*
X155714120Y-80489165D01*
X155783187Y-80499725D01*
X155835581Y-80545949D01*
X155854199Y-80601242D01*
X155855431Y-80615318D01*
X155855432Y-80615326D01*
X155916566Y-80843483D01*
X155916570Y-80843492D01*
X156016400Y-81057579D01*
X156016402Y-81057583D01*
X156075072Y-81141373D01*
X156075073Y-81141373D01*
X156706923Y-80509523D01*
X156730507Y-80589844D01*
X156808239Y-80710798D01*
X156916900Y-80804952D01*
X157047685Y-80864680D01*
X157057466Y-80866086D01*
X156428625Y-81494925D01*
X156505031Y-81548425D01*
X156548655Y-81603002D01*
X156555848Y-81672501D01*
X156524326Y-81734855D01*
X156505029Y-81751576D01*
X156428625Y-81805072D01*
X157057466Y-82433913D01*
X157047685Y-82435320D01*
X156916900Y-82495048D01*
X156808239Y-82589202D01*
X156730507Y-82710156D01*
X156706923Y-82790475D01*
X156075073Y-82158625D01*
X156075072Y-82158625D01*
X156016401Y-82242419D01*
X155916570Y-82456507D01*
X155916566Y-82456516D01*
X155855432Y-82684673D01*
X155855431Y-82684681D01*
X155854199Y-82698757D01*
X155828743Y-82763825D01*
X155772150Y-82804801D01*
X155702388Y-82808675D01*
X155641605Y-82774219D01*
X155612012Y-82723942D01*
X155557462Y-82544117D01*
X155557460Y-82544114D01*
X155557460Y-82544112D01*
X155466697Y-82374307D01*
X155466693Y-82374300D01*
X155344541Y-82225458D01*
X155195699Y-82103306D01*
X155195692Y-82103302D01*
X155025884Y-82012538D01*
X154841626Y-81956643D01*
X154650000Y-81937770D01*
X154458373Y-81956643D01*
X154274115Y-82012538D01*
X154104307Y-82103302D01*
X154104300Y-82103306D01*
X153955458Y-82225458D01*
X153833306Y-82374300D01*
X153833302Y-82374307D01*
X153742538Y-82544115D01*
X153686643Y-82728373D01*
X153667770Y-82920000D01*
X153092230Y-82920000D01*
X153073357Y-82728376D01*
X153017462Y-82544117D01*
X152970638Y-82456516D01*
X152926697Y-82374307D01*
X152926693Y-82374300D01*
X152804541Y-82225458D01*
X152655699Y-82103306D01*
X152655692Y-82103302D01*
X152485884Y-82012538D01*
X152301626Y-81956643D01*
X152110000Y-81937770D01*
X151918373Y-81956643D01*
X151734115Y-82012538D01*
X151564307Y-82103302D01*
X151564300Y-82103306D01*
X151415458Y-82225458D01*
X151293306Y-82374300D01*
X151293302Y-82374307D01*
X151202538Y-82544115D01*
X151146643Y-82728373D01*
X151127770Y-82920000D01*
X150552230Y-82920000D01*
X150533357Y-82728376D01*
X150477462Y-82544117D01*
X150430638Y-82456516D01*
X150386697Y-82374307D01*
X150386693Y-82374300D01*
X150264541Y-82225458D01*
X150115699Y-82103306D01*
X150115692Y-82103302D01*
X149945884Y-82012538D01*
X149761626Y-81956643D01*
X149570000Y-81937770D01*
X149378373Y-81956643D01*
X149194115Y-82012538D01*
X149024307Y-82103302D01*
X149024300Y-82103306D01*
X148875458Y-82225458D01*
X148753306Y-82374300D01*
X148753302Y-82374307D01*
X148662538Y-82544115D01*
X148606643Y-82728373D01*
X148587770Y-82920000D01*
X148012230Y-82920000D01*
X147993357Y-82728376D01*
X147937462Y-82544117D01*
X147890638Y-82456516D01*
X147846697Y-82374307D01*
X147846693Y-82374300D01*
X147724541Y-82225458D01*
X147575699Y-82103306D01*
X147575692Y-82103302D01*
X147405884Y-82012538D01*
X147221626Y-81956643D01*
X147030000Y-81937770D01*
X146838373Y-81956643D01*
X146654115Y-82012538D01*
X146484307Y-82103302D01*
X146484300Y-82103306D01*
X146335458Y-82225458D01*
X146213306Y-82374300D01*
X146213302Y-82374307D01*
X146122538Y-82544115D01*
X146066643Y-82728373D01*
X146047770Y-82920000D01*
X145472230Y-82920000D01*
X145453357Y-82728376D01*
X145397462Y-82544117D01*
X145350638Y-82456516D01*
X145306697Y-82374307D01*
X145306693Y-82374300D01*
X145184541Y-82225458D01*
X145035699Y-82103306D01*
X145035692Y-82103302D01*
X144865884Y-82012538D01*
X144681626Y-81956643D01*
X144490000Y-81937770D01*
X144298373Y-81956643D01*
X144114115Y-82012538D01*
X143944307Y-82103302D01*
X143944300Y-82103306D01*
X143795458Y-82225458D01*
X143673306Y-82374300D01*
X143673302Y-82374307D01*
X143582538Y-82544115D01*
X143526643Y-82728373D01*
X143507770Y-82920000D01*
X142932230Y-82920000D01*
X142913357Y-82728376D01*
X142857462Y-82544117D01*
X142810638Y-82456516D01*
X142766697Y-82374307D01*
X142766693Y-82374300D01*
X142644541Y-82225458D01*
X142495699Y-82103306D01*
X142495692Y-82103302D01*
X142325884Y-82012538D01*
X142141626Y-81956643D01*
X141950000Y-81937770D01*
X141758373Y-81956643D01*
X141574115Y-82012538D01*
X141404307Y-82103302D01*
X141404300Y-82103306D01*
X141255458Y-82225458D01*
X141207353Y-82284075D01*
X141149607Y-82323409D01*
X141079762Y-82325280D01*
X141019994Y-82289092D01*
X140989278Y-82226336D01*
X140987500Y-82205410D01*
X140987500Y-81094589D01*
X141007185Y-81027550D01*
X141059989Y-80981795D01*
X141129147Y-80971851D01*
X141192703Y-81000876D01*
X141207352Y-81015923D01*
X141241538Y-81057578D01*
X141255459Y-81074541D01*
X141404300Y-81196693D01*
X141404307Y-81196697D01*
X141574115Y-81287461D01*
X141574117Y-81287462D01*
X141758376Y-81343357D01*
X141950000Y-81362230D01*
X142141624Y-81343357D01*
X142325883Y-81287462D01*
X142495698Y-81196694D01*
X142644541Y-81074541D01*
X142766694Y-80925698D01*
X142857462Y-80755883D01*
X142913357Y-80571624D01*
X142932230Y-80380000D01*
X143507770Y-80380000D01*
X143526643Y-80571626D01*
X143582538Y-80755884D01*
X143673302Y-80925692D01*
X143673306Y-80925699D01*
X143795458Y-81074541D01*
X143944300Y-81196693D01*
X143944307Y-81196697D01*
X144114115Y-81287461D01*
X144114117Y-81287462D01*
X144298376Y-81343357D01*
X144490000Y-81362230D01*
X144681624Y-81343357D01*
X144865883Y-81287462D01*
X145035698Y-81196694D01*
X145184541Y-81074541D01*
X145306694Y-80925698D01*
X145397462Y-80755883D01*
X145453357Y-80571624D01*
X145472230Y-80380000D01*
X146047770Y-80380000D01*
X146066643Y-80571626D01*
X146122538Y-80755884D01*
X146213302Y-80925692D01*
X146213306Y-80925699D01*
X146335458Y-81074541D01*
X146484300Y-81196693D01*
X146484307Y-81196697D01*
X146654115Y-81287461D01*
X146654117Y-81287462D01*
X146838376Y-81343357D01*
X147030000Y-81362230D01*
X147221624Y-81343357D01*
X147405883Y-81287462D01*
X147575698Y-81196694D01*
X147724541Y-81074541D01*
X147846694Y-80925698D01*
X147937462Y-80755883D01*
X147993357Y-80571624D01*
X148012230Y-80380000D01*
X148587770Y-80380000D01*
X148606643Y-80571626D01*
X148662538Y-80755884D01*
X148753302Y-80925692D01*
X148753306Y-80925699D01*
X148875458Y-81074541D01*
X149024300Y-81196693D01*
X149024307Y-81196697D01*
X149194115Y-81287461D01*
X149194117Y-81287462D01*
X149378376Y-81343357D01*
X149570000Y-81362230D01*
X149761624Y-81343357D01*
X149945883Y-81287462D01*
X150115698Y-81196694D01*
X150264541Y-81074541D01*
X150386694Y-80925698D01*
X150477462Y-80755883D01*
X150533357Y-80571624D01*
X150552230Y-80380000D01*
X151127770Y-80380000D01*
X151146643Y-80571626D01*
X151202538Y-80755884D01*
X151293302Y-80925692D01*
X151293306Y-80925699D01*
X151415458Y-81074541D01*
X151564300Y-81196693D01*
X151564307Y-81196697D01*
X151734115Y-81287461D01*
X151734117Y-81287462D01*
X151918376Y-81343357D01*
X152110000Y-81362230D01*
X152301624Y-81343357D01*
X152485883Y-81287462D01*
X152655698Y-81196694D01*
X152804541Y-81074541D01*
X152926694Y-80925698D01*
X153017462Y-80755883D01*
X153073357Y-80571624D01*
X153092230Y-80380000D01*
X153073357Y-80188376D01*
X153017462Y-80004117D01*
X153002842Y-79976765D01*
X152926697Y-79834307D01*
X152926693Y-79834300D01*
X152804541Y-79685458D01*
X152655699Y-79563306D01*
X152655692Y-79563302D01*
X152485884Y-79472538D01*
X152301626Y-79416643D01*
X152110000Y-79397770D01*
X151918373Y-79416643D01*
X151734115Y-79472538D01*
X151564307Y-79563302D01*
X151564300Y-79563306D01*
X151415458Y-79685458D01*
X151293306Y-79834300D01*
X151293302Y-79834307D01*
X151202538Y-80004115D01*
X151146643Y-80188373D01*
X151127770Y-80380000D01*
X150552230Y-80380000D01*
X150533357Y-80188376D01*
X150477462Y-80004117D01*
X150462842Y-79976765D01*
X150386697Y-79834307D01*
X150386693Y-79834300D01*
X150264541Y-79685458D01*
X150115699Y-79563306D01*
X150115692Y-79563302D01*
X149945884Y-79472538D01*
X149761626Y-79416643D01*
X149570000Y-79397770D01*
X149378373Y-79416643D01*
X149194115Y-79472538D01*
X149024307Y-79563302D01*
X149024300Y-79563306D01*
X148875458Y-79685458D01*
X148753306Y-79834300D01*
X148753302Y-79834307D01*
X148662538Y-80004115D01*
X148606643Y-80188373D01*
X148587770Y-80380000D01*
X148012230Y-80380000D01*
X147993357Y-80188376D01*
X147937462Y-80004117D01*
X147922842Y-79976765D01*
X147846697Y-79834307D01*
X147846693Y-79834300D01*
X147724541Y-79685458D01*
X147575699Y-79563306D01*
X147575692Y-79563302D01*
X147405884Y-79472538D01*
X147221626Y-79416643D01*
X147030000Y-79397770D01*
X146838373Y-79416643D01*
X146654115Y-79472538D01*
X146484307Y-79563302D01*
X146484300Y-79563306D01*
X146335458Y-79685458D01*
X146213306Y-79834300D01*
X146213302Y-79834307D01*
X146122538Y-80004115D01*
X146066643Y-80188373D01*
X146047770Y-80380000D01*
X145472230Y-80380000D01*
X145453357Y-80188376D01*
X145397462Y-80004117D01*
X145382842Y-79976765D01*
X145306697Y-79834307D01*
X145306693Y-79834300D01*
X145184541Y-79685458D01*
X145035699Y-79563306D01*
X145035692Y-79563302D01*
X144865884Y-79472538D01*
X144681626Y-79416643D01*
X144490000Y-79397770D01*
X144298373Y-79416643D01*
X144114115Y-79472538D01*
X143944307Y-79563302D01*
X143944300Y-79563306D01*
X143795458Y-79685458D01*
X143673306Y-79834300D01*
X143673302Y-79834307D01*
X143582538Y-80004115D01*
X143526643Y-80188373D01*
X143507770Y-80380000D01*
X142932230Y-80380000D01*
X142913357Y-80188376D01*
X142857462Y-80004117D01*
X142842842Y-79976765D01*
X142766697Y-79834307D01*
X142766693Y-79834300D01*
X142644541Y-79685458D01*
X142495699Y-79563306D01*
X142495692Y-79563302D01*
X142325884Y-79472538D01*
X142141626Y-79416643D01*
X141950000Y-79397770D01*
X141758373Y-79416643D01*
X141574115Y-79472538D01*
X141404307Y-79563302D01*
X141404300Y-79563306D01*
X141255458Y-79685458D01*
X141207353Y-79744075D01*
X141149607Y-79783409D01*
X141079762Y-79785280D01*
X141019994Y-79749092D01*
X140989278Y-79686336D01*
X140987500Y-79665410D01*
X140987500Y-79570298D01*
X140988097Y-79558147D01*
X140990907Y-79529607D01*
X140999223Y-79445156D01*
X141003961Y-79421333D01*
X141035145Y-79318531D01*
X141044440Y-79296090D01*
X141095082Y-79201344D01*
X141108573Y-79181153D01*
X141180542Y-79093454D01*
X141188701Y-79084453D01*
X141204827Y-79068327D01*
X144284385Y-75988769D01*
X144293371Y-75980624D01*
X144381159Y-75908580D01*
X144401350Y-75895090D01*
X144496095Y-75844449D01*
X144518535Y-75835154D01*
X144621335Y-75803971D01*
X144645157Y-75799233D01*
X144758249Y-75788096D01*
X144770399Y-75787500D01*
X158960012Y-75787500D01*
X158960224Y-75787490D01*
X159012790Y-75787491D01*
X159114724Y-75774072D01*
X159185315Y-75764780D01*
X159185316Y-75764779D01*
X159185319Y-75764779D01*
X159282350Y-75738780D01*
X159353402Y-75719744D01*
X159353404Y-75719742D01*
X159353408Y-75719742D01*
X159514180Y-75653151D01*
X159664884Y-75566144D01*
X159802943Y-75460210D01*
X159805877Y-75457275D01*
X159805881Y-75457273D01*
X159864468Y-75398687D01*
X159901147Y-75362009D01*
X159901147Y-75362008D01*
X159913057Y-75350099D01*
X159913066Y-75350086D01*
X160161797Y-75101356D01*
X160161807Y-75101349D01*
X160172363Y-75090794D01*
X160172393Y-75090777D01*
X160208694Y-75054475D01*
X160270218Y-74992949D01*
X160376152Y-74854890D01*
X160463160Y-74704184D01*
X160529752Y-74543411D01*
X160530359Y-74541148D01*
X160574789Y-74375320D01*
X160574790Y-74375315D01*
X160580912Y-74328807D01*
X160597501Y-74202791D01*
X160597500Y-74115781D01*
X160597500Y-74115527D01*
X160597500Y-73944074D01*
X160617185Y-73877035D01*
X160669989Y-73831280D01*
X160739147Y-73821336D01*
X160802703Y-73850361D01*
X160828887Y-73882074D01*
X160855503Y-73928174D01*
X160985963Y-74073064D01*
X161120558Y-74170853D01*
X161143698Y-74187665D01*
X161208934Y-74216709D01*
X161262172Y-74261958D01*
X161282494Y-74328807D01*
X161282500Y-74329989D01*
X161282500Y-82189701D01*
X161281903Y-82201853D01*
X161270777Y-82314834D01*
X161266035Y-82338676D01*
X161234857Y-82441459D01*
X161225555Y-82463917D01*
X161174924Y-82558644D01*
X161161419Y-82578856D01*
X161089460Y-82666539D01*
X161081287Y-82675556D01*
X153574346Y-90182500D01*
X153195020Y-90561826D01*
X153178601Y-90578244D01*
X153175621Y-90581224D01*
X153166607Y-90589392D01*
X153085395Y-90656039D01*
X153021085Y-90683352D01*
X152952218Y-90671559D01*
X152900658Y-90624406D01*
X152899368Y-90622225D01*
X152864497Y-90561826D01*
X152734037Y-90416936D01*
X152576305Y-90302337D01*
X152576304Y-90302336D01*
X152398197Y-90223037D01*
X152398191Y-90223035D01*
X152242289Y-90189898D01*
X152207484Y-90182500D01*
X152012516Y-90182500D01*
X151979086Y-90189605D01*
X151821808Y-90223035D01*
X151821803Y-90223037D01*
X151643696Y-90302336D01*
X151643691Y-90302339D01*
X151485969Y-90416930D01*
X151485963Y-90416935D01*
X151355501Y-90561827D01*
X151258020Y-90730670D01*
X151258019Y-90730671D01*
X151197771Y-90916098D01*
X151177391Y-91110000D01*
X151197771Y-91303901D01*
X151258019Y-91489328D01*
X151258020Y-91489329D01*
X151355501Y-91658172D01*
X151355503Y-91658174D01*
X151485963Y-91803064D01*
X151643695Y-91917663D01*
X151821802Y-91996962D01*
X151821808Y-91996964D01*
X152012516Y-92037500D01*
X152012517Y-92037500D01*
X152207482Y-92037500D01*
X152207484Y-92037500D01*
X152398192Y-91996964D01*
X152398194Y-91996962D01*
X152398197Y-91996962D01*
X152481778Y-91959749D01*
X152576305Y-91917663D01*
X152734037Y-91803064D01*
X152864497Y-91658174D01*
X152961981Y-91489326D01*
X152968342Y-91469746D01*
X153007777Y-91412073D01*
X153054178Y-91388290D01*
X153123408Y-91369742D01*
X153284180Y-91303151D01*
X153434884Y-91216144D01*
X153572943Y-91110210D01*
X153575877Y-91107275D01*
X153575881Y-91107273D01*
X153634468Y-91048687D01*
X153671147Y-91012009D01*
X153671147Y-91012007D01*
X153680044Y-91003111D01*
X153680052Y-91003100D01*
X161501797Y-83181356D01*
X161501807Y-83181349D01*
X161512363Y-83170794D01*
X161512393Y-83170777D01*
X161548694Y-83134475D01*
X161610218Y-83072949D01*
X161716152Y-82934890D01*
X161803160Y-82784184D01*
X161869752Y-82623411D01*
X161877716Y-82593690D01*
X161896515Y-82523521D01*
X161914789Y-82455321D01*
X161937501Y-82282791D01*
X161937500Y-82195781D01*
X161937500Y-82174210D01*
X161937500Y-74329989D01*
X161957185Y-74262950D01*
X162009989Y-74217195D01*
X162011066Y-74216709D01*
X162076301Y-74187665D01*
X162076301Y-74187664D01*
X162076305Y-74187663D01*
X162234037Y-74073064D01*
X162364497Y-73928174D01*
X162461981Y-73759326D01*
X162522229Y-73573900D01*
X162542609Y-73380000D01*
X162522229Y-73186100D01*
X162461981Y-73000674D01*
X162461980Y-73000673D01*
X162461980Y-73000671D01*
X162461979Y-73000670D01*
X162364498Y-72831827D01*
X162234038Y-72686937D01*
X162234035Y-72686935D01*
X162084912Y-72578590D01*
X162076304Y-72572336D01*
X161898197Y-72493037D01*
X161898191Y-72493035D01*
X161731007Y-72457500D01*
X161707484Y-72452500D01*
X161512516Y-72452500D01*
X161488993Y-72457500D01*
X161321808Y-72493035D01*
X161321803Y-72493037D01*
X161143696Y-72572336D01*
X161143691Y-72572339D01*
X160985969Y-72686930D01*
X160985963Y-72686935D01*
X160855503Y-72831825D01*
X160828887Y-72877926D01*
X160778319Y-72926141D01*
X160709712Y-72939363D01*
X160644848Y-72913395D01*
X160604320Y-72856481D01*
X160597500Y-72815925D01*
X160597500Y-72170298D01*
X160598097Y-72158147D01*
X160600890Y-72129786D01*
X160609223Y-72045156D01*
X160613961Y-72021333D01*
X160645145Y-71918531D01*
X160654440Y-71896090D01*
X160705082Y-71801344D01*
X160718573Y-71781153D01*
X160790541Y-71693455D01*
X160798691Y-71684463D01*
X160811940Y-71671213D01*
X161501797Y-70981356D01*
X161501807Y-70981349D01*
X161512363Y-70970794D01*
X161512393Y-70970777D01*
X161548694Y-70934475D01*
X161610218Y-70872949D01*
X161716152Y-70734890D01*
X161803160Y-70584184D01*
X161869752Y-70423411D01*
X161872557Y-70412944D01*
X161914789Y-70255320D01*
X161914790Y-70255315D01*
X161930144Y-70138676D01*
X161937501Y-70082791D01*
X161937500Y-69995781D01*
X161937500Y-69970482D01*
X161937500Y-69409989D01*
X161957185Y-69342950D01*
X162009989Y-69297195D01*
X162011065Y-69296709D01*
X162076304Y-69267663D01*
X162076305Y-69267662D01*
X162134366Y-69225479D01*
X162234037Y-69153064D01*
X162364497Y-69008174D01*
X162461981Y-68839326D01*
X162522229Y-68653900D01*
X162537500Y-68508608D01*
X163222500Y-68508608D01*
X163235225Y-68629684D01*
X163237771Y-68653901D01*
X163298019Y-68839328D01*
X163298020Y-68839329D01*
X163395501Y-69008172D01*
X163489423Y-69112482D01*
X163525963Y-69153064D01*
X163625634Y-69225479D01*
X163683695Y-69267663D01*
X163861802Y-69346962D01*
X163861808Y-69346964D01*
X164052516Y-69387500D01*
X164052517Y-69387500D01*
X164247482Y-69387500D01*
X164247484Y-69387500D01*
X164438192Y-69346964D01*
X164616304Y-69267663D01*
X164774037Y-69153064D01*
X164904497Y-69008174D01*
X165001981Y-68839326D01*
X165062229Y-68653900D01*
X165076643Y-68516766D01*
X165390000Y-68516766D01*
X165404858Y-68686599D01*
X165404860Y-68686610D01*
X165463730Y-68906317D01*
X165463734Y-68906326D01*
X165559865Y-69112482D01*
X165690342Y-69298820D01*
X165851179Y-69459657D01*
X166037517Y-69590134D01*
X166243673Y-69686265D01*
X166243682Y-69686269D01*
X166439999Y-69738872D01*
X166440000Y-69738871D01*
X166440000Y-68375686D01*
X166451955Y-68387641D01*
X166564852Y-68445165D01*
X166658519Y-68460000D01*
X166721481Y-68460000D01*
X166815148Y-68445165D01*
X166928045Y-68387641D01*
X166940000Y-68375686D01*
X166940000Y-69738872D01*
X167136317Y-69686269D01*
X167136326Y-69686265D01*
X167342482Y-69590134D01*
X167528820Y-69459657D01*
X167689657Y-69298820D01*
X167820134Y-69112482D01*
X167916265Y-68906326D01*
X167916269Y-68906317D01*
X167975139Y-68686610D01*
X167975141Y-68686599D01*
X167989999Y-68516766D01*
X167990000Y-68516764D01*
X167990000Y-68310000D01*
X167005686Y-68310000D01*
X167017641Y-68298045D01*
X167075165Y-68185148D01*
X167094986Y-68060000D01*
X167075165Y-67934852D01*
X167017641Y-67821955D01*
X167005686Y-67810000D01*
X167990000Y-67810000D01*
X167990000Y-67603236D01*
X167989999Y-67603233D01*
X167975141Y-67433400D01*
X167975139Y-67433389D01*
X167916269Y-67213682D01*
X167916265Y-67213673D01*
X167820134Y-67007517D01*
X167689657Y-66821179D01*
X167528820Y-66660342D01*
X167342482Y-66529865D01*
X167136328Y-66433734D01*
X166940000Y-66381127D01*
X166940000Y-67744314D01*
X166928045Y-67732359D01*
X166815148Y-67674835D01*
X166721481Y-67660000D01*
X166658519Y-67660000D01*
X166564852Y-67674835D01*
X166451955Y-67732359D01*
X166440000Y-67744314D01*
X166440000Y-66381127D01*
X166243671Y-66433734D01*
X166037517Y-66529865D01*
X165851179Y-66660342D01*
X165690342Y-66821179D01*
X165559865Y-67007517D01*
X165463734Y-67213673D01*
X165463730Y-67213682D01*
X165404860Y-67433389D01*
X165404858Y-67433400D01*
X165390000Y-67603233D01*
X165390000Y-67810000D01*
X166374314Y-67810000D01*
X166362359Y-67821955D01*
X166304835Y-67934852D01*
X166285014Y-68060000D01*
X166304835Y-68185148D01*
X166362359Y-68298045D01*
X166374314Y-68310000D01*
X165390000Y-68310000D01*
X165390000Y-68516766D01*
X165076643Y-68516766D01*
X165077500Y-68508608D01*
X165077500Y-67611392D01*
X165062229Y-67466100D01*
X165001981Y-67280674D01*
X165001980Y-67280673D01*
X165001980Y-67280671D01*
X165001979Y-67280670D01*
X164904498Y-67111827D01*
X164774038Y-66966937D01*
X164774035Y-66966935D01*
X164616305Y-66852337D01*
X164616304Y-66852336D01*
X164438197Y-66773037D01*
X164438191Y-66773035D01*
X164282289Y-66739898D01*
X164247484Y-66732500D01*
X164052516Y-66732500D01*
X164019086Y-66739605D01*
X163861808Y-66773035D01*
X163861803Y-66773037D01*
X163683696Y-66852336D01*
X163683691Y-66852339D01*
X163525969Y-66966930D01*
X163525963Y-66966935D01*
X163395501Y-67111827D01*
X163298020Y-67280670D01*
X163298019Y-67280671D01*
X163237771Y-67466098D01*
X163237771Y-67466100D01*
X163222500Y-67611392D01*
X163222500Y-68508608D01*
X162537500Y-68508608D01*
X162537500Y-67611392D01*
X162522229Y-67466100D01*
X162461981Y-67280674D01*
X162461980Y-67280673D01*
X162461980Y-67280671D01*
X162461979Y-67280670D01*
X162364498Y-67111827D01*
X162234038Y-66966937D01*
X162234035Y-66966935D01*
X162076305Y-66852337D01*
X162076304Y-66852336D01*
X161898197Y-66773037D01*
X161898191Y-66773035D01*
X161742289Y-66739898D01*
X161707484Y-66732500D01*
X161512516Y-66732500D01*
X161479086Y-66739605D01*
X161321808Y-66773035D01*
X161321803Y-66773037D01*
X161143696Y-66852336D01*
X161143691Y-66852339D01*
X160985969Y-66966930D01*
X160985963Y-66966935D01*
X160855503Y-67111825D01*
X160828887Y-67157926D01*
X160778319Y-67206141D01*
X160709712Y-67219363D01*
X160644848Y-67193395D01*
X160604320Y-67136481D01*
X160597500Y-67095925D01*
X160597500Y-61659701D01*
X160597972Y-61648892D01*
X160601286Y-61611013D01*
X160591442Y-61574276D01*
X160589100Y-61563712D01*
X160583151Y-61529973D01*
X160582497Y-61526261D01*
X160582494Y-61526255D01*
X160580756Y-61521480D01*
X160573546Y-61504072D01*
X160571393Y-61499455D01*
X160549584Y-61468310D01*
X160543770Y-61459184D01*
X160538153Y-61449455D01*
X160524750Y-61426240D01*
X160518008Y-61420583D01*
X160495607Y-61401785D01*
X160487633Y-61394478D01*
X160033819Y-60940664D01*
X160005394Y-60888608D01*
X160682500Y-60888608D01*
X160692965Y-60988172D01*
X160697771Y-61033901D01*
X160758019Y-61219328D01*
X160758020Y-61219329D01*
X160855501Y-61388172D01*
X160979838Y-61526261D01*
X160985963Y-61533064D01*
X161143691Y-61647660D01*
X161143695Y-61647663D01*
X161321802Y-61726962D01*
X161321808Y-61726964D01*
X161512516Y-61767500D01*
X161512517Y-61767500D01*
X161707482Y-61767500D01*
X161707484Y-61767500D01*
X161898192Y-61726964D01*
X162076304Y-61647663D01*
X162234037Y-61533064D01*
X162364497Y-61388174D01*
X162461981Y-61219326D01*
X162522229Y-61033900D01*
X162536643Y-60896766D01*
X162850000Y-60896766D01*
X162864858Y-61066599D01*
X162864860Y-61066610D01*
X162923730Y-61286317D01*
X162923734Y-61286326D01*
X163019865Y-61492482D01*
X163150342Y-61678820D01*
X163311179Y-61839657D01*
X163497517Y-61970134D01*
X163703673Y-62066265D01*
X163703682Y-62066269D01*
X163899999Y-62118872D01*
X163900000Y-62118871D01*
X163900000Y-60755686D01*
X163911955Y-60767641D01*
X164024852Y-60825165D01*
X164118519Y-60840000D01*
X164181481Y-60840000D01*
X164275148Y-60825165D01*
X164388045Y-60767641D01*
X164400000Y-60755686D01*
X164400000Y-62118872D01*
X164596317Y-62066269D01*
X164596326Y-62066265D01*
X164802482Y-61970134D01*
X164988820Y-61839657D01*
X165149657Y-61678820D01*
X165280134Y-61492482D01*
X165376265Y-61286326D01*
X165376269Y-61286317D01*
X165435139Y-61066610D01*
X165435141Y-61066599D01*
X165449999Y-60896766D01*
X165450000Y-60896764D01*
X165450000Y-60888608D01*
X165762500Y-60888608D01*
X165772965Y-60988172D01*
X165777771Y-61033901D01*
X165838019Y-61219328D01*
X165838020Y-61219329D01*
X165935501Y-61388172D01*
X166059838Y-61526261D01*
X166065963Y-61533064D01*
X166223691Y-61647660D01*
X166223695Y-61647663D01*
X166401802Y-61726962D01*
X166401808Y-61726964D01*
X166592516Y-61767500D01*
X166592517Y-61767500D01*
X166787482Y-61767500D01*
X166787484Y-61767500D01*
X166978192Y-61726964D01*
X167156304Y-61647663D01*
X167314037Y-61533064D01*
X167444497Y-61388174D01*
X167541981Y-61219326D01*
X167602229Y-61033900D01*
X167617500Y-60888608D01*
X167617500Y-59991392D01*
X167602229Y-59846100D01*
X167541981Y-59660674D01*
X167541980Y-59660673D01*
X167541980Y-59660671D01*
X167541979Y-59660670D01*
X167444498Y-59491827D01*
X167314038Y-59346937D01*
X167314035Y-59346935D01*
X167156305Y-59232337D01*
X167156304Y-59232336D01*
X166978197Y-59153037D01*
X166978191Y-59153035D01*
X166828019Y-59121115D01*
X166787484Y-59112500D01*
X166592516Y-59112500D01*
X166559086Y-59119605D01*
X166401808Y-59153035D01*
X166401803Y-59153037D01*
X166223696Y-59232336D01*
X166223691Y-59232339D01*
X166065969Y-59346930D01*
X166065963Y-59346935D01*
X165935501Y-59491827D01*
X165838020Y-59660670D01*
X165838019Y-59660671D01*
X165777771Y-59846098D01*
X165777771Y-59846100D01*
X165762500Y-59991392D01*
X165762500Y-60888608D01*
X165450000Y-60888608D01*
X165450000Y-60690000D01*
X164465686Y-60690000D01*
X164477641Y-60678045D01*
X164535165Y-60565148D01*
X164554986Y-60440000D01*
X164535165Y-60314852D01*
X164477641Y-60201955D01*
X164465686Y-60190000D01*
X165450000Y-60190000D01*
X165450000Y-59983236D01*
X165449999Y-59983233D01*
X165435141Y-59813400D01*
X165435139Y-59813389D01*
X165376269Y-59593682D01*
X165376265Y-59593673D01*
X165280134Y-59387517D01*
X165149657Y-59201179D01*
X164988820Y-59040342D01*
X164802482Y-58909865D01*
X164596328Y-58813734D01*
X164400000Y-58761127D01*
X164400000Y-60124314D01*
X164388045Y-60112359D01*
X164275148Y-60054835D01*
X164181481Y-60040000D01*
X164118519Y-60040000D01*
X164024852Y-60054835D01*
X163911955Y-60112359D01*
X163900000Y-60124314D01*
X163900000Y-58761127D01*
X163703671Y-58813734D01*
X163497517Y-58909865D01*
X163311179Y-59040342D01*
X163150342Y-59201179D01*
X163019865Y-59387517D01*
X162923734Y-59593673D01*
X162923730Y-59593682D01*
X162864860Y-59813389D01*
X162864858Y-59813400D01*
X162850000Y-59983233D01*
X162850000Y-60190000D01*
X163834314Y-60190000D01*
X163822359Y-60201955D01*
X163764835Y-60314852D01*
X163745014Y-60440000D01*
X163764835Y-60565148D01*
X163822359Y-60678045D01*
X163834314Y-60690000D01*
X162850000Y-60690000D01*
X162850000Y-60896766D01*
X162536643Y-60896766D01*
X162537500Y-60888608D01*
X162537500Y-59991392D01*
X162522229Y-59846100D01*
X162461981Y-59660674D01*
X162461980Y-59660673D01*
X162461980Y-59660671D01*
X162461979Y-59660670D01*
X162364498Y-59491827D01*
X162234038Y-59346937D01*
X162234035Y-59346935D01*
X162076305Y-59232337D01*
X162076304Y-59232336D01*
X161898197Y-59153037D01*
X161898191Y-59153035D01*
X161748019Y-59121115D01*
X161707484Y-59112500D01*
X161512516Y-59112500D01*
X161479086Y-59119605D01*
X161321808Y-59153035D01*
X161321803Y-59153037D01*
X161143696Y-59232336D01*
X161143691Y-59232339D01*
X160985969Y-59346930D01*
X160985963Y-59346935D01*
X160855501Y-59491827D01*
X160758020Y-59660670D01*
X160758019Y-59660671D01*
X160697771Y-59846098D01*
X160697771Y-59846100D01*
X160682500Y-59991392D01*
X160682500Y-60888608D01*
X160005394Y-60888608D01*
X160000334Y-60879341D01*
X159997500Y-60852983D01*
X159997500Y-59991396D01*
X159997500Y-59991392D01*
X159982229Y-59846100D01*
X159921981Y-59660674D01*
X159921980Y-59660673D01*
X159921980Y-59660671D01*
X159921979Y-59660670D01*
X159824498Y-59491827D01*
X159694038Y-59346937D01*
X159694035Y-59346935D01*
X159536305Y-59232337D01*
X159536304Y-59232336D01*
X159358197Y-59153037D01*
X159358191Y-59153035D01*
X159208019Y-59121115D01*
X159167484Y-59112500D01*
X158972516Y-59112500D01*
X158939086Y-59119605D01*
X158781808Y-59153035D01*
X158781803Y-59153037D01*
X158603696Y-59232336D01*
X158603691Y-59232339D01*
X158445969Y-59346930D01*
X158445963Y-59346935D01*
X158315501Y-59491827D01*
X158218020Y-59660670D01*
X158218019Y-59660671D01*
X158157771Y-59846098D01*
X158157771Y-59846100D01*
X158142500Y-59991392D01*
X158142500Y-60888608D01*
X158152965Y-60988172D01*
X158157771Y-61033901D01*
X158218019Y-61219328D01*
X158218020Y-61219329D01*
X158315501Y-61388172D01*
X158439838Y-61526261D01*
X158445963Y-61533064D01*
X158603691Y-61647660D01*
X158603695Y-61647663D01*
X158781802Y-61726962D01*
X158781808Y-61726964D01*
X158972516Y-61767500D01*
X158972517Y-61767500D01*
X159167482Y-61767500D01*
X159167484Y-61767500D01*
X159358192Y-61726964D01*
X159536304Y-61647663D01*
X159611760Y-61592841D01*
X159677565Y-61569362D01*
X159745619Y-61585187D01*
X159772325Y-61605479D01*
X159906181Y-61739335D01*
X159939666Y-61800658D01*
X159942500Y-61827016D01*
X159942500Y-66919851D01*
X159922815Y-66986890D01*
X159870011Y-67032645D01*
X159800853Y-67042589D01*
X159737297Y-67013564D01*
X159726356Y-67002830D01*
X159694037Y-66966936D01*
X159536305Y-66852337D01*
X159536304Y-66852336D01*
X159358197Y-66773037D01*
X159358191Y-66773035D01*
X159202289Y-66739898D01*
X159167484Y-66732500D01*
X158972516Y-66732500D01*
X158939086Y-66739605D01*
X158781808Y-66773035D01*
X158781803Y-66773037D01*
X158603696Y-66852336D01*
X158603691Y-66852339D01*
X158445969Y-66966930D01*
X158445963Y-66966935D01*
X158315501Y-67111827D01*
X158218020Y-67280670D01*
X158218019Y-67280671D01*
X158157771Y-67466098D01*
X158157771Y-67466100D01*
X158142500Y-67611392D01*
X158142500Y-68508608D01*
X158155225Y-68629684D01*
X158157771Y-68653901D01*
X158218019Y-68839328D01*
X158218020Y-68839329D01*
X158315501Y-69008172D01*
X158409423Y-69112482D01*
X158445963Y-69153064D01*
X158545634Y-69225479D01*
X158603695Y-69267663D01*
X158781802Y-69346962D01*
X158781808Y-69346964D01*
X158972516Y-69387500D01*
X158972517Y-69387500D01*
X159167482Y-69387500D01*
X159167484Y-69387500D01*
X159358192Y-69346964D01*
X159536304Y-69267663D01*
X159694037Y-69153064D01*
X159726351Y-69117175D01*
X159785836Y-69080528D01*
X159855693Y-69081857D01*
X159913741Y-69120743D01*
X159941551Y-69184840D01*
X159942500Y-69200148D01*
X159942500Y-69529701D01*
X159941903Y-69541853D01*
X159930777Y-69654834D01*
X159926035Y-69678676D01*
X159894857Y-69781459D01*
X159885555Y-69803917D01*
X159834924Y-69898644D01*
X159821418Y-69918857D01*
X159749457Y-70006542D01*
X159741295Y-70015548D01*
X159732414Y-70024431D01*
X159732404Y-70024441D01*
X157971109Y-71785735D01*
X157967638Y-71789206D01*
X157967604Y-71789224D01*
X157869782Y-71887050D01*
X157869778Y-71887055D01*
X157763851Y-72025105D01*
X157763848Y-72025109D01*
X157763848Y-72025110D01*
X157679591Y-72171052D01*
X157676839Y-72175818D01*
X157676838Y-72175820D01*
X157610245Y-72336594D01*
X157565210Y-72504679D01*
X157565209Y-72504684D01*
X157542500Y-72677196D01*
X157542499Y-72677216D01*
X157542500Y-72735562D01*
X157542500Y-72815925D01*
X157522815Y-72882964D01*
X157470011Y-72928719D01*
X157400853Y-72938663D01*
X157337297Y-72909638D01*
X157311113Y-72877926D01*
X157300685Y-72859864D01*
X157284497Y-72831826D01*
X157154037Y-72686936D01*
X157004912Y-72578590D01*
X156996304Y-72572336D01*
X156818197Y-72493037D01*
X156818191Y-72493035D01*
X156651007Y-72457500D01*
X156627484Y-72452500D01*
X156432516Y-72452500D01*
X156408993Y-72457500D01*
X156241808Y-72493035D01*
X156241803Y-72493037D01*
X156063696Y-72572336D01*
X156063691Y-72572339D01*
X155905969Y-72686930D01*
X155905963Y-72686935D01*
X155775501Y-72831827D01*
X155678020Y-73000670D01*
X155678019Y-73000671D01*
X155617771Y-73186098D01*
X155597391Y-73380000D01*
X155617771Y-73573901D01*
X155678019Y-73759328D01*
X155678020Y-73759329D01*
X155775501Y-73928172D01*
X155905963Y-74073064D01*
X155926771Y-74088182D01*
X155969437Y-74143512D01*
X155975416Y-74213125D01*
X155942810Y-74274920D01*
X155881972Y-74309277D01*
X155853886Y-74312500D01*
X154666114Y-74312500D01*
X154599075Y-74292815D01*
X154553320Y-74240011D01*
X154543376Y-74170853D01*
X154572401Y-74107297D01*
X154593229Y-74088182D01*
X154595831Y-74086290D01*
X154614037Y-74073064D01*
X154744497Y-73928174D01*
X154841981Y-73759326D01*
X154902229Y-73573900D01*
X154922609Y-73380000D01*
X154902229Y-73186100D01*
X154841981Y-73000674D01*
X154841980Y-73000673D01*
X154841980Y-73000671D01*
X154841979Y-73000670D01*
X154744498Y-72831827D01*
X154614038Y-72686937D01*
X154614035Y-72686935D01*
X154464912Y-72578590D01*
X154456304Y-72572336D01*
X154278197Y-72493037D01*
X154278191Y-72493035D01*
X154111007Y-72457500D01*
X154087484Y-72452500D01*
X153892516Y-72452500D01*
X153868993Y-72457500D01*
X153701808Y-72493035D01*
X153701803Y-72493037D01*
X153523696Y-72572336D01*
X153523691Y-72572339D01*
X153365969Y-72686930D01*
X153365963Y-72686935D01*
X153235501Y-72831827D01*
X153138020Y-73000670D01*
X153138019Y-73000671D01*
X153077771Y-73186098D01*
X153057391Y-73380000D01*
X153077771Y-73573901D01*
X153138019Y-73759328D01*
X153138020Y-73759329D01*
X153235501Y-73928172D01*
X153365963Y-74073064D01*
X153386771Y-74088182D01*
X153429437Y-74143512D01*
X153435416Y-74213125D01*
X153402810Y-74274920D01*
X153341972Y-74309277D01*
X153313886Y-74312500D01*
X152501500Y-74312500D01*
X152434461Y-74292815D01*
X152388706Y-74240011D01*
X152377500Y-74188500D01*
X152377500Y-72567443D01*
X152377031Y-72565085D01*
X152371452Y-72537040D01*
X152377678Y-72467452D01*
X152420539Y-72412273D01*
X152460978Y-72393072D01*
X152473408Y-72389742D01*
X152634180Y-72323151D01*
X152784884Y-72236144D01*
X152922943Y-72130210D01*
X152925877Y-72127275D01*
X152925881Y-72127273D01*
X152984468Y-72068687D01*
X153021147Y-72032009D01*
X153021147Y-72032007D01*
X153030044Y-72023111D01*
X153030052Y-72023100D01*
X155827676Y-69225477D01*
X155888997Y-69191994D01*
X155958689Y-69196978D01*
X155988238Y-69212840D01*
X156005634Y-69225479D01*
X156063695Y-69267663D01*
X156241802Y-69346962D01*
X156241808Y-69346964D01*
X156432516Y-69387500D01*
X156432517Y-69387500D01*
X156627482Y-69387500D01*
X156627484Y-69387500D01*
X156818192Y-69346964D01*
X156996304Y-69267663D01*
X157154037Y-69153064D01*
X157284497Y-69008174D01*
X157381981Y-68839326D01*
X157442229Y-68653900D01*
X157457500Y-68508608D01*
X157457500Y-67611392D01*
X157442229Y-67466100D01*
X157381981Y-67280674D01*
X157381980Y-67280673D01*
X157381980Y-67280671D01*
X157381979Y-67280670D01*
X157284498Y-67111827D01*
X157154038Y-66966937D01*
X157154035Y-66966935D01*
X156996305Y-66852337D01*
X156996304Y-66852336D01*
X156818197Y-66773037D01*
X156818191Y-66773035D01*
X156662289Y-66739898D01*
X156627484Y-66732500D01*
X156432516Y-66732500D01*
X156399086Y-66739605D01*
X156241808Y-66773035D01*
X156241803Y-66773037D01*
X156063696Y-66852336D01*
X156063691Y-66852339D01*
X155905969Y-66966930D01*
X155905963Y-66966935D01*
X155775501Y-67111827D01*
X155678020Y-67280670D01*
X155678019Y-67280671D01*
X155617771Y-67466098D01*
X155617771Y-67466100D01*
X155603358Y-67603236D01*
X155602500Y-67611396D01*
X155602500Y-68472982D01*
X155582815Y-68540021D01*
X155566181Y-68560663D01*
X152539472Y-71587373D01*
X152539469Y-71587376D01*
X152525621Y-71601223D01*
X152516607Y-71609393D01*
X152441274Y-71671216D01*
X152428853Y-71681409D01*
X152408641Y-71694914D01*
X152313913Y-71745546D01*
X152291455Y-71754848D01*
X152188674Y-71786025D01*
X152164833Y-71790766D01*
X152051749Y-71801903D01*
X152039601Y-71802500D01*
X143920642Y-71802500D01*
X143920420Y-71802509D01*
X143867208Y-71802509D01*
X143694684Y-71825219D01*
X143694682Y-71825220D01*
X143526597Y-71870255D01*
X143410024Y-71918540D01*
X143365820Y-71936849D01*
X143215116Y-72023856D01*
X143215111Y-72023859D01*
X143077061Y-72129786D01*
X143077056Y-72129790D01*
X143042636Y-72164209D01*
X143035793Y-72171052D01*
X143035789Y-72171056D01*
X143015532Y-72191313D01*
X142978853Y-72227991D01*
X142978851Y-72227993D01*
X136709546Y-78497299D01*
X136709543Y-78497302D01*
X136695621Y-78511223D01*
X136686607Y-78519393D01*
X136601205Y-78589479D01*
X136598853Y-78591409D01*
X136578641Y-78604914D01*
X136483913Y-78655546D01*
X136461455Y-78664848D01*
X136358674Y-78696025D01*
X136334833Y-78700766D01*
X136221749Y-78711903D01*
X136209601Y-78712500D01*
X134282865Y-78712500D01*
X134282142Y-78712530D01*
X134229457Y-78712529D01*
X134229454Y-78712529D01*
X134229453Y-78712529D01*
X134229451Y-78712529D01*
X134056920Y-78735235D01*
X134056915Y-78735236D01*
X133888839Y-78780265D01*
X133728072Y-78846849D01*
X133728070Y-78846850D01*
X133728063Y-78846853D01*
X133728063Y-78846854D01*
X133577357Y-78933856D01*
X133518928Y-78978687D01*
X133439294Y-79039788D01*
X133439293Y-79039789D01*
X133400466Y-79078613D01*
X133400452Y-79078626D01*
X133398023Y-79081054D01*
X133398023Y-79081055D01*
X133382027Y-79097051D01*
X133377770Y-79101308D01*
X133377762Y-79101316D01*
X133377761Y-79101315D01*
X133183360Y-79295716D01*
X133183353Y-79295724D01*
X133177640Y-79301436D01*
X133177536Y-79301492D01*
X133079763Y-79399272D01*
X132973829Y-79537339D01*
X132973828Y-79537340D01*
X132886822Y-79688052D01*
X132830724Y-79823501D01*
X132786885Y-79877906D01*
X132720591Y-79899973D01*
X132652891Y-79882696D01*
X132610919Y-79838807D01*
X132610080Y-79839369D01*
X132606887Y-79834592D01*
X132606799Y-79834499D01*
X132606694Y-79834302D01*
X132606692Y-79834300D01*
X132606692Y-79834299D01*
X132484541Y-79685458D01*
X132335699Y-79563306D01*
X132335692Y-79563302D01*
X132165884Y-79472538D01*
X131981626Y-79416643D01*
X131790000Y-79397770D01*
X131598373Y-79416643D01*
X131414115Y-79472538D01*
X131244307Y-79563302D01*
X131244300Y-79563306D01*
X131095458Y-79685458D01*
X130973306Y-79834300D01*
X130973302Y-79834307D01*
X130882538Y-80004115D01*
X130826643Y-80188373D01*
X130807770Y-80380000D01*
X130232230Y-80380000D01*
X130213357Y-80188376D01*
X130157462Y-80004117D01*
X130142842Y-79976765D01*
X130066697Y-79834307D01*
X130066693Y-79834300D01*
X129944541Y-79685458D01*
X129795699Y-79563306D01*
X129795692Y-79563302D01*
X129625884Y-79472538D01*
X129441626Y-79416643D01*
X129250000Y-79397770D01*
X129058373Y-79416643D01*
X128874115Y-79472538D01*
X128704307Y-79563302D01*
X128704300Y-79563306D01*
X128555458Y-79685458D01*
X128433306Y-79834300D01*
X128433302Y-79834307D01*
X128342538Y-80004115D01*
X128286643Y-80188373D01*
X128267770Y-80380000D01*
X127692230Y-80380000D01*
X127673357Y-80188376D01*
X127617462Y-80004117D01*
X127602842Y-79976765D01*
X127526697Y-79834307D01*
X127526693Y-79834300D01*
X127404541Y-79685458D01*
X127255699Y-79563306D01*
X127255692Y-79563302D01*
X127085884Y-79472538D01*
X126901626Y-79416643D01*
X126710000Y-79397770D01*
X126518373Y-79416643D01*
X126334115Y-79472538D01*
X126164307Y-79563302D01*
X126164300Y-79563306D01*
X126015458Y-79685458D01*
X125893306Y-79834300D01*
X125893302Y-79834307D01*
X125802538Y-80004115D01*
X125746643Y-80188373D01*
X125727770Y-80380000D01*
X109780500Y-80380000D01*
X109780500Y-75334000D01*
X109800185Y-75266961D01*
X109852989Y-75221206D01*
X109904500Y-75210000D01*
X117170000Y-75210000D01*
X117170000Y-69272558D01*
X150522500Y-69272558D01*
X150529898Y-69309749D01*
X150558077Y-69351922D01*
X150600250Y-69380101D01*
X150600252Y-69380102D01*
X150628205Y-69385662D01*
X150637441Y-69387500D01*
X150637442Y-69387500D01*
X152262559Y-69387500D01*
X152269957Y-69386028D01*
X152299748Y-69380102D01*
X152341922Y-69351922D01*
X152370102Y-69309748D01*
X152377500Y-69272558D01*
X152377500Y-68508608D01*
X153062500Y-68508608D01*
X153075225Y-68629684D01*
X153077771Y-68653901D01*
X153138019Y-68839328D01*
X153138020Y-68839329D01*
X153235501Y-69008172D01*
X153329423Y-69112482D01*
X153365963Y-69153064D01*
X153465634Y-69225479D01*
X153523695Y-69267663D01*
X153701802Y-69346962D01*
X153701808Y-69346964D01*
X153892516Y-69387500D01*
X153892517Y-69387500D01*
X154087482Y-69387500D01*
X154087484Y-69387500D01*
X154278192Y-69346964D01*
X154456304Y-69267663D01*
X154614037Y-69153064D01*
X154744497Y-69008174D01*
X154841981Y-68839326D01*
X154902229Y-68653900D01*
X154917500Y-68508608D01*
X154917500Y-67611392D01*
X154902229Y-67466100D01*
X154841981Y-67280674D01*
X154841980Y-67280673D01*
X154841980Y-67280671D01*
X154841979Y-67280670D01*
X154744498Y-67111827D01*
X154614038Y-66966937D01*
X154614035Y-66966935D01*
X154456305Y-66852337D01*
X154456304Y-66852336D01*
X154278197Y-66773037D01*
X154278191Y-66773035D01*
X154122289Y-66739898D01*
X154087484Y-66732500D01*
X153892516Y-66732500D01*
X153859086Y-66739605D01*
X153701808Y-66773035D01*
X153701803Y-66773037D01*
X153523696Y-66852336D01*
X153523691Y-66852339D01*
X153365969Y-66966930D01*
X153365963Y-66966935D01*
X153235501Y-67111827D01*
X153138020Y-67280670D01*
X153138019Y-67280671D01*
X153077771Y-67466098D01*
X153077771Y-67466100D01*
X153062500Y-67611392D01*
X153062500Y-68508608D01*
X152377500Y-68508608D01*
X152377500Y-66847442D01*
X152370102Y-66810252D01*
X152345235Y-66773036D01*
X152341922Y-66768077D01*
X152299749Y-66739898D01*
X152262559Y-66732500D01*
X152262558Y-66732500D01*
X150637442Y-66732500D01*
X150637441Y-66732500D01*
X150600250Y-66739898D01*
X150558077Y-66768077D01*
X150529898Y-66810250D01*
X150522500Y-66847441D01*
X150522500Y-69272558D01*
X117170000Y-69272558D01*
X117170000Y-65440002D01*
X147095034Y-65440002D01*
X147114858Y-65666599D01*
X147114860Y-65666610D01*
X147173730Y-65886317D01*
X147173735Y-65886331D01*
X147269863Y-66092478D01*
X147320974Y-66165472D01*
X148002046Y-65484400D01*
X148014835Y-65565148D01*
X148072359Y-65678045D01*
X148161955Y-65767641D01*
X148274852Y-65825165D01*
X148355599Y-65837953D01*
X147674526Y-66519025D01*
X147747513Y-66570132D01*
X147747521Y-66570136D01*
X147953668Y-66666264D01*
X147953682Y-66666269D01*
X148173389Y-66725139D01*
X148173400Y-66725141D01*
X148399998Y-66744966D01*
X148400002Y-66744966D01*
X148626599Y-66725141D01*
X148626610Y-66725139D01*
X148846317Y-66666269D01*
X148846331Y-66666264D01*
X149052478Y-66570136D01*
X149125471Y-66519024D01*
X148444400Y-65837953D01*
X148525148Y-65825165D01*
X148638045Y-65767641D01*
X148727641Y-65678045D01*
X148785165Y-65565148D01*
X148797953Y-65484400D01*
X149479024Y-66165471D01*
X149530136Y-66092478D01*
X149626264Y-65886331D01*
X149626269Y-65886317D01*
X149685139Y-65666610D01*
X149685141Y-65666599D01*
X149704966Y-65440002D01*
X149704966Y-65439997D01*
X149685141Y-65213400D01*
X149685139Y-65213389D01*
X149626269Y-64993682D01*
X149626264Y-64993668D01*
X149530136Y-64787521D01*
X149530132Y-64787513D01*
X149479025Y-64714526D01*
X148797953Y-65395598D01*
X148785165Y-65314852D01*
X148727641Y-65201955D01*
X148638045Y-65112359D01*
X148525148Y-65054835D01*
X148444401Y-65042046D01*
X149125472Y-64360974D01*
X149052478Y-64309863D01*
X148846331Y-64213735D01*
X148846317Y-64213730D01*
X148626610Y-64154860D01*
X148626599Y-64154858D01*
X148400002Y-64135034D01*
X148399998Y-64135034D01*
X148173400Y-64154858D01*
X148173389Y-64154860D01*
X147953682Y-64213730D01*
X147953673Y-64213734D01*
X147747516Y-64309866D01*
X147747512Y-64309868D01*
X147674526Y-64360973D01*
X147674526Y-64360974D01*
X148355599Y-65042046D01*
X148274852Y-65054835D01*
X148161955Y-65112359D01*
X148072359Y-65201955D01*
X148014835Y-65314852D01*
X148002046Y-65395598D01*
X147320974Y-64714526D01*
X147320973Y-64714526D01*
X147269868Y-64787512D01*
X147269866Y-64787516D01*
X147173734Y-64993673D01*
X147173730Y-64993682D01*
X147114860Y-65213389D01*
X147114858Y-65213400D01*
X147095034Y-65439997D01*
X147095034Y-65440002D01*
X117170000Y-65440002D01*
X117170000Y-64192558D01*
X144002500Y-64192558D01*
X144009898Y-64229749D01*
X144038077Y-64271922D01*
X144080250Y-64300101D01*
X144080252Y-64300102D01*
X144108205Y-64305662D01*
X144117441Y-64307500D01*
X144117442Y-64307500D01*
X145842559Y-64307500D01*
X145849957Y-64306028D01*
X145879748Y-64300102D01*
X145921922Y-64271922D01*
X145950102Y-64229748D01*
X145957500Y-64192558D01*
X145957500Y-62467442D01*
X145950102Y-62430252D01*
X145950101Y-62430250D01*
X145921922Y-62388077D01*
X145879749Y-62359898D01*
X145842559Y-62352500D01*
X145842558Y-62352500D01*
X144117442Y-62352500D01*
X144117441Y-62352500D01*
X144080250Y-62359898D01*
X144038077Y-62388077D01*
X144009898Y-62430250D01*
X144002500Y-62467441D01*
X144002500Y-64192558D01*
X117170000Y-64192558D01*
X117170000Y-60440000D01*
X147467391Y-60440000D01*
X147487771Y-60633901D01*
X147548019Y-60819328D01*
X147548020Y-60819329D01*
X147645501Y-60988172D01*
X147645503Y-60988174D01*
X147775963Y-61133064D01*
X147894695Y-61219328D01*
X147933695Y-61247663D01*
X148111802Y-61326962D01*
X148111808Y-61326964D01*
X148302516Y-61367500D01*
X148302517Y-61367500D01*
X148497482Y-61367500D01*
X148497484Y-61367500D01*
X148688192Y-61326964D01*
X148688194Y-61326962D01*
X148688197Y-61326962D01*
X148779466Y-61286326D01*
X148866305Y-61247663D01*
X149024037Y-61133064D01*
X149154497Y-60988174D01*
X149211981Y-60888608D01*
X150522500Y-60888608D01*
X150532965Y-60988172D01*
X150537771Y-61033901D01*
X150598019Y-61219328D01*
X150598020Y-61219329D01*
X150695501Y-61388172D01*
X150819838Y-61526261D01*
X150825963Y-61533064D01*
X150983691Y-61647660D01*
X150983695Y-61647663D01*
X151161802Y-61726962D01*
X151161808Y-61726964D01*
X151352516Y-61767500D01*
X151352517Y-61767500D01*
X151547482Y-61767500D01*
X151547484Y-61767500D01*
X151738192Y-61726964D01*
X151916304Y-61647663D01*
X152074037Y-61533064D01*
X152204497Y-61388174D01*
X152301981Y-61219326D01*
X152362229Y-61033900D01*
X152377500Y-60888608D01*
X153062500Y-60888608D01*
X153072965Y-60988172D01*
X153077771Y-61033901D01*
X153138019Y-61219328D01*
X153138020Y-61219329D01*
X153235501Y-61388172D01*
X153359838Y-61526261D01*
X153365963Y-61533064D01*
X153523691Y-61647660D01*
X153523695Y-61647663D01*
X153701802Y-61726962D01*
X153701808Y-61726964D01*
X153892516Y-61767500D01*
X153892517Y-61767500D01*
X154087482Y-61767500D01*
X154087484Y-61767500D01*
X154278192Y-61726964D01*
X154456304Y-61647663D01*
X154614037Y-61533064D01*
X154744497Y-61388174D01*
X154841981Y-61219326D01*
X154902229Y-61033900D01*
X154917500Y-60888608D01*
X155602500Y-60888608D01*
X155612965Y-60988172D01*
X155617771Y-61033901D01*
X155678019Y-61219328D01*
X155678020Y-61219329D01*
X155775501Y-61388172D01*
X155899838Y-61526261D01*
X155905963Y-61533064D01*
X156063691Y-61647660D01*
X156063695Y-61647663D01*
X156241802Y-61726962D01*
X156241808Y-61726964D01*
X156432516Y-61767500D01*
X156432517Y-61767500D01*
X156627482Y-61767500D01*
X156627484Y-61767500D01*
X156818192Y-61726964D01*
X156996304Y-61647663D01*
X157154037Y-61533064D01*
X157284497Y-61388174D01*
X157381981Y-61219326D01*
X157442229Y-61033900D01*
X157457500Y-60888608D01*
X157457500Y-59991392D01*
X157442229Y-59846100D01*
X157381981Y-59660674D01*
X157381980Y-59660673D01*
X157381980Y-59660671D01*
X157381979Y-59660670D01*
X157284498Y-59491827D01*
X157154038Y-59346937D01*
X157154035Y-59346935D01*
X156996305Y-59232337D01*
X156996304Y-59232336D01*
X156818197Y-59153037D01*
X156818191Y-59153035D01*
X156668019Y-59121115D01*
X156627484Y-59112500D01*
X156432516Y-59112500D01*
X156399086Y-59119605D01*
X156241808Y-59153035D01*
X156241803Y-59153037D01*
X156063696Y-59232336D01*
X156063691Y-59232339D01*
X155905969Y-59346930D01*
X155905963Y-59346935D01*
X155775501Y-59491827D01*
X155678020Y-59660670D01*
X155678019Y-59660671D01*
X155617771Y-59846098D01*
X155617771Y-59846100D01*
X155602500Y-59991392D01*
X155602500Y-60888608D01*
X154917500Y-60888608D01*
X154917500Y-59991392D01*
X154902229Y-59846100D01*
X154841981Y-59660674D01*
X154841980Y-59660673D01*
X154841980Y-59660671D01*
X154841979Y-59660670D01*
X154744498Y-59491827D01*
X154614038Y-59346937D01*
X154614035Y-59346935D01*
X154456305Y-59232337D01*
X154456304Y-59232336D01*
X154278197Y-59153037D01*
X154278191Y-59153035D01*
X154128019Y-59121115D01*
X154087484Y-59112500D01*
X153892516Y-59112500D01*
X153859086Y-59119605D01*
X153701808Y-59153035D01*
X153701803Y-59153037D01*
X153523696Y-59232336D01*
X153523691Y-59232339D01*
X153365969Y-59346930D01*
X153365963Y-59346935D01*
X153235501Y-59491827D01*
X153138020Y-59660670D01*
X153138019Y-59660671D01*
X153077771Y-59846098D01*
X153077771Y-59846100D01*
X153062500Y-59991392D01*
X153062500Y-60888608D01*
X152377500Y-60888608D01*
X152377500Y-59991392D01*
X152362229Y-59846100D01*
X152301981Y-59660674D01*
X152301980Y-59660673D01*
X152301980Y-59660671D01*
X152301979Y-59660670D01*
X152204498Y-59491827D01*
X152074038Y-59346937D01*
X152074035Y-59346935D01*
X151916305Y-59232337D01*
X151916304Y-59232336D01*
X151738197Y-59153037D01*
X151738191Y-59153035D01*
X151588019Y-59121115D01*
X151547484Y-59112500D01*
X151352516Y-59112500D01*
X151319086Y-59119605D01*
X151161808Y-59153035D01*
X151161803Y-59153037D01*
X150983696Y-59232336D01*
X150983691Y-59232339D01*
X150825969Y-59346930D01*
X150825963Y-59346935D01*
X150695501Y-59491827D01*
X150598020Y-59660670D01*
X150598019Y-59660671D01*
X150537771Y-59846098D01*
X150537771Y-59846100D01*
X150522500Y-59991392D01*
X150522500Y-60888608D01*
X149211981Y-60888608D01*
X149251981Y-60819326D01*
X149312229Y-60633900D01*
X149332609Y-60440000D01*
X149312229Y-60246100D01*
X149251981Y-60060674D01*
X149251980Y-60060673D01*
X149251980Y-60060671D01*
X149251979Y-60060670D01*
X149154498Y-59891827D01*
X149024038Y-59746937D01*
X149024035Y-59746935D01*
X148905308Y-59660674D01*
X148866304Y-59632336D01*
X148688197Y-59553037D01*
X148688191Y-59553035D01*
X148538019Y-59521115D01*
X148497484Y-59512500D01*
X148302516Y-59512500D01*
X148269086Y-59519605D01*
X148111808Y-59553035D01*
X148111803Y-59553037D01*
X147933696Y-59632336D01*
X147933691Y-59632339D01*
X147775969Y-59746930D01*
X147775963Y-59746935D01*
X147645501Y-59891827D01*
X147548020Y-60060670D01*
X147548019Y-60060671D01*
X147487771Y-60246098D01*
X147467391Y-60440000D01*
X117170000Y-60440000D01*
X117170000Y-58970000D01*
X109904500Y-58970000D01*
X109837461Y-58950315D01*
X109791706Y-58897511D01*
X109780500Y-58846000D01*
X109780500Y-57590000D01*
X156792777Y-57590000D01*
X156811629Y-57793449D01*
X156867545Y-57989977D01*
X156958620Y-58172878D01*
X157081753Y-58335933D01*
X157232748Y-58473582D01*
X157232750Y-58473584D01*
X157406464Y-58581143D01*
X157406466Y-58581144D01*
X157406468Y-58581145D01*
X157596994Y-58654955D01*
X157797838Y-58692500D01*
X157797841Y-58692500D01*
X158002159Y-58692500D01*
X158002162Y-58692500D01*
X158203006Y-58654955D01*
X158393532Y-58581145D01*
X158567251Y-58473583D01*
X158718248Y-58335931D01*
X158841380Y-58172878D01*
X158932455Y-57989975D01*
X158988370Y-57793452D01*
X159007223Y-57590000D01*
X158988370Y-57386548D01*
X158932455Y-57190025D01*
X158928420Y-57181922D01*
X158866063Y-57056693D01*
X158841380Y-57007122D01*
X158718248Y-56844069D01*
X158718246Y-56844066D01*
X158567251Y-56706417D01*
X158567249Y-56706415D01*
X158393535Y-56598856D01*
X158393526Y-56598852D01*
X158250637Y-56543497D01*
X158203006Y-56525045D01*
X158002162Y-56487500D01*
X157797838Y-56487500D01*
X157598492Y-56524765D01*
X157596994Y-56525045D01*
X157596991Y-56525046D01*
X157406473Y-56598852D01*
X157406464Y-56598856D01*
X157232750Y-56706415D01*
X157232748Y-56706417D01*
X157081753Y-56844066D01*
X156958620Y-57007121D01*
X156867545Y-57190022D01*
X156811629Y-57386550D01*
X156792777Y-57590000D01*
X109780500Y-57590000D01*
X109780500Y-57102558D01*
X114952500Y-57102558D01*
X114959898Y-57139749D01*
X114988077Y-57181922D01*
X115030250Y-57210101D01*
X115030252Y-57210102D01*
X115058205Y-57215662D01*
X115067441Y-57217500D01*
X115067442Y-57217500D01*
X116792559Y-57217500D01*
X116799957Y-57216028D01*
X116829748Y-57210102D01*
X116871922Y-57181922D01*
X116900102Y-57139748D01*
X116907500Y-57102558D01*
X116907500Y-56240000D01*
X117487770Y-56240000D01*
X117506643Y-56431626D01*
X117562538Y-56615884D01*
X117653302Y-56785692D01*
X117653306Y-56785699D01*
X117775458Y-56934541D01*
X117924300Y-57056693D01*
X117924307Y-57056697D01*
X118079685Y-57139748D01*
X118094117Y-57147462D01*
X118278376Y-57203357D01*
X118470000Y-57222230D01*
X118661624Y-57203357D01*
X118845883Y-57147462D01*
X119015698Y-57056694D01*
X119164541Y-56934541D01*
X119286694Y-56785698D01*
X119377462Y-56615883D01*
X119433357Y-56431624D01*
X119452230Y-56240000D01*
X120027770Y-56240000D01*
X120046643Y-56431626D01*
X120102538Y-56615884D01*
X120193302Y-56785692D01*
X120193306Y-56785699D01*
X120315458Y-56934541D01*
X120464300Y-57056693D01*
X120464307Y-57056697D01*
X120619685Y-57139748D01*
X120634117Y-57147462D01*
X120818376Y-57203357D01*
X121010000Y-57222230D01*
X121201624Y-57203357D01*
X121385883Y-57147462D01*
X121555698Y-57056694D01*
X121704541Y-56934541D01*
X121826694Y-56785698D01*
X121917462Y-56615883D01*
X121973357Y-56431624D01*
X121992230Y-56240000D01*
X121973357Y-56048376D01*
X121917462Y-55864117D01*
X121826694Y-55694302D01*
X121826693Y-55694300D01*
X121704541Y-55545458D01*
X121555699Y-55423306D01*
X121555692Y-55423302D01*
X121385884Y-55332538D01*
X121201626Y-55276643D01*
X121010000Y-55257770D01*
X120818373Y-55276643D01*
X120634115Y-55332538D01*
X120464307Y-55423302D01*
X120464300Y-55423306D01*
X120315458Y-55545458D01*
X120193306Y-55694300D01*
X120193302Y-55694307D01*
X120102538Y-55864115D01*
X120046643Y-56048373D01*
X120027770Y-56240000D01*
X119452230Y-56240000D01*
X119433357Y-56048376D01*
X119377462Y-55864117D01*
X119286694Y-55694302D01*
X119286693Y-55694300D01*
X119164541Y-55545458D01*
X119015699Y-55423306D01*
X119015692Y-55423302D01*
X118845884Y-55332538D01*
X118661626Y-55276643D01*
X118470000Y-55257770D01*
X118278373Y-55276643D01*
X118094115Y-55332538D01*
X117924307Y-55423302D01*
X117924300Y-55423306D01*
X117775458Y-55545458D01*
X117653306Y-55694300D01*
X117653302Y-55694307D01*
X117562538Y-55864115D01*
X117506643Y-56048373D01*
X117487770Y-56240000D01*
X116907500Y-56240000D01*
X116907500Y-55377442D01*
X116900102Y-55340252D01*
X116894948Y-55332538D01*
X116871922Y-55298077D01*
X116829749Y-55269898D01*
X116792559Y-55262500D01*
X116792558Y-55262500D01*
X115067442Y-55262500D01*
X115067441Y-55262500D01*
X115030250Y-55269898D01*
X114988077Y-55298077D01*
X114959898Y-55340250D01*
X114952500Y-55377441D01*
X114952500Y-57102558D01*
X109780500Y-57102558D01*
X109780500Y-55090005D01*
X151419945Y-55090005D01*
X151440130Y-55333605D01*
X151500138Y-55570573D01*
X151598330Y-55794429D01*
X151694626Y-55941819D01*
X152297452Y-55338993D01*
X152307188Y-55368956D01*
X152395186Y-55507619D01*
X152514903Y-55620040D01*
X152649510Y-55694041D01*
X152047758Y-56295794D01*
X152047758Y-56295796D01*
X152090478Y-56329046D01*
X152090484Y-56329050D01*
X152305468Y-56445394D01*
X152305476Y-56445397D01*
X152536664Y-56524765D01*
X152777779Y-56565000D01*
X153022221Y-56565000D01*
X153263335Y-56524765D01*
X153494523Y-56445397D01*
X153494531Y-56445394D01*
X153709514Y-56329051D01*
X153709514Y-56329050D01*
X153752240Y-56295795D01*
X153752240Y-56295794D01*
X153147534Y-55691086D01*
X153215629Y-55664126D01*
X153348492Y-55567595D01*
X153453175Y-55441055D01*
X153501631Y-55338078D01*
X154105372Y-55941819D01*
X154201667Y-55794431D01*
X154201672Y-55794423D01*
X154299861Y-55570573D01*
X154359869Y-55333605D01*
X154380055Y-55090005D01*
X154380055Y-55090000D01*
X161792777Y-55090000D01*
X161811629Y-55293449D01*
X161867545Y-55489977D01*
X161958620Y-55672878D01*
X162081753Y-55835933D01*
X162232748Y-55973582D01*
X162232750Y-55973584D01*
X162406464Y-56081143D01*
X162406466Y-56081144D01*
X162406468Y-56081145D01*
X162596994Y-56154955D01*
X162797838Y-56192500D01*
X162797841Y-56192500D01*
X163002159Y-56192500D01*
X163002162Y-56192500D01*
X163203006Y-56154955D01*
X163393532Y-56081145D01*
X163567251Y-55973583D01*
X163718248Y-55835931D01*
X163841380Y-55672878D01*
X163932455Y-55489975D01*
X163988370Y-55293452D01*
X164007223Y-55090000D01*
X163988370Y-54886548D01*
X163932455Y-54690025D01*
X163923669Y-54672381D01*
X163867690Y-54559960D01*
X163841380Y-54507122D01*
X163718248Y-54344069D01*
X163718246Y-54344066D01*
X163567251Y-54206417D01*
X163567249Y-54206415D01*
X163393535Y-54098856D01*
X163393526Y-54098852D01*
X163250637Y-54043497D01*
X163203006Y-54025045D01*
X163002162Y-53987500D01*
X162797838Y-53987500D01*
X162596994Y-54025045D01*
X162596991Y-54025046D01*
X162406473Y-54098852D01*
X162406464Y-54098856D01*
X162232750Y-54206415D01*
X162232748Y-54206417D01*
X162081753Y-54344066D01*
X161958620Y-54507121D01*
X161867545Y-54690022D01*
X161811629Y-54886550D01*
X161792777Y-55090000D01*
X154380055Y-55090000D01*
X154380055Y-55089994D01*
X154359869Y-54846394D01*
X154299861Y-54609426D01*
X154201669Y-54385570D01*
X154105372Y-54238179D01*
X153502546Y-54841004D01*
X153492812Y-54811044D01*
X153404814Y-54672381D01*
X153285097Y-54559960D01*
X153150488Y-54485957D01*
X153752240Y-53884204D01*
X153752240Y-53884203D01*
X153709514Y-53850949D01*
X153494531Y-53734605D01*
X153494523Y-53734602D01*
X153263335Y-53655234D01*
X153022221Y-53615000D01*
X152777779Y-53615000D01*
X152536664Y-53655234D01*
X152305476Y-53734602D01*
X152305468Y-53734605D01*
X152090481Y-53850951D01*
X152047758Y-53884202D01*
X152047757Y-53884204D01*
X152652466Y-54488912D01*
X152584371Y-54515874D01*
X152451508Y-54612405D01*
X152346825Y-54738945D01*
X152298368Y-54841921D01*
X151694626Y-54238179D01*
X151598328Y-54385575D01*
X151500138Y-54609426D01*
X151440130Y-54846394D01*
X151419945Y-55089994D01*
X151419945Y-55090005D01*
X109780500Y-55090005D01*
X109780500Y-53700000D01*
X114947770Y-53700000D01*
X114966643Y-53891626D01*
X115022538Y-54075884D01*
X115113302Y-54245692D01*
X115113306Y-54245699D01*
X115235458Y-54394541D01*
X115384300Y-54516693D01*
X115384307Y-54516697D01*
X115465247Y-54559960D01*
X115554117Y-54607462D01*
X115738376Y-54663357D01*
X115930000Y-54682230D01*
X116121624Y-54663357D01*
X116305883Y-54607462D01*
X116475698Y-54516694D01*
X116624541Y-54394541D01*
X116746694Y-54245698D01*
X116837462Y-54075883D01*
X116893357Y-53891624D01*
X116912230Y-53700000D01*
X117487770Y-53700000D01*
X117506643Y-53891626D01*
X117562538Y-54075884D01*
X117653302Y-54245692D01*
X117653306Y-54245699D01*
X117775458Y-54394541D01*
X117924300Y-54516693D01*
X117924307Y-54516697D01*
X118005247Y-54559960D01*
X118094117Y-54607462D01*
X118278376Y-54663357D01*
X118470000Y-54682230D01*
X118661624Y-54663357D01*
X118845883Y-54607462D01*
X119015698Y-54516694D01*
X119164541Y-54394541D01*
X119286694Y-54245698D01*
X119377462Y-54075883D01*
X119433357Y-53891624D01*
X119452230Y-53700000D01*
X120027770Y-53700000D01*
X120046643Y-53891626D01*
X120102538Y-54075884D01*
X120193302Y-54245692D01*
X120193306Y-54245699D01*
X120315458Y-54394541D01*
X120464300Y-54516693D01*
X120464307Y-54516697D01*
X120545247Y-54559960D01*
X120634117Y-54607462D01*
X120818376Y-54663357D01*
X121010000Y-54682230D01*
X121201624Y-54663357D01*
X121385883Y-54607462D01*
X121555698Y-54516694D01*
X121704541Y-54394541D01*
X121826694Y-54245698D01*
X121917462Y-54075883D01*
X121973357Y-53891624D01*
X121992230Y-53700000D01*
X121980171Y-53577558D01*
X149297500Y-53577558D01*
X149304898Y-53614749D01*
X149333077Y-53656922D01*
X149375250Y-53685101D01*
X149375252Y-53685102D01*
X149403205Y-53690662D01*
X149412441Y-53692500D01*
X149412442Y-53692500D01*
X151387559Y-53692500D01*
X151394957Y-53691028D01*
X151424748Y-53685102D01*
X151466922Y-53656922D01*
X151495102Y-53614748D01*
X151502500Y-53577558D01*
X151502500Y-52590000D01*
X156792777Y-52590000D01*
X156811629Y-52793449D01*
X156867545Y-52989977D01*
X156958620Y-53172878D01*
X157081753Y-53335933D01*
X157232748Y-53473582D01*
X157232750Y-53473584D01*
X157406464Y-53581143D01*
X157406466Y-53581144D01*
X157406468Y-53581145D01*
X157596994Y-53654955D01*
X157797838Y-53692500D01*
X157797841Y-53692500D01*
X158002159Y-53692500D01*
X158002162Y-53692500D01*
X158203006Y-53654955D01*
X158393532Y-53581145D01*
X158567251Y-53473583D01*
X158718248Y-53335931D01*
X158841380Y-53172878D01*
X158932455Y-52989975D01*
X158988370Y-52793452D01*
X159007223Y-52590000D01*
X164292777Y-52590000D01*
X164311629Y-52793449D01*
X164367545Y-52989977D01*
X164458620Y-53172878D01*
X164581753Y-53335933D01*
X164732748Y-53473582D01*
X164732750Y-53473584D01*
X164906464Y-53581143D01*
X164906466Y-53581144D01*
X164906468Y-53581145D01*
X165096994Y-53654955D01*
X165297838Y-53692500D01*
X165297841Y-53692500D01*
X165502159Y-53692500D01*
X165502162Y-53692500D01*
X165703006Y-53654955D01*
X165893532Y-53581145D01*
X166067251Y-53473583D01*
X166218248Y-53335931D01*
X166341380Y-53172878D01*
X166432455Y-52989975D01*
X166488370Y-52793452D01*
X166507223Y-52590000D01*
X166488370Y-52386548D01*
X166432455Y-52190025D01*
X166408655Y-52142229D01*
X166367585Y-52059749D01*
X166341380Y-52007122D01*
X166218248Y-51844069D01*
X166218246Y-51844066D01*
X166067251Y-51706417D01*
X166067249Y-51706415D01*
X165893535Y-51598856D01*
X165893526Y-51598852D01*
X165730982Y-51535883D01*
X165703006Y-51525045D01*
X165502162Y-51487500D01*
X165297838Y-51487500D01*
X165107522Y-51523077D01*
X165096994Y-51525045D01*
X165096991Y-51525046D01*
X164906473Y-51598852D01*
X164906464Y-51598856D01*
X164732750Y-51706415D01*
X164732748Y-51706417D01*
X164581753Y-51844066D01*
X164458620Y-52007121D01*
X164367545Y-52190022D01*
X164311629Y-52386550D01*
X164292777Y-52590000D01*
X159007223Y-52590000D01*
X158988370Y-52386548D01*
X158932455Y-52190025D01*
X158908655Y-52142229D01*
X158867585Y-52059749D01*
X158841380Y-52007122D01*
X158718248Y-51844069D01*
X158718246Y-51844066D01*
X158567251Y-51706417D01*
X158567249Y-51706415D01*
X158393535Y-51598856D01*
X158393526Y-51598852D01*
X158230982Y-51535883D01*
X158203006Y-51525045D01*
X158002162Y-51487500D01*
X157797838Y-51487500D01*
X157607522Y-51523077D01*
X157596994Y-51525045D01*
X157596991Y-51525046D01*
X157406473Y-51598852D01*
X157406464Y-51598856D01*
X157232750Y-51706415D01*
X157232748Y-51706417D01*
X157081753Y-51844066D01*
X156958620Y-52007121D01*
X156867545Y-52190022D01*
X156811629Y-52386550D01*
X156792777Y-52590000D01*
X151502500Y-52590000D01*
X151502500Y-51602442D01*
X151501786Y-51598855D01*
X151498479Y-51582229D01*
X151495102Y-51565252D01*
X151493835Y-51563356D01*
X151466922Y-51523077D01*
X151424749Y-51494898D01*
X151387559Y-51487500D01*
X151387558Y-51487500D01*
X149412442Y-51487500D01*
X149412441Y-51487500D01*
X149375250Y-51494898D01*
X149333077Y-51523077D01*
X149304898Y-51565250D01*
X149297500Y-51602441D01*
X149297500Y-53577558D01*
X121980171Y-53577558D01*
X121973357Y-53508376D01*
X121917462Y-53324117D01*
X121826694Y-53154302D01*
X121826693Y-53154300D01*
X121704541Y-53005458D01*
X121555699Y-52883306D01*
X121555692Y-52883302D01*
X121385884Y-52792538D01*
X121201626Y-52736643D01*
X121010000Y-52717770D01*
X120818373Y-52736643D01*
X120634115Y-52792538D01*
X120464307Y-52883302D01*
X120464300Y-52883306D01*
X120315458Y-53005458D01*
X120193306Y-53154300D01*
X120193302Y-53154307D01*
X120102538Y-53324115D01*
X120046643Y-53508373D01*
X120027770Y-53700000D01*
X119452230Y-53700000D01*
X119433357Y-53508376D01*
X119377462Y-53324117D01*
X119286694Y-53154302D01*
X119286693Y-53154300D01*
X119164541Y-53005458D01*
X119015699Y-52883306D01*
X119015692Y-52883302D01*
X118845884Y-52792538D01*
X118661626Y-52736643D01*
X118470000Y-52717770D01*
X118278373Y-52736643D01*
X118094115Y-52792538D01*
X117924307Y-52883302D01*
X117924300Y-52883306D01*
X117775458Y-53005458D01*
X117653306Y-53154300D01*
X117653302Y-53154307D01*
X117562538Y-53324115D01*
X117506643Y-53508373D01*
X117487770Y-53700000D01*
X116912230Y-53700000D01*
X116893357Y-53508376D01*
X116837462Y-53324117D01*
X116746694Y-53154302D01*
X116746693Y-53154300D01*
X116624541Y-53005458D01*
X116475699Y-52883306D01*
X116475692Y-52883302D01*
X116305884Y-52792538D01*
X116121626Y-52736643D01*
X115930000Y-52717770D01*
X115738373Y-52736643D01*
X115554115Y-52792538D01*
X115384307Y-52883302D01*
X115384300Y-52883306D01*
X115235458Y-53005458D01*
X115113306Y-53154300D01*
X115113302Y-53154307D01*
X115022538Y-53324115D01*
X114966643Y-53508373D01*
X114947770Y-53700000D01*
X109780500Y-53700000D01*
X109780500Y-52022558D01*
X114952500Y-52022558D01*
X114959898Y-52059749D01*
X114988077Y-52101922D01*
X115030250Y-52130101D01*
X115030252Y-52130102D01*
X115058205Y-52135662D01*
X115067441Y-52137500D01*
X115067442Y-52137500D01*
X116792559Y-52137500D01*
X116799957Y-52136028D01*
X116829748Y-52130102D01*
X116871922Y-52101922D01*
X116900102Y-52059748D01*
X116907500Y-52022558D01*
X116907500Y-51160000D01*
X117487770Y-51160000D01*
X117506643Y-51351626D01*
X117562538Y-51535884D01*
X117653302Y-51705692D01*
X117653306Y-51705699D01*
X117775458Y-51854541D01*
X117924300Y-51976693D01*
X117924307Y-51976697D01*
X118079685Y-52059748D01*
X118094117Y-52067462D01*
X118278376Y-52123357D01*
X118470000Y-52142230D01*
X118661624Y-52123357D01*
X118845883Y-52067462D01*
X119015698Y-51976694D01*
X119164541Y-51854541D01*
X119286694Y-51705698D01*
X119377462Y-51535883D01*
X119433357Y-51351624D01*
X119452230Y-51160000D01*
X120027770Y-51160000D01*
X120046643Y-51351626D01*
X120102538Y-51535884D01*
X120193302Y-51705692D01*
X120193306Y-51705699D01*
X120315458Y-51854541D01*
X120464300Y-51976693D01*
X120464307Y-51976697D01*
X120619685Y-52059748D01*
X120634117Y-52067462D01*
X120818376Y-52123357D01*
X121010000Y-52142230D01*
X121201624Y-52123357D01*
X121385883Y-52067462D01*
X121555698Y-51976694D01*
X121704541Y-51854541D01*
X121826694Y-51705698D01*
X121917462Y-51535883D01*
X121929001Y-51497844D01*
X131310000Y-51497844D01*
X131316401Y-51557372D01*
X131316403Y-51557379D01*
X131366645Y-51692086D01*
X131366649Y-51692093D01*
X131452809Y-51807187D01*
X131452812Y-51807190D01*
X131567906Y-51893350D01*
X131567913Y-51893354D01*
X131702620Y-51943596D01*
X131702627Y-51943598D01*
X131762155Y-51949999D01*
X131762172Y-51950000D01*
X132410000Y-51950000D01*
X132410000Y-51035501D01*
X132517685Y-51084680D01*
X132624237Y-51100000D01*
X132695763Y-51100000D01*
X132802315Y-51084680D01*
X132910000Y-51035501D01*
X132910000Y-51950000D01*
X133557828Y-51950000D01*
X133557844Y-51949999D01*
X133617372Y-51943598D01*
X133617379Y-51943596D01*
X133752086Y-51893354D01*
X133752093Y-51893350D01*
X133867187Y-51807190D01*
X133867190Y-51807187D01*
X133953350Y-51692093D01*
X133953354Y-51692086D01*
X134003596Y-51557379D01*
X134003598Y-51557372D01*
X134009999Y-51497844D01*
X134010000Y-51497827D01*
X134010000Y-50880421D01*
X134029685Y-50813382D01*
X134082489Y-50767627D01*
X134151647Y-50757683D01*
X134215203Y-50786708D01*
X134252660Y-50844425D01*
X134292538Y-50975884D01*
X134383302Y-51145692D01*
X134383306Y-51145699D01*
X134505458Y-51294541D01*
X134654300Y-51416693D01*
X134654307Y-51416697D01*
X134800611Y-51494898D01*
X134824117Y-51507462D01*
X135008376Y-51563357D01*
X135200000Y-51582230D01*
X135391624Y-51563357D01*
X135575883Y-51507462D01*
X135745698Y-51416694D01*
X135894541Y-51294541D01*
X136016694Y-51145698D01*
X136107462Y-50975883D01*
X136163357Y-50791624D01*
X136182230Y-50600000D01*
X136757770Y-50600000D01*
X136776643Y-50791626D01*
X136832538Y-50975884D01*
X136923302Y-51145692D01*
X136923306Y-51145699D01*
X137045458Y-51294541D01*
X137194300Y-51416693D01*
X137194307Y-51416697D01*
X137340611Y-51494898D01*
X137364117Y-51507462D01*
X137548376Y-51563357D01*
X137740000Y-51582230D01*
X137931624Y-51563357D01*
X138115883Y-51507462D01*
X138285698Y-51416694D01*
X138434541Y-51294541D01*
X138556694Y-51145698D01*
X138647462Y-50975883D01*
X138703357Y-50791624D01*
X138722230Y-50600000D01*
X139297770Y-50600000D01*
X139316643Y-50791626D01*
X139372538Y-50975884D01*
X139463302Y-51145692D01*
X139463306Y-51145699D01*
X139585458Y-51294541D01*
X139734300Y-51416693D01*
X139734307Y-51416697D01*
X139880611Y-51494898D01*
X139904117Y-51507462D01*
X140088376Y-51563357D01*
X140280000Y-51582230D01*
X140471624Y-51563357D01*
X140655883Y-51507462D01*
X140825698Y-51416694D01*
X140974541Y-51294541D01*
X141096694Y-51145698D01*
X141187462Y-50975883D01*
X141243357Y-50791624D01*
X141262230Y-50600000D01*
X141243357Y-50408376D01*
X141187462Y-50224117D01*
X141096694Y-50054302D01*
X141096693Y-50054300D01*
X140974541Y-49905458D01*
X140825699Y-49783306D01*
X140825692Y-49783302D01*
X140655884Y-49692538D01*
X140471626Y-49636643D01*
X140280000Y-49617770D01*
X140088373Y-49636643D01*
X139904115Y-49692538D01*
X139734307Y-49783302D01*
X139734300Y-49783306D01*
X139585458Y-49905458D01*
X139463306Y-50054300D01*
X139463302Y-50054307D01*
X139372538Y-50224115D01*
X139316643Y-50408373D01*
X139297770Y-50600000D01*
X138722230Y-50600000D01*
X138703357Y-50408376D01*
X138647462Y-50224117D01*
X138556694Y-50054302D01*
X138556693Y-50054300D01*
X138434541Y-49905458D01*
X138285699Y-49783306D01*
X138285692Y-49783302D01*
X138115884Y-49692538D01*
X137931626Y-49636643D01*
X137740000Y-49617770D01*
X137548373Y-49636643D01*
X137364115Y-49692538D01*
X137194307Y-49783302D01*
X137194300Y-49783306D01*
X137045458Y-49905458D01*
X136923306Y-50054300D01*
X136923302Y-50054307D01*
X136832538Y-50224115D01*
X136776643Y-50408373D01*
X136757770Y-50600000D01*
X136182230Y-50600000D01*
X136163357Y-50408376D01*
X136107462Y-50224117D01*
X136016694Y-50054302D01*
X136016693Y-50054300D01*
X135894541Y-49905458D01*
X135745699Y-49783306D01*
X135745692Y-49783302D01*
X135575884Y-49692538D01*
X135391626Y-49636643D01*
X135200000Y-49617770D01*
X135008373Y-49636643D01*
X134824115Y-49692538D01*
X134654307Y-49783302D01*
X134654300Y-49783306D01*
X134505458Y-49905458D01*
X134383306Y-50054300D01*
X134383302Y-50054307D01*
X134292538Y-50224115D01*
X134252660Y-50355574D01*
X134214363Y-50414012D01*
X134150550Y-50442469D01*
X134081483Y-50431908D01*
X134029090Y-50385683D01*
X134010000Y-50319578D01*
X134010000Y-49702172D01*
X134009999Y-49702155D01*
X134003598Y-49642627D01*
X134003596Y-49642620D01*
X133953354Y-49507913D01*
X133953350Y-49507906D01*
X133867190Y-49392812D01*
X133867187Y-49392809D01*
X133752093Y-49306649D01*
X133752086Y-49306645D01*
X133617379Y-49256403D01*
X133617372Y-49256401D01*
X133557844Y-49250000D01*
X132910000Y-49250000D01*
X132910000Y-50164498D01*
X132802315Y-50115320D01*
X132695763Y-50100000D01*
X132624237Y-50100000D01*
X132517685Y-50115320D01*
X132410000Y-50164498D01*
X132410000Y-49250000D01*
X131762155Y-49250000D01*
X131702627Y-49256401D01*
X131702620Y-49256403D01*
X131567913Y-49306645D01*
X131567906Y-49306649D01*
X131452812Y-49392809D01*
X131452809Y-49392812D01*
X131366649Y-49507906D01*
X131366645Y-49507913D01*
X131316403Y-49642620D01*
X131316401Y-49642627D01*
X131310000Y-49702155D01*
X131310000Y-50350000D01*
X132226314Y-50350000D01*
X132200507Y-50390156D01*
X132160000Y-50528111D01*
X132160000Y-50671889D01*
X132200507Y-50809844D01*
X132226314Y-50850000D01*
X131310000Y-50850000D01*
X131310000Y-51497844D01*
X121929001Y-51497844D01*
X121973357Y-51351624D01*
X121992230Y-51160000D01*
X121973357Y-50968376D01*
X121917462Y-50784117D01*
X121826694Y-50614302D01*
X121826693Y-50614300D01*
X121704541Y-50465458D01*
X121555699Y-50343306D01*
X121555692Y-50343302D01*
X121385884Y-50252538D01*
X121201626Y-50196643D01*
X121010000Y-50177770D01*
X120818373Y-50196643D01*
X120634115Y-50252538D01*
X120464307Y-50343302D01*
X120464300Y-50343306D01*
X120315458Y-50465458D01*
X120193306Y-50614300D01*
X120193302Y-50614307D01*
X120102538Y-50784115D01*
X120046643Y-50968373D01*
X120027770Y-51160000D01*
X119452230Y-51160000D01*
X119433357Y-50968376D01*
X119377462Y-50784117D01*
X119286694Y-50614302D01*
X119286693Y-50614300D01*
X119164541Y-50465458D01*
X119015699Y-50343306D01*
X119015692Y-50343302D01*
X118845884Y-50252538D01*
X118661626Y-50196643D01*
X118470000Y-50177770D01*
X118278373Y-50196643D01*
X118094115Y-50252538D01*
X117924307Y-50343302D01*
X117924300Y-50343306D01*
X117775458Y-50465458D01*
X117653306Y-50614300D01*
X117653302Y-50614307D01*
X117562538Y-50784115D01*
X117506643Y-50968373D01*
X117487770Y-51160000D01*
X116907500Y-51160000D01*
X116907500Y-50297442D01*
X116900102Y-50260252D01*
X116894948Y-50252538D01*
X116871922Y-50218077D01*
X116829749Y-50189898D01*
X116792559Y-50182500D01*
X116792558Y-50182500D01*
X115067442Y-50182500D01*
X115067441Y-50182500D01*
X115030250Y-50189898D01*
X114988077Y-50218077D01*
X114959898Y-50260250D01*
X114952500Y-50297441D01*
X114952500Y-52022558D01*
X109780500Y-52022558D01*
X109780500Y-43093245D01*
X109780670Y-43086756D01*
X109781674Y-43067595D01*
X109787501Y-42956421D01*
X109797628Y-42776087D01*
X109798954Y-42763694D01*
X109822513Y-42614947D01*
X109822700Y-42613809D01*
X109826744Y-42590005D01*
X151419945Y-42590005D01*
X151440130Y-42833605D01*
X151500138Y-43070573D01*
X151598330Y-43294429D01*
X151694626Y-43441819D01*
X152297452Y-42838993D01*
X152307188Y-42868956D01*
X152395186Y-43007619D01*
X152514903Y-43120040D01*
X152649510Y-43194041D01*
X152047758Y-43795794D01*
X152047758Y-43795796D01*
X152090478Y-43829046D01*
X152090484Y-43829050D01*
X152305468Y-43945394D01*
X152305476Y-43945397D01*
X152536664Y-44024765D01*
X152777779Y-44065000D01*
X153022221Y-44065000D01*
X153263335Y-44024765D01*
X153494523Y-43945397D01*
X153494531Y-43945394D01*
X153709514Y-43829051D01*
X153709514Y-43829050D01*
X153752240Y-43795795D01*
X153752240Y-43795794D01*
X153147534Y-43191086D01*
X153215629Y-43164126D01*
X153348492Y-43067595D01*
X153453175Y-42941055D01*
X153501631Y-42838078D01*
X154105371Y-43441818D01*
X154137206Y-43438517D01*
X154162792Y-43438517D01*
X154194627Y-43441818D01*
X154797452Y-42838993D01*
X154807188Y-42868956D01*
X154895186Y-43007619D01*
X155014903Y-43120040D01*
X155149510Y-43194041D01*
X154547758Y-43795794D01*
X154547758Y-43795796D01*
X154590478Y-43829046D01*
X154590484Y-43829050D01*
X154805468Y-43945394D01*
X154805476Y-43945397D01*
X155036664Y-44024765D01*
X155277779Y-44065000D01*
X155522221Y-44065000D01*
X155763335Y-44024765D01*
X155994523Y-43945397D01*
X155994531Y-43945394D01*
X156209514Y-43829051D01*
X156209514Y-43829050D01*
X156252240Y-43795795D01*
X156252240Y-43795794D01*
X155647534Y-43191086D01*
X155715629Y-43164126D01*
X155848492Y-43067595D01*
X155953175Y-42941055D01*
X156001631Y-42838078D01*
X156605372Y-43441819D01*
X156701667Y-43294431D01*
X156701672Y-43294423D01*
X156799861Y-43070573D01*
X156859869Y-42833605D01*
X156880055Y-42590005D01*
X158919945Y-42590005D01*
X158940130Y-42833605D01*
X159000138Y-43070573D01*
X159098330Y-43294429D01*
X159194626Y-43441819D01*
X159797452Y-42838993D01*
X159807188Y-42868956D01*
X159895186Y-43007619D01*
X160014903Y-43120040D01*
X160149510Y-43194041D01*
X159547758Y-43795794D01*
X159547758Y-43795796D01*
X159590478Y-43829046D01*
X159590484Y-43829050D01*
X159805468Y-43945394D01*
X159805476Y-43945397D01*
X160036664Y-44024765D01*
X160277779Y-44065000D01*
X160522221Y-44065000D01*
X160763335Y-44024765D01*
X160994523Y-43945397D01*
X160994531Y-43945394D01*
X161209514Y-43829051D01*
X161209514Y-43829050D01*
X161252240Y-43795795D01*
X161252240Y-43795794D01*
X160647534Y-43191086D01*
X160715629Y-43164126D01*
X160848492Y-43067595D01*
X160953175Y-42941055D01*
X161001631Y-42838078D01*
X161605371Y-43441818D01*
X161637206Y-43438517D01*
X161662792Y-43438517D01*
X161694627Y-43441818D01*
X162297452Y-42838993D01*
X162307188Y-42868956D01*
X162395186Y-43007619D01*
X162514903Y-43120040D01*
X162649510Y-43194041D01*
X162047758Y-43795794D01*
X162047758Y-43795796D01*
X162090478Y-43829046D01*
X162090484Y-43829050D01*
X162305468Y-43945394D01*
X162305476Y-43945397D01*
X162536664Y-44024765D01*
X162777779Y-44065000D01*
X163022221Y-44065000D01*
X163263335Y-44024765D01*
X163494523Y-43945397D01*
X163494531Y-43945394D01*
X163709514Y-43829051D01*
X163709514Y-43829050D01*
X163752240Y-43795795D01*
X163752240Y-43795794D01*
X163147534Y-43191086D01*
X163215629Y-43164126D01*
X163348492Y-43067595D01*
X163453175Y-42941055D01*
X163501631Y-42838078D01*
X164105372Y-43441819D01*
X164201667Y-43294431D01*
X164201672Y-43294423D01*
X164299861Y-43070573D01*
X164359869Y-42833605D01*
X164380055Y-42590005D01*
X164380055Y-42589994D01*
X164359869Y-42346394D01*
X164299861Y-42109426D01*
X164201669Y-41885570D01*
X164105372Y-41738179D01*
X163502546Y-42341004D01*
X163492812Y-42311044D01*
X163404814Y-42172381D01*
X163285097Y-42059960D01*
X163150488Y-41985957D01*
X163752240Y-41384204D01*
X163752240Y-41384203D01*
X163709514Y-41350949D01*
X163494531Y-41234605D01*
X163494523Y-41234602D01*
X163263335Y-41155234D01*
X163022221Y-41115000D01*
X162777779Y-41115000D01*
X162536664Y-41155234D01*
X162305476Y-41234602D01*
X162305468Y-41234605D01*
X162090481Y-41350951D01*
X162047758Y-41384202D01*
X162047757Y-41384204D01*
X162652466Y-41988912D01*
X162584371Y-42015874D01*
X162451508Y-42112405D01*
X162346825Y-42238945D01*
X162298368Y-42341921D01*
X161694626Y-41738179D01*
X161662790Y-41741481D01*
X161637208Y-41741481D01*
X161605372Y-41738179D01*
X161002546Y-42341004D01*
X160992812Y-42311044D01*
X160904814Y-42172381D01*
X160785097Y-42059960D01*
X160650488Y-41985957D01*
X161252240Y-41384204D01*
X161252240Y-41384203D01*
X161209514Y-41350949D01*
X160994531Y-41234605D01*
X160994523Y-41234602D01*
X160763335Y-41155234D01*
X160522221Y-41115000D01*
X160277779Y-41115000D01*
X160036664Y-41155234D01*
X159805476Y-41234602D01*
X159805468Y-41234605D01*
X159590481Y-41350951D01*
X159547758Y-41384202D01*
X159547757Y-41384204D01*
X160152466Y-41988912D01*
X160084371Y-42015874D01*
X159951508Y-42112405D01*
X159846825Y-42238945D01*
X159798368Y-42341921D01*
X159194626Y-41738179D01*
X159098328Y-41885575D01*
X159000138Y-42109426D01*
X158940130Y-42346394D01*
X158919945Y-42589994D01*
X158919945Y-42590005D01*
X156880055Y-42590005D01*
X156880055Y-42589994D01*
X156859869Y-42346394D01*
X156799861Y-42109426D01*
X156701669Y-41885570D01*
X156605372Y-41738179D01*
X156002546Y-42341004D01*
X155992812Y-42311044D01*
X155904814Y-42172381D01*
X155785097Y-42059960D01*
X155650488Y-41985957D01*
X156252240Y-41384204D01*
X156252240Y-41384203D01*
X156209514Y-41350949D01*
X155994531Y-41234605D01*
X155994523Y-41234602D01*
X155763335Y-41155234D01*
X155522221Y-41115000D01*
X155277779Y-41115000D01*
X155036664Y-41155234D01*
X154805476Y-41234602D01*
X154805468Y-41234605D01*
X154590481Y-41350951D01*
X154547758Y-41384202D01*
X154547757Y-41384204D01*
X155152466Y-41988912D01*
X155084371Y-42015874D01*
X154951508Y-42112405D01*
X154846825Y-42238945D01*
X154798368Y-42341921D01*
X154194626Y-41738179D01*
X154162790Y-41741481D01*
X154137208Y-41741481D01*
X154105372Y-41738179D01*
X153502546Y-42341004D01*
X153492812Y-42311044D01*
X153404814Y-42172381D01*
X153285097Y-42059960D01*
X153150488Y-41985957D01*
X153752240Y-41384204D01*
X153752240Y-41384203D01*
X153709514Y-41350949D01*
X153494531Y-41234605D01*
X153494523Y-41234602D01*
X153263335Y-41155234D01*
X153022221Y-41115000D01*
X152777779Y-41115000D01*
X152536664Y-41155234D01*
X152305476Y-41234602D01*
X152305468Y-41234605D01*
X152090481Y-41350951D01*
X152047758Y-41384202D01*
X152047757Y-41384204D01*
X152652466Y-41988912D01*
X152584371Y-42015874D01*
X152451508Y-42112405D01*
X152346825Y-42238945D01*
X152298368Y-42341921D01*
X151694626Y-41738179D01*
X151598328Y-41885575D01*
X151500138Y-42109426D01*
X151440130Y-42346394D01*
X151419945Y-42589994D01*
X151419945Y-42590005D01*
X109826744Y-42590005D01*
X109849739Y-42454666D01*
X109852199Y-42443402D01*
X109892150Y-42294305D01*
X109892709Y-42292293D01*
X109936351Y-42140811D01*
X109939724Y-42130753D01*
X109995583Y-41985233D01*
X109996692Y-41982452D01*
X110056439Y-41838212D01*
X110060488Y-41829429D01*
X110131569Y-41689925D01*
X110133521Y-41686250D01*
X110208588Y-41550426D01*
X110213065Y-41542962D01*
X110298633Y-41411199D01*
X110301434Y-41407077D01*
X110391010Y-41280832D01*
X110395733Y-41274603D01*
X110494702Y-41152386D01*
X110498532Y-41147885D01*
X110601613Y-41032537D01*
X110606323Y-41027556D01*
X110717556Y-40916323D01*
X110722537Y-40911613D01*
X110837885Y-40808532D01*
X110842386Y-40804702D01*
X110964603Y-40705733D01*
X110970832Y-40701010D01*
X111097077Y-40611434D01*
X111101199Y-40608633D01*
X111232962Y-40523065D01*
X111240426Y-40518588D01*
X111376255Y-40443517D01*
X111379934Y-40441565D01*
X111519429Y-40370488D01*
X111528212Y-40366439D01*
X111672452Y-40306692D01*
X111675233Y-40305583D01*
X111820753Y-40249724D01*
X111830811Y-40246351D01*
X111982293Y-40202709D01*
X111984305Y-40202150D01*
X112133402Y-40162199D01*
X112144666Y-40159739D01*
X112303809Y-40132700D01*
X112304947Y-40132513D01*
X112453694Y-40108954D01*
X112466087Y-40107628D01*
X112646554Y-40097493D01*
X112776756Y-40090669D01*
X112783245Y-40090500D01*
X171116755Y-40090500D01*
X171123243Y-40090669D01*
G37*
%TD.AperFunction*%
%TD*%
M02*
