%TF.GenerationSoftware,KiCad,Pcbnew,7.0.9*%
%TF.CreationDate,2024-01-21T19:13:07+01:00*%
%TF.ProjectId,rev-1-fix,7265762d-312d-4666-9978-2e6b69636164,rev?*%
%TF.SameCoordinates,Original*%
%TF.FileFunction,Legend,Top*%
%TF.FilePolarity,Positive*%
%FSLAX46Y46*%
G04 Gerber Fmt 4.6, Leading zero omitted, Abs format (unit mm)*
G04 Created by KiCad (PCBNEW 7.0.9) date 2024-01-21 19:13:07*
%MOMM*%
%LPD*%
G01*
G04 APERTURE LIST*
%ADD10C,0.150000*%
%ADD11C,0.120000*%
%ADD12R,2.400000X1.600000*%
%ADD13O,2.400000X1.600000*%
%ADD14C,1.600000*%
%ADD15C,1.500000*%
%ADD16O,1.700000X1.700000*%
G04 APERTURE END LIST*
D10*
X110798095Y-118599819D02*
X110798095Y-119409342D01*
X110798095Y-119409342D02*
X110845714Y-119504580D01*
X110845714Y-119504580D02*
X110893333Y-119552200D01*
X110893333Y-119552200D02*
X110988571Y-119599819D01*
X110988571Y-119599819D02*
X111179047Y-119599819D01*
X111179047Y-119599819D02*
X111274285Y-119552200D01*
X111274285Y-119552200D02*
X111321904Y-119504580D01*
X111321904Y-119504580D02*
X111369523Y-119409342D01*
X111369523Y-119409342D02*
X111369523Y-118599819D01*
X112274285Y-118599819D02*
X112083809Y-118599819D01*
X112083809Y-118599819D02*
X111988571Y-118647438D01*
X111988571Y-118647438D02*
X111940952Y-118695057D01*
X111940952Y-118695057D02*
X111845714Y-118837914D01*
X111845714Y-118837914D02*
X111798095Y-119028390D01*
X111798095Y-119028390D02*
X111798095Y-119409342D01*
X111798095Y-119409342D02*
X111845714Y-119504580D01*
X111845714Y-119504580D02*
X111893333Y-119552200D01*
X111893333Y-119552200D02*
X111988571Y-119599819D01*
X111988571Y-119599819D02*
X112179047Y-119599819D01*
X112179047Y-119599819D02*
X112274285Y-119552200D01*
X112274285Y-119552200D02*
X112321904Y-119504580D01*
X112321904Y-119504580D02*
X112369523Y-119409342D01*
X112369523Y-119409342D02*
X112369523Y-119171247D01*
X112369523Y-119171247D02*
X112321904Y-119076009D01*
X112321904Y-119076009D02*
X112274285Y-119028390D01*
X112274285Y-119028390D02*
X112179047Y-118980771D01*
X112179047Y-118980771D02*
X111988571Y-118980771D01*
X111988571Y-118980771D02*
X111893333Y-119028390D01*
X111893333Y-119028390D02*
X111845714Y-119076009D01*
X111845714Y-119076009D02*
X111798095Y-119171247D01*
X121158095Y-115024819D02*
X121158095Y-115834342D01*
X121158095Y-115834342D02*
X121205714Y-115929580D01*
X121205714Y-115929580D02*
X121253333Y-115977200D01*
X121253333Y-115977200D02*
X121348571Y-116024819D01*
X121348571Y-116024819D02*
X121539047Y-116024819D01*
X121539047Y-116024819D02*
X121634285Y-115977200D01*
X121634285Y-115977200D02*
X121681904Y-115929580D01*
X121681904Y-115929580D02*
X121729523Y-115834342D01*
X121729523Y-115834342D02*
X121729523Y-115024819D01*
X122634285Y-115358152D02*
X122634285Y-116024819D01*
X122396190Y-114977200D02*
X122158095Y-115691485D01*
X122158095Y-115691485D02*
X122777142Y-115691485D01*
X121292142Y-137799580D02*
X121244523Y-137847200D01*
X121244523Y-137847200D02*
X121101666Y-137894819D01*
X121101666Y-137894819D02*
X121006428Y-137894819D01*
X121006428Y-137894819D02*
X120863571Y-137847200D01*
X120863571Y-137847200D02*
X120768333Y-137751961D01*
X120768333Y-137751961D02*
X120720714Y-137656723D01*
X120720714Y-137656723D02*
X120673095Y-137466247D01*
X120673095Y-137466247D02*
X120673095Y-137323390D01*
X120673095Y-137323390D02*
X120720714Y-137132914D01*
X120720714Y-137132914D02*
X120768333Y-137037676D01*
X120768333Y-137037676D02*
X120863571Y-136942438D01*
X120863571Y-136942438D02*
X121006428Y-136894819D01*
X121006428Y-136894819D02*
X121101666Y-136894819D01*
X121101666Y-136894819D02*
X121244523Y-136942438D01*
X121244523Y-136942438D02*
X121292142Y-136990057D01*
X122149285Y-136894819D02*
X121958809Y-136894819D01*
X121958809Y-136894819D02*
X121863571Y-136942438D01*
X121863571Y-136942438D02*
X121815952Y-136990057D01*
X121815952Y-136990057D02*
X121720714Y-137132914D01*
X121720714Y-137132914D02*
X121673095Y-137323390D01*
X121673095Y-137323390D02*
X121673095Y-137704342D01*
X121673095Y-137704342D02*
X121720714Y-137799580D01*
X121720714Y-137799580D02*
X121768333Y-137847200D01*
X121768333Y-137847200D02*
X121863571Y-137894819D01*
X121863571Y-137894819D02*
X122054047Y-137894819D01*
X122054047Y-137894819D02*
X122149285Y-137847200D01*
X122149285Y-137847200D02*
X122196904Y-137799580D01*
X122196904Y-137799580D02*
X122244523Y-137704342D01*
X122244523Y-137704342D02*
X122244523Y-137466247D01*
X122244523Y-137466247D02*
X122196904Y-137371009D01*
X122196904Y-137371009D02*
X122149285Y-137323390D01*
X122149285Y-137323390D02*
X122054047Y-137275771D01*
X122054047Y-137275771D02*
X121863571Y-137275771D01*
X121863571Y-137275771D02*
X121768333Y-137323390D01*
X121768333Y-137323390D02*
X121720714Y-137371009D01*
X121720714Y-137371009D02*
X121673095Y-137466247D01*
X123101666Y-137228152D02*
X123101666Y-137894819D01*
X122863571Y-136847200D02*
X122625476Y-137561485D01*
X122625476Y-137561485D02*
X123244523Y-137561485D01*
X112014819Y-124944094D02*
X111014819Y-124944094D01*
X112014819Y-124372666D02*
X111443390Y-124801237D01*
X111014819Y-124372666D02*
X111586247Y-124944094D01*
X111014819Y-124039332D02*
X111014819Y-123372666D01*
X111014819Y-123372666D02*
X112014819Y-123801237D01*
X112014819Y-135794475D02*
X111014819Y-135794475D01*
X111014819Y-135794475D02*
X111014819Y-135556380D01*
X111014819Y-135556380D02*
X111062438Y-135413523D01*
X111062438Y-135413523D02*
X111157676Y-135318285D01*
X111157676Y-135318285D02*
X111252914Y-135270666D01*
X111252914Y-135270666D02*
X111443390Y-135223047D01*
X111443390Y-135223047D02*
X111586247Y-135223047D01*
X111586247Y-135223047D02*
X111776723Y-135270666D01*
X111776723Y-135270666D02*
X111871961Y-135318285D01*
X111871961Y-135318285D02*
X111967200Y-135413523D01*
X111967200Y-135413523D02*
X112014819Y-135556380D01*
X112014819Y-135556380D02*
X112014819Y-135794475D01*
X111491009Y-134794475D02*
X111491009Y-134461142D01*
X112014819Y-134318285D02*
X112014819Y-134794475D01*
X112014819Y-134794475D02*
X111014819Y-134794475D01*
X111014819Y-134794475D02*
X111014819Y-134318285D01*
X111919580Y-133318285D02*
X111967200Y-133365904D01*
X111967200Y-133365904D02*
X112014819Y-133508761D01*
X112014819Y-133508761D02*
X112014819Y-133603999D01*
X112014819Y-133603999D02*
X111967200Y-133746856D01*
X111967200Y-133746856D02*
X111871961Y-133842094D01*
X111871961Y-133842094D02*
X111776723Y-133889713D01*
X111776723Y-133889713D02*
X111586247Y-133937332D01*
X111586247Y-133937332D02*
X111443390Y-133937332D01*
X111443390Y-133937332D02*
X111252914Y-133889713D01*
X111252914Y-133889713D02*
X111157676Y-133842094D01*
X111157676Y-133842094D02*
X111062438Y-133746856D01*
X111062438Y-133746856D02*
X111014819Y-133603999D01*
X111014819Y-133603999D02*
X111014819Y-133508761D01*
X111014819Y-133508761D02*
X111062438Y-133365904D01*
X111062438Y-133365904D02*
X111110057Y-133318285D01*
X111491009Y-132889713D02*
X111491009Y-132556380D01*
X112014819Y-132413523D02*
X112014819Y-132889713D01*
X112014819Y-132889713D02*
X111014819Y-132889713D01*
X111014819Y-132889713D02*
X111014819Y-132413523D01*
X112014819Y-131984951D02*
X111014819Y-131984951D01*
X111014819Y-131984951D02*
X112014819Y-131413523D01*
X112014819Y-131413523D02*
X111014819Y-131413523D01*
X111593333Y-116439580D02*
X111545714Y-116487200D01*
X111545714Y-116487200D02*
X111402857Y-116534819D01*
X111402857Y-116534819D02*
X111307619Y-116534819D01*
X111307619Y-116534819D02*
X111164762Y-116487200D01*
X111164762Y-116487200D02*
X111069524Y-116391961D01*
X111069524Y-116391961D02*
X111021905Y-116296723D01*
X111021905Y-116296723D02*
X110974286Y-116106247D01*
X110974286Y-116106247D02*
X110974286Y-115963390D01*
X110974286Y-115963390D02*
X111021905Y-115772914D01*
X111021905Y-115772914D02*
X111069524Y-115677676D01*
X111069524Y-115677676D02*
X111164762Y-115582438D01*
X111164762Y-115582438D02*
X111307619Y-115534819D01*
X111307619Y-115534819D02*
X111402857Y-115534819D01*
X111402857Y-115534819D02*
X111545714Y-115582438D01*
X111545714Y-115582438D02*
X111593333Y-115630057D01*
X112450476Y-115868152D02*
X112450476Y-116534819D01*
X112212381Y-115487200D02*
X111974286Y-116201485D01*
X111974286Y-116201485D02*
X112593333Y-116201485D01*
D11*
%TO.C,U6*%
X120375000Y-135715000D02*
X120375000Y-117815000D01*
X120375000Y-117815000D02*
X115875000Y-117815000D01*
X119125000Y-135715000D02*
X120375000Y-135715000D01*
X115875000Y-135715000D02*
X117125000Y-135715000D01*
X115875000Y-117815000D02*
X115875000Y-135715000D01*
X119125000Y-135715000D02*
G75*
G03*
X117125000Y-135715000I-1000000J0D01*
G01*
%TO.C,U4*%
X120360000Y-114360000D02*
X120360000Y-88840000D01*
X120360000Y-88840000D02*
X115860000Y-88840000D01*
X119110000Y-114360000D02*
X120360000Y-114360000D01*
X115860000Y-114360000D02*
X117110000Y-114360000D01*
X115860000Y-88840000D02*
X115860000Y-114360000D01*
X119110000Y-114360000D02*
G75*
G03*
X117110000Y-114360000I-1000000J0D01*
G01*
%TO.C,C64*%
X114220000Y-136070000D02*
X114220000Y-136385000D01*
X114220000Y-136070000D02*
X119460000Y-136070000D01*
X114220000Y-138495000D02*
X114220000Y-138810000D01*
X114220000Y-138810000D02*
X119460000Y-138810000D01*
X119460000Y-136070000D02*
X119460000Y-136385000D01*
X119460000Y-138495000D02*
X119460000Y-138810000D01*
%TO.C,TP1*%
X112510000Y-121680000D02*
G75*
G03*
X112510000Y-121680000I-950000J0D01*
G01*
%TO.C,TP2*%
X112510000Y-137440000D02*
G75*
G03*
X112510000Y-137440000I-950000J0D01*
G01*
%TO.C,C4*%
X114220000Y-114710000D02*
X114220000Y-115025000D01*
X114220000Y-114710000D02*
X119460000Y-114710000D01*
X114220000Y-117135000D02*
X114220000Y-117450000D01*
X114220000Y-117450000D02*
X119460000Y-117450000D01*
X119460000Y-114710000D02*
X119460000Y-115025000D01*
X119460000Y-117135000D02*
X119460000Y-117450000D01*
%TD*%
%LPC*%
D12*
%TO.C,U6*%
X121935000Y-134385000D03*
D13*
X121935000Y-131845000D03*
X121935000Y-129305000D03*
X121935000Y-126765000D03*
X121935000Y-124225000D03*
X121935000Y-121685000D03*
X121935000Y-119145000D03*
X114315000Y-119145000D03*
X114315000Y-121685000D03*
X114315000Y-124225000D03*
X114315000Y-126765000D03*
X114315000Y-129305000D03*
X114315000Y-131845000D03*
X114315000Y-134385000D03*
%TD*%
D12*
%TO.C,U4*%
X121920000Y-113030000D03*
D13*
X121920000Y-110490000D03*
X121920000Y-107950000D03*
X121920000Y-105410000D03*
X121920000Y-102870000D03*
X121920000Y-100330000D03*
X121920000Y-97790000D03*
X121920000Y-95250000D03*
X121920000Y-92710000D03*
X121920000Y-90170000D03*
X114300000Y-90170000D03*
X114300000Y-92710000D03*
X114300000Y-95250000D03*
X114300000Y-97790000D03*
X114300000Y-100330000D03*
X114300000Y-102870000D03*
X114300000Y-105410000D03*
X114300000Y-107950000D03*
X114300000Y-110490000D03*
X114300000Y-113030000D03*
%TD*%
D14*
%TO.C,C64*%
X114340000Y-137440000D03*
X119340000Y-137440000D03*
%TD*%
D15*
%TO.C,TP1*%
X111560000Y-121680000D03*
%TD*%
%TO.C,TP2*%
X111560000Y-137440000D03*
%TD*%
D14*
%TO.C,C4*%
X114340000Y-116080000D03*
X119340000Y-116080000D03*
%TD*%
D16*
%TO.C,J1*%
X119380000Y-113030000D03*
X119380000Y-110490000D03*
X119380000Y-107950000D03*
X119380000Y-105410000D03*
X119380000Y-102870000D03*
X119380000Y-100330000D03*
X119380000Y-97790000D03*
X119380000Y-95250000D03*
X119380000Y-92710000D03*
X119380000Y-90170000D03*
%TD*%
%TO.C,J2*%
X111760000Y-90170000D03*
X111760000Y-92710000D03*
X111760000Y-95250000D03*
X111760000Y-97790000D03*
X111760000Y-100330000D03*
X111760000Y-102870000D03*
X111760000Y-105410000D03*
X111760000Y-107950000D03*
X111760000Y-110490000D03*
X111760000Y-113030000D03*
%TD*%
%LPD*%
M02*
