%TF.GenerationSoftware,KiCad,Pcbnew,7.0.9*%
%TF.CreationDate,2024-01-21T19:13:06+01:00*%
%TF.ProjectId,rev-1-fix,7265762d-312d-4666-9978-2e6b69636164,rev?*%
%TF.SameCoordinates,Original*%
%TF.FileFunction,Copper,L1,Top*%
%TF.FilePolarity,Positive*%
%FSLAX46Y46*%
G04 Gerber Fmt 4.6, Leading zero omitted, Abs format (unit mm)*
G04 Created by KiCad (PCBNEW 7.0.9) date 2024-01-21 19:13:06*
%MOMM*%
%LPD*%
G01*
G04 APERTURE LIST*
%TA.AperFunction,ComponentPad*%
%ADD10R,2.400000X1.600000*%
%TD*%
%TA.AperFunction,ComponentPad*%
%ADD11O,2.400000X1.600000*%
%TD*%
%TA.AperFunction,ComponentPad*%
%ADD12C,1.600000*%
%TD*%
%TA.AperFunction,ComponentPad*%
%ADD13C,1.500000*%
%TD*%
%TA.AperFunction,ComponentPad*%
%ADD14O,1.700000X1.700000*%
%TD*%
%TA.AperFunction,Conductor*%
%ADD15C,0.300000*%
%TD*%
G04 APERTURE END LIST*
D10*
%TO.P,U6,1*%
%TO.N,GND*%
X121935000Y-134385000D03*
D11*
%TO.P,U6,2*%
X121935000Y-131845000D03*
%TO.P,U6,3*%
%TO.N,unconnected-(U6-Pad3)*%
X121935000Y-129305000D03*
%TO.P,U6,4*%
%TO.N,GND*%
X121935000Y-126765000D03*
%TO.P,U6,5*%
X121935000Y-124225000D03*
%TO.P,U6,6*%
%TO.N,unconnected-(U6-Pad6)*%
X121935000Y-121685000D03*
%TO.P,U6,7,GND*%
%TO.N,GND*%
X121935000Y-119145000D03*
%TO.P,U6,8*%
%TO.N,Net-(U4-CE)*%
X114315000Y-119145000D03*
%TO.P,U6,9*%
%TO.N,Net-(TP1-Pad1)*%
X114315000Y-121685000D03*
%TO.P,U6,10*%
%TO.N,Net-(TP2-Pad1)*%
X114315000Y-124225000D03*
%TO.P,U6,11*%
%TO.N,unconnected-(U6-Pad11)*%
X114315000Y-126765000D03*
%TO.P,U6,12*%
%TO.N,GND*%
X114315000Y-129305000D03*
%TO.P,U6,13*%
X114315000Y-131845000D03*
%TO.P,U6,14,VCC*%
%TO.N,+5V*%
X114315000Y-134385000D03*
%TD*%
D10*
%TO.P,U4,1,A->B*%
%TO.N,Net-(J1-Pin_1)*%
X121920000Y-113030000D03*
D11*
%TO.P,U4,2,A0*%
%TO.N,Net-(J1-Pin_2)*%
X121920000Y-110490000D03*
%TO.P,U4,3,A1*%
%TO.N,Net-(J1-Pin_3)*%
X121920000Y-107950000D03*
%TO.P,U4,4,A2*%
%TO.N,Net-(J1-Pin_4)*%
X121920000Y-105410000D03*
%TO.P,U4,5,A3*%
%TO.N,Net-(J1-Pin_5)*%
X121920000Y-102870000D03*
%TO.P,U4,6,A4*%
%TO.N,Net-(J1-Pin_6)*%
X121920000Y-100330000D03*
%TO.P,U4,7,A5*%
%TO.N,Net-(J1-Pin_7)*%
X121920000Y-97790000D03*
%TO.P,U4,8,A6*%
%TO.N,Net-(J1-Pin_8)*%
X121920000Y-95250000D03*
%TO.P,U4,9,A7*%
%TO.N,Net-(J1-Pin_9)*%
X121920000Y-92710000D03*
%TO.P,U4,10,GND*%
%TO.N,GND*%
X121920000Y-90170000D03*
%TO.P,U4,11,B7*%
%TO.N,Net-(J2-Pin_1)*%
X114300000Y-90170000D03*
%TO.P,U4,12,B6*%
%TO.N,Net-(J2-Pin_2)*%
X114300000Y-92710000D03*
%TO.P,U4,13,B5*%
%TO.N,Net-(J2-Pin_3)*%
X114300000Y-95250000D03*
%TO.P,U4,14,B4*%
%TO.N,Net-(J2-Pin_4)*%
X114300000Y-97790000D03*
%TO.P,U4,15,B3*%
%TO.N,Net-(J2-Pin_5)*%
X114300000Y-100330000D03*
%TO.P,U4,16,B2*%
%TO.N,Net-(J2-Pin_6)*%
X114300000Y-102870000D03*
%TO.P,U4,17,B1*%
%TO.N,Net-(J2-Pin_7)*%
X114300000Y-105410000D03*
%TO.P,U4,18,B0*%
%TO.N,Net-(J2-Pin_8)*%
X114300000Y-107950000D03*
%TO.P,U4,19,CE*%
%TO.N,Net-(U4-CE)*%
X114300000Y-110490000D03*
%TO.P,U4,20,VCC*%
%TO.N,+5V*%
X114300000Y-113030000D03*
%TD*%
D12*
%TO.P,C64,1*%
%TO.N,+5V*%
X114340000Y-137440000D03*
%TO.P,C64,2*%
%TO.N,GND*%
X119340000Y-137440000D03*
%TD*%
D13*
%TO.P,TP1,1,1*%
%TO.N,Net-(TP1-Pad1)*%
X111560000Y-121680000D03*
%TD*%
%TO.P,TP2,1,1*%
%TO.N,Net-(TP2-Pad1)*%
X111560000Y-137440000D03*
%TD*%
D12*
%TO.P,C4,1*%
%TO.N,+5V*%
X114340000Y-116080000D03*
%TO.P,C4,2*%
%TO.N,GND*%
X119340000Y-116080000D03*
%TD*%
D14*
%TO.P,J1,1,Pin_1*%
%TO.N,Net-(J1-Pin_1)*%
X119380000Y-113030000D03*
%TO.P,J1,2,Pin_2*%
%TO.N,Net-(J1-Pin_2)*%
X119380000Y-110490000D03*
%TO.P,J1,3,Pin_3*%
%TO.N,Net-(J1-Pin_3)*%
X119380000Y-107950000D03*
%TO.P,J1,4,Pin_4*%
%TO.N,Net-(J1-Pin_4)*%
X119380000Y-105410000D03*
%TO.P,J1,5,Pin_5*%
%TO.N,Net-(J1-Pin_5)*%
X119380000Y-102870000D03*
%TO.P,J1,6,Pin_6*%
%TO.N,Net-(J1-Pin_6)*%
X119380000Y-100330000D03*
%TO.P,J1,7,Pin_7*%
%TO.N,Net-(J1-Pin_7)*%
X119380000Y-97790000D03*
%TO.P,J1,8,Pin_8*%
%TO.N,Net-(J1-Pin_8)*%
X119380000Y-95250000D03*
%TO.P,J1,9,Pin_9*%
%TO.N,Net-(J1-Pin_9)*%
X119380000Y-92710000D03*
%TO.P,J1,10,Pin_10*%
%TO.N,GND*%
X119380000Y-90170000D03*
%TD*%
%TO.P,J2,1,Pin_1*%
%TO.N,Net-(J2-Pin_1)*%
X111760000Y-90170000D03*
%TO.P,J2,2,Pin_2*%
%TO.N,Net-(J2-Pin_2)*%
X111760000Y-92710000D03*
%TO.P,J2,3,Pin_3*%
%TO.N,Net-(J2-Pin_3)*%
X111760000Y-95250000D03*
%TO.P,J2,4,Pin_4*%
%TO.N,Net-(J2-Pin_4)*%
X111760000Y-97790000D03*
%TO.P,J2,5,Pin_5*%
%TO.N,Net-(J2-Pin_5)*%
X111760000Y-100330000D03*
%TO.P,J2,6,Pin_6*%
%TO.N,Net-(J2-Pin_6)*%
X111760000Y-102870000D03*
%TO.P,J2,7,Pin_7*%
%TO.N,Net-(J2-Pin_7)*%
X111760000Y-105410000D03*
%TO.P,J2,8,Pin_8*%
%TO.N,Net-(J2-Pin_8)*%
X111760000Y-107950000D03*
%TO.P,J2,9,Pin_9*%
%TO.N,GND*%
X111760000Y-110490000D03*
%TO.P,J2,10,Pin_10*%
%TO.N,+5V*%
X111760000Y-113030000D03*
%TD*%
D15*
%TO.N,Net-(J1-Pin_1)*%
X119380000Y-113030000D02*
X121920000Y-113030000D01*
%TO.N,Net-(J1-Pin_2)*%
X119380000Y-110490000D02*
X121920000Y-110490000D01*
%TO.N,Net-(J1-Pin_3)*%
X119380000Y-107950000D02*
X121920000Y-107950000D01*
%TO.N,Net-(J1-Pin_4)*%
X119380000Y-105410000D02*
X121920000Y-105410000D01*
%TO.N,Net-(J1-Pin_5)*%
X119380000Y-102870000D02*
X121920000Y-102870000D01*
%TO.N,Net-(J1-Pin_6)*%
X119380000Y-100330000D02*
X121920000Y-100330000D01*
%TO.N,Net-(J1-Pin_7)*%
X119380000Y-97790000D02*
X121920000Y-97790000D01*
%TO.N,Net-(J1-Pin_8)*%
X119380000Y-95250000D02*
X121920000Y-95250000D01*
%TO.N,Net-(J1-Pin_9)*%
X119380000Y-92710000D02*
X121920000Y-92710000D01*
%TO.N,Net-(J2-Pin_1)*%
X111760000Y-90170000D02*
X114300000Y-90170000D01*
%TO.N,Net-(J2-Pin_2)*%
X111760000Y-92710000D02*
X114300000Y-92710000D01*
%TO.N,Net-(J2-Pin_3)*%
X111760000Y-95250000D02*
X114300000Y-95250000D01*
%TO.N,Net-(J2-Pin_4)*%
X111760000Y-97790000D02*
X114300000Y-97790000D01*
%TO.N,Net-(J2-Pin_5)*%
X111760000Y-100330000D02*
X114300000Y-100330000D01*
%TO.N,Net-(J2-Pin_6)*%
X111760000Y-102870000D02*
X114300000Y-102870000D01*
%TO.N,Net-(J2-Pin_7)*%
X111760000Y-105410000D02*
X114300000Y-105410000D01*
%TO.N,Net-(J2-Pin_8)*%
X111760000Y-107950000D02*
X114300000Y-107950000D01*
%TO.N,Net-(U4-CE)*%
X115850000Y-117610000D02*
X115850000Y-112040000D01*
X114315000Y-119145000D02*
X115850000Y-117610000D01*
X115850000Y-112040000D02*
X114300000Y-110490000D01*
%TO.N,Net-(TP1-Pad1)*%
X111560000Y-121680000D02*
X114310000Y-121680000D01*
X114310000Y-121680000D02*
X114315000Y-121685000D01*
%TO.N,Net-(TP2-Pad1)*%
X111560000Y-126980000D02*
X114315000Y-124225000D01*
X111560000Y-137440000D02*
X111560000Y-126980000D01*
%TD*%
M02*
