M48
; DRILL file {KiCad 7.0.9} date Sun Jan 21 19:13:13 2024
; FORMAT={-:-/ absolute / inch / decimal}
; #@! TF.CreationDate,2024-01-21T19:13:13+01:00
; #@! TF.GenerationSoftware,Kicad,Pcbnew,7.0.9
; #@! TF.FileFunction,MixedPlating,1,2
FMAT,2
INCH
; #@! TA.AperFunction,Plated,PTH,ComponentDrill
T1C0.0276
; #@! TA.AperFunction,Plated,PTH,ComponentDrill
T2C0.0315
; #@! TA.AperFunction,Plated,PTH,ComponentDrill
T3C0.0394
%
G90
G05
T1
X4.3921Y-4.7906
X4.3921Y-5.411
T2
X4.5Y-3.55
X4.5Y-3.65
X4.5Y-3.75
X4.5Y-3.85
X4.5Y-3.95
X4.5Y-4.05
X4.5Y-4.15
X4.5Y-4.25
X4.5Y-4.35
X4.5Y-4.45
X4.5006Y-4.6907
X4.5006Y-4.7907
X4.5006Y-4.8907
X4.5006Y-4.9907
X4.5006Y-5.0907
X4.5006Y-5.1907
X4.5006Y-5.2907
X4.5016Y-4.5701
X4.5016Y-5.411
X4.6984Y-4.5701
X4.6984Y-5.411
X4.8Y-3.55
X4.8Y-3.65
X4.8Y-3.75
X4.8Y-3.85
X4.8Y-3.95
X4.8Y-4.05
X4.8Y-4.15
X4.8Y-4.25
X4.8Y-4.35
X4.8Y-4.45
X4.8006Y-4.6907
X4.8006Y-4.7907
X4.8006Y-4.8907
X4.8006Y-4.9907
X4.8006Y-5.0907
X4.8006Y-5.1907
X4.8006Y-5.2907
T3
X4.4Y-3.55
X4.4Y-3.65
X4.4Y-3.75
X4.4Y-3.85
X4.4Y-3.95
X4.4Y-4.05
X4.4Y-4.15
X4.4Y-4.25
X4.4Y-4.35
X4.4Y-4.45
X4.7Y-3.55
X4.7Y-3.65
X4.7Y-3.75
X4.7Y-3.85
X4.7Y-3.95
X4.7Y-4.05
X4.7Y-4.15
X4.7Y-4.25
X4.7Y-4.35
X4.7Y-4.45
T0
M30
