M48
; DRILL file {KiCad 7.0.9} date Sun Nov 19 21:38:56 2023
; FORMAT={-:-/ absolute / inch / decimal}
; #@! TF.CreationDate,2023-11-19T21:38:56+01:00
; #@! TF.GenerationSoftware,Kicad,Pcbnew,7.0.9
; #@! TF.FileFunction,MixedPlating,1,2
FMAT,2
INCH
; #@! TA.AperFunction,Plated,PTH,ComponentDrill
T1C0.0295
; #@! TA.AperFunction,Plated,PTH,ComponentDrill
T2C0.0315
; #@! TA.AperFunction,Plated,PTH,ComponentDrill
T3C0.0394
; #@! TA.AperFunction,Plated,PTH,ComponentDrill
T4C0.0512
; #@! TA.AperFunction,Plated,PTH,ComponentDrill
T5C0.1260
; #@! TA.AperFunction,NonPlated,NPTH,ComponentDrill
T6C0.0945
; #@! TA.AperFunction,NonPlated,NPTH,ComponentDrill
T7C0.1063
%
G90
G05
T1
X6.5201Y-3.0535
X6.5201Y-3.1035
X6.5201Y-3.1535
T2
X4.7551Y-2.3795
X4.7551Y-2.5764
X4.7783Y-2.7957
X4.8752Y-2.3795
X4.8752Y-2.6795
X4.8752Y-2.9138
X4.9752Y-2.3795
X4.9752Y-2.6795
X4.9752Y-2.7957
X5.072Y-2.9138
X5.0752Y-2.3795
X5.0752Y-2.6795
X5.0783Y-2.7957
X5.1752Y-2.3795
X5.1752Y-2.6795
X5.2752Y-2.3795
X5.2752Y-2.6795
X5.2752Y-2.7957
X5.3752Y-2.3795
X5.3752Y-2.6795
X5.3752Y-2.7957
X5.4752Y-2.3795
X5.4752Y-2.6795
X5.572Y-2.7957
X5.5752Y-2.3795
X5.5752Y-2.6795
X5.6378Y-5.5787
X5.8425Y-2.3795
X5.8425Y-2.5764
X5.8626Y-2.889
X5.9378Y-5.5787
X5.9626Y-2.3795
X5.9626Y-2.6795
X5.9626Y-2.889
X6.0626Y-2.3795
X6.0626Y-2.6795
X6.0626Y-2.889
X6.1626Y-2.3795
X6.1626Y-2.6795
X6.1626Y-2.889
X6.2626Y-2.3795
X6.2626Y-2.6795
X6.2626Y-2.889
X6.3626Y-2.3795
X6.3626Y-2.6795
X6.3626Y-2.889
X6.4626Y-2.3795
X6.4626Y-2.6795
X6.4626Y-2.889
X6.5626Y-2.3795
X6.5626Y-2.6795
X6.5626Y-2.889
T3
X4.9661Y-2.0087
X4.9886Y-3.1646
X4.9886Y-3.2646
X5.0207Y-1.8969
X5.0752Y-2.0087
X5.0886Y-3.1646
X5.0886Y-3.2646
X5.0886Y-5.7689
X5.0886Y-5.8689
X5.1297Y-1.8969
X5.1843Y-2.0087
X5.1886Y-3.1646
X5.1886Y-3.2646
X5.1886Y-5.7689
X5.1886Y-5.8689
X5.2388Y-1.8969
X5.2886Y-3.1646
X5.2886Y-3.2646
X5.2886Y-5.7689
X5.2886Y-5.8689
X5.2933Y-2.0087
X5.3478Y-1.8969
X5.3886Y-3.1646
X5.3886Y-3.2646
X5.3886Y-5.7689
X5.3886Y-5.8689
X5.4024Y-2.0087
X5.4886Y-3.1646
X5.4886Y-3.2646
X5.4886Y-5.7689
X5.4886Y-5.8689
X5.5886Y-3.1646
X5.5886Y-3.2646
X5.5886Y-5.7689
X5.5886Y-5.8689
X5.6886Y-3.1646
X5.6886Y-3.2646
X5.6886Y-5.7689
X5.6886Y-5.8689
X5.7079Y-2.4933
X5.7886Y-3.1646
X5.7886Y-3.2646
X5.7886Y-5.7689
X5.7886Y-5.8689
X5.8886Y-3.1646
X5.8886Y-3.2646
X5.8886Y-5.7689
X5.8886Y-5.8689
X5.9886Y-3.1646
X5.9886Y-3.2646
X5.9886Y-5.7689
X5.9886Y-5.8689
X6.0886Y-3.1646
X6.0886Y-3.2646
X6.0886Y-5.7689
X6.0886Y-5.8689
X6.1886Y-3.1646
X6.1886Y-3.2646
X6.737Y-2.889
X6.737Y-3.0406
T4
X5.9213Y-2.0705
X6.0197Y-2.1689
X6.1181Y-1.6768
X6.2165Y-2.0705
X6.2165Y-2.2673
X6.315Y-1.6768
X6.4134Y-2.1689
X6.5118Y-2.0705
T5
X4.6921Y-1.9528
X5.6764Y-1.9528
T6
X5.9213Y-1.8736
X6.5118Y-1.8736
T7
X4.4402Y-1.6945
X4.4402Y-3.2587
X4.9012Y-5.8189
X6.276Y-5.8189
X6.737Y-1.6945
X6.737Y-3.2587
T0
M30
