%TF.GenerationSoftware,KiCad,Pcbnew,7.0.9*%
%TF.CreationDate,2023-11-19T21:56:13+01:00*%
%TF.ProjectId,kim-1-aux-card-usb,6b696d2d-312d-4617-9578-2d636172642d,rev?*%
%TF.SameCoordinates,Original*%
%TF.FileFunction,Soldermask,Top*%
%TF.FilePolarity,Negative*%
%FSLAX46Y46*%
G04 Gerber Fmt 4.6, Leading zero omitted, Abs format (unit mm)*
G04 Created by KiCad (PCBNEW 7.0.9) date 2023-11-19 21:56:13*
%MOMM*%
%LPD*%
G01*
G04 APERTURE LIST*
G04 Aperture macros list*
%AMRoundRect*
0 Rectangle with rounded corners*
0 $1 Rounding radius*
0 $2 $3 $4 $5 $6 $7 $8 $9 X,Y pos of 4 corners*
0 Add a 4 corners polygon primitive as box body*
4,1,4,$2,$3,$4,$5,$6,$7,$8,$9,$2,$3,0*
0 Add four circle primitives for the rounded corners*
1,1,$1+$1,$2,$3*
1,1,$1+$1,$4,$5*
1,1,$1+$1,$6,$7*
1,1,$1+$1,$8,$9*
0 Add four rect primitives between the rounded corners*
20,1,$1+$1,$2,$3,$4,$5,0*
20,1,$1+$1,$4,$5,$6,$7,0*
20,1,$1+$1,$6,$7,$8,$9,0*
20,1,$1+$1,$8,$9,$2,$3,0*%
G04 Aperture macros list end*
%ADD10RoundRect,0.237500X-0.237500X0.300000X-0.237500X-0.300000X0.237500X-0.300000X0.237500X0.300000X0*%
%ADD11RoundRect,0.250000X-0.450000X0.350000X-0.450000X-0.350000X0.450000X-0.350000X0.450000X0.350000X0*%
%ADD12RoundRect,0.237500X-0.237500X0.250000X-0.237500X-0.250000X0.237500X-0.250000X0.237500X0.250000X0*%
%ADD13RoundRect,0.237500X0.237500X-0.250000X0.237500X0.250000X-0.237500X0.250000X-0.237500X-0.250000X0*%
%ADD14C,2.700000*%
%ADD15RoundRect,0.237500X0.300000X0.237500X-0.300000X0.237500X-0.300000X-0.237500X0.300000X-0.237500X0*%
%ADD16R,1.500000X1.050000*%
%ADD17O,1.500000X1.050000*%
%ADD18C,0.650000*%
%ADD19R,0.600000X1.150000*%
%ADD20R,0.300000X1.150000*%
%ADD21O,1.000000X2.100000*%
%ADD22O,1.000000X1.800000*%
%ADD23RoundRect,0.250000X1.250000X0.550000X-1.250000X0.550000X-1.250000X-0.550000X1.250000X-0.550000X0*%
%ADD24R,1.600000X2.400000*%
%ADD25O,1.600000X2.400000*%
%ADD26R,1.600000X1.600000*%
%ADD27O,1.600000X1.600000*%
%ADD28RoundRect,0.237500X-0.287500X-0.237500X0.287500X-0.237500X0.287500X0.237500X-0.287500X0.237500X0*%
%ADD29RoundRect,0.250000X0.600000X-0.600000X0.600000X0.600000X-0.600000X0.600000X-0.600000X-0.600000X0*%
%ADD30C,1.700000*%
%ADD31RoundRect,0.237500X0.237500X-0.300000X0.237500X0.300000X-0.237500X0.300000X-0.237500X-0.300000X0*%
%ADD32RoundRect,0.237500X0.287500X0.237500X-0.287500X0.237500X-0.287500X-0.237500X0.287500X-0.237500X0*%
%ADD33R,1.200000X0.400000*%
%ADD34R,1.700000X1.700000*%
%ADD35O,1.700000X1.700000*%
%ADD36C,1.600000*%
%ADD37C,2.400000*%
%ADD38RoundRect,0.102000X0.975000X0.975000X-0.975000X0.975000X-0.975000X-0.975000X0.975000X-0.975000X0*%
%ADD39C,2.154000*%
%ADD40C,0.500000*%
G04 APERTURE END LIST*
D10*
%TO.C,C3*%
X123050000Y-53617500D03*
X123050000Y-55342500D03*
%TD*%
D11*
%TO.C,FB1*%
X121490000Y-49430000D03*
X121490000Y-51430000D03*
%TD*%
D12*
%TO.C,R1*%
X123230000Y-49317500D03*
X123230000Y-51142500D03*
%TD*%
D13*
%TO.C,R6*%
X128470000Y-59560000D03*
X128470000Y-57735000D03*
%TD*%
D14*
%TO.C,REF\u002A\u002A*%
X112780000Y-82770000D03*
%TD*%
D12*
%TO.C,R3*%
X121550000Y-53567500D03*
X121550000Y-55392500D03*
%TD*%
D15*
%TO.C,C5*%
X119692500Y-51550000D03*
X117967500Y-51550000D03*
%TD*%
D16*
%TO.C,Q1*%
X165610000Y-77560000D03*
D17*
X165610000Y-78830000D03*
X165610000Y-80100000D03*
%TD*%
D14*
%TO.C,REF\u002A\u002A*%
X171120000Y-43040000D03*
%TD*%
D18*
%TO.C,J7*%
X127110000Y-46365000D03*
X121330000Y-46365000D03*
D19*
X127420000Y-47440000D03*
X126620000Y-47440000D03*
D20*
X125470000Y-47440000D03*
X124470000Y-47440000D03*
X123970000Y-47440000D03*
X122970000Y-47440000D03*
D19*
X121820000Y-47440000D03*
X121020000Y-47440000D03*
X121020000Y-47440000D03*
X121820000Y-47440000D03*
D20*
X122470000Y-47440000D03*
X123470000Y-47440000D03*
X124970000Y-47440000D03*
X125970000Y-47440000D03*
D19*
X126620000Y-47440000D03*
X127420000Y-47440000D03*
D21*
X128540000Y-46865000D03*
D22*
X128540000Y-42685000D03*
D21*
X119900000Y-46865000D03*
D22*
X119900000Y-42685000D03*
%TD*%
D12*
%TO.C,R4*%
X126750000Y-53567500D03*
X126750000Y-55392500D03*
%TD*%
D15*
%TO.C,C2*%
X119692500Y-49310000D03*
X117967500Y-49310000D03*
%TD*%
D14*
%TO.C,REF\u002A\u002A*%
X171120000Y-82770000D03*
%TD*%
%TO.C,REF\u002A\u002A*%
X159410000Y-147800000D03*
%TD*%
D23*
%TO.C,C6*%
X117240000Y-55480000D03*
X112840000Y-55480000D03*
%TD*%
D24*
%TO.C,U1*%
X151450000Y-68060000D03*
D25*
X153990000Y-68060000D03*
X156530000Y-68060000D03*
X159070000Y-68060000D03*
X161610000Y-68060000D03*
X164150000Y-68060000D03*
X166690000Y-68060000D03*
X166690000Y-60440000D03*
X164150000Y-60440000D03*
X161610000Y-60440000D03*
X159070000Y-60440000D03*
X156530000Y-60440000D03*
X153990000Y-60440000D03*
X151450000Y-60440000D03*
%TD*%
D26*
%TO.C,SW1*%
X150820000Y-141700000D03*
D27*
X143200000Y-141700000D03*
%TD*%
D28*
%TO.C,D1*%
X121465000Y-63020000D03*
X123215000Y-63020000D03*
%TD*%
D29*
%TO.C,J2*%
X126710000Y-82920000D03*
D30*
X126710000Y-80380000D03*
X129250000Y-82920000D03*
X129250000Y-80380000D03*
X131790000Y-82920000D03*
X131790000Y-80380000D03*
X134330000Y-82920000D03*
X134330000Y-80380000D03*
X136870000Y-82920000D03*
X136870000Y-80380000D03*
X139410000Y-82920000D03*
X139410000Y-80380000D03*
X141950000Y-82920000D03*
X141950000Y-80380000D03*
X144490000Y-82920000D03*
X144490000Y-80380000D03*
X147030000Y-82920000D03*
X147030000Y-80380000D03*
X149570000Y-82920000D03*
X149570000Y-80380000D03*
X152110000Y-82920000D03*
X152110000Y-80380000D03*
X154650000Y-82920000D03*
X154650000Y-80380000D03*
X157190000Y-82920000D03*
X157190000Y-80380000D03*
%TD*%
D26*
%TO.C,RN1*%
X148910000Y-73380000D03*
D27*
X151450000Y-73380000D03*
X153990000Y-73380000D03*
X156530000Y-73380000D03*
X159070000Y-73380000D03*
X161610000Y-73380000D03*
X164150000Y-73380000D03*
X166690000Y-73380000D03*
%TD*%
D31*
%TO.C,C7*%
X119915000Y-57402500D03*
X119915000Y-55677500D03*
%TD*%
D32*
%TO.C,D2*%
X126815000Y-63020000D03*
X125065000Y-63020000D03*
%TD*%
D33*
%TO.C,U2*%
X126750000Y-61212500D03*
X126750000Y-60577500D03*
X126750000Y-59942500D03*
X126750000Y-59307500D03*
X126750000Y-58672500D03*
X126750000Y-58037500D03*
X126750000Y-57402500D03*
X126750000Y-56767500D03*
X121550000Y-56767500D03*
X121550000Y-57402500D03*
X121550000Y-58037500D03*
X121550000Y-58672500D03*
X121550000Y-59307500D03*
X121550000Y-59942500D03*
X121550000Y-60577500D03*
X121550000Y-61212500D03*
%TD*%
D34*
%TO.C,J8*%
X138800000Y-58670000D03*
D35*
X138800000Y-61210000D03*
X136260000Y-58670000D03*
X136260000Y-61210000D03*
X133720000Y-58670000D03*
X133720000Y-61210000D03*
%TD*%
D13*
%TO.C,R5*%
X119900000Y-61382500D03*
X119900000Y-59557500D03*
%TD*%
D10*
%TO.C,C4*%
X125250000Y-53617500D03*
X125250000Y-55342500D03*
%TD*%
D34*
%TO.C,J9*%
X135990000Y-50600000D03*
D35*
X138530000Y-50600000D03*
X141070000Y-50600000D03*
%TD*%
D36*
%TO.C,C1*%
X148400000Y-60440000D03*
X148400000Y-65440000D03*
%TD*%
D37*
%TO.C,J3*%
X165400000Y-47590000D03*
X150400000Y-47590000D03*
D38*
X150400000Y-52590000D03*
D39*
X152900000Y-55090000D03*
X157900000Y-52590000D03*
X162900000Y-55090000D03*
X165400000Y-52590000D03*
X157900000Y-57590000D03*
X160400000Y-42590000D03*
X155400000Y-42590000D03*
%TD*%
D14*
%TO.C,REF\u002A\u002A*%
X124490000Y-147800000D03*
%TD*%
%TO.C,REF\u002A\u002A*%
X112780000Y-43040000D03*
%TD*%
D12*
%TO.C,R2*%
X125340000Y-49317500D03*
X125340000Y-51142500D03*
%TD*%
D34*
%TO.C,J5*%
X171120000Y-73380000D03*
%TD*%
%TO.C,J1*%
X129250000Y-149070000D03*
D35*
X129250000Y-146530000D03*
X131790000Y-149070000D03*
X131790000Y-146530000D03*
X134330000Y-149070000D03*
X134330000Y-146530000D03*
X136870000Y-149070000D03*
X136870000Y-146530000D03*
X139410000Y-149070000D03*
X139410000Y-146530000D03*
X141950000Y-149070000D03*
X141950000Y-146530000D03*
X144490000Y-149070000D03*
X144490000Y-146530000D03*
X147030000Y-149070000D03*
X147030000Y-146530000D03*
X149570000Y-149070000D03*
X149570000Y-146530000D03*
X152110000Y-149070000D03*
X152110000Y-146530000D03*
X154650000Y-149070000D03*
X154650000Y-146530000D03*
%TD*%
D34*
%TO.C,J6*%
X144980000Y-63330000D03*
%TD*%
%TO.C,J4*%
X171120000Y-77230000D03*
%TD*%
D40*
X125776447Y-58676053D03*
X120486447Y-48433553D03*
X124136447Y-55343553D03*
X127396447Y-48343553D03*
X117956447Y-48483553D03*
X112816447Y-56643553D03*
X123230000Y-50370000D03*
X122516447Y-59311053D03*
X112816447Y-54323553D03*
X119891447Y-54823553D03*
X117956447Y-52383553D03*
X125340000Y-50370000D03*
X126596447Y-48343553D03*
X121796447Y-48433553D03*
X125046447Y-46403553D03*
X123946447Y-46533553D03*
X127620000Y-63020000D03*
X128460000Y-60320000D03*
X125790000Y-60580000D03*
X125550000Y-57890000D03*
M02*
