M48
; DRILL file {KiCad 7.0.9} date Sun Nov 19 21:56:15 2023
; FORMAT={-:-/ absolute / inch / decimal}
; #@! TF.CreationDate,2023-11-19T21:56:15+01:00
; #@! TF.GenerationSoftware,Kicad,Pcbnew,7.0.9
; #@! TF.FileFunction,MixedPlating,1,2
FMAT,2
INCH
; #@! TA.AperFunction,Plated,PTH,ViaDrill
T1C0.0118
; #@! TA.AperFunction,Plated,PTH,ComponentDrill
T2C0.0236
; #@! TA.AperFunction,Plated,PTH,ComponentDrill
T3C0.0295
; #@! TA.AperFunction,Plated,PTH,ComponentDrill
T4C0.0315
; #@! TA.AperFunction,Plated,PTH,ComponentDrill
T5C0.0394
; #@! TA.AperFunction,Plated,PTH,ComponentDrill
T6C0.0512
; #@! TA.AperFunction,NonPlated,NPTH,ComponentDrill
T7C0.0256
; #@! TA.AperFunction,NonPlated,NPTH,ComponentDrill
T8C0.0945
; #@! TA.AperFunction,NonPlated,NPTH,ComponentDrill
T9C0.1063
%
G90
G05
T1
X4.4416Y-2.1387
X4.4416Y-2.2301
X4.644Y-1.9088
X4.644Y-2.0623
X4.7201Y-2.1584
X4.7436Y-1.9068
X4.7951Y-1.9068
X4.8235Y-2.3351
X4.8516Y-1.9831
X4.8798Y-1.832
X4.8873Y-2.1789
X4.9231Y-1.8269
X4.9346Y-1.9831
X4.9429Y-2.2791
X4.9518Y-2.3101
X4.9524Y-2.385
X4.9841Y-1.9033
X5.0156Y-1.9033
X5.0244Y-2.4811
X5.0575Y-2.3748
T3
X6.5201Y-3.0535
X6.5201Y-3.1035
X6.5201Y-3.1535
T4
X5.6378Y-5.5787
X5.8425Y-2.3795
X5.8425Y-2.5764
X5.8626Y-2.889
X5.9378Y-5.5787
X5.9626Y-2.3795
X5.9626Y-2.6795
X5.9626Y-2.889
X6.0626Y-2.3795
X6.0626Y-2.6795
X6.0626Y-2.889
X6.1626Y-2.3795
X6.1626Y-2.6795
X6.1626Y-2.889
X6.2626Y-2.3795
X6.2626Y-2.6795
X6.2626Y-2.889
X6.3626Y-2.3795
X6.3626Y-2.6795
X6.3626Y-2.889
X6.4626Y-2.3795
X6.4626Y-2.6795
X6.4626Y-2.889
X6.5626Y-2.3795
X6.5626Y-2.6795
X6.5626Y-2.889
T5
X4.9886Y-3.1646
X4.9886Y-3.2646
X5.0886Y-3.1646
X5.0886Y-3.2646
X5.0886Y-5.7689
X5.0886Y-5.8689
X5.1886Y-3.1646
X5.1886Y-3.2646
X5.1886Y-5.7689
X5.1886Y-5.8689
X5.2646Y-2.3098
X5.2646Y-2.4098
X5.2886Y-3.1646
X5.2886Y-3.2646
X5.2886Y-5.7689
X5.2886Y-5.8689
X5.3539Y-1.9921
X5.3646Y-2.3098
X5.3646Y-2.4098
X5.3886Y-3.1646
X5.3886Y-3.2646
X5.3886Y-5.7689
X5.3886Y-5.8689
X5.4539Y-1.9921
X5.4646Y-2.3098
X5.4646Y-2.4098
X5.4886Y-3.1646
X5.4886Y-3.2646
X5.4886Y-5.7689
X5.4886Y-5.8689
X5.5539Y-1.9921
X5.5886Y-3.1646
X5.5886Y-3.2646
X5.5886Y-5.7689
X5.5886Y-5.8689
X5.6886Y-3.1646
X5.6886Y-3.2646
X5.6886Y-5.7689
X5.6886Y-5.8689
X5.7079Y-2.4933
X5.7886Y-3.1646
X5.7886Y-3.2646
X5.7886Y-5.7689
X5.7886Y-5.8689
X5.8886Y-3.1646
X5.8886Y-3.2646
X5.8886Y-5.7689
X5.8886Y-5.8689
X5.9886Y-3.1646
X5.9886Y-3.2646
X5.9886Y-5.7689
X5.9886Y-5.8689
X6.0886Y-3.1646
X6.0886Y-3.2646
X6.0886Y-5.7689
X6.0886Y-5.8689
X6.1886Y-3.1646
X6.1886Y-3.2646
X6.737Y-2.889
X6.737Y-3.0406
T6
X5.9213Y-2.0705
X6.0197Y-2.1689
X6.1181Y-1.6768
X6.2165Y-2.0705
X6.2165Y-2.2673
X6.315Y-1.6768
X6.4134Y-2.1689
X6.5118Y-2.0705
T7
X4.7768Y-1.8254
X5.0043Y-1.8254
T8
X5.9213Y-1.8736
X6.5118Y-1.8736
T9
X4.4402Y-1.6945
X4.4402Y-3.2587
X4.9012Y-5.8189
X6.276Y-5.8189
X6.737Y-1.6945
X6.737Y-3.2587
T2
G00X4.7205Y-1.6963
M15
G01X4.7205Y-1.6648
M16
G05
G00X4.7205Y-1.8667
M15
G01X4.7205Y-1.8234
M16
G05
G00X5.0606Y-1.6963
M15
G01X5.0606Y-1.6648
M16
G05
G00X5.0606Y-1.8667
M15
G01X5.0606Y-1.8234
M16
G05
T0
M30
