%TF.GenerationSoftware,KiCad,Pcbnew,7.0.9*%
%TF.CreationDate,2024-02-17T15:45:49+01:00*%
%TF.ProjectId,kim-1-aux-card-usb,6b696d2d-312d-4617-9578-2d636172642d,rev?*%
%TF.SameCoordinates,Original*%
%TF.FileFunction,Legend,Bot*%
%TF.FilePolarity,Positive*%
%FSLAX46Y46*%
G04 Gerber Fmt 4.6, Leading zero omitted, Abs format (unit mm)*
G04 Created by KiCad (PCBNEW 7.0.9) date 2024-02-17 15:45:49*
%MOMM*%
%LPD*%
G01*
G04 APERTURE LIST*
G04 Aperture macros list*
%AMRoundRect*
0 Rectangle with rounded corners*
0 $1 Rounding radius*
0 $2 $3 $4 $5 $6 $7 $8 $9 X,Y pos of 4 corners*
0 Add a 4 corners polygon primitive as box body*
4,1,4,$2,$3,$4,$5,$6,$7,$8,$9,$2,$3,0*
0 Add four circle primitives for the rounded corners*
1,1,$1+$1,$2,$3*
1,1,$1+$1,$4,$5*
1,1,$1+$1,$6,$7*
1,1,$1+$1,$8,$9*
0 Add four rect primitives between the rounded corners*
20,1,$1+$1,$2,$3,$4,$5,0*
20,1,$1+$1,$4,$5,$6,$7,0*
20,1,$1+$1,$6,$7,$8,$9,0*
20,1,$1+$1,$8,$9,$2,$3,0*%
G04 Aperture macros list end*
%ADD10C,0.150000*%
%ADD11C,0.120000*%
%ADD12C,2.400000*%
%ADD13RoundRect,0.102000X0.975000X0.975000X-0.975000X0.975000X-0.975000X-0.975000X0.975000X-0.975000X0*%
%ADD14C,2.154000*%
%ADD15C,2.700000*%
%ADD16R,1.500000X1.050000*%
%ADD17O,1.500000X1.050000*%
%ADD18C,0.650000*%
%ADD19O,1.000000X2.100000*%
%ADD20O,1.000000X1.800000*%
%ADD21R,1.600000X2.400000*%
%ADD22O,1.600000X2.400000*%
%ADD23R,1.600000X1.600000*%
%ADD24O,1.600000X1.600000*%
%ADD25RoundRect,0.250000X0.600000X-0.600000X0.600000X0.600000X-0.600000X0.600000X-0.600000X-0.600000X0*%
%ADD26C,1.700000*%
%ADD27R,1.700000X1.700000*%
%ADD28O,1.700000X1.700000*%
%ADD29C,1.600000*%
%ADD30C,0.500000*%
G04 APERTURE END LIST*
D10*
X169043333Y-72834819D02*
X169043333Y-73549104D01*
X169043333Y-73549104D02*
X169090952Y-73691961D01*
X169090952Y-73691961D02*
X169186190Y-73787200D01*
X169186190Y-73787200D02*
X169329047Y-73834819D01*
X169329047Y-73834819D02*
X169424285Y-73834819D01*
X168090952Y-72834819D02*
X168567142Y-72834819D01*
X168567142Y-72834819D02*
X168614761Y-73311009D01*
X168614761Y-73311009D02*
X168567142Y-73263390D01*
X168567142Y-73263390D02*
X168471904Y-73215771D01*
X168471904Y-73215771D02*
X168233809Y-73215771D01*
X168233809Y-73215771D02*
X168138571Y-73263390D01*
X168138571Y-73263390D02*
X168090952Y-73311009D01*
X168090952Y-73311009D02*
X168043333Y-73406247D01*
X168043333Y-73406247D02*
X168043333Y-73644342D01*
X168043333Y-73644342D02*
X168090952Y-73739580D01*
X168090952Y-73739580D02*
X168138571Y-73787200D01*
X168138571Y-73787200D02*
X168233809Y-73834819D01*
X168233809Y-73834819D02*
X168471904Y-73834819D01*
X168471904Y-73834819D02*
X168567142Y-73787200D01*
X168567142Y-73787200D02*
X168614761Y-73739580D01*
X142283333Y-143174819D02*
X142283333Y-143889104D01*
X142283333Y-143889104D02*
X142330952Y-144031961D01*
X142330952Y-144031961D02*
X142426190Y-144127200D01*
X142426190Y-144127200D02*
X142569047Y-144174819D01*
X142569047Y-144174819D02*
X142664285Y-144174819D01*
X141283333Y-144174819D02*
X141854761Y-144174819D01*
X141569047Y-144174819D02*
X141569047Y-143174819D01*
X141569047Y-143174819D02*
X141664285Y-143317676D01*
X141664285Y-143317676D02*
X141759523Y-143412914D01*
X141759523Y-143412914D02*
X141854761Y-143460533D01*
X142583333Y-62784819D02*
X142583333Y-63499104D01*
X142583333Y-63499104D02*
X142630952Y-63641961D01*
X142630952Y-63641961D02*
X142726190Y-63737200D01*
X142726190Y-63737200D02*
X142869047Y-63784819D01*
X142869047Y-63784819D02*
X142964285Y-63784819D01*
X141678571Y-62784819D02*
X141869047Y-62784819D01*
X141869047Y-62784819D02*
X141964285Y-62832438D01*
X141964285Y-62832438D02*
X142011904Y-62880057D01*
X142011904Y-62880057D02*
X142107142Y-63022914D01*
X142107142Y-63022914D02*
X142154761Y-63213390D01*
X142154761Y-63213390D02*
X142154761Y-63594342D01*
X142154761Y-63594342D02*
X142107142Y-63689580D01*
X142107142Y-63689580D02*
X142059523Y-63737200D01*
X142059523Y-63737200D02*
X141964285Y-63784819D01*
X141964285Y-63784819D02*
X141773809Y-63784819D01*
X141773809Y-63784819D02*
X141678571Y-63737200D01*
X141678571Y-63737200D02*
X141630952Y-63689580D01*
X141630952Y-63689580D02*
X141583333Y-63594342D01*
X141583333Y-63594342D02*
X141583333Y-63356247D01*
X141583333Y-63356247D02*
X141630952Y-63261009D01*
X141630952Y-63261009D02*
X141678571Y-63213390D01*
X141678571Y-63213390D02*
X141773809Y-63165771D01*
X141773809Y-63165771D02*
X141964285Y-63165771D01*
X141964285Y-63165771D02*
X142059523Y-63213390D01*
X142059523Y-63213390D02*
X142107142Y-63261009D01*
X142107142Y-63261009D02*
X142154761Y-63356247D01*
X169043333Y-76684819D02*
X169043333Y-77399104D01*
X169043333Y-77399104D02*
X169090952Y-77541961D01*
X169090952Y-77541961D02*
X169186190Y-77637200D01*
X169186190Y-77637200D02*
X169329047Y-77684819D01*
X169329047Y-77684819D02*
X169424285Y-77684819D01*
X168138571Y-77018152D02*
X168138571Y-77684819D01*
X168376666Y-76637200D02*
X168614761Y-77351485D01*
X168614761Y-77351485D02*
X167995714Y-77351485D01*
D11*
%TO.C,J5*%
X172450000Y-74710000D02*
X169790000Y-74710000D01*
X172450000Y-74590000D02*
X172450000Y-74710000D01*
X171120000Y-72050000D02*
X169790000Y-72050000D01*
X169790000Y-74590000D02*
X169790000Y-74710000D01*
X169790000Y-72050000D02*
X169790000Y-73380000D01*
%TO.C,J1*%
X155980000Y-145200000D02*
X155980000Y-150400000D01*
X127920000Y-145200000D02*
X155980000Y-145200000D01*
X127920000Y-145200000D02*
X127920000Y-147800000D01*
X130520000Y-147800000D02*
X130520000Y-150400000D01*
X127920000Y-147800000D02*
X130520000Y-147800000D01*
X127920000Y-149070000D02*
X127920000Y-150400000D01*
X130520000Y-150400000D02*
X155980000Y-150400000D01*
X127920000Y-150400000D02*
X129250000Y-150400000D01*
%TO.C,J6*%
X146310000Y-64660000D02*
X143650000Y-64660000D01*
X146310000Y-64540000D02*
X146310000Y-64660000D01*
X144980000Y-62000000D02*
X143650000Y-62000000D01*
X143650000Y-64540000D02*
X143650000Y-64660000D01*
X143650000Y-62000000D02*
X143650000Y-63330000D01*
%TO.C,J4*%
X169790000Y-75900000D02*
X172450000Y-75900000D01*
X169790000Y-76020000D02*
X169790000Y-75900000D01*
X171120000Y-78560000D02*
X172450000Y-78560000D01*
X172450000Y-76020000D02*
X172450000Y-75900000D01*
X172450000Y-78560000D02*
X172450000Y-77230000D01*
%TD*%
%LPC*%
D12*
%TO.C,J3*%
X165400000Y-47590000D03*
X150400000Y-47590000D03*
D13*
X150400000Y-52590000D03*
D14*
X152900000Y-55090000D03*
X157900000Y-52590000D03*
X162900000Y-55090000D03*
X165400000Y-52590000D03*
X157900000Y-57590000D03*
X162900000Y-42590000D03*
X160400000Y-42590000D03*
X155400000Y-42590000D03*
X152900000Y-42590000D03*
%TD*%
D15*
%TO.C,REF\u002A\u002A*%
X112780000Y-82770000D03*
%TD*%
D16*
%TO.C,Q1*%
X165610000Y-77560000D03*
D17*
X165610000Y-78830000D03*
X165610000Y-80100000D03*
%TD*%
D15*
%TO.C,REF\u002A\u002A*%
X171120000Y-43040000D03*
%TD*%
D18*
%TO.C,J7*%
X127110000Y-46365000D03*
X121330000Y-46365000D03*
D19*
X128540000Y-46865000D03*
D20*
X128540000Y-42685000D03*
D19*
X119900000Y-46865000D03*
D20*
X119900000Y-42685000D03*
%TD*%
D15*
%TO.C,REF\u002A\u002A*%
X171120000Y-82770000D03*
%TD*%
%TO.C,REF\u002A\u002A*%
X159410000Y-147800000D03*
%TD*%
D21*
%TO.C,U1*%
X151450000Y-68060000D03*
D22*
X153990000Y-68060000D03*
X156530000Y-68060000D03*
X159070000Y-68060000D03*
X161610000Y-68060000D03*
X164150000Y-68060000D03*
X166690000Y-68060000D03*
X166690000Y-60440000D03*
X164150000Y-60440000D03*
X161610000Y-60440000D03*
X159070000Y-60440000D03*
X156530000Y-60440000D03*
X153990000Y-60440000D03*
X151450000Y-60440000D03*
%TD*%
D23*
%TO.C,SW1*%
X150820000Y-141700000D03*
D24*
X143200000Y-141700000D03*
%TD*%
D25*
%TO.C,J2*%
X126710000Y-82920000D03*
D26*
X126710000Y-80380000D03*
X129250000Y-82920000D03*
X129250000Y-80380000D03*
X131790000Y-82920000D03*
X131790000Y-80380000D03*
X134330000Y-82920000D03*
X134330000Y-80380000D03*
X136870000Y-82920000D03*
X136870000Y-80380000D03*
X139410000Y-82920000D03*
X139410000Y-80380000D03*
X141950000Y-82920000D03*
X141950000Y-80380000D03*
X144490000Y-82920000D03*
X144490000Y-80380000D03*
X147030000Y-82920000D03*
X147030000Y-80380000D03*
X149570000Y-82920000D03*
X149570000Y-80380000D03*
X152110000Y-82920000D03*
X152110000Y-80380000D03*
X154650000Y-82920000D03*
X154650000Y-80380000D03*
X157190000Y-82920000D03*
X157190000Y-80380000D03*
%TD*%
D23*
%TO.C,RN1*%
X148910000Y-73380000D03*
D24*
X151450000Y-73380000D03*
X153990000Y-73380000D03*
X156530000Y-73380000D03*
X159070000Y-73380000D03*
X161610000Y-73380000D03*
X164150000Y-73380000D03*
X166690000Y-73380000D03*
%TD*%
D23*
%TO.C,SW2*%
X144490000Y-91110000D03*
D24*
X144490000Y-93650000D03*
X152110000Y-93650000D03*
X152110000Y-91110000D03*
%TD*%
D27*
%TO.C,J8*%
X138800000Y-58670000D03*
D28*
X138800000Y-61210000D03*
X136260000Y-58670000D03*
X136260000Y-61210000D03*
X133720000Y-58670000D03*
X133720000Y-61210000D03*
%TD*%
D27*
%TO.C,J9*%
X135990000Y-50600000D03*
D28*
X138530000Y-50600000D03*
X141070000Y-50600000D03*
%TD*%
D29*
%TO.C,C1*%
X148400000Y-60440000D03*
X148400000Y-65440000D03*
%TD*%
D15*
%TO.C,REF\u002A\u002A*%
X124490000Y-147800000D03*
%TD*%
%TO.C,REF\u002A\u002A*%
X112780000Y-43040000D03*
%TD*%
D27*
%TO.C,J5*%
X171120000Y-73380000D03*
%TD*%
%TO.C,J1*%
X129250000Y-149070000D03*
D28*
X129250000Y-146530000D03*
X131790000Y-149070000D03*
X131790000Y-146530000D03*
X134330000Y-149070000D03*
X134330000Y-146530000D03*
X136870000Y-149070000D03*
X136870000Y-146530000D03*
X139410000Y-149070000D03*
X139410000Y-146530000D03*
X141950000Y-149070000D03*
X141950000Y-146530000D03*
X144490000Y-149070000D03*
X144490000Y-146530000D03*
X147030000Y-149070000D03*
X147030000Y-146530000D03*
X149570000Y-149070000D03*
X149570000Y-146530000D03*
X152110000Y-149070000D03*
X152110000Y-146530000D03*
X154650000Y-149070000D03*
X154650000Y-146530000D03*
%TD*%
D27*
%TO.C,J6*%
X144980000Y-63330000D03*
%TD*%
%TO.C,J4*%
X171120000Y-77230000D03*
%TD*%
D30*
X125776447Y-58676053D03*
X120486447Y-48433553D03*
X124136447Y-55343553D03*
X127396447Y-48343553D03*
X117956447Y-48483553D03*
X112816447Y-56643553D03*
X123230000Y-50370000D03*
X122516447Y-59311053D03*
X112816447Y-54323553D03*
X119891447Y-54823553D03*
X117956447Y-52383553D03*
X125340000Y-50370000D03*
X126596447Y-48343553D03*
X121796447Y-48433553D03*
X125046447Y-46403553D03*
X123946447Y-46533553D03*
X127620000Y-63020000D03*
X128460000Y-60320000D03*
X125790000Y-60580000D03*
X125550000Y-57890000D03*
%LPD*%
M02*
