%TF.GenerationSoftware,KiCad,Pcbnew,7.0.9*%
%TF.CreationDate,2023-11-19T21:56:13+01:00*%
%TF.ProjectId,kim-1-aux-card-usb,6b696d2d-312d-4617-9578-2d636172642d,rev?*%
%TF.SameCoordinates,Original*%
%TF.FileFunction,Soldermask,Bot*%
%TF.FilePolarity,Negative*%
%FSLAX46Y46*%
G04 Gerber Fmt 4.6, Leading zero omitted, Abs format (unit mm)*
G04 Created by KiCad (PCBNEW 7.0.9) date 2023-11-19 21:56:13*
%MOMM*%
%LPD*%
G01*
G04 APERTURE LIST*
G04 Aperture macros list*
%AMRoundRect*
0 Rectangle with rounded corners*
0 $1 Rounding radius*
0 $2 $3 $4 $5 $6 $7 $8 $9 X,Y pos of 4 corners*
0 Add a 4 corners polygon primitive as box body*
4,1,4,$2,$3,$4,$5,$6,$7,$8,$9,$2,$3,0*
0 Add four circle primitives for the rounded corners*
1,1,$1+$1,$2,$3*
1,1,$1+$1,$4,$5*
1,1,$1+$1,$6,$7*
1,1,$1+$1,$8,$9*
0 Add four rect primitives between the rounded corners*
20,1,$1+$1,$2,$3,$4,$5,0*
20,1,$1+$1,$4,$5,$6,$7,0*
20,1,$1+$1,$6,$7,$8,$9,0*
20,1,$1+$1,$8,$9,$2,$3,0*%
G04 Aperture macros list end*
%ADD10C,2.700000*%
%ADD11R,1.500000X1.050000*%
%ADD12O,1.500000X1.050000*%
%ADD13C,0.650000*%
%ADD14O,1.000000X2.100000*%
%ADD15O,1.000000X1.800000*%
%ADD16R,1.600000X2.400000*%
%ADD17O,1.600000X2.400000*%
%ADD18R,1.600000X1.600000*%
%ADD19O,1.600000X1.600000*%
%ADD20RoundRect,0.250000X0.600000X-0.600000X0.600000X0.600000X-0.600000X0.600000X-0.600000X-0.600000X0*%
%ADD21C,1.700000*%
%ADD22R,1.700000X1.700000*%
%ADD23O,1.700000X1.700000*%
%ADD24C,1.600000*%
%ADD25C,2.400000*%
%ADD26RoundRect,0.102000X0.975000X0.975000X-0.975000X0.975000X-0.975000X-0.975000X0.975000X-0.975000X0*%
%ADD27C,2.154000*%
%ADD28C,0.500000*%
G04 APERTURE END LIST*
D10*
%TO.C,REF\u002A\u002A*%
X112780000Y-82770000D03*
%TD*%
D11*
%TO.C,Q1*%
X165610000Y-77560000D03*
D12*
X165610000Y-78830000D03*
X165610000Y-80100000D03*
%TD*%
D10*
%TO.C,REF\u002A\u002A*%
X171120000Y-43040000D03*
%TD*%
D13*
%TO.C,J7*%
X127110000Y-46365000D03*
X121330000Y-46365000D03*
D14*
X128540000Y-46865000D03*
D15*
X128540000Y-42685000D03*
D14*
X119900000Y-46865000D03*
D15*
X119900000Y-42685000D03*
%TD*%
D10*
%TO.C,REF\u002A\u002A*%
X171120000Y-82770000D03*
%TD*%
%TO.C,REF\u002A\u002A*%
X159410000Y-147800000D03*
%TD*%
D16*
%TO.C,U1*%
X151450000Y-68060000D03*
D17*
X153990000Y-68060000D03*
X156530000Y-68060000D03*
X159070000Y-68060000D03*
X161610000Y-68060000D03*
X164150000Y-68060000D03*
X166690000Y-68060000D03*
X166690000Y-60440000D03*
X164150000Y-60440000D03*
X161610000Y-60440000D03*
X159070000Y-60440000D03*
X156530000Y-60440000D03*
X153990000Y-60440000D03*
X151450000Y-60440000D03*
%TD*%
D18*
%TO.C,SW1*%
X150820000Y-141700000D03*
D19*
X143200000Y-141700000D03*
%TD*%
D20*
%TO.C,J2*%
X126710000Y-82920000D03*
D21*
X126710000Y-80380000D03*
X129250000Y-82920000D03*
X129250000Y-80380000D03*
X131790000Y-82920000D03*
X131790000Y-80380000D03*
X134330000Y-82920000D03*
X134330000Y-80380000D03*
X136870000Y-82920000D03*
X136870000Y-80380000D03*
X139410000Y-82920000D03*
X139410000Y-80380000D03*
X141950000Y-82920000D03*
X141950000Y-80380000D03*
X144490000Y-82920000D03*
X144490000Y-80380000D03*
X147030000Y-82920000D03*
X147030000Y-80380000D03*
X149570000Y-82920000D03*
X149570000Y-80380000D03*
X152110000Y-82920000D03*
X152110000Y-80380000D03*
X154650000Y-82920000D03*
X154650000Y-80380000D03*
X157190000Y-82920000D03*
X157190000Y-80380000D03*
%TD*%
D18*
%TO.C,RN1*%
X148910000Y-73380000D03*
D19*
X151450000Y-73380000D03*
X153990000Y-73380000D03*
X156530000Y-73380000D03*
X159070000Y-73380000D03*
X161610000Y-73380000D03*
X164150000Y-73380000D03*
X166690000Y-73380000D03*
%TD*%
D22*
%TO.C,J8*%
X138800000Y-58670000D03*
D23*
X138800000Y-61210000D03*
X136260000Y-58670000D03*
X136260000Y-61210000D03*
X133720000Y-58670000D03*
X133720000Y-61210000D03*
%TD*%
D22*
%TO.C,J9*%
X135990000Y-50600000D03*
D23*
X138530000Y-50600000D03*
X141070000Y-50600000D03*
%TD*%
D24*
%TO.C,C1*%
X148400000Y-60440000D03*
X148400000Y-65440000D03*
%TD*%
D25*
%TO.C,J3*%
X165400000Y-47590000D03*
X150400000Y-47590000D03*
D26*
X150400000Y-52590000D03*
D27*
X152900000Y-55090000D03*
X157900000Y-52590000D03*
X162900000Y-55090000D03*
X165400000Y-52590000D03*
X157900000Y-57590000D03*
X160400000Y-42590000D03*
X155400000Y-42590000D03*
%TD*%
D10*
%TO.C,REF\u002A\u002A*%
X124490000Y-147800000D03*
%TD*%
%TO.C,REF\u002A\u002A*%
X112780000Y-43040000D03*
%TD*%
D22*
%TO.C,J5*%
X171120000Y-73380000D03*
%TD*%
%TO.C,J1*%
X129250000Y-149070000D03*
D23*
X129250000Y-146530000D03*
X131790000Y-149070000D03*
X131790000Y-146530000D03*
X134330000Y-149070000D03*
X134330000Y-146530000D03*
X136870000Y-149070000D03*
X136870000Y-146530000D03*
X139410000Y-149070000D03*
X139410000Y-146530000D03*
X141950000Y-149070000D03*
X141950000Y-146530000D03*
X144490000Y-149070000D03*
X144490000Y-146530000D03*
X147030000Y-149070000D03*
X147030000Y-146530000D03*
X149570000Y-149070000D03*
X149570000Y-146530000D03*
X152110000Y-149070000D03*
X152110000Y-146530000D03*
X154650000Y-149070000D03*
X154650000Y-146530000D03*
%TD*%
D22*
%TO.C,J6*%
X144980000Y-63330000D03*
%TD*%
%TO.C,J4*%
X171120000Y-77230000D03*
%TD*%
D28*
X125776447Y-58676053D03*
X120486447Y-48433553D03*
X124136447Y-55343553D03*
X127396447Y-48343553D03*
X117956447Y-48483553D03*
X112816447Y-56643553D03*
X123230000Y-50370000D03*
X122516447Y-59311053D03*
X112816447Y-54323553D03*
X119891447Y-54823553D03*
X117956447Y-52383553D03*
X125340000Y-50370000D03*
X126596447Y-48343553D03*
X121796447Y-48433553D03*
X125046447Y-46403553D03*
X123946447Y-46533553D03*
X127620000Y-63020000D03*
X128460000Y-60320000D03*
X125790000Y-60580000D03*
X125550000Y-57890000D03*
M02*
