%TF.GenerationSoftware,KiCad,Pcbnew,7.0.9*%
%TF.CreationDate,2024-02-17T15:45:48+01:00*%
%TF.ProjectId,kim-1-aux-card-usb,6b696d2d-312d-4617-9578-2d636172642d,rev?*%
%TF.SameCoordinates,Original*%
%TF.FileFunction,Legend,Top*%
%TF.FilePolarity,Positive*%
%FSLAX46Y46*%
G04 Gerber Fmt 4.6, Leading zero omitted, Abs format (unit mm)*
G04 Created by KiCad (PCBNEW 7.0.9) date 2024-02-17 15:45:48*
%MOMM*%
%LPD*%
G01*
G04 APERTURE LIST*
G04 Aperture macros list*
%AMRoundRect*
0 Rectangle with rounded corners*
0 $1 Rounding radius*
0 $2 $3 $4 $5 $6 $7 $8 $9 X,Y pos of 4 corners*
0 Add a 4 corners polygon primitive as box body*
4,1,4,$2,$3,$4,$5,$6,$7,$8,$9,$2,$3,0*
0 Add four circle primitives for the rounded corners*
1,1,$1+$1,$2,$3*
1,1,$1+$1,$4,$5*
1,1,$1+$1,$6,$7*
1,1,$1+$1,$8,$9*
0 Add four rect primitives between the rounded corners*
20,1,$1+$1,$2,$3,$4,$5,0*
20,1,$1+$1,$4,$5,$6,$7,0*
20,1,$1+$1,$6,$7,$8,$9,0*
20,1,$1+$1,$8,$9,$2,$3,0*%
G04 Aperture macros list end*
%ADD10C,0.466154*%
%ADD11C,0.200000*%
%ADD12C,0.150000*%
%ADD13C,0.300000*%
%ADD14C,0.127000*%
%ADD15C,0.120000*%
%ADD16C,2.400000*%
%ADD17RoundRect,0.102000X0.975000X0.975000X-0.975000X0.975000X-0.975000X-0.975000X0.975000X-0.975000X0*%
%ADD18C,2.154000*%
%ADD19RoundRect,0.237500X-0.237500X0.300000X-0.237500X-0.300000X0.237500X-0.300000X0.237500X0.300000X0*%
%ADD20RoundRect,0.250000X-0.450000X0.350000X-0.450000X-0.350000X0.450000X-0.350000X0.450000X0.350000X0*%
%ADD21RoundRect,0.237500X-0.237500X0.250000X-0.237500X-0.250000X0.237500X-0.250000X0.237500X0.250000X0*%
%ADD22RoundRect,0.237500X0.237500X-0.250000X0.237500X0.250000X-0.237500X0.250000X-0.237500X-0.250000X0*%
%ADD23C,2.700000*%
%ADD24RoundRect,0.237500X0.300000X0.237500X-0.300000X0.237500X-0.300000X-0.237500X0.300000X-0.237500X0*%
%ADD25R,1.500000X1.050000*%
%ADD26O,1.500000X1.050000*%
%ADD27C,0.650000*%
%ADD28R,0.600000X1.150000*%
%ADD29R,0.300000X1.150000*%
%ADD30O,1.000000X2.100000*%
%ADD31O,1.000000X1.800000*%
%ADD32RoundRect,0.250000X1.250000X0.550000X-1.250000X0.550000X-1.250000X-0.550000X1.250000X-0.550000X0*%
%ADD33R,1.600000X2.400000*%
%ADD34O,1.600000X2.400000*%
%ADD35R,1.600000X1.600000*%
%ADD36O,1.600000X1.600000*%
%ADD37RoundRect,0.237500X-0.287500X-0.237500X0.287500X-0.237500X0.287500X0.237500X-0.287500X0.237500X0*%
%ADD38RoundRect,0.250000X0.600000X-0.600000X0.600000X0.600000X-0.600000X0.600000X-0.600000X-0.600000X0*%
%ADD39C,1.700000*%
%ADD40RoundRect,0.237500X0.237500X-0.300000X0.237500X0.300000X-0.237500X0.300000X-0.237500X-0.300000X0*%
%ADD41RoundRect,0.237500X0.287500X0.237500X-0.287500X0.237500X-0.287500X-0.237500X0.287500X-0.237500X0*%
%ADD42R,1.200000X0.400000*%
%ADD43R,1.700000X1.700000*%
%ADD44O,1.700000X1.700000*%
%ADD45C,1.600000*%
%ADD46C,0.500000*%
G04 APERTURE END LIST*
D10*
X133949231Y-64744742D02*
G75*
G03*
X133949231Y-64744742I-233077J0D01*
G01*
X139023077Y-66590000D02*
G75*
G03*
X139023077Y-66590000I-233077J0D01*
G01*
D11*
X135310000Y-68754500D02*
X139750000Y-68754500D01*
X139750000Y-70134500D01*
X135310000Y-70134500D01*
X135310000Y-68754500D01*
D10*
X139029231Y-64740000D02*
G75*
G03*
X139029231Y-64740000I-233077J0D01*
G01*
D12*
X132400554Y-63592200D02*
X140129354Y-63592200D01*
X140129354Y-67779800D01*
X132400554Y-67779800D01*
X132400554Y-63592200D01*
D10*
X136489231Y-64770000D02*
G75*
G03*
X136489231Y-64770000I-233077J0D01*
G01*
X139029877Y-69434500D02*
G75*
G03*
X139029877Y-69434500I-233077J0D01*
G01*
D11*
X135310000Y-70604500D02*
X139750000Y-70604500D01*
X139750000Y-71984500D01*
X135310000Y-71984500D01*
X135310000Y-70604500D01*
D12*
X132401200Y-68286700D02*
X140130000Y-68286700D01*
X140130000Y-72454300D01*
X132401200Y-72454300D01*
X132401200Y-68286700D01*
D10*
X133943723Y-71289242D02*
G75*
G03*
X133943723Y-71289242I-233077J0D01*
G01*
D11*
X132780000Y-64060000D02*
X137220000Y-64060000D01*
X137220000Y-65440000D01*
X132780000Y-65440000D01*
X132780000Y-64060000D01*
D10*
X133943077Y-66594742D02*
G75*
G03*
X133943077Y-66594742I-233077J0D01*
G01*
X139023723Y-71284500D02*
G75*
G03*
X139023723Y-71284500I-233077J0D01*
G01*
D11*
X132780000Y-65910000D02*
X137220000Y-65910000D01*
X137220000Y-67290000D01*
X132780000Y-67290000D01*
X132780000Y-65910000D01*
D10*
X136483723Y-71314500D02*
G75*
G03*
X136483723Y-71314500I-233077J0D01*
G01*
X136483077Y-66620000D02*
G75*
G03*
X136483077Y-66620000I-233077J0D01*
G01*
X136489877Y-69464500D02*
G75*
G03*
X136489877Y-69464500I-233077J0D01*
G01*
X133949877Y-69439242D02*
G75*
G03*
X133949877Y-69439242I-233077J0D01*
G01*
D11*
X141339673Y-52827361D02*
X141234911Y-52774980D01*
X141234911Y-52774980D02*
X141077768Y-52774980D01*
X141077768Y-52774980D02*
X140920625Y-52827361D01*
X140920625Y-52827361D02*
X140815863Y-52932123D01*
X140815863Y-52932123D02*
X140763482Y-53036885D01*
X140763482Y-53036885D02*
X140711101Y-53246409D01*
X140711101Y-53246409D02*
X140711101Y-53403552D01*
X140711101Y-53403552D02*
X140763482Y-53613076D01*
X140763482Y-53613076D02*
X140815863Y-53717838D01*
X140815863Y-53717838D02*
X140920625Y-53822600D01*
X140920625Y-53822600D02*
X141077768Y-53874980D01*
X141077768Y-53874980D02*
X141182530Y-53874980D01*
X141182530Y-53874980D02*
X141339673Y-53822600D01*
X141339673Y-53822600D02*
X141392054Y-53770219D01*
X141392054Y-53770219D02*
X141392054Y-53403552D01*
X141392054Y-53403552D02*
X141182530Y-53403552D01*
X141863482Y-53874980D02*
X141863482Y-52774980D01*
X141863482Y-52774980D02*
X142492054Y-53874980D01*
X142492054Y-53874980D02*
X142492054Y-52774980D01*
X143015863Y-53874980D02*
X143015863Y-52774980D01*
X143015863Y-52774980D02*
X143277768Y-52774980D01*
X143277768Y-52774980D02*
X143434911Y-52827361D01*
X143434911Y-52827361D02*
X143539673Y-52932123D01*
X143539673Y-52932123D02*
X143592054Y-53036885D01*
X143592054Y-53036885D02*
X143644435Y-53246409D01*
X143644435Y-53246409D02*
X143644435Y-53403552D01*
X143644435Y-53403552D02*
X143592054Y-53613076D01*
X143592054Y-53613076D02*
X143539673Y-53717838D01*
X143539673Y-53717838D02*
X143434911Y-53822600D01*
X143434911Y-53822600D02*
X143277768Y-53874980D01*
X143277768Y-53874980D02*
X143015863Y-53874980D01*
D13*
X137674061Y-140878328D02*
X138531204Y-140878328D01*
X138102632Y-142378328D02*
X138102632Y-140878328D01*
X138816918Y-140878328D02*
X139674061Y-140878328D01*
X139245489Y-142378328D02*
X139245489Y-140878328D01*
X140459775Y-141664042D02*
X140459775Y-142378328D01*
X139959775Y-140878328D02*
X140459775Y-141664042D01*
X140459775Y-141664042D02*
X140959775Y-140878328D01*
D11*
X122314101Y-65382219D02*
X121980768Y-64906028D01*
X121742673Y-65382219D02*
X121742673Y-64382219D01*
X121742673Y-64382219D02*
X122123625Y-64382219D01*
X122123625Y-64382219D02*
X122218863Y-64429838D01*
X122218863Y-64429838D02*
X122266482Y-64477457D01*
X122266482Y-64477457D02*
X122314101Y-64572695D01*
X122314101Y-64572695D02*
X122314101Y-64715552D01*
X122314101Y-64715552D02*
X122266482Y-64810790D01*
X122266482Y-64810790D02*
X122218863Y-64858409D01*
X122218863Y-64858409D02*
X122123625Y-64906028D01*
X122123625Y-64906028D02*
X121742673Y-64906028D01*
X122647435Y-64382219D02*
X123314101Y-65382219D01*
X123314101Y-64382219D02*
X122647435Y-65382219D01*
D13*
X154654510Y-93058328D02*
X154654510Y-91558328D01*
X155368796Y-92272614D02*
X155868796Y-92272614D01*
X156083082Y-93058328D02*
X155368796Y-93058328D01*
X155368796Y-93058328D02*
X155368796Y-91558328D01*
X155368796Y-91558328D02*
X156083082Y-91558328D01*
X157583082Y-92915471D02*
X157511654Y-92986900D01*
X157511654Y-92986900D02*
X157297368Y-93058328D01*
X157297368Y-93058328D02*
X157154511Y-93058328D01*
X157154511Y-93058328D02*
X156940225Y-92986900D01*
X156940225Y-92986900D02*
X156797368Y-92844042D01*
X156797368Y-92844042D02*
X156725939Y-92701185D01*
X156725939Y-92701185D02*
X156654511Y-92415471D01*
X156654511Y-92415471D02*
X156654511Y-92201185D01*
X156654511Y-92201185D02*
X156725939Y-91915471D01*
X156725939Y-91915471D02*
X156797368Y-91772614D01*
X156797368Y-91772614D02*
X156940225Y-91629757D01*
X156940225Y-91629757D02*
X157154511Y-91558328D01*
X157154511Y-91558328D02*
X157297368Y-91558328D01*
X157297368Y-91558328D02*
X157511654Y-91629757D01*
X157511654Y-91629757D02*
X157583082Y-91701185D01*
D11*
X128936517Y-65142219D02*
X128936517Y-65951742D01*
X128936517Y-65951742D02*
X128984136Y-66046980D01*
X128984136Y-66046980D02*
X129031755Y-66094600D01*
X129031755Y-66094600D02*
X129126993Y-66142219D01*
X129126993Y-66142219D02*
X129317469Y-66142219D01*
X129317469Y-66142219D02*
X129412707Y-66094600D01*
X129412707Y-66094600D02*
X129460326Y-66046980D01*
X129460326Y-66046980D02*
X129507945Y-65951742D01*
X129507945Y-65951742D02*
X129507945Y-65142219D01*
X129936517Y-66094600D02*
X130079374Y-66142219D01*
X130079374Y-66142219D02*
X130317469Y-66142219D01*
X130317469Y-66142219D02*
X130412707Y-66094600D01*
X130412707Y-66094600D02*
X130460326Y-66046980D01*
X130460326Y-66046980D02*
X130507945Y-65951742D01*
X130507945Y-65951742D02*
X130507945Y-65856504D01*
X130507945Y-65856504D02*
X130460326Y-65761266D01*
X130460326Y-65761266D02*
X130412707Y-65713647D01*
X130412707Y-65713647D02*
X130317469Y-65666028D01*
X130317469Y-65666028D02*
X130126993Y-65618409D01*
X130126993Y-65618409D02*
X130031755Y-65570790D01*
X130031755Y-65570790D02*
X129984136Y-65523171D01*
X129984136Y-65523171D02*
X129936517Y-65427933D01*
X129936517Y-65427933D02*
X129936517Y-65332695D01*
X129936517Y-65332695D02*
X129984136Y-65237457D01*
X129984136Y-65237457D02*
X130031755Y-65189838D01*
X130031755Y-65189838D02*
X130126993Y-65142219D01*
X130126993Y-65142219D02*
X130365088Y-65142219D01*
X130365088Y-65142219D02*
X130507945Y-65189838D01*
X131269850Y-65618409D02*
X131412707Y-65666028D01*
X131412707Y-65666028D02*
X131460326Y-65713647D01*
X131460326Y-65713647D02*
X131507945Y-65808885D01*
X131507945Y-65808885D02*
X131507945Y-65951742D01*
X131507945Y-65951742D02*
X131460326Y-66046980D01*
X131460326Y-66046980D02*
X131412707Y-66094600D01*
X131412707Y-66094600D02*
X131317469Y-66142219D01*
X131317469Y-66142219D02*
X130936517Y-66142219D01*
X130936517Y-66142219D02*
X130936517Y-65142219D01*
X130936517Y-65142219D02*
X131269850Y-65142219D01*
X131269850Y-65142219D02*
X131365088Y-65189838D01*
X131365088Y-65189838D02*
X131412707Y-65237457D01*
X131412707Y-65237457D02*
X131460326Y-65332695D01*
X131460326Y-65332695D02*
X131460326Y-65427933D01*
X131460326Y-65427933D02*
X131412707Y-65523171D01*
X131412707Y-65523171D02*
X131365088Y-65570790D01*
X131365088Y-65570790D02*
X131269850Y-65618409D01*
X131269850Y-65618409D02*
X130936517Y-65618409D01*
D13*
X129575715Y-88779400D02*
X129790001Y-88850828D01*
X129790001Y-88850828D02*
X130147143Y-88850828D01*
X130147143Y-88850828D02*
X130290001Y-88779400D01*
X130290001Y-88779400D02*
X130361429Y-88707971D01*
X130361429Y-88707971D02*
X130432858Y-88565114D01*
X130432858Y-88565114D02*
X130432858Y-88422257D01*
X130432858Y-88422257D02*
X130361429Y-88279400D01*
X130361429Y-88279400D02*
X130290001Y-88207971D01*
X130290001Y-88207971D02*
X130147143Y-88136542D01*
X130147143Y-88136542D02*
X129861429Y-88065114D01*
X129861429Y-88065114D02*
X129718572Y-87993685D01*
X129718572Y-87993685D02*
X129647143Y-87922257D01*
X129647143Y-87922257D02*
X129575715Y-87779400D01*
X129575715Y-87779400D02*
X129575715Y-87636542D01*
X129575715Y-87636542D02*
X129647143Y-87493685D01*
X129647143Y-87493685D02*
X129718572Y-87422257D01*
X129718572Y-87422257D02*
X129861429Y-87350828D01*
X129861429Y-87350828D02*
X130218572Y-87350828D01*
X130218572Y-87350828D02*
X130432858Y-87422257D01*
X131075714Y-88850828D02*
X131075714Y-87350828D01*
X131075714Y-87350828D02*
X131432857Y-87350828D01*
X131432857Y-87350828D02*
X131647143Y-87422257D01*
X131647143Y-87422257D02*
X131790000Y-87565114D01*
X131790000Y-87565114D02*
X131861429Y-87707971D01*
X131861429Y-87707971D02*
X131932857Y-87993685D01*
X131932857Y-87993685D02*
X131932857Y-88207971D01*
X131932857Y-88207971D02*
X131861429Y-88493685D01*
X131861429Y-88493685D02*
X131790000Y-88636542D01*
X131790000Y-88636542D02*
X131647143Y-88779400D01*
X131647143Y-88779400D02*
X131432857Y-88850828D01*
X131432857Y-88850828D02*
X131075714Y-88850828D01*
X133647143Y-88779400D02*
X133861429Y-88850828D01*
X133861429Y-88850828D02*
X134218571Y-88850828D01*
X134218571Y-88850828D02*
X134361429Y-88779400D01*
X134361429Y-88779400D02*
X134432857Y-88707971D01*
X134432857Y-88707971D02*
X134504286Y-88565114D01*
X134504286Y-88565114D02*
X134504286Y-88422257D01*
X134504286Y-88422257D02*
X134432857Y-88279400D01*
X134432857Y-88279400D02*
X134361429Y-88207971D01*
X134361429Y-88207971D02*
X134218571Y-88136542D01*
X134218571Y-88136542D02*
X133932857Y-88065114D01*
X133932857Y-88065114D02*
X133790000Y-87993685D01*
X133790000Y-87993685D02*
X133718571Y-87922257D01*
X133718571Y-87922257D02*
X133647143Y-87779400D01*
X133647143Y-87779400D02*
X133647143Y-87636542D01*
X133647143Y-87636542D02*
X133718571Y-87493685D01*
X133718571Y-87493685D02*
X133790000Y-87422257D01*
X133790000Y-87422257D02*
X133932857Y-87350828D01*
X133932857Y-87350828D02*
X134290000Y-87350828D01*
X134290000Y-87350828D02*
X134504286Y-87422257D01*
X135147142Y-88850828D02*
X135147142Y-87350828D01*
X135790000Y-88850828D02*
X135790000Y-88065114D01*
X135790000Y-88065114D02*
X135718571Y-87922257D01*
X135718571Y-87922257D02*
X135575714Y-87850828D01*
X135575714Y-87850828D02*
X135361428Y-87850828D01*
X135361428Y-87850828D02*
X135218571Y-87922257D01*
X135218571Y-87922257D02*
X135147142Y-87993685D01*
X136504285Y-88850828D02*
X136504285Y-87850828D01*
X136504285Y-87350828D02*
X136432857Y-87422257D01*
X136432857Y-87422257D02*
X136504285Y-87493685D01*
X136504285Y-87493685D02*
X136575714Y-87422257D01*
X136575714Y-87422257D02*
X136504285Y-87350828D01*
X136504285Y-87350828D02*
X136504285Y-87493685D01*
X137790000Y-88779400D02*
X137647143Y-88850828D01*
X137647143Y-88850828D02*
X137361429Y-88850828D01*
X137361429Y-88850828D02*
X137218571Y-88779400D01*
X137218571Y-88779400D02*
X137147143Y-88636542D01*
X137147143Y-88636542D02*
X137147143Y-88065114D01*
X137147143Y-88065114D02*
X137218571Y-87922257D01*
X137218571Y-87922257D02*
X137361429Y-87850828D01*
X137361429Y-87850828D02*
X137647143Y-87850828D01*
X137647143Y-87850828D02*
X137790000Y-87922257D01*
X137790000Y-87922257D02*
X137861429Y-88065114D01*
X137861429Y-88065114D02*
X137861429Y-88207971D01*
X137861429Y-88207971D02*
X137147143Y-88350828D01*
X138718571Y-88850828D02*
X138575714Y-88779400D01*
X138575714Y-88779400D02*
X138504285Y-88636542D01*
X138504285Y-88636542D02*
X138504285Y-87350828D01*
X139932857Y-88850828D02*
X139932857Y-87350828D01*
X139932857Y-88779400D02*
X139789999Y-88850828D01*
X139789999Y-88850828D02*
X139504285Y-88850828D01*
X139504285Y-88850828D02*
X139361428Y-88779400D01*
X139361428Y-88779400D02*
X139289999Y-88707971D01*
X139289999Y-88707971D02*
X139218571Y-88565114D01*
X139218571Y-88565114D02*
X139218571Y-88136542D01*
X139218571Y-88136542D02*
X139289999Y-87993685D01*
X139289999Y-87993685D02*
X139361428Y-87922257D01*
X139361428Y-87922257D02*
X139504285Y-87850828D01*
X139504285Y-87850828D02*
X139789999Y-87850828D01*
X139789999Y-87850828D02*
X139932857Y-87922257D01*
D11*
X134707469Y-52774980D02*
X135336041Y-52774980D01*
X135021755Y-53874980D02*
X135021755Y-52774980D01*
X135597945Y-52774980D02*
X136331279Y-53874980D01*
X136331279Y-52774980D02*
X135597945Y-53874980D01*
X125089816Y-64382219D02*
X125661244Y-64382219D01*
X125375530Y-65382219D02*
X125375530Y-64382219D01*
X125899340Y-64382219D02*
X126566006Y-65382219D01*
X126566006Y-64382219D02*
X125899340Y-65382219D01*
X141036816Y-69842219D02*
X141608244Y-69842219D01*
X141322530Y-70842219D02*
X141322530Y-69842219D01*
X141798721Y-69842219D02*
X142370149Y-69842219D01*
X142084435Y-70842219D02*
X142084435Y-69842219D01*
X143179673Y-70842219D02*
X142703483Y-70842219D01*
X142703483Y-70842219D02*
X142703483Y-69842219D01*
X138346667Y-53874980D02*
X137980000Y-53351171D01*
X137718095Y-53874980D02*
X137718095Y-52774980D01*
X137718095Y-52774980D02*
X138137143Y-52774980D01*
X138137143Y-52774980D02*
X138241905Y-52827361D01*
X138241905Y-52827361D02*
X138294286Y-52879742D01*
X138294286Y-52879742D02*
X138346667Y-52984504D01*
X138346667Y-52984504D02*
X138346667Y-53141647D01*
X138346667Y-53141647D02*
X138294286Y-53246409D01*
X138294286Y-53246409D02*
X138241905Y-53298790D01*
X138241905Y-53298790D02*
X138137143Y-53351171D01*
X138137143Y-53351171D02*
X137718095Y-53351171D01*
X138713333Y-52774980D02*
X139446667Y-53874980D01*
X139446667Y-52774980D02*
X138713333Y-53874980D01*
D13*
X139659775Y-92986900D02*
X139874061Y-93058328D01*
X139874061Y-93058328D02*
X140231203Y-93058328D01*
X140231203Y-93058328D02*
X140374061Y-92986900D01*
X140374061Y-92986900D02*
X140445489Y-92915471D01*
X140445489Y-92915471D02*
X140516918Y-92772614D01*
X140516918Y-92772614D02*
X140516918Y-92629757D01*
X140516918Y-92629757D02*
X140445489Y-92486900D01*
X140445489Y-92486900D02*
X140374061Y-92415471D01*
X140374061Y-92415471D02*
X140231203Y-92344042D01*
X140231203Y-92344042D02*
X139945489Y-92272614D01*
X139945489Y-92272614D02*
X139802632Y-92201185D01*
X139802632Y-92201185D02*
X139731203Y-92129757D01*
X139731203Y-92129757D02*
X139659775Y-91986900D01*
X139659775Y-91986900D02*
X139659775Y-91844042D01*
X139659775Y-91844042D02*
X139731203Y-91701185D01*
X139731203Y-91701185D02*
X139802632Y-91629757D01*
X139802632Y-91629757D02*
X139945489Y-91558328D01*
X139945489Y-91558328D02*
X140302632Y-91558328D01*
X140302632Y-91558328D02*
X140516918Y-91629757D01*
X141159774Y-93058328D02*
X141159774Y-91558328D01*
X141159774Y-91558328D02*
X141516917Y-91558328D01*
X141516917Y-91558328D02*
X141731203Y-91629757D01*
X141731203Y-91629757D02*
X141874060Y-91772614D01*
X141874060Y-91772614D02*
X141945489Y-91915471D01*
X141945489Y-91915471D02*
X142016917Y-92201185D01*
X142016917Y-92201185D02*
X142016917Y-92415471D01*
X142016917Y-92415471D02*
X141945489Y-92701185D01*
X141945489Y-92701185D02*
X141874060Y-92844042D01*
X141874060Y-92844042D02*
X141731203Y-92986900D01*
X141731203Y-92986900D02*
X141516917Y-93058328D01*
X141516917Y-93058328D02*
X141159774Y-93058328D01*
X153354510Y-142378328D02*
X153354510Y-140878328D01*
X154211653Y-142378328D02*
X153568796Y-141521185D01*
X154211653Y-140878328D02*
X153354510Y-141735471D01*
X155354510Y-141592614D02*
X155568796Y-141664042D01*
X155568796Y-141664042D02*
X155640225Y-141735471D01*
X155640225Y-141735471D02*
X155711653Y-141878328D01*
X155711653Y-141878328D02*
X155711653Y-142092614D01*
X155711653Y-142092614D02*
X155640225Y-142235471D01*
X155640225Y-142235471D02*
X155568796Y-142306900D01*
X155568796Y-142306900D02*
X155425939Y-142378328D01*
X155425939Y-142378328D02*
X154854510Y-142378328D01*
X154854510Y-142378328D02*
X154854510Y-140878328D01*
X154854510Y-140878328D02*
X155354510Y-140878328D01*
X155354510Y-140878328D02*
X155497368Y-140949757D01*
X155497368Y-140949757D02*
X155568796Y-141021185D01*
X155568796Y-141021185D02*
X155640225Y-141164042D01*
X155640225Y-141164042D02*
X155640225Y-141306900D01*
X155640225Y-141306900D02*
X155568796Y-141449757D01*
X155568796Y-141449757D02*
X155497368Y-141521185D01*
X155497368Y-141521185D02*
X155354510Y-141592614D01*
X155354510Y-141592614D02*
X154854510Y-141592614D01*
X156354510Y-142378328D02*
X156354510Y-140878328D01*
X156354510Y-140878328D02*
X156711653Y-140878328D01*
X156711653Y-140878328D02*
X156925939Y-140949757D01*
X156925939Y-140949757D02*
X157068796Y-141092614D01*
X157068796Y-141092614D02*
X157140225Y-141235471D01*
X157140225Y-141235471D02*
X157211653Y-141521185D01*
X157211653Y-141521185D02*
X157211653Y-141735471D01*
X157211653Y-141735471D02*
X157140225Y-142021185D01*
X157140225Y-142021185D02*
X157068796Y-142164042D01*
X157068796Y-142164042D02*
X156925939Y-142306900D01*
X156925939Y-142306900D02*
X156711653Y-142378328D01*
X156711653Y-142378328D02*
X156354510Y-142378328D01*
D12*
X169066666Y-54504819D02*
X169066666Y-55219104D01*
X169066666Y-55219104D02*
X169019047Y-55361961D01*
X169019047Y-55361961D02*
X168923809Y-55457200D01*
X168923809Y-55457200D02*
X168780952Y-55504819D01*
X168780952Y-55504819D02*
X168685714Y-55504819D01*
X169447619Y-54504819D02*
X170066666Y-54504819D01*
X170066666Y-54504819D02*
X169733333Y-54885771D01*
X169733333Y-54885771D02*
X169876190Y-54885771D01*
X169876190Y-54885771D02*
X169971428Y-54933390D01*
X169971428Y-54933390D02*
X170019047Y-54981009D01*
X170019047Y-54981009D02*
X170066666Y-55076247D01*
X170066666Y-55076247D02*
X170066666Y-55314342D01*
X170066666Y-55314342D02*
X170019047Y-55409580D01*
X170019047Y-55409580D02*
X169971428Y-55457200D01*
X169971428Y-55457200D02*
X169876190Y-55504819D01*
X169876190Y-55504819D02*
X169590476Y-55504819D01*
X169590476Y-55504819D02*
X169495238Y-55457200D01*
X169495238Y-55457200D02*
X169447619Y-55409580D01*
X122896667Y-52636104D02*
X122858571Y-52674200D01*
X122858571Y-52674200D02*
X122744286Y-52712295D01*
X122744286Y-52712295D02*
X122668095Y-52712295D01*
X122668095Y-52712295D02*
X122553809Y-52674200D01*
X122553809Y-52674200D02*
X122477619Y-52598009D01*
X122477619Y-52598009D02*
X122439524Y-52521819D01*
X122439524Y-52521819D02*
X122401428Y-52369438D01*
X122401428Y-52369438D02*
X122401428Y-52255152D01*
X122401428Y-52255152D02*
X122439524Y-52102771D01*
X122439524Y-52102771D02*
X122477619Y-52026580D01*
X122477619Y-52026580D02*
X122553809Y-51950390D01*
X122553809Y-51950390D02*
X122668095Y-51912295D01*
X122668095Y-51912295D02*
X122744286Y-51912295D01*
X122744286Y-51912295D02*
X122858571Y-51950390D01*
X122858571Y-51950390D02*
X122896667Y-51988485D01*
X123163333Y-51912295D02*
X123658571Y-51912295D01*
X123658571Y-51912295D02*
X123391905Y-52217057D01*
X123391905Y-52217057D02*
X123506190Y-52217057D01*
X123506190Y-52217057D02*
X123582381Y-52255152D01*
X123582381Y-52255152D02*
X123620476Y-52293247D01*
X123620476Y-52293247D02*
X123658571Y-52369438D01*
X123658571Y-52369438D02*
X123658571Y-52559914D01*
X123658571Y-52559914D02*
X123620476Y-52636104D01*
X123620476Y-52636104D02*
X123582381Y-52674200D01*
X123582381Y-52674200D02*
X123506190Y-52712295D01*
X123506190Y-52712295D02*
X123277619Y-52712295D01*
X123277619Y-52712295D02*
X123201428Y-52674200D01*
X123201428Y-52674200D02*
X123163333Y-52636104D01*
X119253333Y-52653247D02*
X118986667Y-52653247D01*
X118986667Y-53072295D02*
X118986667Y-52272295D01*
X118986667Y-52272295D02*
X119367619Y-52272295D01*
X119939047Y-52653247D02*
X120053333Y-52691342D01*
X120053333Y-52691342D02*
X120091428Y-52729438D01*
X120091428Y-52729438D02*
X120129524Y-52805628D01*
X120129524Y-52805628D02*
X120129524Y-52919914D01*
X120129524Y-52919914D02*
X120091428Y-52996104D01*
X120091428Y-52996104D02*
X120053333Y-53034200D01*
X120053333Y-53034200D02*
X119977143Y-53072295D01*
X119977143Y-53072295D02*
X119672381Y-53072295D01*
X119672381Y-53072295D02*
X119672381Y-52272295D01*
X119672381Y-52272295D02*
X119939047Y-52272295D01*
X119939047Y-52272295D02*
X120015238Y-52310390D01*
X120015238Y-52310390D02*
X120053333Y-52348485D01*
X120053333Y-52348485D02*
X120091428Y-52424676D01*
X120091428Y-52424676D02*
X120091428Y-52500866D01*
X120091428Y-52500866D02*
X120053333Y-52577057D01*
X120053333Y-52577057D02*
X120015238Y-52615152D01*
X120015238Y-52615152D02*
X119939047Y-52653247D01*
X119939047Y-52653247D02*
X119672381Y-52653247D01*
X120891428Y-53072295D02*
X120434285Y-53072295D01*
X120662857Y-53072295D02*
X120662857Y-52272295D01*
X120662857Y-52272295D02*
X120586666Y-52386580D01*
X120586666Y-52386580D02*
X120510476Y-52462771D01*
X120510476Y-52462771D02*
X120434285Y-52500866D01*
X126698667Y-50654295D02*
X126432000Y-50273342D01*
X126241524Y-50654295D02*
X126241524Y-49854295D01*
X126241524Y-49854295D02*
X126546286Y-49854295D01*
X126546286Y-49854295D02*
X126622476Y-49892390D01*
X126622476Y-49892390D02*
X126660571Y-49930485D01*
X126660571Y-49930485D02*
X126698667Y-50006676D01*
X126698667Y-50006676D02*
X126698667Y-50120961D01*
X126698667Y-50120961D02*
X126660571Y-50197152D01*
X126660571Y-50197152D02*
X126622476Y-50235247D01*
X126622476Y-50235247D02*
X126546286Y-50273342D01*
X126546286Y-50273342D02*
X126241524Y-50273342D01*
X127460571Y-50654295D02*
X127003428Y-50654295D01*
X127232000Y-50654295D02*
X127232000Y-49854295D01*
X127232000Y-49854295D02*
X127155809Y-49968580D01*
X127155809Y-49968580D02*
X127079619Y-50044771D01*
X127079619Y-50044771D02*
X127003428Y-50082866D01*
X129916667Y-58999795D02*
X129650000Y-58618842D01*
X129459524Y-58999795D02*
X129459524Y-58199795D01*
X129459524Y-58199795D02*
X129764286Y-58199795D01*
X129764286Y-58199795D02*
X129840476Y-58237890D01*
X129840476Y-58237890D02*
X129878571Y-58275985D01*
X129878571Y-58275985D02*
X129916667Y-58352176D01*
X129916667Y-58352176D02*
X129916667Y-58466461D01*
X129916667Y-58466461D02*
X129878571Y-58542652D01*
X129878571Y-58542652D02*
X129840476Y-58580747D01*
X129840476Y-58580747D02*
X129764286Y-58618842D01*
X129764286Y-58618842D02*
X129459524Y-58618842D01*
X130602381Y-58199795D02*
X130450000Y-58199795D01*
X130450000Y-58199795D02*
X130373809Y-58237890D01*
X130373809Y-58237890D02*
X130335714Y-58275985D01*
X130335714Y-58275985D02*
X130259524Y-58390271D01*
X130259524Y-58390271D02*
X130221428Y-58542652D01*
X130221428Y-58542652D02*
X130221428Y-58847414D01*
X130221428Y-58847414D02*
X130259524Y-58923604D01*
X130259524Y-58923604D02*
X130297619Y-58961700D01*
X130297619Y-58961700D02*
X130373809Y-58999795D01*
X130373809Y-58999795D02*
X130526190Y-58999795D01*
X130526190Y-58999795D02*
X130602381Y-58961700D01*
X130602381Y-58961700D02*
X130640476Y-58923604D01*
X130640476Y-58923604D02*
X130678571Y-58847414D01*
X130678571Y-58847414D02*
X130678571Y-58656938D01*
X130678571Y-58656938D02*
X130640476Y-58580747D01*
X130640476Y-58580747D02*
X130602381Y-58542652D01*
X130602381Y-58542652D02*
X130526190Y-58504557D01*
X130526190Y-58504557D02*
X130373809Y-58504557D01*
X130373809Y-58504557D02*
X130297619Y-58542652D01*
X130297619Y-58542652D02*
X130259524Y-58580747D01*
X130259524Y-58580747D02*
X130221428Y-58656938D01*
X119876667Y-54402295D02*
X119610000Y-54021342D01*
X119419524Y-54402295D02*
X119419524Y-53602295D01*
X119419524Y-53602295D02*
X119724286Y-53602295D01*
X119724286Y-53602295D02*
X119800476Y-53640390D01*
X119800476Y-53640390D02*
X119838571Y-53678485D01*
X119838571Y-53678485D02*
X119876667Y-53754676D01*
X119876667Y-53754676D02*
X119876667Y-53868961D01*
X119876667Y-53868961D02*
X119838571Y-53945152D01*
X119838571Y-53945152D02*
X119800476Y-53983247D01*
X119800476Y-53983247D02*
X119724286Y-54021342D01*
X119724286Y-54021342D02*
X119419524Y-54021342D01*
X120143333Y-53602295D02*
X120638571Y-53602295D01*
X120638571Y-53602295D02*
X120371905Y-53907057D01*
X120371905Y-53907057D02*
X120486190Y-53907057D01*
X120486190Y-53907057D02*
X120562381Y-53945152D01*
X120562381Y-53945152D02*
X120600476Y-53983247D01*
X120600476Y-53983247D02*
X120638571Y-54059438D01*
X120638571Y-54059438D02*
X120638571Y-54249914D01*
X120638571Y-54249914D02*
X120600476Y-54326104D01*
X120600476Y-54326104D02*
X120562381Y-54364200D01*
X120562381Y-54364200D02*
X120486190Y-54402295D01*
X120486190Y-54402295D02*
X120257619Y-54402295D01*
X120257619Y-54402295D02*
X120181428Y-54364200D01*
X120181428Y-54364200D02*
X120143333Y-54326104D01*
X116126667Y-51806104D02*
X116088571Y-51844200D01*
X116088571Y-51844200D02*
X115974286Y-51882295D01*
X115974286Y-51882295D02*
X115898095Y-51882295D01*
X115898095Y-51882295D02*
X115783809Y-51844200D01*
X115783809Y-51844200D02*
X115707619Y-51768009D01*
X115707619Y-51768009D02*
X115669524Y-51691819D01*
X115669524Y-51691819D02*
X115631428Y-51539438D01*
X115631428Y-51539438D02*
X115631428Y-51425152D01*
X115631428Y-51425152D02*
X115669524Y-51272771D01*
X115669524Y-51272771D02*
X115707619Y-51196580D01*
X115707619Y-51196580D02*
X115783809Y-51120390D01*
X115783809Y-51120390D02*
X115898095Y-51082295D01*
X115898095Y-51082295D02*
X115974286Y-51082295D01*
X115974286Y-51082295D02*
X116088571Y-51120390D01*
X116088571Y-51120390D02*
X116126667Y-51158485D01*
X116850476Y-51082295D02*
X116469524Y-51082295D01*
X116469524Y-51082295D02*
X116431428Y-51463247D01*
X116431428Y-51463247D02*
X116469524Y-51425152D01*
X116469524Y-51425152D02*
X116545714Y-51387057D01*
X116545714Y-51387057D02*
X116736190Y-51387057D01*
X116736190Y-51387057D02*
X116812381Y-51425152D01*
X116812381Y-51425152D02*
X116850476Y-51463247D01*
X116850476Y-51463247D02*
X116888571Y-51539438D01*
X116888571Y-51539438D02*
X116888571Y-51729914D01*
X116888571Y-51729914D02*
X116850476Y-51806104D01*
X116850476Y-51806104D02*
X116812381Y-51844200D01*
X116812381Y-51844200D02*
X116736190Y-51882295D01*
X116736190Y-51882295D02*
X116545714Y-51882295D01*
X116545714Y-51882295D02*
X116469524Y-51844200D01*
X116469524Y-51844200D02*
X116431428Y-51806104D01*
X165514761Y-83110057D02*
X165419523Y-83062438D01*
X165419523Y-83062438D02*
X165324285Y-82967200D01*
X165324285Y-82967200D02*
X165181428Y-82824342D01*
X165181428Y-82824342D02*
X165086190Y-82776723D01*
X165086190Y-82776723D02*
X164990952Y-82776723D01*
X165038571Y-83014819D02*
X164943333Y-82967200D01*
X164943333Y-82967200D02*
X164848095Y-82871961D01*
X164848095Y-82871961D02*
X164800476Y-82681485D01*
X164800476Y-82681485D02*
X164800476Y-82348152D01*
X164800476Y-82348152D02*
X164848095Y-82157676D01*
X164848095Y-82157676D02*
X164943333Y-82062438D01*
X164943333Y-82062438D02*
X165038571Y-82014819D01*
X165038571Y-82014819D02*
X165229047Y-82014819D01*
X165229047Y-82014819D02*
X165324285Y-82062438D01*
X165324285Y-82062438D02*
X165419523Y-82157676D01*
X165419523Y-82157676D02*
X165467142Y-82348152D01*
X165467142Y-82348152D02*
X165467142Y-82681485D01*
X165467142Y-82681485D02*
X165419523Y-82871961D01*
X165419523Y-82871961D02*
X165324285Y-82967200D01*
X165324285Y-82967200D02*
X165229047Y-83014819D01*
X165229047Y-83014819D02*
X165038571Y-83014819D01*
X166419523Y-83014819D02*
X165848095Y-83014819D01*
X166133809Y-83014819D02*
X166133809Y-82014819D01*
X166133809Y-82014819D02*
X166038571Y-82157676D01*
X166038571Y-82157676D02*
X165943333Y-82252914D01*
X165943333Y-82252914D02*
X165848095Y-82300533D01*
X130063333Y-47682295D02*
X130063333Y-48253723D01*
X130063333Y-48253723D02*
X130025238Y-48368009D01*
X130025238Y-48368009D02*
X129949047Y-48444200D01*
X129949047Y-48444200D02*
X129834762Y-48482295D01*
X129834762Y-48482295D02*
X129758571Y-48482295D01*
X130368095Y-47682295D02*
X130901429Y-47682295D01*
X130901429Y-47682295D02*
X130558571Y-48482295D01*
X128086667Y-55812295D02*
X127820000Y-55431342D01*
X127629524Y-55812295D02*
X127629524Y-55012295D01*
X127629524Y-55012295D02*
X127934286Y-55012295D01*
X127934286Y-55012295D02*
X128010476Y-55050390D01*
X128010476Y-55050390D02*
X128048571Y-55088485D01*
X128048571Y-55088485D02*
X128086667Y-55164676D01*
X128086667Y-55164676D02*
X128086667Y-55278961D01*
X128086667Y-55278961D02*
X128048571Y-55355152D01*
X128048571Y-55355152D02*
X128010476Y-55393247D01*
X128010476Y-55393247D02*
X127934286Y-55431342D01*
X127934286Y-55431342D02*
X127629524Y-55431342D01*
X128772381Y-55278961D02*
X128772381Y-55812295D01*
X128581905Y-54974200D02*
X128391428Y-55545628D01*
X128391428Y-55545628D02*
X128886667Y-55545628D01*
X116126667Y-49596104D02*
X116088571Y-49634200D01*
X116088571Y-49634200D02*
X115974286Y-49672295D01*
X115974286Y-49672295D02*
X115898095Y-49672295D01*
X115898095Y-49672295D02*
X115783809Y-49634200D01*
X115783809Y-49634200D02*
X115707619Y-49558009D01*
X115707619Y-49558009D02*
X115669524Y-49481819D01*
X115669524Y-49481819D02*
X115631428Y-49329438D01*
X115631428Y-49329438D02*
X115631428Y-49215152D01*
X115631428Y-49215152D02*
X115669524Y-49062771D01*
X115669524Y-49062771D02*
X115707619Y-48986580D01*
X115707619Y-48986580D02*
X115783809Y-48910390D01*
X115783809Y-48910390D02*
X115898095Y-48872295D01*
X115898095Y-48872295D02*
X115974286Y-48872295D01*
X115974286Y-48872295D02*
X116088571Y-48910390D01*
X116088571Y-48910390D02*
X116126667Y-48948485D01*
X116431428Y-48948485D02*
X116469524Y-48910390D01*
X116469524Y-48910390D02*
X116545714Y-48872295D01*
X116545714Y-48872295D02*
X116736190Y-48872295D01*
X116736190Y-48872295D02*
X116812381Y-48910390D01*
X116812381Y-48910390D02*
X116850476Y-48948485D01*
X116850476Y-48948485D02*
X116888571Y-49024676D01*
X116888571Y-49024676D02*
X116888571Y-49100866D01*
X116888571Y-49100866D02*
X116850476Y-49215152D01*
X116850476Y-49215152D02*
X116393333Y-49672295D01*
X116393333Y-49672295D02*
X116888571Y-49672295D01*
X114906667Y-59466104D02*
X114868571Y-59504200D01*
X114868571Y-59504200D02*
X114754286Y-59542295D01*
X114754286Y-59542295D02*
X114678095Y-59542295D01*
X114678095Y-59542295D02*
X114563809Y-59504200D01*
X114563809Y-59504200D02*
X114487619Y-59428009D01*
X114487619Y-59428009D02*
X114449524Y-59351819D01*
X114449524Y-59351819D02*
X114411428Y-59199438D01*
X114411428Y-59199438D02*
X114411428Y-59085152D01*
X114411428Y-59085152D02*
X114449524Y-58932771D01*
X114449524Y-58932771D02*
X114487619Y-58856580D01*
X114487619Y-58856580D02*
X114563809Y-58780390D01*
X114563809Y-58780390D02*
X114678095Y-58742295D01*
X114678095Y-58742295D02*
X114754286Y-58742295D01*
X114754286Y-58742295D02*
X114868571Y-58780390D01*
X114868571Y-58780390D02*
X114906667Y-58818485D01*
X115592381Y-58742295D02*
X115440000Y-58742295D01*
X115440000Y-58742295D02*
X115363809Y-58780390D01*
X115363809Y-58780390D02*
X115325714Y-58818485D01*
X115325714Y-58818485D02*
X115249524Y-58932771D01*
X115249524Y-58932771D02*
X115211428Y-59085152D01*
X115211428Y-59085152D02*
X115211428Y-59389914D01*
X115211428Y-59389914D02*
X115249524Y-59466104D01*
X115249524Y-59466104D02*
X115287619Y-59504200D01*
X115287619Y-59504200D02*
X115363809Y-59542295D01*
X115363809Y-59542295D02*
X115516190Y-59542295D01*
X115516190Y-59542295D02*
X115592381Y-59504200D01*
X115592381Y-59504200D02*
X115630476Y-59466104D01*
X115630476Y-59466104D02*
X115668571Y-59389914D01*
X115668571Y-59389914D02*
X115668571Y-59199438D01*
X115668571Y-59199438D02*
X115630476Y-59123247D01*
X115630476Y-59123247D02*
X115592381Y-59085152D01*
X115592381Y-59085152D02*
X115516190Y-59047057D01*
X115516190Y-59047057D02*
X115363809Y-59047057D01*
X115363809Y-59047057D02*
X115287619Y-59085152D01*
X115287619Y-59085152D02*
X115249524Y-59123247D01*
X115249524Y-59123247D02*
X115211428Y-59199438D01*
X168328095Y-65474819D02*
X168328095Y-66284342D01*
X168328095Y-66284342D02*
X168375714Y-66379580D01*
X168375714Y-66379580D02*
X168423333Y-66427200D01*
X168423333Y-66427200D02*
X168518571Y-66474819D01*
X168518571Y-66474819D02*
X168709047Y-66474819D01*
X168709047Y-66474819D02*
X168804285Y-66427200D01*
X168804285Y-66427200D02*
X168851904Y-66379580D01*
X168851904Y-66379580D02*
X168899523Y-66284342D01*
X168899523Y-66284342D02*
X168899523Y-65474819D01*
X169899523Y-66474819D02*
X169328095Y-66474819D01*
X169613809Y-66474819D02*
X169613809Y-65474819D01*
X169613809Y-65474819D02*
X169518571Y-65617676D01*
X169518571Y-65617676D02*
X169423333Y-65712914D01*
X169423333Y-65712914D02*
X169328095Y-65760533D01*
X145676667Y-138617200D02*
X145819524Y-138664819D01*
X145819524Y-138664819D02*
X146057619Y-138664819D01*
X146057619Y-138664819D02*
X146152857Y-138617200D01*
X146152857Y-138617200D02*
X146200476Y-138569580D01*
X146200476Y-138569580D02*
X146248095Y-138474342D01*
X146248095Y-138474342D02*
X146248095Y-138379104D01*
X146248095Y-138379104D02*
X146200476Y-138283866D01*
X146200476Y-138283866D02*
X146152857Y-138236247D01*
X146152857Y-138236247D02*
X146057619Y-138188628D01*
X146057619Y-138188628D02*
X145867143Y-138141009D01*
X145867143Y-138141009D02*
X145771905Y-138093390D01*
X145771905Y-138093390D02*
X145724286Y-138045771D01*
X145724286Y-138045771D02*
X145676667Y-137950533D01*
X145676667Y-137950533D02*
X145676667Y-137855295D01*
X145676667Y-137855295D02*
X145724286Y-137760057D01*
X145724286Y-137760057D02*
X145771905Y-137712438D01*
X145771905Y-137712438D02*
X145867143Y-137664819D01*
X145867143Y-137664819D02*
X146105238Y-137664819D01*
X146105238Y-137664819D02*
X146248095Y-137712438D01*
X146581429Y-137664819D02*
X146819524Y-138664819D01*
X146819524Y-138664819D02*
X147010000Y-137950533D01*
X147010000Y-137950533D02*
X147200476Y-138664819D01*
X147200476Y-138664819D02*
X147438572Y-137664819D01*
X148343333Y-138664819D02*
X147771905Y-138664819D01*
X148057619Y-138664819D02*
X148057619Y-137664819D01*
X148057619Y-137664819D02*
X147962381Y-137807676D01*
X147962381Y-137807676D02*
X147867143Y-137902914D01*
X147867143Y-137902914D02*
X147771905Y-137950533D01*
X119229524Y-63372295D02*
X119229524Y-62572295D01*
X119229524Y-62572295D02*
X119420000Y-62572295D01*
X119420000Y-62572295D02*
X119534286Y-62610390D01*
X119534286Y-62610390D02*
X119610476Y-62686580D01*
X119610476Y-62686580D02*
X119648571Y-62762771D01*
X119648571Y-62762771D02*
X119686667Y-62915152D01*
X119686667Y-62915152D02*
X119686667Y-63029438D01*
X119686667Y-63029438D02*
X119648571Y-63181819D01*
X119648571Y-63181819D02*
X119610476Y-63258009D01*
X119610476Y-63258009D02*
X119534286Y-63334200D01*
X119534286Y-63334200D02*
X119420000Y-63372295D01*
X119420000Y-63372295D02*
X119229524Y-63372295D01*
X120448571Y-63372295D02*
X119991428Y-63372295D01*
X120220000Y-63372295D02*
X120220000Y-62572295D01*
X120220000Y-62572295D02*
X120143809Y-62686580D01*
X120143809Y-62686580D02*
X120067619Y-62762771D01*
X120067619Y-62762771D02*
X119991428Y-62800866D01*
X120064819Y-81983333D02*
X120779104Y-81983333D01*
X120779104Y-81983333D02*
X120921961Y-82030952D01*
X120921961Y-82030952D02*
X121017200Y-82126190D01*
X121017200Y-82126190D02*
X121064819Y-82269047D01*
X121064819Y-82269047D02*
X121064819Y-82364285D01*
X120160057Y-81554761D02*
X120112438Y-81507142D01*
X120112438Y-81507142D02*
X120064819Y-81411904D01*
X120064819Y-81411904D02*
X120064819Y-81173809D01*
X120064819Y-81173809D02*
X120112438Y-81078571D01*
X120112438Y-81078571D02*
X120160057Y-81030952D01*
X120160057Y-81030952D02*
X120255295Y-80983333D01*
X120255295Y-80983333D02*
X120350533Y-80983333D01*
X120350533Y-80983333D02*
X120493390Y-81030952D01*
X120493390Y-81030952D02*
X121064819Y-81602380D01*
X121064819Y-81602380D02*
X121064819Y-80983333D01*
X158379523Y-71434819D02*
X158046190Y-70958628D01*
X157808095Y-71434819D02*
X157808095Y-70434819D01*
X157808095Y-70434819D02*
X158189047Y-70434819D01*
X158189047Y-70434819D02*
X158284285Y-70482438D01*
X158284285Y-70482438D02*
X158331904Y-70530057D01*
X158331904Y-70530057D02*
X158379523Y-70625295D01*
X158379523Y-70625295D02*
X158379523Y-70768152D01*
X158379523Y-70768152D02*
X158331904Y-70863390D01*
X158331904Y-70863390D02*
X158284285Y-70911009D01*
X158284285Y-70911009D02*
X158189047Y-70958628D01*
X158189047Y-70958628D02*
X157808095Y-70958628D01*
X158808095Y-71434819D02*
X158808095Y-70434819D01*
X158808095Y-70434819D02*
X159379523Y-71434819D01*
X159379523Y-71434819D02*
X159379523Y-70434819D01*
X160379523Y-71434819D02*
X159808095Y-71434819D01*
X160093809Y-71434819D02*
X160093809Y-70434819D01*
X160093809Y-70434819D02*
X159998571Y-70577676D01*
X159998571Y-70577676D02*
X159903333Y-70672914D01*
X159903333Y-70672914D02*
X159808095Y-70720533D01*
X118396667Y-58386104D02*
X118358571Y-58424200D01*
X118358571Y-58424200D02*
X118244286Y-58462295D01*
X118244286Y-58462295D02*
X118168095Y-58462295D01*
X118168095Y-58462295D02*
X118053809Y-58424200D01*
X118053809Y-58424200D02*
X117977619Y-58348009D01*
X117977619Y-58348009D02*
X117939524Y-58271819D01*
X117939524Y-58271819D02*
X117901428Y-58119438D01*
X117901428Y-58119438D02*
X117901428Y-58005152D01*
X117901428Y-58005152D02*
X117939524Y-57852771D01*
X117939524Y-57852771D02*
X117977619Y-57776580D01*
X117977619Y-57776580D02*
X118053809Y-57700390D01*
X118053809Y-57700390D02*
X118168095Y-57662295D01*
X118168095Y-57662295D02*
X118244286Y-57662295D01*
X118244286Y-57662295D02*
X118358571Y-57700390D01*
X118358571Y-57700390D02*
X118396667Y-57738485D01*
X118663333Y-57662295D02*
X119196667Y-57662295D01*
X119196667Y-57662295D02*
X118853809Y-58462295D01*
X128169524Y-63372295D02*
X128169524Y-62572295D01*
X128169524Y-62572295D02*
X128360000Y-62572295D01*
X128360000Y-62572295D02*
X128474286Y-62610390D01*
X128474286Y-62610390D02*
X128550476Y-62686580D01*
X128550476Y-62686580D02*
X128588571Y-62762771D01*
X128588571Y-62762771D02*
X128626667Y-62915152D01*
X128626667Y-62915152D02*
X128626667Y-63029438D01*
X128626667Y-63029438D02*
X128588571Y-63181819D01*
X128588571Y-63181819D02*
X128550476Y-63258009D01*
X128550476Y-63258009D02*
X128474286Y-63334200D01*
X128474286Y-63334200D02*
X128360000Y-63372295D01*
X128360000Y-63372295D02*
X128169524Y-63372295D01*
X128931428Y-62648485D02*
X128969524Y-62610390D01*
X128969524Y-62610390D02*
X129045714Y-62572295D01*
X129045714Y-62572295D02*
X129236190Y-62572295D01*
X129236190Y-62572295D02*
X129312381Y-62610390D01*
X129312381Y-62610390D02*
X129350476Y-62648485D01*
X129350476Y-62648485D02*
X129388571Y-62724676D01*
X129388571Y-62724676D02*
X129388571Y-62800866D01*
X129388571Y-62800866D02*
X129350476Y-62915152D01*
X129350476Y-62915152D02*
X128893333Y-63372295D01*
X128893333Y-63372295D02*
X129388571Y-63372295D01*
X127780476Y-56222295D02*
X127780476Y-56869914D01*
X127780476Y-56869914D02*
X127818571Y-56946104D01*
X127818571Y-56946104D02*
X127856666Y-56984200D01*
X127856666Y-56984200D02*
X127932857Y-57022295D01*
X127932857Y-57022295D02*
X128085238Y-57022295D01*
X128085238Y-57022295D02*
X128161428Y-56984200D01*
X128161428Y-56984200D02*
X128199523Y-56946104D01*
X128199523Y-56946104D02*
X128237619Y-56869914D01*
X128237619Y-56869914D02*
X128237619Y-56222295D01*
X128580475Y-56298485D02*
X128618571Y-56260390D01*
X128618571Y-56260390D02*
X128694761Y-56222295D01*
X128694761Y-56222295D02*
X128885237Y-56222295D01*
X128885237Y-56222295D02*
X128961428Y-56260390D01*
X128961428Y-56260390D02*
X128999523Y-56298485D01*
X128999523Y-56298485D02*
X129037618Y-56374676D01*
X129037618Y-56374676D02*
X129037618Y-56450866D01*
X129037618Y-56450866D02*
X128999523Y-56565152D01*
X128999523Y-56565152D02*
X128542380Y-57022295D01*
X128542380Y-57022295D02*
X129037618Y-57022295D01*
X146966667Y-88097200D02*
X147109524Y-88144819D01*
X147109524Y-88144819D02*
X147347619Y-88144819D01*
X147347619Y-88144819D02*
X147442857Y-88097200D01*
X147442857Y-88097200D02*
X147490476Y-88049580D01*
X147490476Y-88049580D02*
X147538095Y-87954342D01*
X147538095Y-87954342D02*
X147538095Y-87859104D01*
X147538095Y-87859104D02*
X147490476Y-87763866D01*
X147490476Y-87763866D02*
X147442857Y-87716247D01*
X147442857Y-87716247D02*
X147347619Y-87668628D01*
X147347619Y-87668628D02*
X147157143Y-87621009D01*
X147157143Y-87621009D02*
X147061905Y-87573390D01*
X147061905Y-87573390D02*
X147014286Y-87525771D01*
X147014286Y-87525771D02*
X146966667Y-87430533D01*
X146966667Y-87430533D02*
X146966667Y-87335295D01*
X146966667Y-87335295D02*
X147014286Y-87240057D01*
X147014286Y-87240057D02*
X147061905Y-87192438D01*
X147061905Y-87192438D02*
X147157143Y-87144819D01*
X147157143Y-87144819D02*
X147395238Y-87144819D01*
X147395238Y-87144819D02*
X147538095Y-87192438D01*
X147871429Y-87144819D02*
X148109524Y-88144819D01*
X148109524Y-88144819D02*
X148300000Y-87430533D01*
X148300000Y-87430533D02*
X148490476Y-88144819D01*
X148490476Y-88144819D02*
X148728572Y-87144819D01*
X149061905Y-87240057D02*
X149109524Y-87192438D01*
X149109524Y-87192438D02*
X149204762Y-87144819D01*
X149204762Y-87144819D02*
X149442857Y-87144819D01*
X149442857Y-87144819D02*
X149538095Y-87192438D01*
X149538095Y-87192438D02*
X149585714Y-87240057D01*
X149585714Y-87240057D02*
X149633333Y-87335295D01*
X149633333Y-87335295D02*
X149633333Y-87430533D01*
X149633333Y-87430533D02*
X149585714Y-87573390D01*
X149585714Y-87573390D02*
X149014286Y-88144819D01*
X149014286Y-88144819D02*
X149633333Y-88144819D01*
X141166666Y-59394819D02*
X141166666Y-60109104D01*
X141166666Y-60109104D02*
X141119047Y-60251961D01*
X141119047Y-60251961D02*
X141023809Y-60347200D01*
X141023809Y-60347200D02*
X140880952Y-60394819D01*
X140880952Y-60394819D02*
X140785714Y-60394819D01*
X141785714Y-59823390D02*
X141690476Y-59775771D01*
X141690476Y-59775771D02*
X141642857Y-59728152D01*
X141642857Y-59728152D02*
X141595238Y-59632914D01*
X141595238Y-59632914D02*
X141595238Y-59585295D01*
X141595238Y-59585295D02*
X141642857Y-59490057D01*
X141642857Y-59490057D02*
X141690476Y-59442438D01*
X141690476Y-59442438D02*
X141785714Y-59394819D01*
X141785714Y-59394819D02*
X141976190Y-59394819D01*
X141976190Y-59394819D02*
X142071428Y-59442438D01*
X142071428Y-59442438D02*
X142119047Y-59490057D01*
X142119047Y-59490057D02*
X142166666Y-59585295D01*
X142166666Y-59585295D02*
X142166666Y-59632914D01*
X142166666Y-59632914D02*
X142119047Y-59728152D01*
X142119047Y-59728152D02*
X142071428Y-59775771D01*
X142071428Y-59775771D02*
X141976190Y-59823390D01*
X141976190Y-59823390D02*
X141785714Y-59823390D01*
X141785714Y-59823390D02*
X141690476Y-59871009D01*
X141690476Y-59871009D02*
X141642857Y-59918628D01*
X141642857Y-59918628D02*
X141595238Y-60013866D01*
X141595238Y-60013866D02*
X141595238Y-60204342D01*
X141595238Y-60204342D02*
X141642857Y-60299580D01*
X141642857Y-60299580D02*
X141690476Y-60347200D01*
X141690476Y-60347200D02*
X141785714Y-60394819D01*
X141785714Y-60394819D02*
X141976190Y-60394819D01*
X141976190Y-60394819D02*
X142071428Y-60347200D01*
X142071428Y-60347200D02*
X142119047Y-60299580D01*
X142119047Y-60299580D02*
X142166666Y-60204342D01*
X142166666Y-60204342D02*
X142166666Y-60013866D01*
X142166666Y-60013866D02*
X142119047Y-59918628D01*
X142119047Y-59918628D02*
X142071428Y-59871009D01*
X142071428Y-59871009D02*
X141976190Y-59823390D01*
X118196667Y-60822295D02*
X117930000Y-60441342D01*
X117739524Y-60822295D02*
X117739524Y-60022295D01*
X117739524Y-60022295D02*
X118044286Y-60022295D01*
X118044286Y-60022295D02*
X118120476Y-60060390D01*
X118120476Y-60060390D02*
X118158571Y-60098485D01*
X118158571Y-60098485D02*
X118196667Y-60174676D01*
X118196667Y-60174676D02*
X118196667Y-60288961D01*
X118196667Y-60288961D02*
X118158571Y-60365152D01*
X118158571Y-60365152D02*
X118120476Y-60403247D01*
X118120476Y-60403247D02*
X118044286Y-60441342D01*
X118044286Y-60441342D02*
X117739524Y-60441342D01*
X118920476Y-60022295D02*
X118539524Y-60022295D01*
X118539524Y-60022295D02*
X118501428Y-60403247D01*
X118501428Y-60403247D02*
X118539524Y-60365152D01*
X118539524Y-60365152D02*
X118615714Y-60327057D01*
X118615714Y-60327057D02*
X118806190Y-60327057D01*
X118806190Y-60327057D02*
X118882381Y-60365152D01*
X118882381Y-60365152D02*
X118920476Y-60403247D01*
X118920476Y-60403247D02*
X118958571Y-60479438D01*
X118958571Y-60479438D02*
X118958571Y-60669914D01*
X118958571Y-60669914D02*
X118920476Y-60746104D01*
X118920476Y-60746104D02*
X118882381Y-60784200D01*
X118882381Y-60784200D02*
X118806190Y-60822295D01*
X118806190Y-60822295D02*
X118615714Y-60822295D01*
X118615714Y-60822295D02*
X118539524Y-60784200D01*
X118539524Y-60784200D02*
X118501428Y-60746104D01*
X125076667Y-52636104D02*
X125038571Y-52674200D01*
X125038571Y-52674200D02*
X124924286Y-52712295D01*
X124924286Y-52712295D02*
X124848095Y-52712295D01*
X124848095Y-52712295D02*
X124733809Y-52674200D01*
X124733809Y-52674200D02*
X124657619Y-52598009D01*
X124657619Y-52598009D02*
X124619524Y-52521819D01*
X124619524Y-52521819D02*
X124581428Y-52369438D01*
X124581428Y-52369438D02*
X124581428Y-52255152D01*
X124581428Y-52255152D02*
X124619524Y-52102771D01*
X124619524Y-52102771D02*
X124657619Y-52026580D01*
X124657619Y-52026580D02*
X124733809Y-51950390D01*
X124733809Y-51950390D02*
X124848095Y-51912295D01*
X124848095Y-51912295D02*
X124924286Y-51912295D01*
X124924286Y-51912295D02*
X125038571Y-51950390D01*
X125038571Y-51950390D02*
X125076667Y-51988485D01*
X125762381Y-52178961D02*
X125762381Y-52712295D01*
X125571905Y-51874200D02*
X125381428Y-52445628D01*
X125381428Y-52445628D02*
X125876667Y-52445628D01*
X143601666Y-47279819D02*
X143601666Y-47994104D01*
X143601666Y-47994104D02*
X143554047Y-48136961D01*
X143554047Y-48136961D02*
X143458809Y-48232200D01*
X143458809Y-48232200D02*
X143315952Y-48279819D01*
X143315952Y-48279819D02*
X143220714Y-48279819D01*
X144125476Y-48279819D02*
X144315952Y-48279819D01*
X144315952Y-48279819D02*
X144411190Y-48232200D01*
X144411190Y-48232200D02*
X144458809Y-48184580D01*
X144458809Y-48184580D02*
X144554047Y-48041723D01*
X144554047Y-48041723D02*
X144601666Y-47851247D01*
X144601666Y-47851247D02*
X144601666Y-47470295D01*
X144601666Y-47470295D02*
X144554047Y-47375057D01*
X144554047Y-47375057D02*
X144506428Y-47327438D01*
X144506428Y-47327438D02*
X144411190Y-47279819D01*
X144411190Y-47279819D02*
X144220714Y-47279819D01*
X144220714Y-47279819D02*
X144125476Y-47327438D01*
X144125476Y-47327438D02*
X144077857Y-47375057D01*
X144077857Y-47375057D02*
X144030238Y-47470295D01*
X144030238Y-47470295D02*
X144030238Y-47708390D01*
X144030238Y-47708390D02*
X144077857Y-47803628D01*
X144077857Y-47803628D02*
X144125476Y-47851247D01*
X144125476Y-47851247D02*
X144220714Y-47898866D01*
X144220714Y-47898866D02*
X144411190Y-47898866D01*
X144411190Y-47898866D02*
X144506428Y-47851247D01*
X144506428Y-47851247D02*
X144554047Y-47803628D01*
X144554047Y-47803628D02*
X144601666Y-47708390D01*
X148233333Y-67909580D02*
X148185714Y-67957200D01*
X148185714Y-67957200D02*
X148042857Y-68004819D01*
X148042857Y-68004819D02*
X147947619Y-68004819D01*
X147947619Y-68004819D02*
X147804762Y-67957200D01*
X147804762Y-67957200D02*
X147709524Y-67861961D01*
X147709524Y-67861961D02*
X147661905Y-67766723D01*
X147661905Y-67766723D02*
X147614286Y-67576247D01*
X147614286Y-67576247D02*
X147614286Y-67433390D01*
X147614286Y-67433390D02*
X147661905Y-67242914D01*
X147661905Y-67242914D02*
X147709524Y-67147676D01*
X147709524Y-67147676D02*
X147804762Y-67052438D01*
X147804762Y-67052438D02*
X147947619Y-67004819D01*
X147947619Y-67004819D02*
X148042857Y-67004819D01*
X148042857Y-67004819D02*
X148185714Y-67052438D01*
X148185714Y-67052438D02*
X148233333Y-67100057D01*
X149185714Y-68004819D02*
X148614286Y-68004819D01*
X148900000Y-68004819D02*
X148900000Y-67004819D01*
X148900000Y-67004819D02*
X148804762Y-67147676D01*
X148804762Y-67147676D02*
X148709524Y-67242914D01*
X148709524Y-67242914D02*
X148614286Y-67290533D01*
X128476667Y-50654295D02*
X128210000Y-50273342D01*
X128019524Y-50654295D02*
X128019524Y-49854295D01*
X128019524Y-49854295D02*
X128324286Y-49854295D01*
X128324286Y-49854295D02*
X128400476Y-49892390D01*
X128400476Y-49892390D02*
X128438571Y-49930485D01*
X128438571Y-49930485D02*
X128476667Y-50006676D01*
X128476667Y-50006676D02*
X128476667Y-50120961D01*
X128476667Y-50120961D02*
X128438571Y-50197152D01*
X128438571Y-50197152D02*
X128400476Y-50235247D01*
X128400476Y-50235247D02*
X128324286Y-50273342D01*
X128324286Y-50273342D02*
X128019524Y-50273342D01*
X128781428Y-49930485D02*
X128819524Y-49892390D01*
X128819524Y-49892390D02*
X128895714Y-49854295D01*
X128895714Y-49854295D02*
X129086190Y-49854295D01*
X129086190Y-49854295D02*
X129162381Y-49892390D01*
X129162381Y-49892390D02*
X129200476Y-49930485D01*
X129200476Y-49930485D02*
X129238571Y-50006676D01*
X129238571Y-50006676D02*
X129238571Y-50082866D01*
X129238571Y-50082866D02*
X129200476Y-50197152D01*
X129200476Y-50197152D02*
X128743333Y-50654295D01*
X128743333Y-50654295D02*
X129238571Y-50654295D01*
D14*
%TO.C,J3*%
X167900000Y-55590000D02*
X164400000Y-55590000D01*
X167900000Y-40090000D02*
X167900000Y-55590000D01*
X167900000Y-40090000D02*
X147900000Y-40090000D01*
X151400000Y-55590000D02*
X147900000Y-55590000D01*
X147900000Y-55590000D02*
X147900000Y-40090000D01*
D15*
%TO.C,C3*%
X123560000Y-54333733D02*
X123560000Y-54626267D01*
X122540000Y-54333733D02*
X122540000Y-54626267D01*
%TO.C,FB1*%
X122225000Y-50202936D02*
X122225000Y-50657064D01*
X120755000Y-50202936D02*
X120755000Y-50657064D01*
%TO.C,R1*%
X123752500Y-49975276D02*
X123752500Y-50484724D01*
X122707500Y-49975276D02*
X122707500Y-50484724D01*
%TO.C,R6*%
X127947500Y-58902224D02*
X127947500Y-58392776D01*
X128992500Y-58902224D02*
X128992500Y-58392776D01*
%TO.C,R3*%
X122072500Y-54225276D02*
X122072500Y-54734724D01*
X121027500Y-54225276D02*
X121027500Y-54734724D01*
%TO.C,C5*%
X118976267Y-52060000D02*
X118683733Y-52060000D01*
X118976267Y-51040000D02*
X118683733Y-51040000D01*
%TO.C,Q1*%
X163760000Y-77030000D02*
X163760000Y-80630000D01*
X168210000Y-78830000D02*
G75*
G03*
X163771522Y-76991522I-2600000J0D01*
G01*
X163771522Y-80668478D02*
G75*
G03*
X168210000Y-78830000I1838478J1838478D01*
G01*
%TO.C,J7*%
X128890000Y-43760000D02*
X128890000Y-45560000D01*
X128890000Y-41660000D02*
X128890000Y-40510000D01*
X119550000Y-43760000D02*
X119550000Y-45560000D01*
X119550000Y-41660000D02*
X119550000Y-40510000D01*
%TO.C,R4*%
X127272500Y-54225276D02*
X127272500Y-54734724D01*
X126227500Y-54225276D02*
X126227500Y-54734724D01*
%TO.C,C2*%
X118976267Y-49820000D02*
X118683733Y-49820000D01*
X118976267Y-48800000D02*
X118683733Y-48800000D01*
%TO.C,C6*%
X118665000Y-57165000D02*
X118040000Y-57165000D01*
X118352500Y-57477500D02*
X118352500Y-56852500D01*
X117800000Y-57175563D02*
X117800000Y-56540000D01*
X117800000Y-57175563D02*
X116735563Y-58240000D01*
X117800000Y-53784437D02*
X117800000Y-54420000D01*
X117800000Y-53784437D02*
X116735563Y-52720000D01*
X116735563Y-58240000D02*
X112280000Y-58240000D01*
X116735563Y-52720000D02*
X112280000Y-52720000D01*
X112280000Y-58240000D02*
X112280000Y-56540000D01*
X112280000Y-52720000D02*
X112280000Y-54420000D01*
%TO.C,U1*%
X150120000Y-66500000D02*
X168020000Y-66500000D01*
X168020000Y-66500000D02*
X168020000Y-62000000D01*
X150120000Y-65250000D02*
X150120000Y-66500000D01*
X150120000Y-62000000D02*
X150120000Y-63250000D01*
X168020000Y-62000000D02*
X150120000Y-62000000D01*
X150120000Y-65250000D02*
G75*
G03*
X150120000Y-63250000I0J1000000D01*
G01*
%TO.C,SW1*%
X152200000Y-144360000D02*
X152200000Y-142977000D01*
X152200000Y-144360000D02*
X150816000Y-144360000D01*
X151960000Y-144120000D02*
X151960000Y-139280000D01*
X151960000Y-144120000D02*
X142060000Y-144120000D01*
X151960000Y-139280000D02*
X142060000Y-139280000D01*
X149040000Y-142335000D02*
X149040000Y-141065000D01*
X149040000Y-142215000D02*
X147686667Y-142215000D01*
X149040000Y-142095000D02*
X147686667Y-142095000D01*
X149040000Y-141975000D02*
X147686667Y-141975000D01*
X149040000Y-141855000D02*
X147686667Y-141855000D01*
X149040000Y-141735000D02*
X147686667Y-141735000D01*
X149040000Y-141615000D02*
X147686667Y-141615000D01*
X149040000Y-141495000D02*
X147686667Y-141495000D01*
X149040000Y-141375000D02*
X147686667Y-141375000D01*
X149040000Y-141255000D02*
X147686667Y-141255000D01*
X149040000Y-141135000D02*
X147686667Y-141135000D01*
X149040000Y-141065000D02*
X144980000Y-141065000D01*
X147686667Y-142335000D02*
X147686667Y-141065000D01*
X144980000Y-142335000D02*
X149040000Y-142335000D01*
X144980000Y-141065000D02*
X144980000Y-142335000D01*
X142060000Y-144120000D02*
X142060000Y-139280000D01*
%TO.C,D1*%
X120680000Y-62285000D02*
X120680000Y-63755000D01*
X120680000Y-63755000D02*
X123140000Y-63755000D01*
X123140000Y-62285000D02*
X120680000Y-62285000D01*
%TO.C,J2*%
X126210000Y-87600000D02*
X127210000Y-87600000D01*
X127210000Y-87600000D02*
X126710000Y-86600000D01*
X126710000Y-86600000D02*
X126210000Y-87600000D01*
X121500000Y-86210000D02*
X121500000Y-77090000D01*
X139900000Y-86210000D02*
X139900000Y-84900000D01*
X162400000Y-86210000D02*
X121500000Y-86210000D01*
X122800000Y-84900000D02*
X122800000Y-78400000D01*
X139900000Y-84900000D02*
X122800000Y-84900000D01*
X144000000Y-84900000D02*
X144000000Y-86210000D01*
X144000000Y-84900000D02*
X144000000Y-84900000D01*
X161100000Y-84900000D02*
X144000000Y-84900000D01*
X122800000Y-78400000D02*
X161100000Y-78400000D01*
X161100000Y-78400000D02*
X161100000Y-84900000D01*
X121500000Y-77090000D02*
X162400000Y-77090000D01*
X162400000Y-77090000D02*
X162400000Y-86210000D01*
%TO.C,RN1*%
X147470000Y-71980000D02*
X147470000Y-74780000D01*
X147470000Y-74780000D02*
X168130000Y-74780000D01*
X150180000Y-71980000D02*
X150180000Y-74780000D01*
X168130000Y-71980000D02*
X147470000Y-71980000D01*
X168130000Y-74780000D02*
X168130000Y-71980000D01*
%TO.C,C7*%
X119405000Y-56686267D02*
X119405000Y-56393733D01*
X120425000Y-56686267D02*
X120425000Y-56393733D01*
%TO.C,D2*%
X127600000Y-63755000D02*
X127600000Y-62285000D01*
X127600000Y-62285000D02*
X125140000Y-62285000D01*
X125140000Y-63755000D02*
X127600000Y-63755000D01*
D12*
%TO.C,U2*%
X127425000Y-61715000D02*
X122150000Y-61715000D01*
X126150000Y-56315000D02*
X122150000Y-56315000D01*
D15*
%TO.C,SW2*%
X143110000Y-88450000D02*
X143110000Y-89833000D01*
X143110000Y-88450000D02*
X144494000Y-88450000D01*
X143350000Y-88690000D02*
X143350000Y-96070000D01*
X143350000Y-88690000D02*
X153250000Y-88690000D01*
X143350000Y-96070000D02*
X153250000Y-96070000D01*
X146270000Y-90475000D02*
X146270000Y-91745000D01*
X146270000Y-90595000D02*
X147623333Y-90595000D01*
X146270000Y-90715000D02*
X147623333Y-90715000D01*
X146270000Y-90835000D02*
X147623333Y-90835000D01*
X146270000Y-90955000D02*
X147623333Y-90955000D01*
X146270000Y-91075000D02*
X147623333Y-91075000D01*
X146270000Y-91195000D02*
X147623333Y-91195000D01*
X146270000Y-91315000D02*
X147623333Y-91315000D01*
X146270000Y-91435000D02*
X147623333Y-91435000D01*
X146270000Y-91555000D02*
X147623333Y-91555000D01*
X146270000Y-91675000D02*
X147623333Y-91675000D01*
X146270000Y-91745000D02*
X150330000Y-91745000D01*
X146270000Y-93015000D02*
X146270000Y-94285000D01*
X146270000Y-93135000D02*
X147623333Y-93135000D01*
X146270000Y-93255000D02*
X147623333Y-93255000D01*
X146270000Y-93375000D02*
X147623333Y-93375000D01*
X146270000Y-93495000D02*
X147623333Y-93495000D01*
X146270000Y-93615000D02*
X147623333Y-93615000D01*
X146270000Y-93735000D02*
X147623333Y-93735000D01*
X146270000Y-93855000D02*
X147623333Y-93855000D01*
X146270000Y-93975000D02*
X147623333Y-93975000D01*
X146270000Y-94095000D02*
X147623333Y-94095000D01*
X146270000Y-94215000D02*
X147623333Y-94215000D01*
X146270000Y-94285000D02*
X150330000Y-94285000D01*
X147623333Y-90475000D02*
X147623333Y-91745000D01*
X147623333Y-93015000D02*
X147623333Y-94285000D01*
X150330000Y-90475000D02*
X146270000Y-90475000D01*
X150330000Y-91745000D02*
X150330000Y-90475000D01*
X150330000Y-93015000D02*
X146270000Y-93015000D01*
X150330000Y-94285000D02*
X150330000Y-93015000D01*
X153250000Y-88690000D02*
X153250000Y-96070000D01*
%TO.C,J8*%
X140130000Y-57340000D02*
X140130000Y-58670000D01*
X138800000Y-57340000D02*
X140130000Y-57340000D01*
X137530000Y-57340000D02*
X132390000Y-57340000D01*
X137530000Y-57340000D02*
X137530000Y-59940000D01*
X132390000Y-57340000D02*
X132390000Y-62540000D01*
X140130000Y-59940000D02*
X140130000Y-62540000D01*
X137530000Y-59940000D02*
X140130000Y-59940000D01*
X140130000Y-62540000D02*
X132390000Y-62540000D01*
%TO.C,R5*%
X119377500Y-60724724D02*
X119377500Y-60215276D01*
X120422500Y-60724724D02*
X120422500Y-60215276D01*
%TO.C,C4*%
X125760000Y-54333733D02*
X125760000Y-54626267D01*
X124740000Y-54333733D02*
X124740000Y-54626267D01*
%TO.C,J9*%
X134720000Y-51870000D02*
X134720000Y-50600000D01*
X135990000Y-51870000D02*
X134720000Y-51870000D01*
X138150000Y-49557071D02*
X138150000Y-49160000D01*
X138910000Y-49557071D02*
X138910000Y-49160000D01*
X140690000Y-49557071D02*
X140690000Y-49160000D01*
X141450000Y-49557071D02*
X141450000Y-49160000D01*
X135610000Y-49490000D02*
X135610000Y-49160000D01*
X136370000Y-49490000D02*
X136370000Y-49160000D01*
X134660000Y-49160000D02*
X142400000Y-49160000D01*
X137260000Y-49160000D02*
X137260000Y-46500000D01*
X139800000Y-49160000D02*
X139800000Y-46500000D01*
X142400000Y-49160000D02*
X142400000Y-46500000D01*
X134660000Y-46500000D02*
X134660000Y-49160000D01*
X135610000Y-46500000D02*
X135610000Y-40500000D01*
X135670000Y-46500000D02*
X135670000Y-40500000D01*
X135790000Y-46500000D02*
X135790000Y-40500000D01*
X135910000Y-46500000D02*
X135910000Y-40500000D01*
X136030000Y-46500000D02*
X136030000Y-40500000D01*
X136150000Y-46500000D02*
X136150000Y-40500000D01*
X136270000Y-46500000D02*
X136270000Y-40500000D01*
X138150000Y-46500000D02*
X138150000Y-40500000D01*
X140690000Y-46500000D02*
X140690000Y-40500000D01*
X142400000Y-46500000D02*
X134660000Y-46500000D01*
X135610000Y-40500000D02*
X136370000Y-40500000D01*
X136370000Y-40500000D02*
X136370000Y-46500000D01*
X138150000Y-40500000D02*
X138910000Y-40500000D01*
X138910000Y-40500000D02*
X138910000Y-46500000D01*
X140690000Y-40500000D02*
X141450000Y-40500000D01*
X141450000Y-40500000D02*
X141450000Y-46500000D01*
%TO.C,C1*%
X149770000Y-60320000D02*
X149455000Y-60320000D01*
X149770000Y-60320000D02*
X149770000Y-65560000D01*
X147345000Y-60320000D02*
X147030000Y-60320000D01*
X147030000Y-60320000D02*
X147030000Y-65560000D01*
X149770000Y-65560000D02*
X149455000Y-65560000D01*
X147345000Y-65560000D02*
X147030000Y-65560000D01*
%TO.C,R2*%
X125862500Y-49975276D02*
X125862500Y-50484724D01*
X124817500Y-49975276D02*
X124817500Y-50484724D01*
%TD*%
%LPC*%
D16*
%TO.C,J3*%
X165400000Y-47590000D03*
X150400000Y-47590000D03*
D17*
X150400000Y-52590000D03*
D18*
X152900000Y-55090000D03*
X157900000Y-52590000D03*
X162900000Y-55090000D03*
X165400000Y-52590000D03*
X157900000Y-57590000D03*
X162900000Y-42590000D03*
X160400000Y-42590000D03*
X155400000Y-42590000D03*
X152900000Y-42590000D03*
%TD*%
D19*
%TO.C,C3*%
X123050000Y-53617500D03*
X123050000Y-55342500D03*
%TD*%
D20*
%TO.C,FB1*%
X121490000Y-49430000D03*
X121490000Y-51430000D03*
%TD*%
D21*
%TO.C,R1*%
X123230000Y-49317500D03*
X123230000Y-51142500D03*
%TD*%
D22*
%TO.C,R6*%
X128470000Y-59560000D03*
X128470000Y-57735000D03*
%TD*%
D23*
%TO.C,REF\u002A\u002A*%
X112780000Y-82770000D03*
%TD*%
D21*
%TO.C,R3*%
X121550000Y-53567500D03*
X121550000Y-55392500D03*
%TD*%
D24*
%TO.C,C5*%
X119692500Y-51550000D03*
X117967500Y-51550000D03*
%TD*%
D25*
%TO.C,Q1*%
X165610000Y-77560000D03*
D26*
X165610000Y-78830000D03*
X165610000Y-80100000D03*
%TD*%
D23*
%TO.C,REF\u002A\u002A*%
X171120000Y-43040000D03*
%TD*%
D27*
%TO.C,J7*%
X127110000Y-46365000D03*
X121330000Y-46365000D03*
D28*
X127420000Y-47440000D03*
X126620000Y-47440000D03*
D29*
X125470000Y-47440000D03*
X124470000Y-47440000D03*
X123970000Y-47440000D03*
X122970000Y-47440000D03*
D28*
X121820000Y-47440000D03*
X121020000Y-47440000D03*
X121020000Y-47440000D03*
X121820000Y-47440000D03*
D29*
X122470000Y-47440000D03*
X123470000Y-47440000D03*
X124970000Y-47440000D03*
X125970000Y-47440000D03*
D28*
X126620000Y-47440000D03*
X127420000Y-47440000D03*
D30*
X128540000Y-46865000D03*
D31*
X128540000Y-42685000D03*
D30*
X119900000Y-46865000D03*
D31*
X119900000Y-42685000D03*
%TD*%
D21*
%TO.C,R4*%
X126750000Y-53567500D03*
X126750000Y-55392500D03*
%TD*%
D24*
%TO.C,C2*%
X119692500Y-49310000D03*
X117967500Y-49310000D03*
%TD*%
D23*
%TO.C,REF\u002A\u002A*%
X171120000Y-82770000D03*
%TD*%
%TO.C,REF\u002A\u002A*%
X159410000Y-147800000D03*
%TD*%
D32*
%TO.C,C6*%
X117240000Y-55480000D03*
X112840000Y-55480000D03*
%TD*%
D33*
%TO.C,U1*%
X151450000Y-68060000D03*
D34*
X153990000Y-68060000D03*
X156530000Y-68060000D03*
X159070000Y-68060000D03*
X161610000Y-68060000D03*
X164150000Y-68060000D03*
X166690000Y-68060000D03*
X166690000Y-60440000D03*
X164150000Y-60440000D03*
X161610000Y-60440000D03*
X159070000Y-60440000D03*
X156530000Y-60440000D03*
X153990000Y-60440000D03*
X151450000Y-60440000D03*
%TD*%
D35*
%TO.C,SW1*%
X150820000Y-141700000D03*
D36*
X143200000Y-141700000D03*
%TD*%
D37*
%TO.C,D1*%
X121465000Y-63020000D03*
X123215000Y-63020000D03*
%TD*%
D38*
%TO.C,J2*%
X126710000Y-82920000D03*
D39*
X126710000Y-80380000D03*
X129250000Y-82920000D03*
X129250000Y-80380000D03*
X131790000Y-82920000D03*
X131790000Y-80380000D03*
X134330000Y-82920000D03*
X134330000Y-80380000D03*
X136870000Y-82920000D03*
X136870000Y-80380000D03*
X139410000Y-82920000D03*
X139410000Y-80380000D03*
X141950000Y-82920000D03*
X141950000Y-80380000D03*
X144490000Y-82920000D03*
X144490000Y-80380000D03*
X147030000Y-82920000D03*
X147030000Y-80380000D03*
X149570000Y-82920000D03*
X149570000Y-80380000D03*
X152110000Y-82920000D03*
X152110000Y-80380000D03*
X154650000Y-82920000D03*
X154650000Y-80380000D03*
X157190000Y-82920000D03*
X157190000Y-80380000D03*
%TD*%
D35*
%TO.C,RN1*%
X148910000Y-73380000D03*
D36*
X151450000Y-73380000D03*
X153990000Y-73380000D03*
X156530000Y-73380000D03*
X159070000Y-73380000D03*
X161610000Y-73380000D03*
X164150000Y-73380000D03*
X166690000Y-73380000D03*
%TD*%
D40*
%TO.C,C7*%
X119915000Y-57402500D03*
X119915000Y-55677500D03*
%TD*%
D41*
%TO.C,D2*%
X126815000Y-63020000D03*
X125065000Y-63020000D03*
%TD*%
D42*
%TO.C,U2*%
X126750000Y-61212500D03*
X126750000Y-60577500D03*
X126750000Y-59942500D03*
X126750000Y-59307500D03*
X126750000Y-58672500D03*
X126750000Y-58037500D03*
X126750000Y-57402500D03*
X126750000Y-56767500D03*
X121550000Y-56767500D03*
X121550000Y-57402500D03*
X121550000Y-58037500D03*
X121550000Y-58672500D03*
X121550000Y-59307500D03*
X121550000Y-59942500D03*
X121550000Y-60577500D03*
X121550000Y-61212500D03*
%TD*%
D35*
%TO.C,SW2*%
X144490000Y-91110000D03*
D36*
X144490000Y-93650000D03*
X152110000Y-93650000D03*
X152110000Y-91110000D03*
%TD*%
D43*
%TO.C,J8*%
X138800000Y-58670000D03*
D44*
X138800000Y-61210000D03*
X136260000Y-58670000D03*
X136260000Y-61210000D03*
X133720000Y-58670000D03*
X133720000Y-61210000D03*
%TD*%
D22*
%TO.C,R5*%
X119900000Y-61382500D03*
X119900000Y-59557500D03*
%TD*%
D19*
%TO.C,C4*%
X125250000Y-53617500D03*
X125250000Y-55342500D03*
%TD*%
D43*
%TO.C,J9*%
X135990000Y-50600000D03*
D44*
X138530000Y-50600000D03*
X141070000Y-50600000D03*
%TD*%
D45*
%TO.C,C1*%
X148400000Y-60440000D03*
X148400000Y-65440000D03*
%TD*%
D23*
%TO.C,REF\u002A\u002A*%
X124490000Y-147800000D03*
%TD*%
%TO.C,REF\u002A\u002A*%
X112780000Y-43040000D03*
%TD*%
D21*
%TO.C,R2*%
X125340000Y-49317500D03*
X125340000Y-51142500D03*
%TD*%
D43*
%TO.C,J5*%
X171120000Y-73380000D03*
%TD*%
%TO.C,J1*%
X129250000Y-149070000D03*
D44*
X129250000Y-146530000D03*
X131790000Y-149070000D03*
X131790000Y-146530000D03*
X134330000Y-149070000D03*
X134330000Y-146530000D03*
X136870000Y-149070000D03*
X136870000Y-146530000D03*
X139410000Y-149070000D03*
X139410000Y-146530000D03*
X141950000Y-149070000D03*
X141950000Y-146530000D03*
X144490000Y-149070000D03*
X144490000Y-146530000D03*
X147030000Y-149070000D03*
X147030000Y-146530000D03*
X149570000Y-149070000D03*
X149570000Y-146530000D03*
X152110000Y-149070000D03*
X152110000Y-146530000D03*
X154650000Y-149070000D03*
X154650000Y-146530000D03*
%TD*%
D43*
%TO.C,J6*%
X144980000Y-63330000D03*
%TD*%
%TO.C,J4*%
X171120000Y-77230000D03*
%TD*%
D46*
X125776447Y-58676053D03*
X120486447Y-48433553D03*
X124136447Y-55343553D03*
X127396447Y-48343553D03*
X117956447Y-48483553D03*
X112816447Y-56643553D03*
X123230000Y-50370000D03*
X122516447Y-59311053D03*
X112816447Y-54323553D03*
X119891447Y-54823553D03*
X117956447Y-52383553D03*
X125340000Y-50370000D03*
X126596447Y-48343553D03*
X121796447Y-48433553D03*
X125046447Y-46403553D03*
X123946447Y-46533553D03*
X127620000Y-63020000D03*
X128460000Y-60320000D03*
X125790000Y-60580000D03*
X125550000Y-57890000D03*
%LPD*%
M02*
