%TF.GenerationSoftware,KiCad,Pcbnew,7.0.9*%
%TF.CreationDate,2023-11-19T21:56:13+01:00*%
%TF.ProjectId,kim-1-aux-card-usb,6b696d2d-312d-4617-9578-2d636172642d,rev?*%
%TF.SameCoordinates,Original*%
%TF.FileFunction,Copper,L1,Top*%
%TF.FilePolarity,Positive*%
%FSLAX46Y46*%
G04 Gerber Fmt 4.6, Leading zero omitted, Abs format (unit mm)*
G04 Created by KiCad (PCBNEW 7.0.9) date 2023-11-19 21:56:13*
%MOMM*%
%LPD*%
G01*
G04 APERTURE LIST*
G04 Aperture macros list*
%AMRoundRect*
0 Rectangle with rounded corners*
0 $1 Rounding radius*
0 $2 $3 $4 $5 $6 $7 $8 $9 X,Y pos of 4 corners*
0 Add a 4 corners polygon primitive as box body*
4,1,4,$2,$3,$4,$5,$6,$7,$8,$9,$2,$3,0*
0 Add four circle primitives for the rounded corners*
1,1,$1+$1,$2,$3*
1,1,$1+$1,$4,$5*
1,1,$1+$1,$6,$7*
1,1,$1+$1,$8,$9*
0 Add four rect primitives between the rounded corners*
20,1,$1+$1,$2,$3,$4,$5,0*
20,1,$1+$1,$4,$5,$6,$7,0*
20,1,$1+$1,$6,$7,$8,$9,0*
20,1,$1+$1,$8,$9,$2,$3,0*%
G04 Aperture macros list end*
%TA.AperFunction,SMDPad,CuDef*%
%ADD10RoundRect,0.237500X-0.237500X0.300000X-0.237500X-0.300000X0.237500X-0.300000X0.237500X0.300000X0*%
%TD*%
%TA.AperFunction,SMDPad,CuDef*%
%ADD11RoundRect,0.250000X-0.450000X0.350000X-0.450000X-0.350000X0.450000X-0.350000X0.450000X0.350000X0*%
%TD*%
%TA.AperFunction,SMDPad,CuDef*%
%ADD12RoundRect,0.237500X-0.237500X0.250000X-0.237500X-0.250000X0.237500X-0.250000X0.237500X0.250000X0*%
%TD*%
%TA.AperFunction,SMDPad,CuDef*%
%ADD13RoundRect,0.237500X0.237500X-0.250000X0.237500X0.250000X-0.237500X0.250000X-0.237500X-0.250000X0*%
%TD*%
%TA.AperFunction,SMDPad,CuDef*%
%ADD14RoundRect,0.237500X0.300000X0.237500X-0.300000X0.237500X-0.300000X-0.237500X0.300000X-0.237500X0*%
%TD*%
%TA.AperFunction,ComponentPad*%
%ADD15R,1.500000X1.050000*%
%TD*%
%TA.AperFunction,ComponentPad*%
%ADD16O,1.500000X1.050000*%
%TD*%
%TA.AperFunction,SMDPad,CuDef*%
%ADD17R,0.600000X1.150000*%
%TD*%
%TA.AperFunction,SMDPad,CuDef*%
%ADD18R,0.300000X1.150000*%
%TD*%
%TA.AperFunction,ComponentPad*%
%ADD19O,1.000000X2.100000*%
%TD*%
%TA.AperFunction,ComponentPad*%
%ADD20O,1.000000X1.800000*%
%TD*%
%TA.AperFunction,SMDPad,CuDef*%
%ADD21RoundRect,0.250000X1.250000X0.550000X-1.250000X0.550000X-1.250000X-0.550000X1.250000X-0.550000X0*%
%TD*%
%TA.AperFunction,ComponentPad*%
%ADD22R,1.600000X2.400000*%
%TD*%
%TA.AperFunction,ComponentPad*%
%ADD23O,1.600000X2.400000*%
%TD*%
%TA.AperFunction,ComponentPad*%
%ADD24R,1.600000X1.600000*%
%TD*%
%TA.AperFunction,ComponentPad*%
%ADD25O,1.600000X1.600000*%
%TD*%
%TA.AperFunction,SMDPad,CuDef*%
%ADD26RoundRect,0.237500X-0.287500X-0.237500X0.287500X-0.237500X0.287500X0.237500X-0.287500X0.237500X0*%
%TD*%
%TA.AperFunction,ComponentPad*%
%ADD27RoundRect,0.250000X0.600000X-0.600000X0.600000X0.600000X-0.600000X0.600000X-0.600000X-0.600000X0*%
%TD*%
%TA.AperFunction,ComponentPad*%
%ADD28C,1.700000*%
%TD*%
%TA.AperFunction,SMDPad,CuDef*%
%ADD29RoundRect,0.237500X0.237500X-0.300000X0.237500X0.300000X-0.237500X0.300000X-0.237500X-0.300000X0*%
%TD*%
%TA.AperFunction,SMDPad,CuDef*%
%ADD30RoundRect,0.237500X0.287500X0.237500X-0.287500X0.237500X-0.287500X-0.237500X0.287500X-0.237500X0*%
%TD*%
%TA.AperFunction,SMDPad,CuDef*%
%ADD31R,1.200000X0.400000*%
%TD*%
%TA.AperFunction,ComponentPad*%
%ADD32R,1.700000X1.700000*%
%TD*%
%TA.AperFunction,ComponentPad*%
%ADD33O,1.700000X1.700000*%
%TD*%
%TA.AperFunction,ComponentPad*%
%ADD34C,1.600000*%
%TD*%
%TA.AperFunction,ComponentPad*%
%ADD35R,1.950000X1.950000*%
%TD*%
%TA.AperFunction,ComponentPad*%
%ADD36C,1.950000*%
%TD*%
%TA.AperFunction,ViaPad*%
%ADD37C,0.500000*%
%TD*%
%TA.AperFunction,Conductor*%
%ADD38C,0.400000*%
%TD*%
%TA.AperFunction,Conductor*%
%ADD39C,0.200000*%
%TD*%
%TA.AperFunction,Conductor*%
%ADD40C,0.127000*%
%TD*%
%TA.AperFunction,Conductor*%
%ADD41C,1.600000*%
%TD*%
%TA.AperFunction,Conductor*%
%ADD42C,0.250000*%
%TD*%
G04 APERTURE END LIST*
D10*
%TO.P,C3,1*%
%TO.N,/D-*%
X123050000Y-53617500D03*
%TO.P,C3,2*%
%TO.N,GND*%
X123050000Y-55342500D03*
%TD*%
D11*
%TO.P,FB1,1*%
%TO.N,Net-(C2-Pad1)*%
X121490000Y-49430000D03*
%TO.P,FB1,2*%
%TO.N,Net-(U2-VCC)*%
X121490000Y-51430000D03*
%TD*%
D12*
%TO.P,R1,1*%
%TO.N,Net-(J7-CC2)*%
X123230000Y-49317500D03*
%TO.P,R1,2*%
%TO.N,GND*%
X123230000Y-51142500D03*
%TD*%
D13*
%TO.P,R6,1*%
%TO.N,Net-(D2-K)*%
X128470000Y-59560000D03*
%TO.P,R6,2*%
%TO.N,Net-(U2-CBUS2)*%
X128470000Y-57735000D03*
%TD*%
D12*
%TO.P,R3,1*%
%TO.N,/D-*%
X121550000Y-53567500D03*
%TO.P,R3,2*%
%TO.N,Net-(U2-USBDM)*%
X121550000Y-55392500D03*
%TD*%
D14*
%TO.P,C5,1*%
%TO.N,Net-(U2-VCC)*%
X119692500Y-51550000D03*
%TO.P,C5,2*%
%TO.N,GND*%
X117967500Y-51550000D03*
%TD*%
D15*
%TO.P,Q1,1,E*%
%TO.N,GND*%
X165610000Y-77560000D03*
D16*
%TO.P,Q1,2,B*%
%TO.N,Net-(Q1-B)*%
X165610000Y-78830000D03*
%TO.P,Q1,3,C*%
%TO.N,/KBD_R*%
X165610000Y-80100000D03*
%TD*%
D17*
%TO.P,J7,A1,GND*%
%TO.N,GND*%
X127420000Y-47440000D03*
%TO.P,J7,A4,VBUS*%
%TO.N,Net-(C2-Pad1)*%
X126620000Y-47440000D03*
D18*
%TO.P,J7,A5,CC1*%
%TO.N,Net-(J7-CC1)*%
X125470000Y-47440000D03*
%TO.P,J7,A6,D+*%
%TO.N,/D+*%
X124470000Y-47440000D03*
%TO.P,J7,A7,D-*%
%TO.N,/D-*%
X123970000Y-47440000D03*
%TO.P,J7,A8,SBU1*%
%TO.N,unconnected-(J7-SBU1-PadA8)*%
X122970000Y-47440000D03*
D17*
%TO.P,J7,A9,VBUS*%
%TO.N,Net-(C2-Pad1)*%
X121820000Y-47440000D03*
%TO.P,J7,A12,GND*%
%TO.N,GND*%
X121020000Y-47440000D03*
%TO.P,J7,B1,GND*%
X121020000Y-47440000D03*
%TO.P,J7,B4,VBUS*%
%TO.N,Net-(C2-Pad1)*%
X121820000Y-47440000D03*
D18*
%TO.P,J7,B5,CC2*%
%TO.N,Net-(J7-CC2)*%
X122470000Y-47440000D03*
%TO.P,J7,B6,D+*%
%TO.N,/D+*%
X123470000Y-47440000D03*
%TO.P,J7,B7,D-*%
%TO.N,/D-*%
X124970000Y-47440000D03*
%TO.P,J7,B8,SBU2*%
%TO.N,unconnected-(J7-SBU2-PadB8)*%
X125970000Y-47440000D03*
D17*
%TO.P,J7,B9,VBUS*%
%TO.N,Net-(C2-Pad1)*%
X126620000Y-47440000D03*
%TO.P,J7,B12,GND*%
%TO.N,GND*%
X127420000Y-47440000D03*
D19*
%TO.P,J7,S1,SHIELD*%
X128540000Y-46865000D03*
D20*
X128540000Y-42685000D03*
D19*
X119900000Y-46865000D03*
D20*
X119900000Y-42685000D03*
%TD*%
D12*
%TO.P,R4,1*%
%TO.N,/D+*%
X126750000Y-53567500D03*
%TO.P,R4,2*%
%TO.N,Net-(U2-USBDP)*%
X126750000Y-55392500D03*
%TD*%
D14*
%TO.P,C2,1*%
%TO.N,Net-(C2-Pad1)*%
X119692500Y-49310000D03*
%TO.P,C2,2*%
%TO.N,GND*%
X117967500Y-49310000D03*
%TD*%
D21*
%TO.P,C6,1*%
%TO.N,Net-(U2-VCC)*%
X117240000Y-55480000D03*
%TO.P,C6,2*%
%TO.N,GND*%
X112840000Y-55480000D03*
%TD*%
D22*
%TO.P,U1,1*%
%TO.N,/PTR*%
X151450000Y-68060000D03*
D23*
%TO.P,U1,2*%
%TO.N,Net-(J8-Pin_3)*%
X153990000Y-68060000D03*
%TO.P,U1,3*%
%TO.N,/PA3*%
X156530000Y-68060000D03*
%TO.P,U1,4*%
%TO.N,Net-(RN1D-R4.2)*%
X159070000Y-68060000D03*
%TO.P,U1,5*%
%TO.N,/PA4*%
X161610000Y-68060000D03*
%TO.P,U1,6*%
%TO.N,/PA6*%
X164150000Y-68060000D03*
%TO.P,U1,7,GND*%
%TO.N,GND*%
X166690000Y-68060000D03*
%TO.P,U1,8*%
%TO.N,unconnected-(U1-Pad8)*%
X166690000Y-60440000D03*
%TO.P,U1,9*%
%TO.N,GND*%
X164150000Y-60440000D03*
%TO.P,U1,10*%
%TO.N,/PA7*%
X161610000Y-60440000D03*
%TO.P,U1,11*%
%TO.N,/PA5*%
X159070000Y-60440000D03*
%TO.P,U1,12*%
%TO.N,Net-(Q1-B)*%
X156530000Y-60440000D03*
%TO.P,U1,13*%
%TO.N,Net-(J8-Pin_4)*%
X153990000Y-60440000D03*
%TO.P,U1,14,VCC*%
%TO.N,+5V*%
X151450000Y-60440000D03*
%TD*%
D24*
%TO.P,SW1,1*%
%TO.N,/ROW3*%
X150820000Y-141700000D03*
D25*
%TO.P,SW1,2*%
%TO.N,/COLA*%
X143200000Y-141700000D03*
%TD*%
D26*
%TO.P,D1,1,K*%
%TO.N,Net-(D1-K)*%
X121465000Y-63020000D03*
%TO.P,D1,2,A*%
%TO.N,Net-(D1-A)*%
X123215000Y-63020000D03*
%TD*%
D27*
%TO.P,J2,1,Pin_1*%
%TO.N,/PA0*%
X126710000Y-82920000D03*
D28*
%TO.P,J2,2,Pin_2*%
%TO.N,/PB0*%
X126710000Y-80380000D03*
%TO.P,J2,3,Pin_3*%
%TO.N,/PA1*%
X129250000Y-82920000D03*
%TO.P,J2,4,Pin_4*%
%TO.N,/PB1*%
X129250000Y-80380000D03*
%TO.P,J2,5,Pin_5*%
%TO.N,/PA2*%
X131790000Y-82920000D03*
%TO.P,J2,6,Pin_6*%
%TO.N,/PB2*%
X131790000Y-80380000D03*
%TO.P,J2,7,Pin_7*%
%TO.N,/PA3*%
X134330000Y-82920000D03*
%TO.P,J2,8,Pin_8*%
%TO.N,/PB3*%
X134330000Y-80380000D03*
%TO.P,J2,9,Pin_9*%
%TO.N,/PA4*%
X136870000Y-82920000D03*
%TO.P,J2,10,Pin_10*%
%TO.N,/PB4*%
X136870000Y-80380000D03*
%TO.P,J2,11,Pin_11*%
%TO.N,/PA5*%
X139410000Y-82920000D03*
%TO.P,J2,12,Pin_12*%
%TO.N,/PB5*%
X139410000Y-80380000D03*
%TO.P,J2,13,Pin_13*%
%TO.N,/PA6*%
X141950000Y-82920000D03*
%TO.P,J2,14,Pin_14*%
%TO.N,unconnected-(J2-Pin_14-Pad14)*%
X141950000Y-80380000D03*
%TO.P,J2,15,Pin_15*%
%TO.N,/PA7*%
X144490000Y-82920000D03*
%TO.P,J2,16,Pin_16*%
%TO.N,unconnected-(J2-Pin_16-Pad16)*%
X144490000Y-80380000D03*
%TO.P,J2,17,Pin_17*%
%TO.N,unconnected-(J2-Pin_17-Pad17)*%
X147030000Y-82920000D03*
%TO.P,J2,18,Pin_18*%
%TO.N,/PB7*%
X147030000Y-80380000D03*
%TO.P,J2,19,Pin_19*%
%TO.N,unconnected-(J2-Pin_19-Pad19)*%
X149570000Y-82920000D03*
%TO.P,J2,20,Pin_20*%
%TO.N,unconnected-(J2-Pin_20-Pad20)*%
X149570000Y-80380000D03*
%TO.P,J2,21,Pin_21*%
%TO.N,unconnected-(J2-Pin_21-Pad21)*%
X152110000Y-82920000D03*
%TO.P,J2,22,Pin_22*%
%TO.N,unconnected-(J2-Pin_22-Pad22)*%
X152110000Y-80380000D03*
%TO.P,J2,23,Pin_23*%
%TO.N,unconnected-(J2-Pin_23-Pad23)*%
X154650000Y-82920000D03*
%TO.P,J2,24,Pin_24*%
%TO.N,unconnected-(J2-Pin_24-Pad24)*%
X154650000Y-80380000D03*
%TO.P,J2,25,Pin_25*%
%TO.N,GND*%
X157190000Y-82920000D03*
%TO.P,J2,26,Pin_26*%
X157190000Y-80380000D03*
%TD*%
D24*
%TO.P,RN1,1,R1*%
%TO.N,+5V*%
X148910000Y-73380000D03*
D25*
%TO.P,RN1,2,R1.2*%
%TO.N,/PTR*%
X151450000Y-73380000D03*
%TO.P,RN1,3,R2.2*%
%TO.N,Net-(J8-Pin_3)*%
X153990000Y-73380000D03*
%TO.P,RN1,4,R3.2*%
%TO.N,Net-(Q1-B)*%
X156530000Y-73380000D03*
%TO.P,RN1,5,R4.2*%
%TO.N,Net-(RN1D-R4.2)*%
X159070000Y-73380000D03*
%TO.P,RN1,6,R5.2*%
%TO.N,/PA7*%
X161610000Y-73380000D03*
%TO.P,RN1,7,R6.2*%
%TO.N,/PA6*%
X164150000Y-73380000D03*
%TO.P,RN1,8,R7.2*%
%TO.N,Net-(J4-Pin_1)*%
X166690000Y-73380000D03*
%TD*%
D29*
%TO.P,C7,1*%
%TO.N,Net-(D1-A)*%
X119915000Y-57402500D03*
%TO.P,C7,2*%
%TO.N,GND*%
X119915000Y-55677500D03*
%TD*%
D30*
%TO.P,D2,1,K*%
%TO.N,Net-(D2-K)*%
X126815000Y-63020000D03*
%TO.P,D2,2,A*%
%TO.N,Net-(D1-A)*%
X125065000Y-63020000D03*
%TD*%
D31*
%TO.P,U2,1,TXD*%
%TO.N,Net-(J8-Pin_6)*%
X126750000Y-61212500D03*
%TO.P,U2,2,~{RTS}*%
%TO.N,Net-(U2-~{CTS})*%
X126750000Y-60577500D03*
%TO.P,U2,3,VCCIO*%
%TO.N,Net-(D1-A)*%
X126750000Y-59942500D03*
%TO.P,U2,4,RXD*%
%TO.N,Net-(J8-Pin_5)*%
X126750000Y-59307500D03*
%TO.P,U2,5,GND*%
%TO.N,GND*%
X126750000Y-58672500D03*
%TO.P,U2,6,~{CTS}*%
%TO.N,Net-(U2-~{CTS})*%
X126750000Y-58037500D03*
%TO.P,U2,7,CBUS2*%
%TO.N,Net-(U2-CBUS2)*%
X126750000Y-57402500D03*
%TO.P,U2,8,USBDP*%
%TO.N,Net-(U2-USBDP)*%
X126750000Y-56767500D03*
%TO.P,U2,9,USBDM*%
%TO.N,Net-(U2-USBDM)*%
X121550000Y-56767500D03*
%TO.P,U2,10,3V3OUT*%
%TO.N,Net-(D1-A)*%
X121550000Y-57402500D03*
%TO.P,U2,11,~{RESET}*%
X121550000Y-58037500D03*
%TO.P,U2,12,VCC*%
%TO.N,Net-(U2-VCC)*%
X121550000Y-58672500D03*
%TO.P,U2,13,GND*%
%TO.N,GND*%
X121550000Y-59307500D03*
%TO.P,U2,14,CBUS1*%
%TO.N,Net-(U2-CBUS1)*%
X121550000Y-59942500D03*
%TO.P,U2,15,CBUS0*%
%TO.N,unconnected-(U2-CBUS0-Pad15)*%
X121550000Y-60577500D03*
%TO.P,U2,16,CBUS3*%
%TO.N,unconnected-(U2-CBUS3-Pad16)*%
X121550000Y-61212500D03*
%TD*%
D32*
%TO.P,J8,1,Pin_1*%
%TO.N,Net-(J8-Pin_1)*%
X138800000Y-58670000D03*
D33*
%TO.P,J8,2,Pin_2*%
%TO.N,Net-(J8-Pin_2)*%
X138800000Y-61210000D03*
%TO.P,J8,3,Pin_3*%
%TO.N,Net-(J8-Pin_3)*%
X136260000Y-58670000D03*
%TO.P,J8,4,Pin_4*%
%TO.N,Net-(J8-Pin_4)*%
X136260000Y-61210000D03*
%TO.P,J8,5,Pin_5*%
%TO.N,Net-(J8-Pin_5)*%
X133720000Y-58670000D03*
%TO.P,J8,6,Pin_6*%
%TO.N,Net-(J8-Pin_6)*%
X133720000Y-61210000D03*
%TD*%
D13*
%TO.P,R5,1*%
%TO.N,Net-(D1-K)*%
X119900000Y-61382500D03*
%TO.P,R5,2*%
%TO.N,Net-(U2-CBUS1)*%
X119900000Y-59557500D03*
%TD*%
D10*
%TO.P,C4,1*%
%TO.N,/D+*%
X125250000Y-53617500D03*
%TO.P,C4,2*%
%TO.N,GND*%
X125250000Y-55342500D03*
%TD*%
D32*
%TO.P,J9,1,Pin_1*%
%TO.N,Net-(J8-Pin_1)*%
X135990000Y-50600000D03*
D33*
%TO.P,J9,2,Pin_2*%
%TO.N,Net-(J8-Pin_2)*%
X138530000Y-50600000D03*
%TO.P,J9,3,Pin_3*%
%TO.N,GND*%
X141070000Y-50600000D03*
%TD*%
D34*
%TO.P,C1,1*%
%TO.N,+5V*%
X148400000Y-60440000D03*
%TO.P,C1,2*%
%TO.N,GND*%
X148400000Y-65440000D03*
%TD*%
D35*
%TO.P,J3,1*%
%TO.N,unconnected-(J3-Pad1)*%
X150400000Y-52590000D03*
D36*
%TO.P,J3,2*%
%TO.N,GND*%
X152900000Y-55090000D03*
%TO.P,J3,3*%
%TO.N,Net-(RN1D-R4.2)*%
X157900000Y-52590000D03*
%TO.P,J3,4*%
%TO.N,/PA6*%
X162900000Y-55090000D03*
%TO.P,J3,5*%
%TO.N,/PA7*%
X165400000Y-52590000D03*
%TO.P,J3,6*%
%TO.N,Net-(J4-Pin_1)*%
X157900000Y-57590000D03*
%TO.P,J3,E1*%
%TO.N,GND*%
X160400000Y-42590000D03*
%TO.P,J3,E2*%
X155400000Y-42590000D03*
%TD*%
D12*
%TO.P,R2,1*%
%TO.N,Net-(J7-CC1)*%
X125340000Y-49317500D03*
%TO.P,R2,2*%
%TO.N,GND*%
X125340000Y-51142500D03*
%TD*%
D32*
%TO.P,J5,1,Pin_1*%
%TO.N,GND*%
X171120000Y-73380000D03*
%TD*%
%TO.P,J1,1,Pin_1*%
%TO.N,/PA0*%
X129250000Y-149070000D03*
D33*
%TO.P,J1,2,Pin_2*%
%TO.N,/PB0*%
X129250000Y-146530000D03*
%TO.P,J1,3,Pin_3*%
%TO.N,/PA1*%
X131790000Y-149070000D03*
%TO.P,J1,4,Pin_4*%
%TO.N,/PB1*%
X131790000Y-146530000D03*
%TO.P,J1,5,Pin_5*%
%TO.N,/PA2*%
X134330000Y-149070000D03*
%TO.P,J1,6,Pin_6*%
%TO.N,/PB2*%
X134330000Y-146530000D03*
%TO.P,J1,7,Pin_7*%
%TO.N,/PA3*%
X136870000Y-149070000D03*
%TO.P,J1,8,Pin_8*%
%TO.N,/PB3*%
X136870000Y-146530000D03*
%TO.P,J1,9,Pin_9*%
%TO.N,/PA4*%
X139410000Y-149070000D03*
%TO.P,J1,10,Pin_10*%
%TO.N,/PB4*%
X139410000Y-146530000D03*
%TO.P,J1,11,Pin_11*%
%TO.N,/PA5*%
X141950000Y-149070000D03*
%TO.P,J1,12,Pin_12*%
%TO.N,/PB5*%
X141950000Y-146530000D03*
%TO.P,J1,13,Pin_13*%
%TO.N,/PA6*%
X144490000Y-149070000D03*
%TO.P,J1,14,Pin_14*%
%TO.N,/COLA*%
X144490000Y-146530000D03*
%TO.P,J1,15,Pin_15*%
%TO.N,/PA7*%
X147030000Y-149070000D03*
%TO.P,J1,16,Pin_16*%
%TO.N,/PTR*%
X147030000Y-146530000D03*
%TO.P,J1,17,Pin_17*%
%TO.N,/ROW3*%
X149570000Y-149070000D03*
%TO.P,J1,18,Pin_18*%
%TO.N,/PB7*%
X149570000Y-146530000D03*
%TO.P,J1,19,Pin_19*%
%TO.N,/KBD_R*%
X152110000Y-149070000D03*
%TO.P,J1,20,Pin_20*%
X152110000Y-146530000D03*
%TO.P,J1,21,Pin_21*%
%TO.N,GND*%
X154650000Y-149070000D03*
%TO.P,J1,22,Pin_22*%
X154650000Y-146530000D03*
%TD*%
D32*
%TO.P,J6,1,Pin_1*%
%TO.N,+5V*%
X144980000Y-63330000D03*
%TD*%
%TO.P,J4,1,Pin_1*%
%TO.N,Net-(J4-Pin_1)*%
X171120000Y-77230000D03*
%TD*%
D37*
%TO.N,GND*%
X125776447Y-58676053D03*
X120486447Y-48433553D03*
X124136447Y-55343553D03*
X127396447Y-48343553D03*
X117956447Y-48483553D03*
X112816447Y-56643553D03*
X123230000Y-50370000D03*
X122516447Y-59311053D03*
X112816447Y-54323553D03*
X119891447Y-54823553D03*
X117956447Y-52383553D03*
X125340000Y-50370000D03*
%TO.N,Net-(C2-Pad1)*%
X126596447Y-48343553D03*
X121796447Y-48433553D03*
%TO.N,/D-*%
X125046447Y-46403553D03*
X123946447Y-46533553D03*
%TO.N,Net-(D2-K)*%
X127620000Y-63020000D03*
X128460000Y-60320000D03*
%TO.N,Net-(U2-~{CTS})*%
X125790000Y-60580000D03*
X125550000Y-57890000D03*
%TD*%
D38*
%TO.N,GND*%
X124160000Y-55340000D02*
X125247500Y-55340000D01*
X123230000Y-51142500D02*
X123230000Y-50370000D01*
X120873553Y-48066447D02*
X120510000Y-48430000D01*
X117967500Y-49310000D02*
X117967500Y-48492500D01*
X117980000Y-51562500D02*
X117967500Y-51550000D01*
X112840000Y-56640000D02*
X112840000Y-55480000D01*
X121020000Y-47440000D02*
X121020000Y-47712893D01*
X123052500Y-55340000D02*
X123050000Y-55342500D01*
X117980000Y-52380000D02*
X117980000Y-51562500D01*
D39*
X126750000Y-58672500D02*
X125800000Y-58672500D01*
X121550000Y-59307500D02*
X122540000Y-59307500D01*
D38*
X119915000Y-54820000D02*
X119915000Y-55677500D01*
X125340000Y-50370000D02*
X125340000Y-51142500D01*
X117967500Y-48492500D02*
X117980000Y-48480000D01*
X112840000Y-54320000D02*
X112840000Y-55480000D01*
X125247500Y-55340000D02*
X125250000Y-55342500D01*
X124160000Y-55340000D02*
X123052500Y-55340000D01*
X127420000Y-47440000D02*
X127420000Y-48340000D01*
X120873556Y-48066450D02*
G75*
G03*
X121020000Y-47712893I-353556J353550D01*
G01*
%TO.N,Net-(C2-Pad1)*%
X121820000Y-47440000D02*
X121820000Y-49100000D01*
X126620000Y-48340000D02*
X126620000Y-47440000D01*
X121820000Y-49100000D02*
X121490000Y-49430000D01*
X121370000Y-49310000D02*
X121490000Y-49430000D01*
X119692500Y-49310000D02*
X121370000Y-49310000D01*
D39*
%TO.N,/D-*%
X121600000Y-53617500D02*
X121550000Y-53567500D01*
D40*
X123023921Y-52006079D02*
X121550000Y-53480000D01*
X121550000Y-53480000D02*
X121550000Y-53567500D01*
X123970000Y-46610000D02*
X123970000Y-47440000D01*
X123857157Y-51947500D02*
X123165343Y-51947500D01*
X124093000Y-48508344D02*
X124093000Y-51711657D01*
X123970000Y-47440000D02*
X123970000Y-48219658D01*
X125070000Y-46400000D02*
X124970000Y-46500000D01*
X124028579Y-48361080D02*
X124034422Y-48366923D01*
X124970000Y-46500000D02*
X124970000Y-47440000D01*
X124034421Y-51853079D02*
X123998578Y-51888922D01*
D39*
X123050000Y-53617500D02*
X121600000Y-53617500D01*
D40*
X123165343Y-51947531D02*
G75*
G03*
X123023922Y-52006080I-43J-199969D01*
G01*
X123970030Y-48219658D02*
G75*
G03*
X124028579Y-48361080I199970J-42D01*
G01*
X124034442Y-51853100D02*
G75*
G03*
X124093000Y-51711657I-141442J141400D01*
G01*
X123857157Y-51947469D02*
G75*
G03*
X123998577Y-51888921I43J199969D01*
G01*
X124092969Y-48508344D02*
G75*
G03*
X124034422Y-48366923I-199969J44D01*
G01*
%TO.N,/D+*%
X125556079Y-52006079D02*
X126750000Y-53200000D01*
X124604485Y-51947500D02*
X125414657Y-51947500D01*
X123549394Y-46161980D02*
X123574875Y-46136499D01*
X124470000Y-47440000D02*
X124470000Y-48219658D01*
X124345126Y-46136500D02*
X124356501Y-46147875D01*
X124502947Y-46501428D02*
X124502947Y-47407053D01*
X124347000Y-48508344D02*
X124347000Y-51690015D01*
X123928428Y-45990053D02*
X123991572Y-45990053D01*
X124411421Y-48361080D02*
X124405578Y-48366923D01*
X126750000Y-53200000D02*
X126750000Y-53567500D01*
X123402947Y-47372947D02*
X123402947Y-46515534D01*
D39*
X125250000Y-53617500D02*
X126700000Y-53617500D01*
D40*
X123470000Y-47440000D02*
X123402947Y-47372947D01*
D39*
X126700000Y-53617500D02*
X126750000Y-53567500D01*
D40*
X124502947Y-47407053D02*
X124470000Y-47440000D01*
X124408508Y-51838508D02*
X124455993Y-51885993D01*
X124345150Y-46136476D02*
G75*
G03*
X123991572Y-45990053I-353550J-353624D01*
G01*
X125556100Y-52006058D02*
G75*
G03*
X125414657Y-51947500I-141400J-141442D01*
G01*
X124502913Y-46501428D02*
G75*
G03*
X124356501Y-46147875I-500013J28D01*
G01*
X124411442Y-48361101D02*
G75*
G03*
X124470000Y-48219658I-141442J141401D01*
G01*
X123928428Y-45990087D02*
G75*
G03*
X123574875Y-46136499I-28J-500013D01*
G01*
X124405556Y-48366901D02*
G75*
G03*
X124347000Y-48508344I141444J-141399D01*
G01*
X124346990Y-51690015D02*
G75*
G03*
X124408509Y-51838507I210010J15D01*
G01*
X124456001Y-51885985D02*
G75*
G03*
X124604485Y-51947500I148499J148485D01*
G01*
X123549387Y-46161973D02*
G75*
G03*
X123402947Y-46515534I353513J-353527D01*
G01*
D39*
%TO.N,Net-(U2-VCC)*%
X117240000Y-56101507D02*
X119752415Y-58613922D01*
D38*
X119692500Y-51550000D02*
X119692500Y-52820393D01*
D39*
X117240000Y-55480000D02*
X117240000Y-56101507D01*
D38*
X119546053Y-53173947D02*
X117240000Y-55480000D01*
X121370000Y-51550000D02*
X121490000Y-51430000D01*
X119692500Y-51550000D02*
X121370000Y-51550000D01*
D39*
X119893836Y-58672500D02*
X121550000Y-58672500D01*
D38*
X119546056Y-53173950D02*
G75*
G03*
X119692500Y-52820393I-353556J353550D01*
G01*
D39*
X119752397Y-58613940D02*
G75*
G03*
X119893836Y-58672500I141403J141440D01*
G01*
%TO.N,Net-(D1-A)*%
X121550000Y-57402500D02*
X121550000Y-58037500D01*
X121550000Y-58037500D02*
X121935786Y-58037500D01*
X124255000Y-59942500D02*
X124410843Y-59942500D01*
X122642893Y-58330393D02*
X124255000Y-59942500D01*
X125065000Y-63020000D02*
X125065000Y-61166714D01*
X125065000Y-63020000D02*
X123215000Y-63020000D01*
X121550000Y-57402500D02*
X119915000Y-57402500D01*
X126750000Y-59942500D02*
X124410843Y-59942500D01*
X124772107Y-60459607D02*
X124255000Y-59942500D01*
X122642900Y-58330386D02*
G75*
G03*
X121935786Y-58037500I-707100J-707114D01*
G01*
X125064990Y-61166714D02*
G75*
G03*
X124772107Y-60459607I-999990J14D01*
G01*
%TO.N,Net-(D1-K)*%
X121465000Y-63020000D02*
X121465000Y-62947500D01*
X121465000Y-62947500D02*
X119900000Y-61382500D01*
D40*
X119900000Y-61382500D02*
X119900000Y-61455000D01*
D41*
%TO.N,+5V*%
X148400000Y-60440000D02*
X151450000Y-60440000D01*
X145565787Y-61074213D02*
X145614214Y-61025786D01*
X145858680Y-70328680D02*
X148910000Y-73380000D01*
X147028427Y-60440000D02*
X148400000Y-60440000D01*
X144980000Y-63330000D02*
X144980000Y-62488427D01*
X144980000Y-63330000D02*
X144980000Y-68207359D01*
X145565773Y-61074199D02*
G75*
G03*
X144980000Y-62488427I1414227J-1414201D01*
G01*
X144980029Y-68207359D02*
G75*
G03*
X145858680Y-70328680I2999971J-41D01*
G01*
X147028427Y-60440020D02*
G75*
G03*
X145614215Y-61025787I-27J-1999980D01*
G01*
D38*
%TO.N,/PA0*%
X127960000Y-147365786D02*
X127960000Y-146124214D01*
X126710000Y-82920000D02*
X126710000Y-144045786D01*
X129250000Y-149070000D02*
X128252893Y-148072893D01*
X127667107Y-145417107D02*
X127002893Y-144752893D01*
X126710010Y-144045786D02*
G75*
G03*
X127002893Y-144752893I999990J-14D01*
G01*
X127960010Y-147365786D02*
G75*
G03*
X128252893Y-148072893I999990J-14D01*
G01*
X127959990Y-146124214D02*
G75*
G03*
X127667107Y-145417107I-999990J14D01*
G01*
%TO.N,/PB0*%
X128957107Y-145437107D02*
X128252893Y-144732893D01*
X127960000Y-144025786D02*
X127960000Y-82044214D01*
X127667107Y-81337107D02*
X126710000Y-80380000D01*
X129250000Y-146530000D02*
X129250000Y-146144214D01*
X127959990Y-82044214D02*
G75*
G03*
X127667107Y-81337107I-999990J14D01*
G01*
X127960010Y-144025786D02*
G75*
G03*
X128252893Y-144732893I999990J-14D01*
G01*
X129249990Y-146144214D02*
G75*
G03*
X128957107Y-145437107I-999990J14D01*
G01*
%TO.N,/PA1*%
X129250000Y-82920000D02*
X129250000Y-144045786D01*
X130500000Y-147365786D02*
X130500000Y-146124214D01*
X131790000Y-149070000D02*
X130792893Y-148072893D01*
X130207107Y-145417107D02*
X129542893Y-144752893D01*
X130499990Y-146124214D02*
G75*
G03*
X130207107Y-145417107I-999990J14D01*
G01*
X129250010Y-144045786D02*
G75*
G03*
X129542893Y-144752893I999990J-14D01*
G01*
X130500010Y-147365786D02*
G75*
G03*
X130792893Y-148072893I999990J-14D01*
G01*
%TO.N,/PB1*%
X130207107Y-81337107D02*
X129250000Y-80380000D01*
X131790000Y-146530000D02*
X131790000Y-146144214D01*
X131497107Y-145437107D02*
X130792893Y-144732893D01*
X130500000Y-144025786D02*
X130500000Y-82044214D01*
X130499990Y-82044214D02*
G75*
G03*
X130207107Y-81337107I-999990J14D01*
G01*
X130500010Y-144025786D02*
G75*
G03*
X130792893Y-144732893I999990J-14D01*
G01*
X131789990Y-146144214D02*
G75*
G03*
X131497107Y-145437107I-999990J14D01*
G01*
%TO.N,/PA2*%
X134330000Y-149070000D02*
X133332893Y-148072893D01*
X131790000Y-82920000D02*
X131790000Y-144045786D01*
X132747107Y-145417107D02*
X132082893Y-144752893D01*
X133040000Y-147365786D02*
X133040000Y-146124214D01*
X133039990Y-146124214D02*
G75*
G03*
X132747107Y-145417107I-999990J14D01*
G01*
X133040010Y-147365786D02*
G75*
G03*
X133332893Y-148072893I999990J-14D01*
G01*
X131790010Y-144045786D02*
G75*
G03*
X132082893Y-144752893I999990J-14D01*
G01*
%TO.N,/PB2*%
X132747107Y-81337107D02*
X131790000Y-80380000D01*
X133040000Y-144025786D02*
X133040000Y-82044214D01*
X134037107Y-145437107D02*
X133332893Y-144732893D01*
X134330000Y-146530000D02*
X134330000Y-146144214D01*
X133039990Y-82044214D02*
G75*
G03*
X132747107Y-81337107I-999990J14D01*
G01*
X133040010Y-144025786D02*
G75*
G03*
X133332893Y-144732893I999990J-14D01*
G01*
X134329990Y-146144214D02*
G75*
G03*
X134037107Y-145437107I-999990J14D01*
G01*
%TO.N,/PA3*%
X136870000Y-149070000D02*
X135872893Y-148072893D01*
X135580000Y-147365786D02*
X135580000Y-146124214D01*
X134330000Y-82920000D02*
X134330000Y-144045786D01*
X135287107Y-145417107D02*
X134622893Y-144752893D01*
X135580010Y-147365786D02*
G75*
G03*
X135872893Y-148072893I999990J-14D01*
G01*
X135579990Y-146124214D02*
G75*
G03*
X135287107Y-145417107I-999990J14D01*
G01*
X134330010Y-144045786D02*
G75*
G03*
X134622893Y-144752893I999990J-14D01*
G01*
%TO.N,/PB3*%
X136577107Y-145437107D02*
X135872893Y-144732893D01*
X135287107Y-81337107D02*
X134330000Y-80380000D01*
X135580000Y-144025786D02*
X135580000Y-82044214D01*
X136870000Y-146530000D02*
X136870000Y-146144214D01*
X136869990Y-146144214D02*
G75*
G03*
X136577107Y-145437107I-999990J14D01*
G01*
X135580010Y-144025786D02*
G75*
G03*
X135872893Y-144732893I999990J-14D01*
G01*
X135579990Y-82044214D02*
G75*
G03*
X135287107Y-81337107I-999990J14D01*
G01*
%TO.N,/PA4*%
X138120000Y-147365786D02*
X138120000Y-146124214D01*
X136870000Y-82920000D02*
X136870000Y-144045786D01*
X137827107Y-145417107D02*
X137162893Y-144752893D01*
X139410000Y-149070000D02*
X138412893Y-148072893D01*
X138120010Y-147365786D02*
G75*
G03*
X138412893Y-148072893I999990J-14D01*
G01*
X136870010Y-144045786D02*
G75*
G03*
X137162893Y-144752893I999990J-14D01*
G01*
X138119990Y-146124214D02*
G75*
G03*
X137827107Y-145417107I-999990J14D01*
G01*
%TO.N,/PB4*%
X138120000Y-144025786D02*
X138120000Y-82044214D01*
X139410000Y-146530000D02*
X139410000Y-146144214D01*
X137827107Y-81337107D02*
X136870000Y-80380000D01*
X139117107Y-145437107D02*
X138412893Y-144732893D01*
X139409990Y-146144214D02*
G75*
G03*
X139117107Y-145437107I-999990J14D01*
G01*
X138120010Y-144025786D02*
G75*
G03*
X138412893Y-144732893I999990J-14D01*
G01*
X138119990Y-82044214D02*
G75*
G03*
X137827107Y-81337107I-999990J14D01*
G01*
%TO.N,/PA5*%
X140660000Y-147365786D02*
X140660000Y-146124214D01*
X140367107Y-145417107D02*
X139702893Y-144752893D01*
X139410000Y-82920000D02*
X139410000Y-144045786D01*
X141950000Y-149070000D02*
X140952893Y-148072893D01*
X140660010Y-147365786D02*
G75*
G03*
X140952893Y-148072893I999990J-14D01*
G01*
X139410010Y-144045786D02*
G75*
G03*
X139702893Y-144752893I999990J-14D01*
G01*
X140659990Y-146124214D02*
G75*
G03*
X140367107Y-145417107I-999990J14D01*
G01*
%TO.N,/PB5*%
X141950000Y-146530000D02*
X141950000Y-146144214D01*
X141657107Y-145437107D02*
X140952893Y-144732893D01*
X140660000Y-144025786D02*
X140660000Y-82044214D01*
X140367107Y-81337107D02*
X139410000Y-80380000D01*
X140660010Y-144025786D02*
G75*
G03*
X140952893Y-144732893I999990J-14D01*
G01*
X140659990Y-82044214D02*
G75*
G03*
X140367107Y-81337107I-999990J14D01*
G01*
X141949990Y-146144214D02*
G75*
G03*
X141657107Y-145437107I-999990J14D01*
G01*
%TO.N,/PA6*%
X142907107Y-145417107D02*
X142242893Y-144752893D01*
X163192893Y-64112893D02*
X163857107Y-64777107D01*
X164150000Y-68060000D02*
X164150000Y-73380000D01*
X144490000Y-149070000D02*
X143492893Y-148072893D01*
X143200000Y-147365786D02*
X143200000Y-146124214D01*
X164150000Y-65484214D02*
X164150000Y-68060000D01*
X162900000Y-55090000D02*
X162900000Y-63405786D01*
X162900000Y-55090000D02*
X162880000Y-55110000D01*
X141950000Y-82920000D02*
X141950000Y-144045786D01*
X143199990Y-146124214D02*
G75*
G03*
X142907107Y-145417107I-999990J14D01*
G01*
X164149990Y-65484214D02*
G75*
G03*
X163857107Y-64777107I-999990J14D01*
G01*
X162900010Y-63405786D02*
G75*
G03*
X163192893Y-64112893I999990J-14D01*
G01*
X143200010Y-147365786D02*
G75*
G03*
X143492893Y-148072893I999990J-14D01*
G01*
X141950010Y-144045786D02*
G75*
G03*
X142242893Y-144752893I999990J-14D01*
G01*
%TO.N,/PB7*%
X148280000Y-144025786D02*
X148280000Y-82044214D01*
X149570000Y-146530000D02*
X149570000Y-146144214D01*
X147987107Y-81337107D02*
X147030000Y-80380000D01*
X149277107Y-145437107D02*
X148572893Y-144732893D01*
X149569990Y-146144214D02*
G75*
G03*
X149277107Y-145437107I-999990J14D01*
G01*
X148280010Y-144025786D02*
G75*
G03*
X148572893Y-144732893I999990J-14D01*
G01*
X148279990Y-82044214D02*
G75*
G03*
X147987107Y-81337107I-999990J14D01*
G01*
%TO.N,/PA7*%
X165400000Y-52590000D02*
X163869670Y-52590000D01*
X161902893Y-66255837D02*
X162517107Y-66870051D01*
X161525000Y-60355000D02*
X161610000Y-60440000D01*
X147030000Y-149070000D02*
X146032893Y-148072893D01*
X163162563Y-52882893D02*
X161817893Y-54227563D01*
X161525000Y-54934670D02*
X161525000Y-60355000D01*
X161610000Y-72304214D02*
X161610000Y-73380000D01*
X162810000Y-67577158D02*
X162810000Y-70275786D01*
X145447107Y-145417107D02*
X144782893Y-144752893D01*
X161610000Y-60440000D02*
X161610000Y-65548730D01*
X144490000Y-82920000D02*
X144490000Y-144045786D01*
X145740000Y-147365786D02*
X145740000Y-146124214D01*
X162517107Y-70982893D02*
X161902893Y-71597107D01*
X161609979Y-65548730D02*
G75*
G03*
X161902893Y-66255837I1000021J30D01*
G01*
X145739990Y-146124214D02*
G75*
G03*
X145447107Y-145417107I-999990J14D01*
G01*
X162517114Y-70982900D02*
G75*
G03*
X162810000Y-70275786I-707114J707100D01*
G01*
X161817908Y-54227578D02*
G75*
G03*
X161525000Y-54934670I707092J-707122D01*
G01*
X144490010Y-144045786D02*
G75*
G03*
X144782893Y-144752893I999990J-14D01*
G01*
X161902886Y-71597100D02*
G75*
G03*
X161610000Y-72304214I707114J-707100D01*
G01*
X163869670Y-52589979D02*
G75*
G03*
X163162563Y-52882893I30J-1000021D01*
G01*
X162810030Y-67577158D02*
G75*
G03*
X162517107Y-66870051I-1000030J-42D01*
G01*
X145740010Y-147365786D02*
G75*
G03*
X146032893Y-148072893I999990J-14D01*
G01*
%TO.N,/COLA*%
X144490000Y-146530000D02*
X144490000Y-146144214D01*
X143200000Y-144005786D02*
X143220000Y-141700000D01*
X144197107Y-145437107D02*
X143492893Y-144732893D01*
X143200010Y-144025786D02*
G75*
G03*
X143492893Y-144732893I999990J-14D01*
G01*
X144489990Y-146144214D02*
G75*
G03*
X144197107Y-145437107I-999990J14D01*
G01*
%TO.N,/ROW3*%
X150820000Y-147405786D02*
X150820000Y-141700000D01*
X149570000Y-149070000D02*
X150527107Y-148112893D01*
X150527114Y-148112900D02*
G75*
G03*
X150820000Y-147405786I-707114J707100D01*
G01*
%TO.N,/PTR*%
X146737107Y-145437107D02*
X146032893Y-144732893D01*
X151450000Y-75205786D02*
X151450000Y-73380000D01*
X151360000Y-73380000D02*
X151360000Y-68060000D01*
X145760000Y-141700000D02*
X145760000Y-78634214D01*
X151400000Y-73380000D02*
X151430000Y-73350000D01*
X147030000Y-146530000D02*
X147030000Y-146144214D01*
X146052893Y-77927107D02*
X146767107Y-77212893D01*
X147474214Y-76920000D02*
X149735786Y-76920000D01*
X145740000Y-144005786D02*
X145760000Y-141700000D01*
X150442893Y-76627107D02*
X151157107Y-75912893D01*
X145740010Y-144025786D02*
G75*
G03*
X146032893Y-144732893I999990J-14D01*
G01*
X146052886Y-77927100D02*
G75*
G03*
X145760000Y-78634214I707114J-707100D01*
G01*
X147029990Y-146144214D02*
G75*
G03*
X146737107Y-145437107I-999990J14D01*
G01*
X151157114Y-75912900D02*
G75*
G03*
X151450000Y-75205786I-707114J707100D01*
G01*
X147474214Y-76920010D02*
G75*
G03*
X146767107Y-77212893I-14J-999990D01*
G01*
X149735786Y-76919990D02*
G75*
G03*
X150442893Y-76627107I14J999990D01*
G01*
%TO.N,Net-(Q1-B)*%
X159517107Y-78537107D02*
X156822893Y-75842893D01*
X156530000Y-73380000D02*
X155622893Y-72472893D01*
X155330000Y-71765786D02*
X155330000Y-65204214D01*
X155622893Y-64497107D02*
X156237107Y-63882893D01*
X165610000Y-78830000D02*
X160224214Y-78830000D01*
X156530000Y-75135786D02*
X156530000Y-73380000D01*
X156530000Y-63175786D02*
X156530000Y-60440000D01*
X155622886Y-64497100D02*
G75*
G03*
X155330000Y-65204214I707114J-707100D01*
G01*
X155330010Y-71765786D02*
G75*
G03*
X155622893Y-72472893I999990J-14D01*
G01*
X156237114Y-63882900D02*
G75*
G03*
X156530000Y-63175786I-707114J707100D01*
G01*
X156530010Y-75135786D02*
G75*
G03*
X156822893Y-75842893I999990J-14D01*
G01*
X159517100Y-78537114D02*
G75*
G03*
X160224214Y-78830000I707100J707114D01*
G01*
%TO.N,Net-(J4-Pin_1)*%
X171120000Y-77230000D02*
X169414214Y-77230000D01*
X157730000Y-57760000D02*
X157730000Y-73322843D01*
X159007157Y-74600000D02*
X165055786Y-74600000D01*
X168707107Y-76937107D02*
X166982893Y-75212893D01*
X157900000Y-57590000D02*
X157730000Y-57760000D01*
X166690000Y-74505786D02*
X166690000Y-73380000D01*
X165762893Y-74307107D02*
X166690000Y-73380000D01*
X158022893Y-74029950D02*
X158300050Y-74307107D01*
X166670000Y-73410000D02*
X166640000Y-73380000D01*
X168707100Y-76937114D02*
G75*
G03*
X169414214Y-77230000I707100J707114D01*
G01*
X165055786Y-74599990D02*
G75*
G03*
X165762893Y-74307107I14J999990D01*
G01*
X158300072Y-74307085D02*
G75*
G03*
X159007157Y-74600000I707128J707085D01*
G01*
X157729970Y-73322843D02*
G75*
G03*
X158022894Y-74029949I1000030J43D01*
G01*
X166690010Y-74505786D02*
G75*
G03*
X166982893Y-75212893I999990J-14D01*
G01*
D42*
%TO.N,Net-(D2-K)*%
X128460000Y-60320000D02*
X128460000Y-59952500D01*
X126815000Y-63020000D02*
X127620000Y-63020000D01*
D40*
%TO.N,Net-(J7-CC1)*%
X125470000Y-49187500D02*
X125340000Y-49317500D01*
X125470000Y-47440000D02*
X125470000Y-49187500D01*
%TO.N,Net-(J7-CC2)*%
X123171421Y-49001421D02*
X122528578Y-48358578D01*
X123230000Y-49317500D02*
X123230000Y-49142843D01*
X122470000Y-48217157D02*
X122470000Y-47440000D01*
X123229969Y-49142843D02*
G75*
G03*
X123171420Y-49001422I-199969J43D01*
G01*
X122470031Y-48217157D02*
G75*
G03*
X122528579Y-48358577I199969J-43D01*
G01*
D38*
%TO.N,Net-(J8-Pin_1)*%
X138800000Y-58670000D02*
X138800000Y-56384214D01*
X138507107Y-55677107D02*
X136282893Y-53452893D01*
X135990000Y-50600000D02*
X135990000Y-52745786D01*
X135990010Y-52745786D02*
G75*
G03*
X136282893Y-53452893I999990J-14D01*
G01*
X138800019Y-56384214D02*
G75*
G03*
X138507107Y-55677107I-999919J14D01*
G01*
%TO.N,Net-(RN1D-R4.2)*%
X159070000Y-65764214D02*
X159070000Y-68060000D01*
X160270000Y-55374214D02*
X160270000Y-63735786D01*
X159977107Y-64442893D02*
X159362893Y-65057107D01*
X157900000Y-52590000D02*
X159977107Y-54667107D01*
X159070000Y-68060000D02*
X159070000Y-73380000D01*
X159362886Y-65057100D02*
G75*
G03*
X159070000Y-65764214I707114J-707100D01*
G01*
X159977114Y-64442900D02*
G75*
G03*
X160270000Y-63735786I-707114J707100D01*
G01*
X160269990Y-55374214D02*
G75*
G03*
X159977107Y-54667107I-999990J14D01*
G01*
D40*
%TO.N,Net-(U2-USBDM)*%
X121550000Y-55392500D02*
X121550000Y-56767500D01*
%TO.N,Net-(U2-USBDP)*%
X126750000Y-55392500D02*
X126750000Y-56767500D01*
D39*
%TO.N,Net-(U2-CBUS1)*%
X119900000Y-59557500D02*
X120226422Y-59883922D01*
X120367843Y-59942500D02*
X121550000Y-59942500D01*
X120226401Y-59883943D02*
G75*
G03*
X120367843Y-59942500I141399J141443D01*
G01*
%TO.N,Net-(U2-CBUS2)*%
X126750000Y-57402500D02*
X127355393Y-57402500D01*
X127708947Y-57548947D02*
X127748554Y-57588554D01*
X128102107Y-57735000D02*
X128470000Y-57735000D01*
X127708950Y-57548944D02*
G75*
G03*
X127355393Y-57402500I-353550J-353556D01*
G01*
X127748551Y-57588557D02*
G75*
G03*
X128102107Y-57735000I353549J353557D01*
G01*
D40*
%TO.N,Net-(U2-~{CTS})*%
X125998579Y-57948579D02*
X126028922Y-57978922D01*
X125550000Y-57890000D02*
X125857157Y-57890000D01*
X126750000Y-60577500D02*
X125792500Y-60577500D01*
X125792500Y-60577500D02*
X125790000Y-60580000D01*
X126170343Y-58037500D02*
X126750000Y-58037500D01*
X125998600Y-57948558D02*
G75*
G03*
X125857157Y-57890000I-141400J-141442D01*
G01*
X126028901Y-57978943D02*
G75*
G03*
X126170343Y-58037500I141399J141443D01*
G01*
D38*
%TO.N,Net-(J8-Pin_3)*%
X137247107Y-59657107D02*
X136260000Y-58670000D01*
X153295786Y-57290000D02*
X143094214Y-57290000D01*
X154282893Y-64147107D02*
X154967107Y-63462893D01*
X154967107Y-58547107D02*
X154002893Y-57582893D01*
X153990000Y-73380000D02*
X153990000Y-68060000D01*
X153990000Y-68060000D02*
X153990000Y-64854214D01*
X153940000Y-73380000D02*
X153970000Y-73350000D01*
X142387107Y-57582893D02*
X140312893Y-59657107D01*
X139605786Y-59950000D02*
X137954214Y-59950000D01*
X155260000Y-62755786D02*
X155260000Y-59254214D01*
X137247100Y-59657114D02*
G75*
G03*
X137954214Y-59950000I707100J707114D01*
G01*
X143094214Y-57290010D02*
G75*
G03*
X142387107Y-57582893I-14J-999990D01*
G01*
X154002900Y-57582886D02*
G75*
G03*
X153295786Y-57290000I-707100J-707114D01*
G01*
X154967114Y-63462900D02*
G75*
G03*
X155260000Y-62755786I-707114J707100D01*
G01*
X139605786Y-59949990D02*
G75*
G03*
X140312893Y-59657107I14J999990D01*
G01*
X155259990Y-59254214D02*
G75*
G03*
X154967107Y-58547107I-999990J14D01*
G01*
X154282886Y-64147100D02*
G75*
G03*
X153990000Y-64854214I707114J-707100D01*
G01*
%TO.N,Net-(J8-Pin_4)*%
X152465786Y-58470000D02*
X144544214Y-58470000D01*
X143837107Y-58762893D02*
X140402893Y-62197107D01*
X153697107Y-59287107D02*
X153172893Y-58762893D01*
X153990000Y-60440000D02*
X153990000Y-59994214D01*
X137247107Y-62197107D02*
X136260000Y-61210000D01*
X139695786Y-62490000D02*
X137954214Y-62490000D01*
X137247100Y-62197114D02*
G75*
G03*
X137954214Y-62490000I707100J707114D01*
G01*
X144544214Y-58470010D02*
G75*
G03*
X143837107Y-58762893I-14J-999990D01*
G01*
X153172900Y-58762886D02*
G75*
G03*
X152465786Y-58470000I-707100J-707114D01*
G01*
X153989990Y-59994214D02*
G75*
G03*
X153697107Y-59287107I-999990J14D01*
G01*
X139695786Y-62489990D02*
G75*
G03*
X140402893Y-62197107I14J999990D01*
G01*
D39*
%TO.N,Net-(J8-Pin_5)*%
X127548947Y-59161053D02*
X127893554Y-58816446D01*
X134170553Y-58729447D02*
X134106446Y-58793554D01*
X126750000Y-59307500D02*
X127195393Y-59307500D01*
X128247107Y-58670000D02*
X133720000Y-58670000D01*
X126747500Y-59310000D02*
X126750000Y-59307500D01*
X127195393Y-59307495D02*
G75*
G03*
X127548947Y-59161053I7J499995D01*
G01*
X128247107Y-58670005D02*
G75*
G03*
X127893554Y-58816446I-7J-499995D01*
G01*
X133752893Y-58939995D02*
G75*
G03*
X134106446Y-58793554I7J499995D01*
G01*
%TO.N,Net-(J8-Pin_6)*%
X133717500Y-61212500D02*
X133720000Y-61210000D01*
X126750000Y-61212500D02*
X133717500Y-61212500D01*
X126750000Y-61212500D02*
X126817500Y-61280000D01*
X126747500Y-61210000D02*
X126750000Y-61212500D01*
D38*
%TO.N,/KBD_R*%
X165610000Y-80100000D02*
X152695786Y-93014214D01*
X152110000Y-149070000D02*
X152110000Y-146530000D01*
X152110000Y-94428427D02*
X152110000Y-146530000D01*
X152695772Y-93014200D02*
G75*
G03*
X152110000Y-94428427I1414228J-1414200D01*
G01*
%TD*%
M02*
