%TF.GenerationSoftware,KiCad,Pcbnew,7.0.9*%
%TF.CreationDate,2023-11-19T21:56:13+01:00*%
%TF.ProjectId,kim-1-aux-card-usb,6b696d2d-312d-4617-9578-2d636172642d,rev?*%
%TF.SameCoordinates,Original*%
%TF.FileFunction,Copper,L2,Bot*%
%TF.FilePolarity,Positive*%
%FSLAX46Y46*%
G04 Gerber Fmt 4.6, Leading zero omitted, Abs format (unit mm)*
G04 Created by KiCad (PCBNEW 7.0.9) date 2023-11-19 21:56:13*
%MOMM*%
%LPD*%
G01*
G04 APERTURE LIST*
G04 Aperture macros list*
%AMRoundRect*
0 Rectangle with rounded corners*
0 $1 Rounding radius*
0 $2 $3 $4 $5 $6 $7 $8 $9 X,Y pos of 4 corners*
0 Add a 4 corners polygon primitive as box body*
4,1,4,$2,$3,$4,$5,$6,$7,$8,$9,$2,$3,0*
0 Add four circle primitives for the rounded corners*
1,1,$1+$1,$2,$3*
1,1,$1+$1,$4,$5*
1,1,$1+$1,$6,$7*
1,1,$1+$1,$8,$9*
0 Add four rect primitives between the rounded corners*
20,1,$1+$1,$2,$3,$4,$5,0*
20,1,$1+$1,$4,$5,$6,$7,0*
20,1,$1+$1,$6,$7,$8,$9,0*
20,1,$1+$1,$8,$9,$2,$3,0*%
G04 Aperture macros list end*
%TA.AperFunction,ComponentPad*%
%ADD10R,1.500000X1.050000*%
%TD*%
%TA.AperFunction,ComponentPad*%
%ADD11O,1.500000X1.050000*%
%TD*%
%TA.AperFunction,ComponentPad*%
%ADD12O,1.000000X2.100000*%
%TD*%
%TA.AperFunction,ComponentPad*%
%ADD13O,1.000000X1.800000*%
%TD*%
%TA.AperFunction,ComponentPad*%
%ADD14R,1.600000X2.400000*%
%TD*%
%TA.AperFunction,ComponentPad*%
%ADD15O,1.600000X2.400000*%
%TD*%
%TA.AperFunction,ComponentPad*%
%ADD16R,1.600000X1.600000*%
%TD*%
%TA.AperFunction,ComponentPad*%
%ADD17O,1.600000X1.600000*%
%TD*%
%TA.AperFunction,ComponentPad*%
%ADD18RoundRect,0.250000X0.600000X-0.600000X0.600000X0.600000X-0.600000X0.600000X-0.600000X-0.600000X0*%
%TD*%
%TA.AperFunction,ComponentPad*%
%ADD19C,1.700000*%
%TD*%
%TA.AperFunction,ComponentPad*%
%ADD20R,1.700000X1.700000*%
%TD*%
%TA.AperFunction,ComponentPad*%
%ADD21O,1.700000X1.700000*%
%TD*%
%TA.AperFunction,ComponentPad*%
%ADD22C,1.600000*%
%TD*%
%TA.AperFunction,ComponentPad*%
%ADD23R,1.950000X1.950000*%
%TD*%
%TA.AperFunction,ComponentPad*%
%ADD24C,1.950000*%
%TD*%
%TA.AperFunction,ViaPad*%
%ADD25C,0.500000*%
%TD*%
%TA.AperFunction,Conductor*%
%ADD26C,0.400000*%
%TD*%
%TA.AperFunction,Conductor*%
%ADD27C,0.127000*%
%TD*%
%TA.AperFunction,Conductor*%
%ADD28C,0.200000*%
%TD*%
G04 APERTURE END LIST*
D10*
%TO.P,Q1,1,E*%
%TO.N,GND*%
X165610000Y-77560000D03*
D11*
%TO.P,Q1,2,B*%
%TO.N,Net-(Q1-B)*%
X165610000Y-78830000D03*
%TO.P,Q1,3,C*%
%TO.N,/KBD_R*%
X165610000Y-80100000D03*
%TD*%
D12*
%TO.P,J7,S1,SHIELD*%
%TO.N,GND*%
X128540000Y-46865000D03*
D13*
X128540000Y-42685000D03*
D12*
X119900000Y-46865000D03*
D13*
X119900000Y-42685000D03*
%TD*%
D14*
%TO.P,U1,1*%
%TO.N,/PTR*%
X151450000Y-68060000D03*
D15*
%TO.P,U1,2*%
%TO.N,Net-(J8-Pin_3)*%
X153990000Y-68060000D03*
%TO.P,U1,3*%
%TO.N,/PA3*%
X156530000Y-68060000D03*
%TO.P,U1,4*%
%TO.N,Net-(RN1D-R4.2)*%
X159070000Y-68060000D03*
%TO.P,U1,5*%
%TO.N,/PA4*%
X161610000Y-68060000D03*
%TO.P,U1,6*%
%TO.N,/PA6*%
X164150000Y-68060000D03*
%TO.P,U1,7,GND*%
%TO.N,GND*%
X166690000Y-68060000D03*
%TO.P,U1,8*%
%TO.N,unconnected-(U1-Pad8)*%
X166690000Y-60440000D03*
%TO.P,U1,9*%
%TO.N,GND*%
X164150000Y-60440000D03*
%TO.P,U1,10*%
%TO.N,/PA7*%
X161610000Y-60440000D03*
%TO.P,U1,11*%
%TO.N,/PA5*%
X159070000Y-60440000D03*
%TO.P,U1,12*%
%TO.N,Net-(Q1-B)*%
X156530000Y-60440000D03*
%TO.P,U1,13*%
%TO.N,Net-(J8-Pin_4)*%
X153990000Y-60440000D03*
%TO.P,U1,14,VCC*%
%TO.N,+5V*%
X151450000Y-60440000D03*
%TD*%
D16*
%TO.P,SW1,1*%
%TO.N,/ROW3*%
X150820000Y-141700000D03*
D17*
%TO.P,SW1,2*%
%TO.N,/COLA*%
X143200000Y-141700000D03*
%TD*%
D18*
%TO.P,J2,1,Pin_1*%
%TO.N,/PA0*%
X126710000Y-82920000D03*
D19*
%TO.P,J2,2,Pin_2*%
%TO.N,/PB0*%
X126710000Y-80380000D03*
%TO.P,J2,3,Pin_3*%
%TO.N,/PA1*%
X129250000Y-82920000D03*
%TO.P,J2,4,Pin_4*%
%TO.N,/PB1*%
X129250000Y-80380000D03*
%TO.P,J2,5,Pin_5*%
%TO.N,/PA2*%
X131790000Y-82920000D03*
%TO.P,J2,6,Pin_6*%
%TO.N,/PB2*%
X131790000Y-80380000D03*
%TO.P,J2,7,Pin_7*%
%TO.N,/PA3*%
X134330000Y-82920000D03*
%TO.P,J2,8,Pin_8*%
%TO.N,/PB3*%
X134330000Y-80380000D03*
%TO.P,J2,9,Pin_9*%
%TO.N,/PA4*%
X136870000Y-82920000D03*
%TO.P,J2,10,Pin_10*%
%TO.N,/PB4*%
X136870000Y-80380000D03*
%TO.P,J2,11,Pin_11*%
%TO.N,/PA5*%
X139410000Y-82920000D03*
%TO.P,J2,12,Pin_12*%
%TO.N,/PB5*%
X139410000Y-80380000D03*
%TO.P,J2,13,Pin_13*%
%TO.N,/PA6*%
X141950000Y-82920000D03*
%TO.P,J2,14,Pin_14*%
%TO.N,unconnected-(J2-Pin_14-Pad14)*%
X141950000Y-80380000D03*
%TO.P,J2,15,Pin_15*%
%TO.N,/PA7*%
X144490000Y-82920000D03*
%TO.P,J2,16,Pin_16*%
%TO.N,unconnected-(J2-Pin_16-Pad16)*%
X144490000Y-80380000D03*
%TO.P,J2,17,Pin_17*%
%TO.N,unconnected-(J2-Pin_17-Pad17)*%
X147030000Y-82920000D03*
%TO.P,J2,18,Pin_18*%
%TO.N,/PB7*%
X147030000Y-80380000D03*
%TO.P,J2,19,Pin_19*%
%TO.N,unconnected-(J2-Pin_19-Pad19)*%
X149570000Y-82920000D03*
%TO.P,J2,20,Pin_20*%
%TO.N,unconnected-(J2-Pin_20-Pad20)*%
X149570000Y-80380000D03*
%TO.P,J2,21,Pin_21*%
%TO.N,unconnected-(J2-Pin_21-Pad21)*%
X152110000Y-82920000D03*
%TO.P,J2,22,Pin_22*%
%TO.N,unconnected-(J2-Pin_22-Pad22)*%
X152110000Y-80380000D03*
%TO.P,J2,23,Pin_23*%
%TO.N,unconnected-(J2-Pin_23-Pad23)*%
X154650000Y-82920000D03*
%TO.P,J2,24,Pin_24*%
%TO.N,unconnected-(J2-Pin_24-Pad24)*%
X154650000Y-80380000D03*
%TO.P,J2,25,Pin_25*%
%TO.N,GND*%
X157190000Y-82920000D03*
%TO.P,J2,26,Pin_26*%
X157190000Y-80380000D03*
%TD*%
D16*
%TO.P,RN1,1,R1*%
%TO.N,+5V*%
X148910000Y-73380000D03*
D17*
%TO.P,RN1,2,R1.2*%
%TO.N,/PTR*%
X151450000Y-73380000D03*
%TO.P,RN1,3,R2.2*%
%TO.N,Net-(J8-Pin_3)*%
X153990000Y-73380000D03*
%TO.P,RN1,4,R3.2*%
%TO.N,Net-(Q1-B)*%
X156530000Y-73380000D03*
%TO.P,RN1,5,R4.2*%
%TO.N,Net-(RN1D-R4.2)*%
X159070000Y-73380000D03*
%TO.P,RN1,6,R5.2*%
%TO.N,/PA7*%
X161610000Y-73380000D03*
%TO.P,RN1,7,R6.2*%
%TO.N,/PA6*%
X164150000Y-73380000D03*
%TO.P,RN1,8,R7.2*%
%TO.N,Net-(J4-Pin_1)*%
X166690000Y-73380000D03*
%TD*%
D20*
%TO.P,J8,1,Pin_1*%
%TO.N,Net-(J8-Pin_1)*%
X138800000Y-58670000D03*
D21*
%TO.P,J8,2,Pin_2*%
%TO.N,Net-(J8-Pin_2)*%
X138800000Y-61210000D03*
%TO.P,J8,3,Pin_3*%
%TO.N,Net-(J8-Pin_3)*%
X136260000Y-58670000D03*
%TO.P,J8,4,Pin_4*%
%TO.N,Net-(J8-Pin_4)*%
X136260000Y-61210000D03*
%TO.P,J8,5,Pin_5*%
%TO.N,Net-(J8-Pin_5)*%
X133720000Y-58670000D03*
%TO.P,J8,6,Pin_6*%
%TO.N,Net-(J8-Pin_6)*%
X133720000Y-61210000D03*
%TD*%
D20*
%TO.P,J9,1,Pin_1*%
%TO.N,Net-(J8-Pin_1)*%
X135990000Y-50600000D03*
D21*
%TO.P,J9,2,Pin_2*%
%TO.N,Net-(J8-Pin_2)*%
X138530000Y-50600000D03*
%TO.P,J9,3,Pin_3*%
%TO.N,GND*%
X141070000Y-50600000D03*
%TD*%
D22*
%TO.P,C1,1*%
%TO.N,+5V*%
X148400000Y-60440000D03*
%TO.P,C1,2*%
%TO.N,GND*%
X148400000Y-65440000D03*
%TD*%
D23*
%TO.P,J3,1*%
%TO.N,unconnected-(J3-Pad1)*%
X150400000Y-52590000D03*
D24*
%TO.P,J3,2*%
%TO.N,GND*%
X152900000Y-55090000D03*
%TO.P,J3,3*%
%TO.N,Net-(RN1D-R4.2)*%
X157900000Y-52590000D03*
%TO.P,J3,4*%
%TO.N,/PA6*%
X162900000Y-55090000D03*
%TO.P,J3,5*%
%TO.N,/PA7*%
X165400000Y-52590000D03*
%TO.P,J3,6*%
%TO.N,Net-(J4-Pin_1)*%
X157900000Y-57590000D03*
%TO.P,J3,E1*%
%TO.N,GND*%
X160400000Y-42590000D03*
%TO.P,J3,E2*%
X155400000Y-42590000D03*
%TD*%
D20*
%TO.P,J5,1,Pin_1*%
%TO.N,GND*%
X171120000Y-73380000D03*
%TD*%
%TO.P,J1,1,Pin_1*%
%TO.N,/PA0*%
X129250000Y-149070000D03*
D21*
%TO.P,J1,2,Pin_2*%
%TO.N,/PB0*%
X129250000Y-146530000D03*
%TO.P,J1,3,Pin_3*%
%TO.N,/PA1*%
X131790000Y-149070000D03*
%TO.P,J1,4,Pin_4*%
%TO.N,/PB1*%
X131790000Y-146530000D03*
%TO.P,J1,5,Pin_5*%
%TO.N,/PA2*%
X134330000Y-149070000D03*
%TO.P,J1,6,Pin_6*%
%TO.N,/PB2*%
X134330000Y-146530000D03*
%TO.P,J1,7,Pin_7*%
%TO.N,/PA3*%
X136870000Y-149070000D03*
%TO.P,J1,8,Pin_8*%
%TO.N,/PB3*%
X136870000Y-146530000D03*
%TO.P,J1,9,Pin_9*%
%TO.N,/PA4*%
X139410000Y-149070000D03*
%TO.P,J1,10,Pin_10*%
%TO.N,/PB4*%
X139410000Y-146530000D03*
%TO.P,J1,11,Pin_11*%
%TO.N,/PA5*%
X141950000Y-149070000D03*
%TO.P,J1,12,Pin_12*%
%TO.N,/PB5*%
X141950000Y-146530000D03*
%TO.P,J1,13,Pin_13*%
%TO.N,/PA6*%
X144490000Y-149070000D03*
%TO.P,J1,14,Pin_14*%
%TO.N,/COLA*%
X144490000Y-146530000D03*
%TO.P,J1,15,Pin_15*%
%TO.N,/PA7*%
X147030000Y-149070000D03*
%TO.P,J1,16,Pin_16*%
%TO.N,/PTR*%
X147030000Y-146530000D03*
%TO.P,J1,17,Pin_17*%
%TO.N,/ROW3*%
X149570000Y-149070000D03*
%TO.P,J1,18,Pin_18*%
%TO.N,/PB7*%
X149570000Y-146530000D03*
%TO.P,J1,19,Pin_19*%
%TO.N,/KBD_R*%
X152110000Y-149070000D03*
%TO.P,J1,20,Pin_20*%
X152110000Y-146530000D03*
%TO.P,J1,21,Pin_21*%
%TO.N,GND*%
X154650000Y-149070000D03*
%TO.P,J1,22,Pin_22*%
X154650000Y-146530000D03*
%TD*%
D20*
%TO.P,J6,1,Pin_1*%
%TO.N,+5V*%
X144980000Y-63330000D03*
%TD*%
%TO.P,J4,1,Pin_1*%
%TO.N,Net-(J4-Pin_1)*%
X171120000Y-77230000D03*
%TD*%
D25*
%TO.N,GND*%
X125776447Y-58676053D03*
X120486447Y-48433553D03*
X124136447Y-55343553D03*
X127396447Y-48343553D03*
X117956447Y-48483553D03*
X112816447Y-56643553D03*
X123230000Y-50370000D03*
X122516447Y-59311053D03*
X112816447Y-54323553D03*
X119891447Y-54823553D03*
X117956447Y-52383553D03*
X125340000Y-50370000D03*
%TO.N,Net-(C2-Pad1)*%
X126596447Y-48343553D03*
X121796447Y-48433553D03*
%TO.N,/D-*%
X125046447Y-46403553D03*
X123946447Y-46533553D03*
%TO.N,Net-(D2-K)*%
X127620000Y-63020000D03*
X128460000Y-60320000D03*
%TO.N,Net-(U2-~{CTS})*%
X125790000Y-60580000D03*
X125550000Y-57890000D03*
%TD*%
D26*
%TO.N,Net-(C2-Pad1)*%
X126620000Y-48340000D02*
X126620000Y-47195441D01*
X121796447Y-47721887D02*
X121796447Y-48433553D01*
X121820000Y-47907107D02*
X121820000Y-48430000D01*
X123794781Y-45723553D02*
X121796447Y-47721887D01*
X125349781Y-45723553D02*
X123794781Y-45723553D01*
X126468115Y-46841887D02*
X125349781Y-45723553D01*
X126619971Y-47195441D02*
G75*
G03*
X126473553Y-46841887I-499971J41D01*
G01*
D27*
%TO.N,/D-*%
X124041421Y-46458579D02*
X123970000Y-46530000D01*
X125070000Y-46400000D02*
X124182843Y-46400000D01*
X124182843Y-46400031D02*
G75*
G03*
X124041422Y-46458580I-43J-199969D01*
G01*
D26*
%TO.N,/PA3*%
X133372893Y-79569340D02*
X133609340Y-79332893D01*
X136922893Y-78747107D02*
X143247107Y-72422893D01*
X134330000Y-82920000D02*
X133372893Y-81962893D01*
X134316447Y-79040000D02*
X136215786Y-79040000D01*
X152752893Y-71837107D02*
X156530000Y-68060000D01*
X133080000Y-81255786D02*
X133080000Y-80276447D01*
X143954214Y-72130000D02*
X152045786Y-72130000D01*
X133080010Y-81255786D02*
G75*
G03*
X133372893Y-81962893I999990J-14D01*
G01*
X143954214Y-72130010D02*
G75*
G03*
X143247107Y-72422893I-14J-999990D01*
G01*
X152045786Y-72129990D02*
G75*
G03*
X152752893Y-71837107I14J999990D01*
G01*
X134316447Y-79040033D02*
G75*
G03*
X133609340Y-79332893I-47J-999967D01*
G01*
X133372870Y-79569317D02*
G75*
G03*
X133080000Y-80276447I707130J-707083D01*
G01*
X136215786Y-79039990D02*
G75*
G03*
X136922893Y-78747107I14J999990D01*
G01*
%TO.N,/PA4*%
X159977107Y-74822893D02*
X159632893Y-75167107D01*
X158925786Y-75460000D02*
X144764214Y-75460000D01*
X139483553Y-84200000D02*
X138564214Y-84200000D01*
X161610000Y-68060000D02*
X161610000Y-69995786D01*
X140660000Y-79564214D02*
X140660000Y-83023553D01*
X140367107Y-83730660D02*
X140190660Y-83907107D01*
X144057107Y-75752893D02*
X140952893Y-78857107D01*
X160270000Y-72164214D02*
X160270000Y-74115786D01*
X137857107Y-83907107D02*
X136870000Y-82920000D01*
X161317107Y-70702893D02*
X160562893Y-71457107D01*
X140367130Y-83730683D02*
G75*
G03*
X140660000Y-83023553I-707130J707083D01*
G01*
X158925786Y-75459990D02*
G75*
G03*
X159632893Y-75167107I14J999990D01*
G01*
X139483553Y-84199967D02*
G75*
G03*
X140190660Y-83907107I47J999967D01*
G01*
X159977114Y-74822900D02*
G75*
G03*
X160270000Y-74115786I-707114J707100D01*
G01*
X137857100Y-83907114D02*
G75*
G03*
X138564214Y-84200000I707100J707114D01*
G01*
X161317114Y-70702900D02*
G75*
G03*
X161610000Y-69995786I-707114J707100D01*
G01*
X144764214Y-75460010D02*
G75*
G03*
X144057107Y-75752893I-14J-999990D01*
G01*
X140952886Y-78857100D02*
G75*
G03*
X140660000Y-79564214I707114J-707100D01*
G01*
X160562886Y-71457100D02*
G75*
G03*
X160270000Y-72164214I707114J-707100D01*
G01*
%TO.N,/PA5*%
X138452893Y-81962893D02*
X139410000Y-82920000D01*
X159070000Y-60440000D02*
X160270000Y-61640000D01*
X159977107Y-70242893D02*
X158162893Y-72057107D01*
X138160000Y-79974214D02*
X138160000Y-81255786D01*
X157577107Y-74272893D02*
X157502893Y-74347107D01*
X156795786Y-74640000D02*
X143494214Y-74640000D01*
X160270000Y-61640000D02*
X160270000Y-69535786D01*
X142787107Y-74932893D02*
X138452893Y-79267107D01*
X157870000Y-72764214D02*
X157870000Y-73565786D01*
X143494214Y-74640010D02*
G75*
G03*
X142787107Y-74932893I-14J-999990D01*
G01*
X158162886Y-72057100D02*
G75*
G03*
X157870000Y-72764214I707114J-707100D01*
G01*
X138452886Y-79267100D02*
G75*
G03*
X138160000Y-79974214I707114J-707100D01*
G01*
X159977114Y-70242900D02*
G75*
G03*
X160270000Y-69535786I-707114J707100D01*
G01*
X138160010Y-81255786D02*
G75*
G03*
X138452893Y-81962893I999990J-14D01*
G01*
X156795786Y-74639990D02*
G75*
G03*
X157502893Y-74347107I14J999990D01*
G01*
X157577114Y-74272900D02*
G75*
G03*
X157870000Y-73565786I-707114J707100D01*
G01*
%TO.N,/PA6*%
X154014214Y-77100000D02*
X160415786Y-77100000D01*
X150380660Y-83877107D02*
X150567107Y-83690660D01*
X164150000Y-73572893D02*
X164150000Y-73380000D01*
X143614214Y-84170000D02*
X149673553Y-84170000D01*
X161122893Y-76807107D02*
X164003554Y-73926446D01*
X151152893Y-79547107D02*
X153307107Y-77392893D01*
X141950000Y-82920000D02*
X142907107Y-83877107D01*
X150860000Y-82983553D02*
X150860000Y-80254214D01*
X149673553Y-84169967D02*
G75*
G03*
X150380660Y-83877107I47J999967D01*
G01*
X142907100Y-83877114D02*
G75*
G03*
X143614214Y-84170000I707100J707114D01*
G01*
X150567130Y-83690683D02*
G75*
G03*
X150860000Y-82983553I-707130J707083D01*
G01*
X151152886Y-79547100D02*
G75*
G03*
X150860000Y-80254214I707114J-707100D01*
G01*
X160415786Y-77099990D02*
G75*
G03*
X161122893Y-76807107I14J999990D01*
G01*
X164003557Y-73926449D02*
G75*
G03*
X164150000Y-73572893I-353557J353549D01*
G01*
X154014214Y-77100039D02*
G75*
G03*
X153307107Y-77392893I-14J-1000061D01*
G01*
%TO.N,/PA7*%
X143230000Y-79064214D02*
X143230000Y-81245786D01*
X160045786Y-76270000D02*
X146024214Y-76270000D01*
X161317107Y-75412893D02*
X160752893Y-75977107D01*
X143522893Y-81952893D02*
X144490000Y-82920000D01*
X145317107Y-76562893D02*
X143522893Y-78357107D01*
X161610000Y-73380000D02*
X161610000Y-74705786D01*
X143522886Y-78357100D02*
G75*
G03*
X143230000Y-79064214I707114J-707100D01*
G01*
X146024214Y-76270010D02*
G75*
G03*
X145317107Y-76562893I-14J-999990D01*
G01*
X143230010Y-81245786D02*
G75*
G03*
X143522893Y-81952893I999990J-14D01*
G01*
X160045786Y-76269990D02*
G75*
G03*
X160752893Y-75977107I14J999990D01*
G01*
X161317114Y-75412900D02*
G75*
G03*
X161610000Y-74705786I-707114J707100D01*
G01*
D28*
%TO.N,Net-(D2-K)*%
X128177107Y-62462893D02*
X127620000Y-63020000D01*
X128460000Y-60320000D02*
X128467999Y-60327999D01*
X128467999Y-60327999D02*
X128467999Y-61854081D01*
X128177110Y-62462896D02*
G75*
G03*
X128467998Y-61854081I-727710J721596D01*
G01*
D26*
%TO.N,Net-(J8-Pin_2)*%
X138822893Y-53172893D02*
X140587107Y-54937107D01*
X140332893Y-60917107D02*
X140587107Y-60662893D01*
X138800000Y-61210000D02*
X139625786Y-61210000D01*
X138530000Y-50600000D02*
X138530000Y-52465786D01*
X140880000Y-59955786D02*
X140880000Y-55644214D01*
X140587114Y-60662900D02*
G75*
G03*
X140880000Y-59955786I-707114J707100D01*
G01*
X140879990Y-55644214D02*
G75*
G03*
X140587107Y-54937107I-999990J14D01*
G01*
X139625786Y-61209990D02*
G75*
G03*
X140332893Y-60917107I14J999990D01*
G01*
X138530010Y-52465786D02*
G75*
G03*
X138822893Y-53172893I999990J-14D01*
G01*
D27*
%TO.N,Net-(U2-~{CTS})*%
X125790000Y-60580000D02*
X125379393Y-60169393D01*
X125232947Y-59815840D02*
X125232947Y-58414160D01*
X125379394Y-58060606D02*
X125550000Y-57890000D01*
X125379424Y-58060636D02*
G75*
G03*
X125232947Y-58414160I353476J-353564D01*
G01*
X125232905Y-59815840D02*
G75*
G03*
X125379393Y-60169393I499995J40D01*
G01*
%TD*%
%TA.AperFunction,Conductor*%
%TO.N,GND*%
G36*
X154900000Y-148634498D02*
G01*
X154792315Y-148585320D01*
X154685763Y-148570000D01*
X154614237Y-148570000D01*
X154507685Y-148585320D01*
X154400000Y-148634498D01*
X154400000Y-146965501D01*
X154507685Y-147014680D01*
X154614237Y-147030000D01*
X154685763Y-147030000D01*
X154792315Y-147014680D01*
X154900000Y-146965501D01*
X154900000Y-148634498D01*
G37*
%TD.AperFunction*%
%TA.AperFunction,Conductor*%
G36*
X171121619Y-40090584D02*
G01*
X171253628Y-40097503D01*
X171437027Y-40107803D01*
X171443212Y-40108465D01*
X171595647Y-40132608D01*
X171758194Y-40160226D01*
X171763811Y-40161453D01*
X171916693Y-40202418D01*
X172009122Y-40229046D01*
X172071724Y-40247082D01*
X172076759Y-40248769D01*
X172226183Y-40306127D01*
X172374007Y-40367358D01*
X172378412Y-40369388D01*
X172444180Y-40402899D01*
X172521921Y-40442511D01*
X172597428Y-40484241D01*
X172661480Y-40519641D01*
X172665215Y-40521882D01*
X172739487Y-40570115D01*
X172800872Y-40609980D01*
X172888357Y-40672053D01*
X172930764Y-40702142D01*
X172933886Y-40704510D01*
X173058748Y-40805621D01*
X173061034Y-40807567D01*
X173178721Y-40912738D01*
X173181248Y-40915128D01*
X173294870Y-41028750D01*
X173297260Y-41031277D01*
X173402431Y-41148964D01*
X173404385Y-41151260D01*
X173505480Y-41276102D01*
X173507862Y-41279243D01*
X173600019Y-41409127D01*
X173652637Y-41490149D01*
X173688106Y-41544767D01*
X173690364Y-41548531D01*
X173767488Y-41688078D01*
X173840604Y-41831575D01*
X173842643Y-41835997D01*
X173903877Y-41983829D01*
X173961221Y-42133217D01*
X173962916Y-42138273D01*
X174007579Y-42293297D01*
X174048541Y-42446171D01*
X174049778Y-42451835D01*
X174077394Y-42614369D01*
X174101530Y-42766758D01*
X174102196Y-42772985D01*
X174112509Y-42956617D01*
X174119415Y-43088377D01*
X174119500Y-43091623D01*
X174119500Y-82768376D01*
X174119415Y-82771622D01*
X174112509Y-82903382D01*
X174102196Y-83087013D01*
X174101530Y-83093240D01*
X174077394Y-83245630D01*
X174049778Y-83408163D01*
X174048541Y-83413827D01*
X174007579Y-83566702D01*
X173962916Y-83721725D01*
X173961221Y-83726781D01*
X173903877Y-83876170D01*
X173842643Y-84024001D01*
X173840604Y-84028423D01*
X173767488Y-84171921D01*
X173690364Y-84311467D01*
X173688097Y-84315246D01*
X173600019Y-84450872D01*
X173507862Y-84580755D01*
X173505480Y-84583896D01*
X173404385Y-84708738D01*
X173402431Y-84711034D01*
X173297260Y-84828721D01*
X173294870Y-84831248D01*
X173181248Y-84944870D01*
X173178721Y-84947260D01*
X173061034Y-85052431D01*
X173058738Y-85054385D01*
X172933896Y-85155480D01*
X172930755Y-85157862D01*
X172800872Y-85250019D01*
X172665246Y-85338097D01*
X172661467Y-85340364D01*
X172521921Y-85417488D01*
X172378423Y-85490604D01*
X172374001Y-85492643D01*
X172226170Y-85553877D01*
X172076781Y-85611221D01*
X172071725Y-85612916D01*
X171916702Y-85657579D01*
X171763827Y-85698541D01*
X171758163Y-85699778D01*
X171595630Y-85727394D01*
X171443240Y-85751530D01*
X171437013Y-85752196D01*
X171253382Y-85762509D01*
X171121622Y-85769415D01*
X171118376Y-85769500D01*
X165410500Y-85769500D01*
X165410000Y-85769500D01*
X165252750Y-85769500D01*
X164939974Y-85802374D01*
X164939970Y-85802374D01*
X164939968Y-85802375D01*
X164632352Y-85867760D01*
X164632350Y-85867761D01*
X164333248Y-85964944D01*
X164045931Y-86092866D01*
X164045924Y-86092869D01*
X163773571Y-86250112D01*
X163773566Y-86250115D01*
X163519139Y-86434967D01*
X163519130Y-86434974D01*
X163285414Y-86645414D01*
X163074974Y-86879130D01*
X163074967Y-86879139D01*
X162890115Y-87133566D01*
X162890112Y-87133571D01*
X162732869Y-87405924D01*
X162732866Y-87405931D01*
X162604944Y-87693248D01*
X162507761Y-87992350D01*
X162507760Y-87992352D01*
X162442375Y-88299968D01*
X162409500Y-88612754D01*
X162409500Y-147798376D01*
X162409415Y-147801622D01*
X162402509Y-147933382D01*
X162392196Y-148117013D01*
X162391530Y-148123240D01*
X162367394Y-148275630D01*
X162339778Y-148438163D01*
X162338541Y-148443827D01*
X162297579Y-148596702D01*
X162252916Y-148751725D01*
X162251221Y-148756781D01*
X162193877Y-148906170D01*
X162132643Y-149054001D01*
X162130604Y-149058423D01*
X162057488Y-149201921D01*
X161980364Y-149341467D01*
X161978097Y-149345246D01*
X161890019Y-149480872D01*
X161797862Y-149610755D01*
X161795480Y-149613896D01*
X161694385Y-149738738D01*
X161692431Y-149741034D01*
X161587260Y-149858721D01*
X161584870Y-149861248D01*
X161471248Y-149974870D01*
X161468721Y-149977260D01*
X161351034Y-150082431D01*
X161348738Y-150084385D01*
X161223896Y-150185480D01*
X161220755Y-150187862D01*
X161090872Y-150280019D01*
X160955246Y-150368097D01*
X160951467Y-150370364D01*
X160811921Y-150447488D01*
X160668423Y-150520604D01*
X160664001Y-150522643D01*
X160516170Y-150583877D01*
X160366781Y-150641221D01*
X160361725Y-150642916D01*
X160206702Y-150687579D01*
X160053827Y-150728541D01*
X160048163Y-150729778D01*
X159885630Y-150757394D01*
X159733240Y-150781530D01*
X159727013Y-150782196D01*
X159543382Y-150792509D01*
X159411622Y-150799415D01*
X159408376Y-150799500D01*
X124491624Y-150799500D01*
X124488378Y-150799415D01*
X124356617Y-150792509D01*
X124172985Y-150782196D01*
X124166758Y-150781530D01*
X124014369Y-150757394D01*
X123851835Y-150729778D01*
X123846171Y-150728541D01*
X123693297Y-150687579D01*
X123538273Y-150642916D01*
X123533217Y-150641221D01*
X123383829Y-150583877D01*
X123235997Y-150522643D01*
X123231575Y-150520604D01*
X123088078Y-150447488D01*
X122948531Y-150370364D01*
X122944767Y-150368106D01*
X122891875Y-150333758D01*
X122809127Y-150280019D01*
X122679243Y-150187862D01*
X122676102Y-150185480D01*
X122551260Y-150084385D01*
X122548964Y-150082431D01*
X122431277Y-149977260D01*
X122428750Y-149974870D01*
X122386438Y-149932558D01*
X128272500Y-149932558D01*
X128279898Y-149969749D01*
X128308077Y-150011922D01*
X128350250Y-150040101D01*
X128350252Y-150040102D01*
X128378205Y-150045662D01*
X128387441Y-150047500D01*
X128387442Y-150047500D01*
X130112559Y-150047500D01*
X130119957Y-150046028D01*
X130149748Y-150040102D01*
X130191922Y-150011922D01*
X130220102Y-149969748D01*
X130227500Y-149932558D01*
X130227500Y-149070000D01*
X130807770Y-149070000D01*
X130826643Y-149261626D01*
X130882538Y-149445884D01*
X130973302Y-149615692D01*
X130973306Y-149615699D01*
X131095458Y-149764541D01*
X131244300Y-149886693D01*
X131244307Y-149886697D01*
X131399685Y-149969748D01*
X131414117Y-149977462D01*
X131598376Y-150033357D01*
X131790000Y-150052230D01*
X131981624Y-150033357D01*
X132165883Y-149977462D01*
X132335698Y-149886694D01*
X132484541Y-149764541D01*
X132606694Y-149615698D01*
X132697462Y-149445883D01*
X132753357Y-149261624D01*
X132772230Y-149070000D01*
X133347770Y-149070000D01*
X133366643Y-149261626D01*
X133422538Y-149445884D01*
X133513302Y-149615692D01*
X133513306Y-149615699D01*
X133635458Y-149764541D01*
X133784300Y-149886693D01*
X133784307Y-149886697D01*
X133939685Y-149969748D01*
X133954117Y-149977462D01*
X134138376Y-150033357D01*
X134330000Y-150052230D01*
X134521624Y-150033357D01*
X134705883Y-149977462D01*
X134875698Y-149886694D01*
X135024541Y-149764541D01*
X135146694Y-149615698D01*
X135237462Y-149445883D01*
X135293357Y-149261624D01*
X135312230Y-149070000D01*
X135887770Y-149070000D01*
X135906643Y-149261626D01*
X135962538Y-149445884D01*
X136053302Y-149615692D01*
X136053306Y-149615699D01*
X136175458Y-149764541D01*
X136324300Y-149886693D01*
X136324307Y-149886697D01*
X136479685Y-149969748D01*
X136494117Y-149977462D01*
X136678376Y-150033357D01*
X136870000Y-150052230D01*
X137061624Y-150033357D01*
X137245883Y-149977462D01*
X137415698Y-149886694D01*
X137564541Y-149764541D01*
X137686694Y-149615698D01*
X137777462Y-149445883D01*
X137833357Y-149261624D01*
X137852230Y-149070000D01*
X138427770Y-149070000D01*
X138446643Y-149261626D01*
X138502538Y-149445884D01*
X138593302Y-149615692D01*
X138593306Y-149615699D01*
X138715458Y-149764541D01*
X138864300Y-149886693D01*
X138864307Y-149886697D01*
X139019685Y-149969748D01*
X139034117Y-149977462D01*
X139218376Y-150033357D01*
X139410000Y-150052230D01*
X139601624Y-150033357D01*
X139785883Y-149977462D01*
X139955698Y-149886694D01*
X140104541Y-149764541D01*
X140226694Y-149615698D01*
X140317462Y-149445883D01*
X140373357Y-149261624D01*
X140392230Y-149070000D01*
X140967770Y-149070000D01*
X140986643Y-149261626D01*
X141042538Y-149445884D01*
X141133302Y-149615692D01*
X141133306Y-149615699D01*
X141255458Y-149764541D01*
X141404300Y-149886693D01*
X141404307Y-149886697D01*
X141559685Y-149969748D01*
X141574117Y-149977462D01*
X141758376Y-150033357D01*
X141950000Y-150052230D01*
X142141624Y-150033357D01*
X142325883Y-149977462D01*
X142495698Y-149886694D01*
X142644541Y-149764541D01*
X142766694Y-149615698D01*
X142857462Y-149445883D01*
X142913357Y-149261624D01*
X142932230Y-149070000D01*
X143507770Y-149070000D01*
X143526643Y-149261626D01*
X143582538Y-149445884D01*
X143673302Y-149615692D01*
X143673306Y-149615699D01*
X143795458Y-149764541D01*
X143944300Y-149886693D01*
X143944307Y-149886697D01*
X144099685Y-149969748D01*
X144114117Y-149977462D01*
X144298376Y-150033357D01*
X144490000Y-150052230D01*
X144681624Y-150033357D01*
X144865883Y-149977462D01*
X145035698Y-149886694D01*
X145184541Y-149764541D01*
X145306694Y-149615698D01*
X145397462Y-149445883D01*
X145453357Y-149261624D01*
X145472230Y-149070000D01*
X146047770Y-149070000D01*
X146066643Y-149261626D01*
X146122538Y-149445884D01*
X146213302Y-149615692D01*
X146213306Y-149615699D01*
X146335458Y-149764541D01*
X146484300Y-149886693D01*
X146484307Y-149886697D01*
X146639685Y-149969748D01*
X146654117Y-149977462D01*
X146838376Y-150033357D01*
X147030000Y-150052230D01*
X147221624Y-150033357D01*
X147405883Y-149977462D01*
X147575698Y-149886694D01*
X147724541Y-149764541D01*
X147846694Y-149615698D01*
X147937462Y-149445883D01*
X147993357Y-149261624D01*
X148012230Y-149070000D01*
X148587770Y-149070000D01*
X148606643Y-149261626D01*
X148662538Y-149445884D01*
X148753302Y-149615692D01*
X148753306Y-149615699D01*
X148875458Y-149764541D01*
X149024300Y-149886693D01*
X149024307Y-149886697D01*
X149179685Y-149969748D01*
X149194117Y-149977462D01*
X149378376Y-150033357D01*
X149570000Y-150052230D01*
X149761624Y-150033357D01*
X149945883Y-149977462D01*
X150115698Y-149886694D01*
X150264541Y-149764541D01*
X150386694Y-149615698D01*
X150477462Y-149445883D01*
X150533357Y-149261624D01*
X150552230Y-149070000D01*
X151127770Y-149070000D01*
X151146643Y-149261626D01*
X151202538Y-149445884D01*
X151293302Y-149615692D01*
X151293306Y-149615699D01*
X151415458Y-149764541D01*
X151564300Y-149886693D01*
X151564307Y-149886697D01*
X151719685Y-149969748D01*
X151734117Y-149977462D01*
X151918376Y-150033357D01*
X152110000Y-150052230D01*
X152301624Y-150033357D01*
X152485883Y-149977462D01*
X152655698Y-149886694D01*
X152804541Y-149764541D01*
X152926694Y-149615698D01*
X153017462Y-149445883D01*
X153072012Y-149266056D01*
X153110308Y-149207621D01*
X153174120Y-149179165D01*
X153243187Y-149189725D01*
X153295581Y-149235949D01*
X153314199Y-149291242D01*
X153315431Y-149305318D01*
X153315432Y-149305326D01*
X153376566Y-149533483D01*
X153376570Y-149533492D01*
X153476399Y-149747578D01*
X153611894Y-149941082D01*
X153778917Y-150108105D01*
X153972421Y-150243600D01*
X154186507Y-150343429D01*
X154186516Y-150343433D01*
X154400000Y-150400634D01*
X154400000Y-149505501D01*
X154507685Y-149554680D01*
X154614237Y-149570000D01*
X154685763Y-149570000D01*
X154792315Y-149554680D01*
X154900000Y-149505501D01*
X154900000Y-150400633D01*
X155113483Y-150343433D01*
X155113492Y-150343429D01*
X155327578Y-150243600D01*
X155521082Y-150108105D01*
X155688105Y-149941082D01*
X155823600Y-149747578D01*
X155923429Y-149533492D01*
X155923432Y-149533486D01*
X155980636Y-149320000D01*
X155083686Y-149320000D01*
X155109493Y-149279844D01*
X155150000Y-149141889D01*
X155150000Y-148998111D01*
X155109493Y-148860156D01*
X155083686Y-148820000D01*
X155980636Y-148820000D01*
X155980635Y-148819999D01*
X155923432Y-148606513D01*
X155923429Y-148606507D01*
X155823600Y-148392422D01*
X155823599Y-148392420D01*
X155688113Y-148198926D01*
X155688108Y-148198920D01*
X155521082Y-148031894D01*
X155334968Y-147901575D01*
X155291344Y-147846998D01*
X155284151Y-147777499D01*
X155315673Y-147715145D01*
X155334968Y-147698425D01*
X155521082Y-147568105D01*
X155688105Y-147401082D01*
X155823600Y-147207578D01*
X155923429Y-146993492D01*
X155923432Y-146993486D01*
X155980636Y-146780000D01*
X155083686Y-146780000D01*
X155109493Y-146739844D01*
X155150000Y-146601889D01*
X155150000Y-146458111D01*
X155109493Y-146320156D01*
X155083686Y-146280000D01*
X155980636Y-146280000D01*
X155980635Y-146279999D01*
X155923432Y-146066513D01*
X155923429Y-146066507D01*
X155823600Y-145852422D01*
X155823599Y-145852420D01*
X155688113Y-145658926D01*
X155688108Y-145658920D01*
X155521082Y-145491894D01*
X155327578Y-145356399D01*
X155113492Y-145256570D01*
X155113486Y-145256567D01*
X154900000Y-145199364D01*
X154900000Y-146094498D01*
X154792315Y-146045320D01*
X154685763Y-146030000D01*
X154614237Y-146030000D01*
X154507685Y-146045320D01*
X154400000Y-146094498D01*
X154400000Y-145199364D01*
X154399999Y-145199364D01*
X154186513Y-145256567D01*
X154186507Y-145256570D01*
X153972422Y-145356399D01*
X153972420Y-145356400D01*
X153778926Y-145491886D01*
X153778920Y-145491891D01*
X153611891Y-145658920D01*
X153611886Y-145658926D01*
X153476400Y-145852420D01*
X153476399Y-145852422D01*
X153376570Y-146066507D01*
X153376566Y-146066516D01*
X153315432Y-146294673D01*
X153315431Y-146294681D01*
X153314199Y-146308757D01*
X153288743Y-146373825D01*
X153232150Y-146414801D01*
X153162388Y-146418675D01*
X153101605Y-146384219D01*
X153072012Y-146333942D01*
X153017462Y-146154117D01*
X153017460Y-146154114D01*
X153017460Y-146154112D01*
X152926697Y-145984307D01*
X152926693Y-145984300D01*
X152804541Y-145835458D01*
X152655699Y-145713306D01*
X152655692Y-145713302D01*
X152485884Y-145622538D01*
X152301626Y-145566643D01*
X152110000Y-145547770D01*
X151918373Y-145566643D01*
X151734115Y-145622538D01*
X151564307Y-145713302D01*
X151564300Y-145713306D01*
X151415458Y-145835458D01*
X151293306Y-145984300D01*
X151293302Y-145984307D01*
X151202538Y-146154115D01*
X151146643Y-146338373D01*
X151127770Y-146530000D01*
X151146643Y-146721626D01*
X151202538Y-146905884D01*
X151293302Y-147075692D01*
X151293306Y-147075699D01*
X151415458Y-147224541D01*
X151564300Y-147346693D01*
X151564307Y-147346697D01*
X151734115Y-147437461D01*
X151734117Y-147437462D01*
X151918376Y-147493357D01*
X152110000Y-147512230D01*
X152301624Y-147493357D01*
X152485883Y-147437462D01*
X152655698Y-147346694D01*
X152804541Y-147224541D01*
X152926694Y-147075698D01*
X153017462Y-146905883D01*
X153072012Y-146726056D01*
X153110308Y-146667621D01*
X153174120Y-146639165D01*
X153243187Y-146649725D01*
X153295581Y-146695949D01*
X153314199Y-146751242D01*
X153315431Y-146765318D01*
X153315432Y-146765326D01*
X153376566Y-146993483D01*
X153376570Y-146993492D01*
X153476399Y-147207578D01*
X153611894Y-147401082D01*
X153778917Y-147568105D01*
X153965031Y-147698425D01*
X154008656Y-147753003D01*
X154015848Y-147822501D01*
X153984326Y-147884856D01*
X153965031Y-147901575D01*
X153778922Y-148031890D01*
X153778920Y-148031891D01*
X153611891Y-148198920D01*
X153611886Y-148198926D01*
X153476400Y-148392420D01*
X153476399Y-148392422D01*
X153376570Y-148606507D01*
X153376566Y-148606516D01*
X153315432Y-148834673D01*
X153315431Y-148834681D01*
X153314199Y-148848757D01*
X153288743Y-148913825D01*
X153232150Y-148954801D01*
X153162388Y-148958675D01*
X153101605Y-148924219D01*
X153072012Y-148873942D01*
X153017462Y-148694117D01*
X153017460Y-148694114D01*
X153017460Y-148694112D01*
X152926697Y-148524307D01*
X152926693Y-148524300D01*
X152804541Y-148375458D01*
X152655699Y-148253306D01*
X152655692Y-148253302D01*
X152485884Y-148162538D01*
X152301626Y-148106643D01*
X152110000Y-148087770D01*
X151918373Y-148106643D01*
X151734115Y-148162538D01*
X151564307Y-148253302D01*
X151564300Y-148253306D01*
X151415458Y-148375458D01*
X151293306Y-148524300D01*
X151293302Y-148524307D01*
X151202538Y-148694115D01*
X151146643Y-148878373D01*
X151127770Y-149070000D01*
X150552230Y-149070000D01*
X150533357Y-148878376D01*
X150477462Y-148694117D01*
X150430637Y-148606513D01*
X150386697Y-148524307D01*
X150386693Y-148524300D01*
X150264541Y-148375458D01*
X150115699Y-148253306D01*
X150115692Y-148253302D01*
X149945884Y-148162538D01*
X149761626Y-148106643D01*
X149570000Y-148087770D01*
X149378373Y-148106643D01*
X149194115Y-148162538D01*
X149024307Y-148253302D01*
X149024300Y-148253306D01*
X148875458Y-148375458D01*
X148753306Y-148524300D01*
X148753302Y-148524307D01*
X148662538Y-148694115D01*
X148606643Y-148878373D01*
X148587770Y-149070000D01*
X148012230Y-149070000D01*
X147993357Y-148878376D01*
X147937462Y-148694117D01*
X147890637Y-148606513D01*
X147846697Y-148524307D01*
X147846693Y-148524300D01*
X147724541Y-148375458D01*
X147575699Y-148253306D01*
X147575692Y-148253302D01*
X147405884Y-148162538D01*
X147221626Y-148106643D01*
X147030000Y-148087770D01*
X146838373Y-148106643D01*
X146654115Y-148162538D01*
X146484307Y-148253302D01*
X146484300Y-148253306D01*
X146335458Y-148375458D01*
X146213306Y-148524300D01*
X146213302Y-148524307D01*
X146122538Y-148694115D01*
X146066643Y-148878373D01*
X146047770Y-149070000D01*
X145472230Y-149070000D01*
X145453357Y-148878376D01*
X145397462Y-148694117D01*
X145350637Y-148606513D01*
X145306697Y-148524307D01*
X145306693Y-148524300D01*
X145184541Y-148375458D01*
X145035699Y-148253306D01*
X145035692Y-148253302D01*
X144865884Y-148162538D01*
X144681626Y-148106643D01*
X144490000Y-148087770D01*
X144298373Y-148106643D01*
X144114115Y-148162538D01*
X143944307Y-148253302D01*
X143944300Y-148253306D01*
X143795458Y-148375458D01*
X143673306Y-148524300D01*
X143673302Y-148524307D01*
X143582538Y-148694115D01*
X143526643Y-148878373D01*
X143507770Y-149070000D01*
X142932230Y-149070000D01*
X142913357Y-148878376D01*
X142857462Y-148694117D01*
X142810637Y-148606513D01*
X142766697Y-148524307D01*
X142766693Y-148524300D01*
X142644541Y-148375458D01*
X142495699Y-148253306D01*
X142495692Y-148253302D01*
X142325884Y-148162538D01*
X142141626Y-148106643D01*
X141950000Y-148087770D01*
X141758373Y-148106643D01*
X141574115Y-148162538D01*
X141404307Y-148253302D01*
X141404300Y-148253306D01*
X141255458Y-148375458D01*
X141133306Y-148524300D01*
X141133302Y-148524307D01*
X141042538Y-148694115D01*
X140986643Y-148878373D01*
X140967770Y-149070000D01*
X140392230Y-149070000D01*
X140373357Y-148878376D01*
X140317462Y-148694117D01*
X140270637Y-148606513D01*
X140226697Y-148524307D01*
X140226693Y-148524300D01*
X140104541Y-148375458D01*
X139955699Y-148253306D01*
X139955692Y-148253302D01*
X139785884Y-148162538D01*
X139601626Y-148106643D01*
X139410000Y-148087770D01*
X139218373Y-148106643D01*
X139034115Y-148162538D01*
X138864307Y-148253302D01*
X138864300Y-148253306D01*
X138715458Y-148375458D01*
X138593306Y-148524300D01*
X138593302Y-148524307D01*
X138502538Y-148694115D01*
X138446643Y-148878373D01*
X138427770Y-149070000D01*
X137852230Y-149070000D01*
X137833357Y-148878376D01*
X137777462Y-148694117D01*
X137730637Y-148606513D01*
X137686697Y-148524307D01*
X137686693Y-148524300D01*
X137564541Y-148375458D01*
X137415699Y-148253306D01*
X137415692Y-148253302D01*
X137245884Y-148162538D01*
X137061626Y-148106643D01*
X136870000Y-148087770D01*
X136678373Y-148106643D01*
X136494115Y-148162538D01*
X136324307Y-148253302D01*
X136324300Y-148253306D01*
X136175458Y-148375458D01*
X136053306Y-148524300D01*
X136053302Y-148524307D01*
X135962538Y-148694115D01*
X135906643Y-148878373D01*
X135887770Y-149070000D01*
X135312230Y-149070000D01*
X135293357Y-148878376D01*
X135237462Y-148694117D01*
X135190637Y-148606513D01*
X135146697Y-148524307D01*
X135146693Y-148524300D01*
X135024541Y-148375458D01*
X134875699Y-148253306D01*
X134875692Y-148253302D01*
X134705884Y-148162538D01*
X134521626Y-148106643D01*
X134330000Y-148087770D01*
X134138373Y-148106643D01*
X133954115Y-148162538D01*
X133784307Y-148253302D01*
X133784300Y-148253306D01*
X133635458Y-148375458D01*
X133513306Y-148524300D01*
X133513302Y-148524307D01*
X133422538Y-148694115D01*
X133366643Y-148878373D01*
X133347770Y-149070000D01*
X132772230Y-149070000D01*
X132753357Y-148878376D01*
X132697462Y-148694117D01*
X132650637Y-148606513D01*
X132606697Y-148524307D01*
X132606693Y-148524300D01*
X132484541Y-148375458D01*
X132335699Y-148253306D01*
X132335692Y-148253302D01*
X132165884Y-148162538D01*
X131981626Y-148106643D01*
X131790000Y-148087770D01*
X131598373Y-148106643D01*
X131414115Y-148162538D01*
X131244307Y-148253302D01*
X131244300Y-148253306D01*
X131095458Y-148375458D01*
X130973306Y-148524300D01*
X130973302Y-148524307D01*
X130882538Y-148694115D01*
X130826643Y-148878373D01*
X130807770Y-149070000D01*
X130227500Y-149070000D01*
X130227500Y-148207442D01*
X130220102Y-148170252D01*
X130214948Y-148162538D01*
X130191922Y-148128077D01*
X130149749Y-148099898D01*
X130112559Y-148092500D01*
X130112558Y-148092500D01*
X128387442Y-148092500D01*
X128387441Y-148092500D01*
X128350250Y-148099898D01*
X128308077Y-148128077D01*
X128279898Y-148170250D01*
X128272500Y-148207441D01*
X128272500Y-149932558D01*
X122386438Y-149932558D01*
X122315128Y-149861248D01*
X122312738Y-149858721D01*
X122207567Y-149741034D01*
X122205613Y-149738738D01*
X122166848Y-149690867D01*
X122104510Y-149613886D01*
X122102136Y-149610755D01*
X122009980Y-149480872D01*
X121957978Y-149400798D01*
X121921882Y-149345215D01*
X121919641Y-149341480D01*
X121845661Y-149207621D01*
X121842511Y-149201921D01*
X121802899Y-149124180D01*
X121769388Y-149058412D01*
X121767358Y-149054007D01*
X121706122Y-148906170D01*
X121648769Y-148756759D01*
X121647082Y-148751724D01*
X121629046Y-148689122D01*
X121602414Y-148596679D01*
X121561453Y-148443811D01*
X121560226Y-148438194D01*
X121532601Y-148275606D01*
X121508465Y-148123212D01*
X121507803Y-148117027D01*
X121497490Y-147933382D01*
X121490584Y-147801620D01*
X121490500Y-147798377D01*
X121490500Y-146530000D01*
X128267770Y-146530000D01*
X128286643Y-146721626D01*
X128342538Y-146905884D01*
X128433302Y-147075692D01*
X128433306Y-147075699D01*
X128555458Y-147224541D01*
X128704300Y-147346693D01*
X128704307Y-147346697D01*
X128874115Y-147437461D01*
X128874117Y-147437462D01*
X129058376Y-147493357D01*
X129250000Y-147512230D01*
X129441624Y-147493357D01*
X129625883Y-147437462D01*
X129795698Y-147346694D01*
X129944541Y-147224541D01*
X130066694Y-147075698D01*
X130157462Y-146905883D01*
X130213357Y-146721624D01*
X130232230Y-146530000D01*
X130807770Y-146530000D01*
X130826643Y-146721626D01*
X130882538Y-146905884D01*
X130973302Y-147075692D01*
X130973306Y-147075699D01*
X131095458Y-147224541D01*
X131244300Y-147346693D01*
X131244307Y-147346697D01*
X131414115Y-147437461D01*
X131414117Y-147437462D01*
X131598376Y-147493357D01*
X131790000Y-147512230D01*
X131981624Y-147493357D01*
X132165883Y-147437462D01*
X132335698Y-147346694D01*
X132484541Y-147224541D01*
X132606694Y-147075698D01*
X132697462Y-146905883D01*
X132753357Y-146721624D01*
X132772230Y-146530000D01*
X133347770Y-146530000D01*
X133366643Y-146721626D01*
X133422538Y-146905884D01*
X133513302Y-147075692D01*
X133513306Y-147075699D01*
X133635458Y-147224541D01*
X133784300Y-147346693D01*
X133784307Y-147346697D01*
X133954115Y-147437461D01*
X133954117Y-147437462D01*
X134138376Y-147493357D01*
X134330000Y-147512230D01*
X134521624Y-147493357D01*
X134705883Y-147437462D01*
X134875698Y-147346694D01*
X135024541Y-147224541D01*
X135146694Y-147075698D01*
X135237462Y-146905883D01*
X135293357Y-146721624D01*
X135312230Y-146530000D01*
X135887770Y-146530000D01*
X135906643Y-146721626D01*
X135962538Y-146905884D01*
X136053302Y-147075692D01*
X136053306Y-147075699D01*
X136175458Y-147224541D01*
X136324300Y-147346693D01*
X136324307Y-147346697D01*
X136494115Y-147437461D01*
X136494117Y-147437462D01*
X136678376Y-147493357D01*
X136870000Y-147512230D01*
X137061624Y-147493357D01*
X137245883Y-147437462D01*
X137415698Y-147346694D01*
X137564541Y-147224541D01*
X137686694Y-147075698D01*
X137777462Y-146905883D01*
X137833357Y-146721624D01*
X137852230Y-146530000D01*
X138427770Y-146530000D01*
X138446643Y-146721626D01*
X138502538Y-146905884D01*
X138593302Y-147075692D01*
X138593306Y-147075699D01*
X138715458Y-147224541D01*
X138864300Y-147346693D01*
X138864307Y-147346697D01*
X139034115Y-147437461D01*
X139034117Y-147437462D01*
X139218376Y-147493357D01*
X139410000Y-147512230D01*
X139601624Y-147493357D01*
X139785883Y-147437462D01*
X139955698Y-147346694D01*
X140104541Y-147224541D01*
X140226694Y-147075698D01*
X140317462Y-146905883D01*
X140373357Y-146721624D01*
X140392230Y-146530000D01*
X140967770Y-146530000D01*
X140986643Y-146721626D01*
X141042538Y-146905884D01*
X141133302Y-147075692D01*
X141133306Y-147075699D01*
X141255458Y-147224541D01*
X141404300Y-147346693D01*
X141404307Y-147346697D01*
X141574115Y-147437461D01*
X141574117Y-147437462D01*
X141758376Y-147493357D01*
X141950000Y-147512230D01*
X142141624Y-147493357D01*
X142325883Y-147437462D01*
X142495698Y-147346694D01*
X142644541Y-147224541D01*
X142766694Y-147075698D01*
X142857462Y-146905883D01*
X142913357Y-146721624D01*
X142932230Y-146530000D01*
X143507770Y-146530000D01*
X143526643Y-146721626D01*
X143582538Y-146905884D01*
X143673302Y-147075692D01*
X143673306Y-147075699D01*
X143795458Y-147224541D01*
X143944300Y-147346693D01*
X143944307Y-147346697D01*
X144114115Y-147437461D01*
X144114117Y-147437462D01*
X144298376Y-147493357D01*
X144490000Y-147512230D01*
X144681624Y-147493357D01*
X144865883Y-147437462D01*
X145035698Y-147346694D01*
X145184541Y-147224541D01*
X145306694Y-147075698D01*
X145397462Y-146905883D01*
X145453357Y-146721624D01*
X145472230Y-146530000D01*
X146047770Y-146530000D01*
X146066643Y-146721626D01*
X146122538Y-146905884D01*
X146213302Y-147075692D01*
X146213306Y-147075699D01*
X146335458Y-147224541D01*
X146484300Y-147346693D01*
X146484307Y-147346697D01*
X146654115Y-147437461D01*
X146654117Y-147437462D01*
X146838376Y-147493357D01*
X147030000Y-147512230D01*
X147221624Y-147493357D01*
X147405883Y-147437462D01*
X147575698Y-147346694D01*
X147724541Y-147224541D01*
X147846694Y-147075698D01*
X147937462Y-146905883D01*
X147993357Y-146721624D01*
X148012230Y-146530000D01*
X148587770Y-146530000D01*
X148606643Y-146721626D01*
X148662538Y-146905884D01*
X148753302Y-147075692D01*
X148753306Y-147075699D01*
X148875458Y-147224541D01*
X149024300Y-147346693D01*
X149024307Y-147346697D01*
X149194115Y-147437461D01*
X149194117Y-147437462D01*
X149378376Y-147493357D01*
X149570000Y-147512230D01*
X149761624Y-147493357D01*
X149945883Y-147437462D01*
X150115698Y-147346694D01*
X150264541Y-147224541D01*
X150386694Y-147075698D01*
X150477462Y-146905883D01*
X150533357Y-146721624D01*
X150552230Y-146530000D01*
X150533357Y-146338376D01*
X150477462Y-146154117D01*
X150430637Y-146066513D01*
X150386697Y-145984307D01*
X150386693Y-145984300D01*
X150264541Y-145835458D01*
X150115699Y-145713306D01*
X150115692Y-145713302D01*
X149945884Y-145622538D01*
X149761626Y-145566643D01*
X149570000Y-145547770D01*
X149378373Y-145566643D01*
X149194115Y-145622538D01*
X149024307Y-145713302D01*
X149024300Y-145713306D01*
X148875458Y-145835458D01*
X148753306Y-145984300D01*
X148753302Y-145984307D01*
X148662538Y-146154115D01*
X148606643Y-146338373D01*
X148587770Y-146530000D01*
X148012230Y-146530000D01*
X147993357Y-146338376D01*
X147937462Y-146154117D01*
X147890637Y-146066513D01*
X147846697Y-145984307D01*
X147846693Y-145984300D01*
X147724541Y-145835458D01*
X147575699Y-145713306D01*
X147575692Y-145713302D01*
X147405884Y-145622538D01*
X147221626Y-145566643D01*
X147030000Y-145547770D01*
X146838373Y-145566643D01*
X146654115Y-145622538D01*
X146484307Y-145713302D01*
X146484300Y-145713306D01*
X146335458Y-145835458D01*
X146213306Y-145984300D01*
X146213302Y-145984307D01*
X146122538Y-146154115D01*
X146066643Y-146338373D01*
X146047770Y-146530000D01*
X145472230Y-146530000D01*
X145453357Y-146338376D01*
X145397462Y-146154117D01*
X145350637Y-146066513D01*
X145306697Y-145984307D01*
X145306693Y-145984300D01*
X145184541Y-145835458D01*
X145035699Y-145713306D01*
X145035692Y-145713302D01*
X144865884Y-145622538D01*
X144681626Y-145566643D01*
X144490000Y-145547770D01*
X144298373Y-145566643D01*
X144114115Y-145622538D01*
X143944307Y-145713302D01*
X143944300Y-145713306D01*
X143795458Y-145835458D01*
X143673306Y-145984300D01*
X143673302Y-145984307D01*
X143582538Y-146154115D01*
X143526643Y-146338373D01*
X143507770Y-146530000D01*
X142932230Y-146530000D01*
X142913357Y-146338376D01*
X142857462Y-146154117D01*
X142810637Y-146066513D01*
X142766697Y-145984307D01*
X142766693Y-145984300D01*
X142644541Y-145835458D01*
X142495699Y-145713306D01*
X142495692Y-145713302D01*
X142325884Y-145622538D01*
X142141626Y-145566643D01*
X141950000Y-145547770D01*
X141758373Y-145566643D01*
X141574115Y-145622538D01*
X141404307Y-145713302D01*
X141404300Y-145713306D01*
X141255458Y-145835458D01*
X141133306Y-145984300D01*
X141133302Y-145984307D01*
X141042538Y-146154115D01*
X140986643Y-146338373D01*
X140967770Y-146530000D01*
X140392230Y-146530000D01*
X140373357Y-146338376D01*
X140317462Y-146154117D01*
X140270637Y-146066513D01*
X140226697Y-145984307D01*
X140226693Y-145984300D01*
X140104541Y-145835458D01*
X139955699Y-145713306D01*
X139955692Y-145713302D01*
X139785884Y-145622538D01*
X139601626Y-145566643D01*
X139410000Y-145547770D01*
X139218373Y-145566643D01*
X139034115Y-145622538D01*
X138864307Y-145713302D01*
X138864300Y-145713306D01*
X138715458Y-145835458D01*
X138593306Y-145984300D01*
X138593302Y-145984307D01*
X138502538Y-146154115D01*
X138446643Y-146338373D01*
X138427770Y-146530000D01*
X137852230Y-146530000D01*
X137833357Y-146338376D01*
X137777462Y-146154117D01*
X137730637Y-146066513D01*
X137686697Y-145984307D01*
X137686693Y-145984300D01*
X137564541Y-145835458D01*
X137415699Y-145713306D01*
X137415692Y-145713302D01*
X137245884Y-145622538D01*
X137061626Y-145566643D01*
X136870000Y-145547770D01*
X136678373Y-145566643D01*
X136494115Y-145622538D01*
X136324307Y-145713302D01*
X136324300Y-145713306D01*
X136175458Y-145835458D01*
X136053306Y-145984300D01*
X136053302Y-145984307D01*
X135962538Y-146154115D01*
X135906643Y-146338373D01*
X135887770Y-146530000D01*
X135312230Y-146530000D01*
X135293357Y-146338376D01*
X135237462Y-146154117D01*
X135190637Y-146066513D01*
X135146697Y-145984307D01*
X135146693Y-145984300D01*
X135024541Y-145835458D01*
X134875699Y-145713306D01*
X134875692Y-145713302D01*
X134705884Y-145622538D01*
X134521626Y-145566643D01*
X134330000Y-145547770D01*
X134138373Y-145566643D01*
X133954115Y-145622538D01*
X133784307Y-145713302D01*
X133784300Y-145713306D01*
X133635458Y-145835458D01*
X133513306Y-145984300D01*
X133513302Y-145984307D01*
X133422538Y-146154115D01*
X133366643Y-146338373D01*
X133347770Y-146530000D01*
X132772230Y-146530000D01*
X132753357Y-146338376D01*
X132697462Y-146154117D01*
X132650637Y-146066513D01*
X132606697Y-145984307D01*
X132606693Y-145984300D01*
X132484541Y-145835458D01*
X132335699Y-145713306D01*
X132335692Y-145713302D01*
X132165884Y-145622538D01*
X131981626Y-145566643D01*
X131790000Y-145547770D01*
X131598373Y-145566643D01*
X131414115Y-145622538D01*
X131244307Y-145713302D01*
X131244300Y-145713306D01*
X131095458Y-145835458D01*
X130973306Y-145984300D01*
X130973302Y-145984307D01*
X130882538Y-146154115D01*
X130826643Y-146338373D01*
X130807770Y-146530000D01*
X130232230Y-146530000D01*
X130213357Y-146338376D01*
X130157462Y-146154117D01*
X130110637Y-146066513D01*
X130066697Y-145984307D01*
X130066693Y-145984300D01*
X129944541Y-145835458D01*
X129795699Y-145713306D01*
X129795692Y-145713302D01*
X129625884Y-145622538D01*
X129441626Y-145566643D01*
X129250000Y-145547770D01*
X129058373Y-145566643D01*
X128874115Y-145622538D01*
X128704307Y-145713302D01*
X128704300Y-145713306D01*
X128555458Y-145835458D01*
X128433306Y-145984300D01*
X128433302Y-145984307D01*
X128342538Y-146154115D01*
X128286643Y-146338373D01*
X128267770Y-146530000D01*
X121490500Y-146530000D01*
X121490500Y-141700000D01*
X142267391Y-141700000D01*
X142287771Y-141893901D01*
X142348019Y-142079328D01*
X142348020Y-142079329D01*
X142445501Y-142248172D01*
X142445503Y-142248174D01*
X142575963Y-142393064D01*
X142733695Y-142507663D01*
X142911802Y-142586962D01*
X142911808Y-142586964D01*
X143102516Y-142627500D01*
X143102517Y-142627500D01*
X143297482Y-142627500D01*
X143297484Y-142627500D01*
X143488192Y-142586964D01*
X143488194Y-142586962D01*
X143488197Y-142586962D01*
X143571778Y-142549749D01*
X143655311Y-142512558D01*
X149892500Y-142512558D01*
X149899898Y-142549749D01*
X149928077Y-142591922D01*
X149970250Y-142620101D01*
X149970252Y-142620102D01*
X149998205Y-142625662D01*
X150007441Y-142627500D01*
X150007442Y-142627500D01*
X151632559Y-142627500D01*
X151639957Y-142626028D01*
X151669748Y-142620102D01*
X151711922Y-142591922D01*
X151740102Y-142549748D01*
X151747500Y-142512558D01*
X151747500Y-140887442D01*
X151740102Y-140850252D01*
X151715235Y-140813036D01*
X151711922Y-140808077D01*
X151669749Y-140779898D01*
X151632559Y-140772500D01*
X151632558Y-140772500D01*
X150007442Y-140772500D01*
X150007441Y-140772500D01*
X149970250Y-140779898D01*
X149928077Y-140808077D01*
X149899898Y-140850250D01*
X149892500Y-140887441D01*
X149892500Y-142512558D01*
X143655311Y-142512558D01*
X143666305Y-142507663D01*
X143824037Y-142393064D01*
X143954497Y-142248174D01*
X144051981Y-142079326D01*
X144112229Y-141893900D01*
X144132609Y-141700000D01*
X144112229Y-141506100D01*
X144051981Y-141320674D01*
X144051980Y-141320673D01*
X144051980Y-141320671D01*
X144051979Y-141320670D01*
X143954498Y-141151827D01*
X143824038Y-141006937D01*
X143824035Y-141006935D01*
X143666305Y-140892337D01*
X143666304Y-140892336D01*
X143488197Y-140813037D01*
X143488191Y-140813035D01*
X143332289Y-140779898D01*
X143297484Y-140772500D01*
X143102516Y-140772500D01*
X143069086Y-140779605D01*
X142911808Y-140813035D01*
X142911803Y-140813037D01*
X142733696Y-140892336D01*
X142733691Y-140892339D01*
X142575969Y-141006930D01*
X142575963Y-141006935D01*
X142445501Y-141151827D01*
X142348020Y-141320670D01*
X142348019Y-141320671D01*
X142287771Y-141506098D01*
X142267391Y-141700000D01*
X121490500Y-141700000D01*
X121490500Y-88612754D01*
X121490500Y-88612750D01*
X121457626Y-88299974D01*
X121392238Y-87992348D01*
X121295053Y-87693241D01*
X121167134Y-87405932D01*
X121167131Y-87405928D01*
X121167130Y-87405924D01*
X121009887Y-87133571D01*
X121009884Y-87133566D01*
X120825032Y-86879139D01*
X120825025Y-86879130D01*
X120720409Y-86762943D01*
X120614586Y-86645414D01*
X120490885Y-86534033D01*
X120380869Y-86434974D01*
X120380860Y-86434967D01*
X120126433Y-86250115D01*
X120126428Y-86250112D01*
X119854075Y-86092869D01*
X119854068Y-86092866D01*
X119712465Y-86029820D01*
X119566759Y-85964947D01*
X119566754Y-85964945D01*
X119566751Y-85964944D01*
X119267649Y-85867761D01*
X119267647Y-85867760D01*
X119002415Y-85811384D01*
X118960026Y-85802374D01*
X118647250Y-85769500D01*
X118647245Y-85769500D01*
X112781624Y-85769500D01*
X112778378Y-85769415D01*
X112646617Y-85762509D01*
X112462985Y-85752196D01*
X112456758Y-85751530D01*
X112304369Y-85727394D01*
X112141835Y-85699778D01*
X112136171Y-85698541D01*
X111983297Y-85657579D01*
X111828273Y-85612916D01*
X111823217Y-85611221D01*
X111673829Y-85553877D01*
X111525997Y-85492643D01*
X111521575Y-85490604D01*
X111378078Y-85417488D01*
X111238531Y-85340364D01*
X111234767Y-85338106D01*
X111181875Y-85303758D01*
X111099127Y-85250019D01*
X110969243Y-85157862D01*
X110966102Y-85155480D01*
X110841260Y-85054385D01*
X110838964Y-85052431D01*
X110721277Y-84947260D01*
X110718750Y-84944870D01*
X110605128Y-84831248D01*
X110602738Y-84828721D01*
X110497567Y-84711034D01*
X110495613Y-84708738D01*
X110456848Y-84660867D01*
X110394510Y-84583886D01*
X110392136Y-84580755D01*
X110299980Y-84450872D01*
X110262491Y-84393146D01*
X110211882Y-84315215D01*
X110209641Y-84311480D01*
X110174241Y-84247428D01*
X110132511Y-84171921D01*
X110076410Y-84061819D01*
X110059388Y-84028412D01*
X110057358Y-84024007D01*
X109996122Y-83876170D01*
X109938769Y-83726759D01*
X109937082Y-83721724D01*
X109914528Y-83643439D01*
X109892414Y-83566679D01*
X109889506Y-83555825D01*
X125732500Y-83555825D01*
X125743191Y-83629204D01*
X125798525Y-83742392D01*
X125887607Y-83831474D01*
X125887608Y-83831474D01*
X125887610Y-83831476D01*
X126000796Y-83886809D01*
X126074173Y-83897500D01*
X127345826Y-83897499D01*
X127419204Y-83886809D01*
X127532390Y-83831476D01*
X127621476Y-83742390D01*
X127676809Y-83629204D01*
X127687500Y-83555827D01*
X127687499Y-82920000D01*
X128267770Y-82920000D01*
X128286643Y-83111626D01*
X128342538Y-83295884D01*
X128433302Y-83465692D01*
X128433306Y-83465699D01*
X128555458Y-83614541D01*
X128704300Y-83736693D01*
X128704307Y-83736697D01*
X128862611Y-83821312D01*
X128874117Y-83827462D01*
X129058376Y-83883357D01*
X129250000Y-83902230D01*
X129441624Y-83883357D01*
X129625883Y-83827462D01*
X129795698Y-83736694D01*
X129944541Y-83614541D01*
X130066694Y-83465698D01*
X130157462Y-83295883D01*
X130213357Y-83111624D01*
X130232230Y-82920000D01*
X130807770Y-82920000D01*
X130826643Y-83111626D01*
X130882538Y-83295884D01*
X130973302Y-83465692D01*
X130973306Y-83465699D01*
X131095458Y-83614541D01*
X131244300Y-83736693D01*
X131244307Y-83736697D01*
X131402611Y-83821312D01*
X131414117Y-83827462D01*
X131598376Y-83883357D01*
X131790000Y-83902230D01*
X131981624Y-83883357D01*
X132165883Y-83827462D01*
X132335698Y-83736694D01*
X132484541Y-83614541D01*
X132606694Y-83465698D01*
X132697462Y-83295883D01*
X132753357Y-83111624D01*
X132772230Y-82920000D01*
X132753357Y-82728376D01*
X132697462Y-82544117D01*
X132650638Y-82456516D01*
X132606697Y-82374307D01*
X132606693Y-82374300D01*
X132484541Y-82225458D01*
X132335699Y-82103306D01*
X132335692Y-82103302D01*
X132165884Y-82012538D01*
X131981626Y-81956643D01*
X131790000Y-81937770D01*
X131598373Y-81956643D01*
X131414115Y-82012538D01*
X131244307Y-82103302D01*
X131244300Y-82103306D01*
X131095458Y-82225458D01*
X130973306Y-82374300D01*
X130973302Y-82374307D01*
X130882538Y-82544115D01*
X130826643Y-82728373D01*
X130807770Y-82920000D01*
X130232230Y-82920000D01*
X130213357Y-82728376D01*
X130157462Y-82544117D01*
X130110638Y-82456516D01*
X130066697Y-82374307D01*
X130066693Y-82374300D01*
X129944541Y-82225458D01*
X129795699Y-82103306D01*
X129795692Y-82103302D01*
X129625884Y-82012538D01*
X129441626Y-81956643D01*
X129250000Y-81937770D01*
X129058373Y-81956643D01*
X128874115Y-82012538D01*
X128704307Y-82103302D01*
X128704300Y-82103306D01*
X128555458Y-82225458D01*
X128433306Y-82374300D01*
X128433302Y-82374307D01*
X128342538Y-82544115D01*
X128286643Y-82728373D01*
X128267770Y-82920000D01*
X127687499Y-82920000D01*
X127687499Y-82284174D01*
X127676809Y-82210796D01*
X127621476Y-82097610D01*
X127621474Y-82097608D01*
X127621474Y-82097607D01*
X127532392Y-82008525D01*
X127529045Y-82006889D01*
X127419204Y-81953191D01*
X127419202Y-81953190D01*
X127345827Y-81942500D01*
X126074174Y-81942500D01*
X126000795Y-81953191D01*
X125887607Y-82008525D01*
X125798525Y-82097607D01*
X125743190Y-82210797D01*
X125732500Y-82284172D01*
X125732500Y-83555825D01*
X109889506Y-83555825D01*
X109874017Y-83498020D01*
X109851453Y-83413811D01*
X109850226Y-83408194D01*
X109822601Y-83245606D01*
X109798465Y-83093212D01*
X109797803Y-83087027D01*
X109787490Y-82903382D01*
X109780584Y-82771620D01*
X109780500Y-82768377D01*
X109780500Y-80380000D01*
X125727770Y-80380000D01*
X125746643Y-80571626D01*
X125802538Y-80755884D01*
X125893302Y-80925692D01*
X125893306Y-80925699D01*
X126015458Y-81074541D01*
X126164300Y-81196693D01*
X126164307Y-81196697D01*
X126333017Y-81286874D01*
X126334117Y-81287462D01*
X126518376Y-81343357D01*
X126710000Y-81362230D01*
X126901624Y-81343357D01*
X127085883Y-81287462D01*
X127255698Y-81196694D01*
X127404541Y-81074541D01*
X127526694Y-80925698D01*
X127617462Y-80755883D01*
X127673357Y-80571624D01*
X127692230Y-80380000D01*
X128267770Y-80380000D01*
X128286643Y-80571626D01*
X128342538Y-80755884D01*
X128433302Y-80925692D01*
X128433306Y-80925699D01*
X128555458Y-81074541D01*
X128704300Y-81196693D01*
X128704307Y-81196697D01*
X128873017Y-81286874D01*
X128874117Y-81287462D01*
X129058376Y-81343357D01*
X129250000Y-81362230D01*
X129441624Y-81343357D01*
X129625883Y-81287462D01*
X129795698Y-81196694D01*
X129944541Y-81074541D01*
X130066694Y-80925698D01*
X130157462Y-80755883D01*
X130213357Y-80571624D01*
X130232230Y-80380000D01*
X130807770Y-80380000D01*
X130826643Y-80571626D01*
X130882538Y-80755884D01*
X130973302Y-80925692D01*
X130973306Y-80925699D01*
X131095458Y-81074541D01*
X131244300Y-81196693D01*
X131244307Y-81196697D01*
X131413017Y-81286874D01*
X131414117Y-81287462D01*
X131598376Y-81343357D01*
X131790000Y-81362230D01*
X131981624Y-81343357D01*
X132165883Y-81287462D01*
X132335698Y-81196694D01*
X132484541Y-81074541D01*
X132532646Y-81015924D01*
X132590392Y-80976590D01*
X132660237Y-80974719D01*
X132720005Y-81010906D01*
X132750721Y-81073662D01*
X132752500Y-81094589D01*
X132752500Y-81286874D01*
X132752509Y-81287091D01*
X132752509Y-81342792D01*
X132775219Y-81515315D01*
X132775220Y-81515317D01*
X132820255Y-81683402D01*
X132841567Y-81734855D01*
X132886849Y-81844180D01*
X132973856Y-81994884D01*
X132973858Y-81994886D01*
X132973860Y-81994890D01*
X132987402Y-82012538D01*
X133079790Y-82132943D01*
X133082720Y-82135873D01*
X133082725Y-82135883D01*
X133082728Y-82135881D01*
X133180125Y-82233281D01*
X133180135Y-82233290D01*
X133321146Y-82374300D01*
X133385909Y-82439063D01*
X133419394Y-82500386D01*
X133416889Y-82562738D01*
X133407500Y-82593690D01*
X133366642Y-82728378D01*
X133347770Y-82920000D01*
X133366643Y-83111626D01*
X133422538Y-83295884D01*
X133513302Y-83465692D01*
X133513306Y-83465699D01*
X133635458Y-83614541D01*
X133784300Y-83736693D01*
X133784307Y-83736697D01*
X133942611Y-83821312D01*
X133954117Y-83827462D01*
X134138376Y-83883357D01*
X134330000Y-83902230D01*
X134521624Y-83883357D01*
X134705883Y-83827462D01*
X134875698Y-83736694D01*
X135024541Y-83614541D01*
X135146694Y-83465698D01*
X135237462Y-83295883D01*
X135293357Y-83111624D01*
X135312230Y-82920000D01*
X135293357Y-82728376D01*
X135237462Y-82544117D01*
X135190638Y-82456516D01*
X135146697Y-82374307D01*
X135146693Y-82374300D01*
X135024541Y-82225458D01*
X134875699Y-82103306D01*
X134875692Y-82103302D01*
X134705884Y-82012538D01*
X134521626Y-81956643D01*
X134330000Y-81937770D01*
X134138378Y-81956642D01*
X134074865Y-81975909D01*
X133972739Y-82006889D01*
X133902873Y-82007512D01*
X133849063Y-81975909D01*
X133810924Y-81937770D01*
X133622114Y-81748960D01*
X133614808Y-81741654D01*
X133606619Y-81733463D01*
X133602534Y-81728955D01*
X133565155Y-81683408D01*
X133528584Y-81638844D01*
X133515087Y-81618644D01*
X133464451Y-81523908D01*
X133455153Y-81501460D01*
X133423972Y-81398666D01*
X133419233Y-81374840D01*
X133407799Y-81258723D01*
X133407500Y-81252643D01*
X133407500Y-81143329D01*
X133427185Y-81076290D01*
X133479989Y-81030535D01*
X133549147Y-81020591D01*
X133612703Y-81049616D01*
X133627355Y-81064666D01*
X133635460Y-81074542D01*
X133784300Y-81196693D01*
X133784307Y-81196697D01*
X133953017Y-81286874D01*
X133954117Y-81287462D01*
X134138376Y-81343357D01*
X134330000Y-81362230D01*
X134521624Y-81343357D01*
X134705883Y-81287462D01*
X134875698Y-81196694D01*
X135024541Y-81074541D01*
X135146694Y-80925698D01*
X135237462Y-80755883D01*
X135293357Y-80571624D01*
X135312230Y-80380000D01*
X135293357Y-80188376D01*
X135237462Y-80004117D01*
X135222842Y-79976765D01*
X135146697Y-79834307D01*
X135146693Y-79834300D01*
X135024541Y-79685458D01*
X134905000Y-79587353D01*
X134865666Y-79529607D01*
X134863795Y-79459763D01*
X134899983Y-79399994D01*
X134962739Y-79369279D01*
X134983665Y-79367500D01*
X136216335Y-79367500D01*
X136283374Y-79387185D01*
X136329129Y-79439989D01*
X136339073Y-79509147D01*
X136310048Y-79572703D01*
X136295000Y-79587353D01*
X136175458Y-79685458D01*
X136053306Y-79834300D01*
X136053302Y-79834307D01*
X135962538Y-80004115D01*
X135906643Y-80188373D01*
X135887770Y-80380000D01*
X135906643Y-80571626D01*
X135962538Y-80755884D01*
X136053302Y-80925692D01*
X136053306Y-80925699D01*
X136175458Y-81074541D01*
X136324300Y-81196693D01*
X136324307Y-81196697D01*
X136493017Y-81286874D01*
X136494117Y-81287462D01*
X136678376Y-81343357D01*
X136870000Y-81362230D01*
X137061624Y-81343357D01*
X137245883Y-81287462D01*
X137415698Y-81196694D01*
X137564541Y-81074541D01*
X137612646Y-81015924D01*
X137670392Y-80976590D01*
X137740237Y-80974719D01*
X137800005Y-81010906D01*
X137830721Y-81073662D01*
X137832500Y-81094589D01*
X137832500Y-81286874D01*
X137832509Y-81287091D01*
X137832509Y-81342792D01*
X137855219Y-81515315D01*
X137855220Y-81515317D01*
X137900255Y-81683402D01*
X137921567Y-81734855D01*
X137966849Y-81844180D01*
X138053856Y-81994884D01*
X138053858Y-81994886D01*
X138053860Y-81994890D01*
X138067402Y-82012538D01*
X138159790Y-82132943D01*
X138162720Y-82135873D01*
X138162725Y-82135883D01*
X138162728Y-82135881D01*
X138260125Y-82233281D01*
X138260135Y-82233290D01*
X138401146Y-82374300D01*
X138465909Y-82439063D01*
X138499394Y-82500386D01*
X138496889Y-82562738D01*
X138487500Y-82593690D01*
X138446642Y-82728378D01*
X138427770Y-82920000D01*
X138446643Y-83111626D01*
X138502538Y-83295884D01*
X138593302Y-83465692D01*
X138593306Y-83465699D01*
X138715458Y-83614541D01*
X138761890Y-83652647D01*
X138801224Y-83710393D01*
X138803095Y-83780238D01*
X138766907Y-83840006D01*
X138704151Y-83870722D01*
X138683225Y-83872500D01*
X138567255Y-83872500D01*
X138561176Y-83872201D01*
X138445165Y-83860777D01*
X138421323Y-83856035D01*
X138318540Y-83824857D01*
X138296086Y-83815557D01*
X138201354Y-83764923D01*
X138181144Y-83751418D01*
X138091105Y-83677528D01*
X138086594Y-83673439D01*
X137814090Y-83400936D01*
X137780605Y-83339613D01*
X137783110Y-83277261D01*
X137833357Y-83111624D01*
X137852230Y-82920000D01*
X137833357Y-82728376D01*
X137777462Y-82544117D01*
X137730638Y-82456516D01*
X137686697Y-82374307D01*
X137686693Y-82374300D01*
X137564541Y-82225458D01*
X137415699Y-82103306D01*
X137415692Y-82103302D01*
X137245884Y-82012538D01*
X137061626Y-81956643D01*
X136870000Y-81937770D01*
X136678373Y-81956643D01*
X136494115Y-82012538D01*
X136324307Y-82103302D01*
X136324300Y-82103306D01*
X136175458Y-82225458D01*
X136053306Y-82374300D01*
X136053302Y-82374307D01*
X135962538Y-82544115D01*
X135906643Y-82728373D01*
X135887770Y-82920000D01*
X135906643Y-83111626D01*
X135962538Y-83295884D01*
X136053302Y-83465692D01*
X136053306Y-83465699D01*
X136175458Y-83614541D01*
X136324300Y-83736693D01*
X136324307Y-83736697D01*
X136482611Y-83821312D01*
X136494117Y-83827462D01*
X136678376Y-83883357D01*
X136870000Y-83902230D01*
X137061624Y-83883357D01*
X137227261Y-83833110D01*
X137297126Y-83832487D01*
X137350935Y-83864089D01*
X137588851Y-84102006D01*
X137588853Y-84102009D01*
X137589198Y-84102354D01*
X137589216Y-84102387D01*
X137655979Y-84169147D01*
X137687051Y-84200218D01*
X137825110Y-84306152D01*
X137975816Y-84393160D01*
X138115150Y-84450872D01*
X138136594Y-84459754D01*
X138304679Y-84504789D01*
X138304684Y-84504790D01*
X138366959Y-84512987D01*
X138477209Y-84527501D01*
X138564219Y-84527500D01*
X139483538Y-84527500D01*
X139512205Y-84527500D01*
X139514568Y-84527500D01*
X139515279Y-84527468D01*
X139570546Y-84527471D01*
X139570554Y-84527470D01*
X139570555Y-84527470D01*
X139618917Y-84521105D01*
X139743075Y-84504765D01*
X139743079Y-84504764D01*
X139743084Y-84504763D01*
X139886224Y-84466414D01*
X139911164Y-84459733D01*
X140071937Y-84393146D01*
X140222643Y-84306144D01*
X140360703Y-84200214D01*
X140391767Y-84169151D01*
X140391773Y-84169147D01*
X140401976Y-84158944D01*
X140401977Y-84158944D01*
X140412807Y-84148114D01*
X140422230Y-84138692D01*
X140458909Y-84102015D01*
X140458909Y-84102014D01*
X140469105Y-84091819D01*
X140469119Y-84091801D01*
X140553108Y-84007812D01*
X140553120Y-84007803D01*
X140562013Y-83998909D01*
X140562015Y-83998909D01*
X140562349Y-83998574D01*
X140562452Y-83998518D01*
X140598714Y-83962252D01*
X140598715Y-83962253D01*
X140660239Y-83900725D01*
X140766171Y-83762661D01*
X140853176Y-83611951D01*
X140909275Y-83476498D01*
X140953113Y-83422094D01*
X141019407Y-83400026D01*
X141087107Y-83417302D01*
X141129081Y-83461191D01*
X141129920Y-83460631D01*
X141133105Y-83465398D01*
X141133196Y-83465493D01*
X141133304Y-83465696D01*
X141133306Y-83465699D01*
X141255458Y-83614541D01*
X141404300Y-83736693D01*
X141404307Y-83736697D01*
X141562611Y-83821312D01*
X141574117Y-83827462D01*
X141758376Y-83883357D01*
X141950000Y-83902230D01*
X142141624Y-83883357D01*
X142307261Y-83833110D01*
X142377126Y-83832487D01*
X142430935Y-83864089D01*
X142638851Y-84072006D01*
X142638853Y-84072009D01*
X142639198Y-84072354D01*
X142639216Y-84072387D01*
X142700900Y-84134068D01*
X142737051Y-84170218D01*
X142875110Y-84276152D01*
X143025816Y-84363160D01*
X143130288Y-84406432D01*
X143186594Y-84429754D01*
X143354679Y-84474789D01*
X143354684Y-84474790D01*
X143416959Y-84482987D01*
X143527209Y-84497501D01*
X143614219Y-84497500D01*
X149673538Y-84497500D01*
X149702205Y-84497500D01*
X149704568Y-84497500D01*
X149705279Y-84497468D01*
X149760546Y-84497471D01*
X149760554Y-84497470D01*
X149760555Y-84497470D01*
X149808917Y-84491105D01*
X149933075Y-84474765D01*
X149933079Y-84474764D01*
X149933084Y-84474763D01*
X150076224Y-84436414D01*
X150101164Y-84429733D01*
X150261937Y-84363146D01*
X150412643Y-84276144D01*
X150550703Y-84170214D01*
X150581767Y-84139151D01*
X150581773Y-84139147D01*
X150591976Y-84128944D01*
X150591977Y-84128944D01*
X150602807Y-84118114D01*
X150612230Y-84108692D01*
X150648909Y-84072015D01*
X150648909Y-84072014D01*
X150659105Y-84061819D01*
X150659119Y-84061801D01*
X150753108Y-83967812D01*
X150753120Y-83967803D01*
X150762013Y-83958909D01*
X150762015Y-83958909D01*
X150762349Y-83958574D01*
X150762452Y-83958518D01*
X150798714Y-83922252D01*
X150798715Y-83922253D01*
X150860239Y-83860725D01*
X150966171Y-83722661D01*
X151053176Y-83571951D01*
X151083797Y-83498016D01*
X151127632Y-83443615D01*
X151193925Y-83421546D01*
X151261626Y-83438822D01*
X151294211Y-83466802D01*
X151415458Y-83614541D01*
X151564300Y-83736693D01*
X151564307Y-83736697D01*
X151722611Y-83821312D01*
X151734117Y-83827462D01*
X151918376Y-83883357D01*
X152110000Y-83902230D01*
X152301624Y-83883357D01*
X152485883Y-83827462D01*
X152655698Y-83736694D01*
X152804541Y-83614541D01*
X152926694Y-83465698D01*
X153017462Y-83295883D01*
X153073357Y-83111624D01*
X153092230Y-82920000D01*
X153667770Y-82920000D01*
X153686643Y-83111626D01*
X153742538Y-83295884D01*
X153833302Y-83465692D01*
X153833306Y-83465699D01*
X153955458Y-83614541D01*
X154104300Y-83736693D01*
X154104307Y-83736697D01*
X154262611Y-83821312D01*
X154274117Y-83827462D01*
X154458376Y-83883357D01*
X154650000Y-83902230D01*
X154841624Y-83883357D01*
X155025883Y-83827462D01*
X155195698Y-83736694D01*
X155344541Y-83614541D01*
X155466694Y-83465698D01*
X155557462Y-83295883D01*
X155612012Y-83116056D01*
X155650308Y-83057621D01*
X155714120Y-83029165D01*
X155783187Y-83039725D01*
X155835581Y-83085949D01*
X155854199Y-83141242D01*
X155855431Y-83155318D01*
X155855432Y-83155326D01*
X155916566Y-83383483D01*
X155916570Y-83383492D01*
X156016400Y-83597579D01*
X156016402Y-83597583D01*
X156075072Y-83681373D01*
X156075073Y-83681373D01*
X156706923Y-83049523D01*
X156730507Y-83129844D01*
X156808239Y-83250798D01*
X156916900Y-83344952D01*
X157047685Y-83404680D01*
X157057466Y-83406086D01*
X156428625Y-84034925D01*
X156512421Y-84093599D01*
X156726507Y-84193429D01*
X156726516Y-84193433D01*
X156954673Y-84254567D01*
X156954684Y-84254569D01*
X157189998Y-84275157D01*
X157190002Y-84275157D01*
X157425315Y-84254569D01*
X157425326Y-84254567D01*
X157653483Y-84193433D01*
X157653492Y-84193429D01*
X157867578Y-84093600D01*
X157867582Y-84093598D01*
X157951373Y-84034926D01*
X157951373Y-84034925D01*
X157322533Y-83406086D01*
X157332315Y-83404680D01*
X157463100Y-83344952D01*
X157571761Y-83250798D01*
X157649493Y-83129844D01*
X157673076Y-83049524D01*
X158304925Y-83681373D01*
X158304926Y-83681373D01*
X158363598Y-83597582D01*
X158363600Y-83597578D01*
X158463429Y-83383492D01*
X158463433Y-83383483D01*
X158524567Y-83155326D01*
X158524569Y-83155315D01*
X158545157Y-82920001D01*
X158545157Y-82919998D01*
X158524569Y-82684684D01*
X158524567Y-82684673D01*
X158463433Y-82456516D01*
X158463429Y-82456507D01*
X158363600Y-82242423D01*
X158363599Y-82242421D01*
X158304925Y-82158626D01*
X158304925Y-82158625D01*
X157673076Y-82790475D01*
X157649493Y-82710156D01*
X157571761Y-82589202D01*
X157463100Y-82495048D01*
X157332315Y-82435320D01*
X157322533Y-82433913D01*
X157951373Y-81805073D01*
X157874969Y-81751576D01*
X157831344Y-81696999D01*
X157824150Y-81627501D01*
X157855672Y-81565146D01*
X157874968Y-81548425D01*
X157951373Y-81494925D01*
X157322533Y-80866086D01*
X157332315Y-80864680D01*
X157463100Y-80804952D01*
X157571761Y-80710798D01*
X157649493Y-80589844D01*
X157673076Y-80509524D01*
X158304925Y-81141373D01*
X158304926Y-81141373D01*
X158363598Y-81057582D01*
X158363600Y-81057578D01*
X158463429Y-80843492D01*
X158463433Y-80843483D01*
X158524567Y-80615326D01*
X158524569Y-80615315D01*
X158545157Y-80380001D01*
X158545157Y-80379998D01*
X158524569Y-80144684D01*
X158524567Y-80144673D01*
X158463433Y-79916516D01*
X158463429Y-79916507D01*
X158363600Y-79702423D01*
X158363599Y-79702421D01*
X158304925Y-79618626D01*
X158304925Y-79618625D01*
X157673076Y-80250475D01*
X157649493Y-80170156D01*
X157571761Y-80049202D01*
X157463100Y-79955048D01*
X157332315Y-79895320D01*
X157322533Y-79893913D01*
X157951373Y-79265073D01*
X157951373Y-79265072D01*
X157867583Y-79206402D01*
X157867579Y-79206400D01*
X157653492Y-79106570D01*
X157653483Y-79106566D01*
X157425326Y-79045432D01*
X157425315Y-79045430D01*
X157190002Y-79024843D01*
X157189998Y-79024843D01*
X156954684Y-79045430D01*
X156954673Y-79045432D01*
X156726516Y-79106566D01*
X156726507Y-79106570D01*
X156512419Y-79206401D01*
X156428625Y-79265072D01*
X157057466Y-79893913D01*
X157047685Y-79895320D01*
X156916900Y-79955048D01*
X156808239Y-80049202D01*
X156730507Y-80170156D01*
X156706923Y-80250475D01*
X156075073Y-79618625D01*
X156075072Y-79618625D01*
X156016401Y-79702419D01*
X155916570Y-79916507D01*
X155916566Y-79916516D01*
X155855432Y-80144673D01*
X155855431Y-80144681D01*
X155854199Y-80158757D01*
X155828743Y-80223825D01*
X155772150Y-80264801D01*
X155702388Y-80268675D01*
X155641605Y-80234219D01*
X155612012Y-80183942D01*
X155557462Y-80004117D01*
X155557460Y-80004114D01*
X155557460Y-80004112D01*
X155466697Y-79834307D01*
X155466693Y-79834300D01*
X155344541Y-79685458D01*
X155195699Y-79563306D01*
X155195692Y-79563302D01*
X155025884Y-79472538D01*
X154841626Y-79416643D01*
X154650000Y-79397770D01*
X154458373Y-79416643D01*
X154274115Y-79472538D01*
X154104307Y-79563302D01*
X154104300Y-79563306D01*
X153955458Y-79685458D01*
X153833306Y-79834300D01*
X153833302Y-79834307D01*
X153742538Y-80004115D01*
X153686643Y-80188373D01*
X153667770Y-80380000D01*
X153686643Y-80571626D01*
X153742538Y-80755884D01*
X153833302Y-80925692D01*
X153833306Y-80925699D01*
X153955458Y-81074541D01*
X154104300Y-81196693D01*
X154104307Y-81196697D01*
X154273017Y-81286874D01*
X154274117Y-81287462D01*
X154458376Y-81343357D01*
X154650000Y-81362230D01*
X154841624Y-81343357D01*
X155025883Y-81287462D01*
X155195698Y-81196694D01*
X155344541Y-81074541D01*
X155466694Y-80925698D01*
X155557462Y-80755883D01*
X155612012Y-80576056D01*
X155650308Y-80517621D01*
X155714120Y-80489165D01*
X155783187Y-80499725D01*
X155835581Y-80545949D01*
X155854199Y-80601242D01*
X155855431Y-80615318D01*
X155855432Y-80615326D01*
X155916566Y-80843483D01*
X155916570Y-80843492D01*
X156016400Y-81057579D01*
X156016402Y-81057583D01*
X156075072Y-81141373D01*
X156075073Y-81141373D01*
X156706923Y-80509523D01*
X156730507Y-80589844D01*
X156808239Y-80710798D01*
X156916900Y-80804952D01*
X157047685Y-80864680D01*
X157057466Y-80866086D01*
X156428625Y-81494925D01*
X156505031Y-81548425D01*
X156548655Y-81603002D01*
X156555848Y-81672501D01*
X156524326Y-81734855D01*
X156505029Y-81751576D01*
X156428625Y-81805072D01*
X157057466Y-82433913D01*
X157047685Y-82435320D01*
X156916900Y-82495048D01*
X156808239Y-82589202D01*
X156730507Y-82710156D01*
X156706923Y-82790475D01*
X156075073Y-82158625D01*
X156075072Y-82158625D01*
X156016401Y-82242419D01*
X155916570Y-82456507D01*
X155916566Y-82456516D01*
X155855432Y-82684673D01*
X155855431Y-82684681D01*
X155854199Y-82698757D01*
X155828743Y-82763825D01*
X155772150Y-82804801D01*
X155702388Y-82808675D01*
X155641605Y-82774219D01*
X155612012Y-82723942D01*
X155557462Y-82544117D01*
X155557460Y-82544114D01*
X155557460Y-82544112D01*
X155466697Y-82374307D01*
X155466693Y-82374300D01*
X155344541Y-82225458D01*
X155195699Y-82103306D01*
X155195692Y-82103302D01*
X155025884Y-82012538D01*
X154841626Y-81956643D01*
X154650000Y-81937770D01*
X154458373Y-81956643D01*
X154274115Y-82012538D01*
X154104307Y-82103302D01*
X154104300Y-82103306D01*
X153955458Y-82225458D01*
X153833306Y-82374300D01*
X153833302Y-82374307D01*
X153742538Y-82544115D01*
X153686643Y-82728373D01*
X153667770Y-82920000D01*
X153092230Y-82920000D01*
X153073357Y-82728376D01*
X153017462Y-82544117D01*
X152970638Y-82456516D01*
X152926697Y-82374307D01*
X152926693Y-82374300D01*
X152804541Y-82225458D01*
X152655699Y-82103306D01*
X152655692Y-82103302D01*
X152485884Y-82012538D01*
X152301626Y-81956643D01*
X152110000Y-81937770D01*
X151918373Y-81956643D01*
X151734115Y-82012538D01*
X151564307Y-82103302D01*
X151564300Y-82103306D01*
X151415457Y-82225459D01*
X151407352Y-82235336D01*
X151349606Y-82274670D01*
X151279761Y-82276539D01*
X151219993Y-82240351D01*
X151189278Y-82177595D01*
X151187500Y-82156670D01*
X151187500Y-81143329D01*
X151207185Y-81076290D01*
X151259989Y-81030535D01*
X151329147Y-81020591D01*
X151392703Y-81049616D01*
X151407355Y-81064666D01*
X151415460Y-81074542D01*
X151564300Y-81196693D01*
X151564307Y-81196697D01*
X151733017Y-81286874D01*
X151734117Y-81287462D01*
X151918376Y-81343357D01*
X152110000Y-81362230D01*
X152301624Y-81343357D01*
X152485883Y-81287462D01*
X152655698Y-81196694D01*
X152804541Y-81074541D01*
X152926694Y-80925698D01*
X153017462Y-80755883D01*
X153073357Y-80571624D01*
X153092230Y-80380000D01*
X153073357Y-80188376D01*
X153017462Y-80004117D01*
X153002842Y-79976765D01*
X152926697Y-79834307D01*
X152926693Y-79834300D01*
X152804541Y-79685458D01*
X152655699Y-79563306D01*
X152655692Y-79563302D01*
X152485884Y-79472538D01*
X152301626Y-79416643D01*
X152110000Y-79397770D01*
X152109998Y-79397770D01*
X152072618Y-79401451D01*
X152003972Y-79388431D01*
X151953263Y-79340366D01*
X151936590Y-79272514D01*
X151959246Y-79206420D01*
X151972777Y-79190375D01*
X153030309Y-78132844D01*
X164360000Y-78132844D01*
X164366401Y-78192372D01*
X164366403Y-78192379D01*
X164416645Y-78327086D01*
X164416649Y-78327093D01*
X164502809Y-78442187D01*
X164502812Y-78442190D01*
X164617906Y-78528350D01*
X164617915Y-78528355D01*
X164669536Y-78547608D01*
X164725470Y-78589478D01*
X164749888Y-78654942D01*
X164748008Y-78687024D01*
X164728611Y-78788707D01*
X164738961Y-78953234D01*
X164789908Y-79110029D01*
X164878244Y-79249225D01*
X164998418Y-79362076D01*
X165004733Y-79366664D01*
X165003052Y-79368977D01*
X165042770Y-79408930D01*
X165057420Y-79477246D01*
X165032811Y-79542638D01*
X165006649Y-79568353D01*
X164934785Y-79620565D01*
X164934778Y-79620572D01*
X164829696Y-79747593D01*
X164759503Y-79896763D01*
X164759502Y-79896765D01*
X164728611Y-80058707D01*
X164738961Y-80223234D01*
X164789908Y-80380029D01*
X164878244Y-80519225D01*
X164998418Y-80632076D01*
X164998426Y-80632082D01*
X165141611Y-80710798D01*
X165142890Y-80711501D01*
X165302570Y-80752500D01*
X165302574Y-80752500D01*
X165876050Y-80752500D01*
X165876052Y-80752500D01*
X165876055Y-80752499D01*
X165876063Y-80752499D01*
X165998556Y-80737025D01*
X165998557Y-80737025D01*
X165998560Y-80737024D01*
X166151843Y-80676335D01*
X166285217Y-80579432D01*
X166390303Y-80452406D01*
X166460497Y-80303236D01*
X166491388Y-80141296D01*
X166491388Y-80141292D01*
X166481038Y-79976765D01*
X166470899Y-79945562D01*
X166430092Y-79819971D01*
X166341756Y-79680775D01*
X166312418Y-79653225D01*
X166221581Y-79567923D01*
X166215267Y-79563336D01*
X166216945Y-79561025D01*
X166177219Y-79521050D01*
X166162580Y-79452731D01*
X166187202Y-79387343D01*
X166213345Y-79361650D01*
X166285217Y-79309432D01*
X166390303Y-79182406D01*
X166460497Y-79033236D01*
X166491388Y-78871296D01*
X166491388Y-78871292D01*
X166481038Y-78706766D01*
X166479280Y-78701355D01*
X166479130Y-78700895D01*
X166477132Y-78631057D01*
X166513209Y-78571222D01*
X166553727Y-78546391D01*
X166602086Y-78528354D01*
X166602093Y-78528350D01*
X166717187Y-78442190D01*
X166717190Y-78442187D01*
X166803350Y-78327093D01*
X166803354Y-78327086D01*
X166853596Y-78192379D01*
X166853598Y-78192372D01*
X166859999Y-78132844D01*
X166860000Y-78132827D01*
X166860000Y-78092558D01*
X170142500Y-78092558D01*
X170149898Y-78129749D01*
X170178077Y-78171922D01*
X170220250Y-78200101D01*
X170220252Y-78200102D01*
X170248205Y-78205662D01*
X170257441Y-78207500D01*
X170257442Y-78207500D01*
X171982559Y-78207500D01*
X171989957Y-78206028D01*
X172019748Y-78200102D01*
X172061922Y-78171922D01*
X172090102Y-78129748D01*
X172097500Y-78092558D01*
X172097500Y-76367442D01*
X172090102Y-76330252D01*
X172077275Y-76311055D01*
X172061922Y-76288077D01*
X172019749Y-76259898D01*
X171982559Y-76252500D01*
X171982558Y-76252500D01*
X170257442Y-76252500D01*
X170257441Y-76252500D01*
X170220250Y-76259898D01*
X170178077Y-76288077D01*
X170149898Y-76330250D01*
X170142500Y-76367441D01*
X170142500Y-78092558D01*
X166860000Y-78092558D01*
X166860000Y-77810000D01*
X165889560Y-77810000D01*
X165928278Y-77767941D01*
X165978551Y-77653330D01*
X165988886Y-77528605D01*
X165958163Y-77407281D01*
X165894606Y-77310000D01*
X166860000Y-77310000D01*
X166860000Y-76987172D01*
X166859999Y-76987155D01*
X166853598Y-76927627D01*
X166853596Y-76927620D01*
X166803354Y-76792913D01*
X166803350Y-76792906D01*
X166717190Y-76677812D01*
X166717187Y-76677809D01*
X166602093Y-76591649D01*
X166602086Y-76591645D01*
X166467379Y-76541403D01*
X166467372Y-76541401D01*
X166407844Y-76535000D01*
X165860000Y-76535000D01*
X165860000Y-77279382D01*
X165790948Y-77225637D01*
X165672576Y-77185000D01*
X165578927Y-77185000D01*
X165486554Y-77200414D01*
X165376486Y-77259981D01*
X165360000Y-77277889D01*
X165360000Y-76535000D01*
X164812155Y-76535000D01*
X164752627Y-76541401D01*
X164752620Y-76541403D01*
X164617913Y-76591645D01*
X164617906Y-76591649D01*
X164502812Y-76677809D01*
X164502809Y-76677812D01*
X164416649Y-76792906D01*
X164416645Y-76792913D01*
X164366403Y-76927620D01*
X164366401Y-76927627D01*
X164360000Y-76987155D01*
X164360000Y-77310000D01*
X165330440Y-77310000D01*
X165291722Y-77352059D01*
X165241449Y-77466670D01*
X165231114Y-77591395D01*
X165261837Y-77712719D01*
X165325394Y-77810000D01*
X164360000Y-77810000D01*
X164360000Y-78132844D01*
X153030309Y-78132844D01*
X153536515Y-77626639D01*
X153541004Y-77622569D01*
X153631147Y-77548602D01*
X153651348Y-77535107D01*
X153746081Y-77484478D01*
X153768534Y-77475178D01*
X153871327Y-77444001D01*
X153895159Y-77439261D01*
X153937825Y-77435060D01*
X154011574Y-77427799D01*
X154017653Y-77427500D01*
X160447122Y-77427500D01*
X160447335Y-77427490D01*
X160502790Y-77427491D01*
X160604724Y-77414072D01*
X160675315Y-77404780D01*
X160675316Y-77404779D01*
X160675319Y-77404779D01*
X160772350Y-77378780D01*
X160843402Y-77359744D01*
X160843404Y-77359742D01*
X160843408Y-77359742D01*
X161004180Y-77293151D01*
X161154884Y-77206144D01*
X161292943Y-77100210D01*
X161295877Y-77097275D01*
X161295881Y-77097273D01*
X161354468Y-77038687D01*
X161391147Y-77002009D01*
X161391147Y-77002007D01*
X161400044Y-76993111D01*
X161400052Y-76993100D01*
X164049336Y-74343819D01*
X164110659Y-74310334D01*
X164137017Y-74307500D01*
X164247482Y-74307500D01*
X164247484Y-74307500D01*
X164438192Y-74266964D01*
X164438194Y-74266962D01*
X164438197Y-74266962D01*
X164510359Y-74234833D01*
X164616305Y-74187663D01*
X164774037Y-74073064D01*
X164904497Y-73928174D01*
X165001981Y-73759326D01*
X165062229Y-73573900D01*
X165082609Y-73380000D01*
X165757391Y-73380000D01*
X165777771Y-73573901D01*
X165838019Y-73759328D01*
X165838020Y-73759329D01*
X165935501Y-73928172D01*
X166057730Y-74063920D01*
X166065963Y-74073064D01*
X166177608Y-74154179D01*
X166223695Y-74187663D01*
X166401802Y-74266962D01*
X166401808Y-74266964D01*
X166592516Y-74307500D01*
X166592517Y-74307500D01*
X166787482Y-74307500D01*
X166787484Y-74307500D01*
X166927005Y-74277844D01*
X169770000Y-74277844D01*
X169776401Y-74337372D01*
X169776403Y-74337379D01*
X169826645Y-74472086D01*
X169826649Y-74472093D01*
X169912809Y-74587187D01*
X169912812Y-74587190D01*
X170027906Y-74673350D01*
X170027913Y-74673354D01*
X170162620Y-74723596D01*
X170162627Y-74723598D01*
X170222155Y-74729999D01*
X170222172Y-74730000D01*
X170870000Y-74730000D01*
X170870000Y-73815501D01*
X170977685Y-73864680D01*
X171084237Y-73880000D01*
X171155763Y-73880000D01*
X171262315Y-73864680D01*
X171370000Y-73815501D01*
X171370000Y-74730000D01*
X172017828Y-74730000D01*
X172017844Y-74729999D01*
X172077372Y-74723598D01*
X172077379Y-74723596D01*
X172212086Y-74673354D01*
X172212093Y-74673350D01*
X172327187Y-74587190D01*
X172327190Y-74587187D01*
X172413350Y-74472093D01*
X172413354Y-74472086D01*
X172463596Y-74337379D01*
X172463598Y-74337372D01*
X172469999Y-74277844D01*
X172470000Y-74277827D01*
X172470000Y-73630000D01*
X171553686Y-73630000D01*
X171579493Y-73589844D01*
X171620000Y-73451889D01*
X171620000Y-73308111D01*
X171579493Y-73170156D01*
X171553686Y-73130000D01*
X172470000Y-73130000D01*
X172470000Y-72482172D01*
X172469999Y-72482155D01*
X172463598Y-72422627D01*
X172463596Y-72422620D01*
X172413354Y-72287913D01*
X172413350Y-72287906D01*
X172327190Y-72172812D01*
X172327187Y-72172809D01*
X172212093Y-72086649D01*
X172212086Y-72086645D01*
X172077379Y-72036403D01*
X172077372Y-72036401D01*
X172017844Y-72030000D01*
X171370000Y-72030000D01*
X171370000Y-72944498D01*
X171262315Y-72895320D01*
X171155763Y-72880000D01*
X171084237Y-72880000D01*
X170977685Y-72895320D01*
X170870000Y-72944498D01*
X170870000Y-72030000D01*
X170222155Y-72030000D01*
X170162627Y-72036401D01*
X170162620Y-72036403D01*
X170027913Y-72086645D01*
X170027906Y-72086649D01*
X169912812Y-72172809D01*
X169912809Y-72172812D01*
X169826649Y-72287906D01*
X169826645Y-72287913D01*
X169776403Y-72422620D01*
X169776401Y-72422627D01*
X169770000Y-72482155D01*
X169770000Y-73130000D01*
X170686314Y-73130000D01*
X170660507Y-73170156D01*
X170620000Y-73308111D01*
X170620000Y-73451889D01*
X170660507Y-73589844D01*
X170686314Y-73630000D01*
X169770000Y-73630000D01*
X169770000Y-74277844D01*
X166927005Y-74277844D01*
X166978192Y-74266964D01*
X166978194Y-74266962D01*
X166978197Y-74266962D01*
X167050359Y-74234833D01*
X167156305Y-74187663D01*
X167314037Y-74073064D01*
X167444497Y-73928174D01*
X167541981Y-73759326D01*
X167602229Y-73573900D01*
X167622609Y-73380000D01*
X167602229Y-73186100D01*
X167541981Y-73000674D01*
X167541980Y-73000673D01*
X167541980Y-73000671D01*
X167541979Y-73000670D01*
X167444498Y-72831827D01*
X167314038Y-72686937D01*
X167314035Y-72686935D01*
X167164912Y-72578590D01*
X167156304Y-72572336D01*
X166978197Y-72493037D01*
X166978191Y-72493035D01*
X166810960Y-72457490D01*
X166787484Y-72452500D01*
X166592516Y-72452500D01*
X166569040Y-72457490D01*
X166401808Y-72493035D01*
X166401803Y-72493037D01*
X166223696Y-72572336D01*
X166223691Y-72572339D01*
X166065969Y-72686930D01*
X166065963Y-72686935D01*
X165935501Y-72831827D01*
X165838020Y-73000670D01*
X165838019Y-73000671D01*
X165777771Y-73186098D01*
X165757391Y-73380000D01*
X165082609Y-73380000D01*
X165062229Y-73186100D01*
X165001981Y-73000674D01*
X165001980Y-73000673D01*
X165001980Y-73000671D01*
X165001979Y-73000670D01*
X164904498Y-72831827D01*
X164774038Y-72686937D01*
X164774035Y-72686935D01*
X164624912Y-72578590D01*
X164616304Y-72572336D01*
X164438197Y-72493037D01*
X164438191Y-72493035D01*
X164270960Y-72457490D01*
X164247484Y-72452500D01*
X164052516Y-72452500D01*
X164029040Y-72457490D01*
X163861808Y-72493035D01*
X163861803Y-72493037D01*
X163683696Y-72572336D01*
X163683691Y-72572339D01*
X163525969Y-72686930D01*
X163525963Y-72686935D01*
X163395501Y-72831827D01*
X163298020Y-73000670D01*
X163298019Y-73000671D01*
X163237771Y-73186098D01*
X163217391Y-73380000D01*
X163237771Y-73573901D01*
X163298019Y-73759328D01*
X163298020Y-73759329D01*
X163398752Y-73933802D01*
X163396880Y-73934882D01*
X163416979Y-73991242D01*
X163401142Y-74059294D01*
X163380861Y-74085982D01*
X161964417Y-75502426D01*
X161903094Y-75535911D01*
X161833402Y-75530927D01*
X161777469Y-75489055D01*
X161753052Y-75423591D01*
X161767904Y-75355318D01*
X161769290Y-75352848D01*
X161803160Y-75294184D01*
X161869752Y-75133411D01*
X161870077Y-75132201D01*
X161902440Y-75011409D01*
X161914789Y-74965321D01*
X161937501Y-74792791D01*
X161937500Y-74705781D01*
X161937500Y-74681056D01*
X161937500Y-74329989D01*
X161957185Y-74262950D01*
X162009989Y-74217195D01*
X162011066Y-74216709D01*
X162076301Y-74187665D01*
X162076301Y-74187664D01*
X162076305Y-74187663D01*
X162234037Y-74073064D01*
X162364497Y-73928174D01*
X162461981Y-73759326D01*
X162522229Y-73573900D01*
X162542609Y-73380000D01*
X162522229Y-73186100D01*
X162461981Y-73000674D01*
X162461980Y-73000673D01*
X162461980Y-73000671D01*
X162461979Y-73000670D01*
X162364498Y-72831827D01*
X162234038Y-72686937D01*
X162234035Y-72686935D01*
X162084912Y-72578590D01*
X162076304Y-72572336D01*
X161898197Y-72493037D01*
X161898191Y-72493035D01*
X161730960Y-72457490D01*
X161707484Y-72452500D01*
X161512516Y-72452500D01*
X161489040Y-72457490D01*
X161321808Y-72493035D01*
X161321803Y-72493037D01*
X161143696Y-72572336D01*
X161143691Y-72572339D01*
X160985969Y-72686930D01*
X160985963Y-72686935D01*
X160855503Y-72831825D01*
X160828887Y-72877926D01*
X160778319Y-72926141D01*
X160709712Y-72939363D01*
X160644848Y-72913395D01*
X160604320Y-72856481D01*
X160597500Y-72815925D01*
X160597500Y-72167255D01*
X160597799Y-72161175D01*
X160601137Y-72127273D01*
X160609223Y-72045156D01*
X160613961Y-72021333D01*
X160645145Y-71918531D01*
X160654440Y-71896090D01*
X160705082Y-71801344D01*
X160718571Y-71781155D01*
X160792476Y-71691098D01*
X160796545Y-71686609D01*
X160803206Y-71679947D01*
X160811943Y-71671211D01*
X161159401Y-71323751D01*
X161501797Y-70981356D01*
X161501807Y-70981349D01*
X161512363Y-70970794D01*
X161512393Y-70970777D01*
X161548694Y-70934475D01*
X161610218Y-70872949D01*
X161716152Y-70734890D01*
X161803160Y-70584184D01*
X161869752Y-70423411D01*
X161872557Y-70412944D01*
X161914789Y-70255320D01*
X161914790Y-70255315D01*
X161930144Y-70138676D01*
X161937501Y-70082791D01*
X161937500Y-69995781D01*
X161937500Y-69970482D01*
X161937500Y-69409989D01*
X161957185Y-69342950D01*
X162009989Y-69297195D01*
X162011065Y-69296709D01*
X162076304Y-69267663D01*
X162076305Y-69267662D01*
X162134366Y-69225479D01*
X162234037Y-69153064D01*
X162364497Y-69008174D01*
X162461981Y-68839326D01*
X162522229Y-68653900D01*
X162537500Y-68508608D01*
X163222500Y-68508608D01*
X163235225Y-68629684D01*
X163237771Y-68653901D01*
X163298019Y-68839328D01*
X163298020Y-68839329D01*
X163395501Y-69008172D01*
X163489423Y-69112482D01*
X163525963Y-69153064D01*
X163625634Y-69225479D01*
X163683695Y-69267663D01*
X163861802Y-69346962D01*
X163861808Y-69346964D01*
X164052516Y-69387500D01*
X164052517Y-69387500D01*
X164247482Y-69387500D01*
X164247484Y-69387500D01*
X164438192Y-69346964D01*
X164616304Y-69267663D01*
X164774037Y-69153064D01*
X164904497Y-69008174D01*
X165001981Y-68839326D01*
X165062229Y-68653900D01*
X165076643Y-68516763D01*
X165390000Y-68516763D01*
X165404858Y-68686599D01*
X165404860Y-68686610D01*
X165463730Y-68906317D01*
X165463734Y-68906326D01*
X165559865Y-69112482D01*
X165690342Y-69298820D01*
X165851179Y-69459657D01*
X166037517Y-69590134D01*
X166243673Y-69686265D01*
X166243682Y-69686269D01*
X166439999Y-69738872D01*
X166440000Y-69738871D01*
X166440000Y-68375686D01*
X166451955Y-68387641D01*
X166564852Y-68445165D01*
X166658519Y-68460000D01*
X166721481Y-68460000D01*
X166815148Y-68445165D01*
X166928045Y-68387641D01*
X166940000Y-68375686D01*
X166940000Y-69738872D01*
X167136317Y-69686269D01*
X167136326Y-69686265D01*
X167342482Y-69590134D01*
X167528820Y-69459657D01*
X167689657Y-69298820D01*
X167820134Y-69112482D01*
X167916265Y-68906326D01*
X167916269Y-68906317D01*
X167975139Y-68686610D01*
X167975141Y-68686599D01*
X167990000Y-68516763D01*
X167990000Y-68310000D01*
X167005686Y-68310000D01*
X167017641Y-68298045D01*
X167075165Y-68185148D01*
X167094986Y-68060000D01*
X167075165Y-67934852D01*
X167017641Y-67821955D01*
X167005686Y-67810000D01*
X167990000Y-67810000D01*
X167990000Y-67603237D01*
X167975141Y-67433400D01*
X167975139Y-67433389D01*
X167916269Y-67213682D01*
X167916265Y-67213673D01*
X167820134Y-67007517D01*
X167689657Y-66821179D01*
X167528820Y-66660342D01*
X167342482Y-66529865D01*
X167136328Y-66433734D01*
X166940000Y-66381127D01*
X166940000Y-67744314D01*
X166928045Y-67732359D01*
X166815148Y-67674835D01*
X166721481Y-67660000D01*
X166658519Y-67660000D01*
X166564852Y-67674835D01*
X166451955Y-67732359D01*
X166440000Y-67744314D01*
X166440000Y-66381127D01*
X166243671Y-66433734D01*
X166037517Y-66529865D01*
X165851179Y-66660342D01*
X165690342Y-66821179D01*
X165559865Y-67007517D01*
X165463734Y-67213673D01*
X165463730Y-67213682D01*
X165404860Y-67433389D01*
X165404858Y-67433400D01*
X165390000Y-67603237D01*
X165390000Y-67810000D01*
X166374314Y-67810000D01*
X166362359Y-67821955D01*
X166304835Y-67934852D01*
X166285014Y-68060000D01*
X166304835Y-68185148D01*
X166362359Y-68298045D01*
X166374314Y-68310000D01*
X165390000Y-68310000D01*
X165390000Y-68516763D01*
X165076643Y-68516763D01*
X165077500Y-68508608D01*
X165077500Y-67611392D01*
X165062229Y-67466100D01*
X165001981Y-67280674D01*
X165001980Y-67280673D01*
X165001980Y-67280671D01*
X165001979Y-67280670D01*
X164904498Y-67111827D01*
X164774038Y-66966937D01*
X164774035Y-66966935D01*
X164616305Y-66852337D01*
X164616304Y-66852336D01*
X164438197Y-66773037D01*
X164438191Y-66773035D01*
X164282289Y-66739898D01*
X164247484Y-66732500D01*
X164052516Y-66732500D01*
X164019086Y-66739605D01*
X163861808Y-66773035D01*
X163861803Y-66773037D01*
X163683696Y-66852336D01*
X163683691Y-66852339D01*
X163525969Y-66966930D01*
X163525963Y-66966935D01*
X163395501Y-67111827D01*
X163298020Y-67280670D01*
X163298019Y-67280671D01*
X163237771Y-67466098D01*
X163237771Y-67466100D01*
X163222500Y-67611392D01*
X163222500Y-68508608D01*
X162537500Y-68508608D01*
X162537500Y-67611392D01*
X162522229Y-67466100D01*
X162461981Y-67280674D01*
X162461980Y-67280673D01*
X162461980Y-67280671D01*
X162461979Y-67280670D01*
X162364498Y-67111827D01*
X162234038Y-66966937D01*
X162234035Y-66966935D01*
X162076305Y-66852337D01*
X162076304Y-66852336D01*
X161898197Y-66773037D01*
X161898191Y-66773035D01*
X161742289Y-66739898D01*
X161707484Y-66732500D01*
X161512516Y-66732500D01*
X161479086Y-66739605D01*
X161321808Y-66773035D01*
X161321803Y-66773037D01*
X161143696Y-66852336D01*
X161143691Y-66852339D01*
X160985969Y-66966930D01*
X160985963Y-66966935D01*
X160855503Y-67111825D01*
X160828887Y-67157926D01*
X160778319Y-67206141D01*
X160709712Y-67219363D01*
X160644848Y-67193395D01*
X160604320Y-67136481D01*
X160597500Y-67095925D01*
X160597500Y-61656995D01*
X160597736Y-61651588D01*
X160598080Y-61647663D01*
X160601286Y-61611015D01*
X160601285Y-61611014D01*
X160601286Y-61611013D01*
X160590741Y-61571662D01*
X160589574Y-61566402D01*
X160582497Y-61526261D01*
X160582495Y-61526257D01*
X160580756Y-61521480D01*
X160573546Y-61504072D01*
X160571393Y-61499455D01*
X160548032Y-61466093D01*
X160545123Y-61461528D01*
X160524750Y-61426240D01*
X160524746Y-61426236D01*
X160493535Y-61400046D01*
X160489546Y-61396391D01*
X160033819Y-60940664D01*
X160005394Y-60888608D01*
X160682500Y-60888608D01*
X160688270Y-60943501D01*
X160697771Y-61033901D01*
X160758019Y-61219328D01*
X160758020Y-61219329D01*
X160855501Y-61388172D01*
X160979838Y-61526261D01*
X160985963Y-61533064D01*
X161143691Y-61647660D01*
X161143695Y-61647663D01*
X161321802Y-61726962D01*
X161321808Y-61726964D01*
X161512516Y-61767500D01*
X161512517Y-61767500D01*
X161707482Y-61767500D01*
X161707484Y-61767500D01*
X161898192Y-61726964D01*
X162076304Y-61647663D01*
X162234037Y-61533064D01*
X162364497Y-61388174D01*
X162461981Y-61219326D01*
X162522229Y-61033900D01*
X162536643Y-60896763D01*
X162850000Y-60896763D01*
X162864858Y-61066599D01*
X162864860Y-61066610D01*
X162923730Y-61286317D01*
X162923734Y-61286326D01*
X163019865Y-61492482D01*
X163150342Y-61678820D01*
X163311179Y-61839657D01*
X163497517Y-61970134D01*
X163703673Y-62066265D01*
X163703682Y-62066269D01*
X163899999Y-62118872D01*
X163900000Y-62118871D01*
X163900000Y-60755686D01*
X163911955Y-60767641D01*
X164024852Y-60825165D01*
X164118519Y-60840000D01*
X164181481Y-60840000D01*
X164275148Y-60825165D01*
X164388045Y-60767641D01*
X164400000Y-60755686D01*
X164400000Y-62118872D01*
X164596317Y-62066269D01*
X164596326Y-62066265D01*
X164802482Y-61970134D01*
X164988820Y-61839657D01*
X165149657Y-61678820D01*
X165280134Y-61492482D01*
X165376265Y-61286326D01*
X165376269Y-61286317D01*
X165435139Y-61066610D01*
X165435141Y-61066599D01*
X165450000Y-60896763D01*
X165450000Y-60888608D01*
X165762500Y-60888608D01*
X165768270Y-60943501D01*
X165777771Y-61033901D01*
X165838019Y-61219328D01*
X165838020Y-61219329D01*
X165935501Y-61388172D01*
X166059838Y-61526261D01*
X166065963Y-61533064D01*
X166223691Y-61647660D01*
X166223695Y-61647663D01*
X166401802Y-61726962D01*
X166401808Y-61726964D01*
X166592516Y-61767500D01*
X166592517Y-61767500D01*
X166787482Y-61767500D01*
X166787484Y-61767500D01*
X166978192Y-61726964D01*
X167156304Y-61647663D01*
X167314037Y-61533064D01*
X167444497Y-61388174D01*
X167541981Y-61219326D01*
X167602229Y-61033900D01*
X167617500Y-60888608D01*
X167617500Y-59991392D01*
X167602229Y-59846100D01*
X167541981Y-59660674D01*
X167541980Y-59660673D01*
X167541980Y-59660671D01*
X167541979Y-59660670D01*
X167444498Y-59491827D01*
X167314038Y-59346937D01*
X167314035Y-59346935D01*
X167156305Y-59232337D01*
X167156304Y-59232336D01*
X166978197Y-59153037D01*
X166978191Y-59153035D01*
X166828019Y-59121115D01*
X166787484Y-59112500D01*
X166592516Y-59112500D01*
X166559086Y-59119605D01*
X166401808Y-59153035D01*
X166401803Y-59153037D01*
X166223696Y-59232336D01*
X166223691Y-59232339D01*
X166065969Y-59346930D01*
X166065963Y-59346935D01*
X165935501Y-59491827D01*
X165838020Y-59660670D01*
X165838019Y-59660671D01*
X165777771Y-59846098D01*
X165777771Y-59846100D01*
X165762500Y-59991392D01*
X165762500Y-60888608D01*
X165450000Y-60888608D01*
X165450000Y-60690000D01*
X164465686Y-60690000D01*
X164477641Y-60678045D01*
X164535165Y-60565148D01*
X164554986Y-60440000D01*
X164535165Y-60314852D01*
X164477641Y-60201955D01*
X164465686Y-60190000D01*
X165450000Y-60190000D01*
X165450000Y-59983237D01*
X165435141Y-59813400D01*
X165435139Y-59813389D01*
X165376269Y-59593682D01*
X165376265Y-59593673D01*
X165280134Y-59387517D01*
X165149657Y-59201179D01*
X164988820Y-59040342D01*
X164802482Y-58909865D01*
X164596328Y-58813734D01*
X164400000Y-58761127D01*
X164400000Y-60124314D01*
X164388045Y-60112359D01*
X164275148Y-60054835D01*
X164181481Y-60040000D01*
X164118519Y-60040000D01*
X164024852Y-60054835D01*
X163911955Y-60112359D01*
X163900000Y-60124314D01*
X163900000Y-58761127D01*
X163703671Y-58813734D01*
X163497517Y-58909865D01*
X163311179Y-59040342D01*
X163150342Y-59201179D01*
X163019865Y-59387517D01*
X162923734Y-59593673D01*
X162923730Y-59593682D01*
X162864860Y-59813389D01*
X162864858Y-59813400D01*
X162850000Y-59983237D01*
X162850000Y-60190000D01*
X163834314Y-60190000D01*
X163822359Y-60201955D01*
X163764835Y-60314852D01*
X163745014Y-60440000D01*
X163764835Y-60565148D01*
X163822359Y-60678045D01*
X163834314Y-60690000D01*
X162850000Y-60690000D01*
X162850000Y-60896763D01*
X162536643Y-60896763D01*
X162537500Y-60888608D01*
X162537500Y-59991392D01*
X162522229Y-59846100D01*
X162461981Y-59660674D01*
X162461980Y-59660673D01*
X162461980Y-59660671D01*
X162461979Y-59660670D01*
X162364498Y-59491827D01*
X162234038Y-59346937D01*
X162234035Y-59346935D01*
X162076305Y-59232337D01*
X162076304Y-59232336D01*
X161898197Y-59153037D01*
X161898191Y-59153035D01*
X161748019Y-59121115D01*
X161707484Y-59112500D01*
X161512516Y-59112500D01*
X161479086Y-59119605D01*
X161321808Y-59153035D01*
X161321803Y-59153037D01*
X161143696Y-59232336D01*
X161143691Y-59232339D01*
X160985969Y-59346930D01*
X160985963Y-59346935D01*
X160855501Y-59491827D01*
X160758020Y-59660670D01*
X160758019Y-59660671D01*
X160697771Y-59846098D01*
X160697771Y-59846100D01*
X160682500Y-59991392D01*
X160682500Y-60888608D01*
X160005394Y-60888608D01*
X160000334Y-60879341D01*
X159997500Y-60852983D01*
X159997500Y-59991396D01*
X159996647Y-59983279D01*
X159982229Y-59846100D01*
X159921981Y-59660674D01*
X159921980Y-59660673D01*
X159921980Y-59660671D01*
X159921979Y-59660670D01*
X159824498Y-59491827D01*
X159694038Y-59346937D01*
X159694035Y-59346935D01*
X159536305Y-59232337D01*
X159536304Y-59232336D01*
X159358197Y-59153037D01*
X159358191Y-59153035D01*
X159208019Y-59121115D01*
X159167484Y-59112500D01*
X158972516Y-59112500D01*
X158939086Y-59119605D01*
X158781808Y-59153035D01*
X158781803Y-59153037D01*
X158603696Y-59232336D01*
X158603691Y-59232339D01*
X158445969Y-59346930D01*
X158445963Y-59346935D01*
X158315501Y-59491827D01*
X158218020Y-59660670D01*
X158218019Y-59660671D01*
X158157771Y-59846098D01*
X158157771Y-59846100D01*
X158142500Y-59991392D01*
X158142500Y-60888608D01*
X158148270Y-60943501D01*
X158157771Y-61033901D01*
X158218019Y-61219328D01*
X158218020Y-61219329D01*
X158315501Y-61388172D01*
X158439838Y-61526261D01*
X158445963Y-61533064D01*
X158603691Y-61647660D01*
X158603695Y-61647663D01*
X158781802Y-61726962D01*
X158781808Y-61726964D01*
X158972516Y-61767500D01*
X158972517Y-61767500D01*
X159167482Y-61767500D01*
X159167484Y-61767500D01*
X159358192Y-61726964D01*
X159536304Y-61647663D01*
X159611760Y-61592841D01*
X159677565Y-61569362D01*
X159745619Y-61585187D01*
X159772325Y-61605479D01*
X159906181Y-61739335D01*
X159939666Y-61800658D01*
X159942500Y-61827016D01*
X159942500Y-66919851D01*
X159922815Y-66986890D01*
X159870011Y-67032645D01*
X159800853Y-67042589D01*
X159737297Y-67013564D01*
X159726356Y-67002830D01*
X159694037Y-66966936D01*
X159536305Y-66852337D01*
X159536304Y-66852336D01*
X159358197Y-66773037D01*
X159358191Y-66773035D01*
X159202289Y-66739898D01*
X159167484Y-66732500D01*
X158972516Y-66732500D01*
X158939086Y-66739605D01*
X158781808Y-66773035D01*
X158781803Y-66773037D01*
X158603696Y-66852336D01*
X158603691Y-66852339D01*
X158445969Y-66966930D01*
X158445963Y-66966935D01*
X158315501Y-67111827D01*
X158218020Y-67280670D01*
X158218019Y-67280671D01*
X158157771Y-67466098D01*
X158157771Y-67466100D01*
X158142500Y-67611392D01*
X158142500Y-68508608D01*
X158155225Y-68629684D01*
X158157771Y-68653901D01*
X158218019Y-68839328D01*
X158218020Y-68839329D01*
X158315501Y-69008172D01*
X158409423Y-69112482D01*
X158445963Y-69153064D01*
X158545634Y-69225479D01*
X158603695Y-69267663D01*
X158781802Y-69346962D01*
X158781808Y-69346964D01*
X158972516Y-69387500D01*
X158972517Y-69387500D01*
X159167482Y-69387500D01*
X159167484Y-69387500D01*
X159358192Y-69346964D01*
X159536304Y-69267663D01*
X159694037Y-69153064D01*
X159726351Y-69117175D01*
X159785836Y-69080528D01*
X159855693Y-69081857D01*
X159913741Y-69120743D01*
X159941551Y-69184840D01*
X159942500Y-69200148D01*
X159942500Y-69532745D01*
X159942201Y-69538824D01*
X159930777Y-69654834D01*
X159926035Y-69678676D01*
X159894857Y-69781459D01*
X159885555Y-69803917D01*
X159834924Y-69898644D01*
X159821418Y-69918857D01*
X159747528Y-70008892D01*
X159743445Y-70013398D01*
X159732411Y-70024434D01*
X157971109Y-71785735D01*
X157967638Y-71789206D01*
X157967604Y-71789224D01*
X157869782Y-71887050D01*
X157869778Y-71887055D01*
X157763851Y-72025105D01*
X157763848Y-72025109D01*
X157763848Y-72025110D01*
X157679591Y-72171052D01*
X157676839Y-72175818D01*
X157676838Y-72175820D01*
X157610245Y-72336594D01*
X157565210Y-72504679D01*
X157565209Y-72504684D01*
X157542500Y-72677196D01*
X157542499Y-72677216D01*
X157542500Y-72735562D01*
X157542500Y-72815925D01*
X157522815Y-72882964D01*
X157470011Y-72928719D01*
X157400853Y-72938663D01*
X157337297Y-72909638D01*
X157311113Y-72877926D01*
X157300685Y-72859864D01*
X157284497Y-72831826D01*
X157154037Y-72686936D01*
X157004912Y-72578590D01*
X156996304Y-72572336D01*
X156818197Y-72493037D01*
X156818191Y-72493035D01*
X156650960Y-72457490D01*
X156627484Y-72452500D01*
X156432516Y-72452500D01*
X156409040Y-72457490D01*
X156241808Y-72493035D01*
X156241803Y-72493037D01*
X156063696Y-72572336D01*
X156063691Y-72572339D01*
X155905969Y-72686930D01*
X155905963Y-72686935D01*
X155775501Y-72831827D01*
X155678020Y-73000670D01*
X155678019Y-73000671D01*
X155617771Y-73186098D01*
X155597391Y-73380000D01*
X155617771Y-73573901D01*
X155678019Y-73759328D01*
X155678020Y-73759329D01*
X155775501Y-73928172D01*
X155905963Y-74073064D01*
X155926771Y-74088182D01*
X155969437Y-74143512D01*
X155975416Y-74213125D01*
X155942810Y-74274920D01*
X155881972Y-74309277D01*
X155853886Y-74312500D01*
X154666114Y-74312500D01*
X154599075Y-74292815D01*
X154553320Y-74240011D01*
X154543376Y-74170853D01*
X154572401Y-74107297D01*
X154593229Y-74088182D01*
X154596257Y-74085982D01*
X154614037Y-74073064D01*
X154744497Y-73928174D01*
X154841981Y-73759326D01*
X154902229Y-73573900D01*
X154922609Y-73380000D01*
X154902229Y-73186100D01*
X154841981Y-73000674D01*
X154841980Y-73000673D01*
X154841980Y-73000671D01*
X154841979Y-73000670D01*
X154744498Y-72831827D01*
X154614038Y-72686937D01*
X154614035Y-72686935D01*
X154464912Y-72578590D01*
X154456304Y-72572336D01*
X154278197Y-72493037D01*
X154278191Y-72493035D01*
X154110960Y-72457490D01*
X154087484Y-72452500D01*
X153892516Y-72452500D01*
X153869040Y-72457490D01*
X153701808Y-72493035D01*
X153701803Y-72493037D01*
X153523696Y-72572336D01*
X153523691Y-72572339D01*
X153365969Y-72686930D01*
X153365963Y-72686935D01*
X153235501Y-72831827D01*
X153138020Y-73000670D01*
X153138019Y-73000671D01*
X153077771Y-73186098D01*
X153057391Y-73380000D01*
X153077771Y-73573901D01*
X153138019Y-73759328D01*
X153138020Y-73759329D01*
X153235501Y-73928172D01*
X153365963Y-74073064D01*
X153386771Y-74088182D01*
X153429437Y-74143512D01*
X153435416Y-74213125D01*
X153402810Y-74274920D01*
X153341972Y-74309277D01*
X153313886Y-74312500D01*
X152126114Y-74312500D01*
X152059075Y-74292815D01*
X152013320Y-74240011D01*
X152003376Y-74170853D01*
X152032401Y-74107297D01*
X152053229Y-74088182D01*
X152056257Y-74085982D01*
X152074037Y-74073064D01*
X152204497Y-73928174D01*
X152301981Y-73759326D01*
X152362229Y-73573900D01*
X152382609Y-73380000D01*
X152362229Y-73186100D01*
X152301981Y-73000674D01*
X152301980Y-73000673D01*
X152301980Y-73000671D01*
X152301979Y-73000670D01*
X152204498Y-72831827D01*
X152116021Y-72733564D01*
X152074037Y-72686936D01*
X152066730Y-72681627D01*
X152024064Y-72626297D01*
X152018085Y-72556684D01*
X152050691Y-72494889D01*
X152111529Y-72460532D01*
X152131519Y-72457574D01*
X152132778Y-72457490D01*
X152132790Y-72457491D01*
X152219054Y-72446135D01*
X152305315Y-72434780D01*
X152305316Y-72434779D01*
X152305319Y-72434779D01*
X152402350Y-72408780D01*
X152473402Y-72389744D01*
X152473404Y-72389742D01*
X152473408Y-72389742D01*
X152634180Y-72323151D01*
X152784884Y-72236144D01*
X152922943Y-72130210D01*
X152925877Y-72127275D01*
X152925881Y-72127273D01*
X152984468Y-72068687D01*
X153021147Y-72032009D01*
X153021147Y-72032007D01*
X153030044Y-72023111D01*
X153030052Y-72023100D01*
X155827676Y-69225477D01*
X155888997Y-69191994D01*
X155958689Y-69196978D01*
X155988238Y-69212840D01*
X156005634Y-69225479D01*
X156063695Y-69267663D01*
X156241802Y-69346962D01*
X156241808Y-69346964D01*
X156432516Y-69387500D01*
X156432517Y-69387500D01*
X156627482Y-69387500D01*
X156627484Y-69387500D01*
X156818192Y-69346964D01*
X156996304Y-69267663D01*
X157154037Y-69153064D01*
X157284497Y-69008174D01*
X157381981Y-68839326D01*
X157442229Y-68653900D01*
X157457500Y-68508608D01*
X157457500Y-67611392D01*
X157442229Y-67466100D01*
X157381981Y-67280674D01*
X157381980Y-67280673D01*
X157381980Y-67280671D01*
X157381979Y-67280670D01*
X157284498Y-67111827D01*
X157154038Y-66966937D01*
X157154035Y-66966935D01*
X156996305Y-66852337D01*
X156996304Y-66852336D01*
X156818197Y-66773037D01*
X156818191Y-66773035D01*
X156662289Y-66739898D01*
X156627484Y-66732500D01*
X156432516Y-66732500D01*
X156399086Y-66739605D01*
X156241808Y-66773035D01*
X156241803Y-66773037D01*
X156063696Y-66852336D01*
X156063691Y-66852339D01*
X155905969Y-66966930D01*
X155905963Y-66966935D01*
X155775501Y-67111827D01*
X155678020Y-67280670D01*
X155678019Y-67280671D01*
X155617771Y-67466098D01*
X155617771Y-67466100D01*
X155603358Y-67603237D01*
X155602500Y-67611396D01*
X155602500Y-68472982D01*
X155582815Y-68540021D01*
X155566180Y-68560663D01*
X152539472Y-71587373D01*
X152531470Y-71595375D01*
X152523469Y-71603375D01*
X152518959Y-71607462D01*
X152441280Y-71671211D01*
X152428853Y-71681409D01*
X152408641Y-71694914D01*
X152313913Y-71745546D01*
X152291455Y-71754848D01*
X152188674Y-71786025D01*
X152164833Y-71790767D01*
X152048725Y-71802201D01*
X152042645Y-71802500D01*
X143923150Y-71802500D01*
X143922928Y-71802509D01*
X143867208Y-71802509D01*
X143694684Y-71825219D01*
X143694682Y-71825220D01*
X143526597Y-71870255D01*
X143410024Y-71918540D01*
X143365820Y-71936849D01*
X143215116Y-72023856D01*
X143215111Y-72023859D01*
X143077061Y-72129786D01*
X143077056Y-72129790D01*
X143035793Y-72171052D01*
X143015531Y-72191314D01*
X142978855Y-72227987D01*
X142978851Y-72227993D01*
X136709546Y-78497299D01*
X136701507Y-78505338D01*
X136693469Y-78513375D01*
X136688959Y-78517462D01*
X136601516Y-78589224D01*
X136598853Y-78591409D01*
X136578641Y-78604914D01*
X136483913Y-78655546D01*
X136461455Y-78664848D01*
X136358674Y-78696025D01*
X136334833Y-78700767D01*
X136218725Y-78712201D01*
X136212645Y-78712500D01*
X134285437Y-78712500D01*
X134284713Y-78712530D01*
X134229457Y-78712529D01*
X134229454Y-78712529D01*
X134229453Y-78712529D01*
X134229451Y-78712529D01*
X134056920Y-78735235D01*
X134056915Y-78735236D01*
X133888839Y-78780265D01*
X133728072Y-78846849D01*
X133728070Y-78846850D01*
X133728063Y-78846853D01*
X133728063Y-78846854D01*
X133577357Y-78933856D01*
X133518928Y-78978687D01*
X133439294Y-79039788D01*
X133433652Y-79045430D01*
X133399360Y-79079719D01*
X133399331Y-79079746D01*
X133382028Y-79097050D01*
X133377770Y-79101308D01*
X133341086Y-79137990D01*
X133177640Y-79301436D01*
X133177536Y-79301492D01*
X133079763Y-79399272D01*
X132973829Y-79537339D01*
X132973828Y-79537340D01*
X132886822Y-79688052D01*
X132830724Y-79823501D01*
X132786885Y-79877906D01*
X132720591Y-79899973D01*
X132652891Y-79882696D01*
X132610919Y-79838807D01*
X132610080Y-79839369D01*
X132606887Y-79834592D01*
X132606799Y-79834499D01*
X132606694Y-79834302D01*
X132606692Y-79834300D01*
X132606692Y-79834299D01*
X132484541Y-79685458D01*
X132335699Y-79563306D01*
X132335692Y-79563302D01*
X132165884Y-79472538D01*
X131981626Y-79416643D01*
X131790000Y-79397770D01*
X131598373Y-79416643D01*
X131414115Y-79472538D01*
X131244307Y-79563302D01*
X131244300Y-79563306D01*
X131095458Y-79685458D01*
X130973306Y-79834300D01*
X130973302Y-79834307D01*
X130882538Y-80004115D01*
X130826643Y-80188373D01*
X130807770Y-80380000D01*
X130232230Y-80380000D01*
X130213357Y-80188376D01*
X130157462Y-80004117D01*
X130142842Y-79976765D01*
X130066697Y-79834307D01*
X130066693Y-79834300D01*
X129944541Y-79685458D01*
X129795699Y-79563306D01*
X129795692Y-79563302D01*
X129625884Y-79472538D01*
X129441626Y-79416643D01*
X129250000Y-79397770D01*
X129058373Y-79416643D01*
X128874115Y-79472538D01*
X128704307Y-79563302D01*
X128704300Y-79563306D01*
X128555458Y-79685458D01*
X128433306Y-79834300D01*
X128433302Y-79834307D01*
X128342538Y-80004115D01*
X128286643Y-80188373D01*
X128267770Y-80380000D01*
X127692230Y-80380000D01*
X127673357Y-80188376D01*
X127617462Y-80004117D01*
X127602842Y-79976765D01*
X127526697Y-79834307D01*
X127526693Y-79834300D01*
X127404541Y-79685458D01*
X127255699Y-79563306D01*
X127255692Y-79563302D01*
X127085884Y-79472538D01*
X126901626Y-79416643D01*
X126710000Y-79397770D01*
X126518373Y-79416643D01*
X126334115Y-79472538D01*
X126164307Y-79563302D01*
X126164300Y-79563306D01*
X126015458Y-79685458D01*
X125893306Y-79834300D01*
X125893302Y-79834307D01*
X125802538Y-80004115D01*
X125746643Y-80188373D01*
X125727770Y-80380000D01*
X109780500Y-80380000D01*
X109780500Y-69272558D01*
X150522500Y-69272558D01*
X150529898Y-69309749D01*
X150558077Y-69351922D01*
X150600250Y-69380101D01*
X150600252Y-69380102D01*
X150628205Y-69385662D01*
X150637441Y-69387500D01*
X150637442Y-69387500D01*
X152262559Y-69387500D01*
X152269957Y-69386028D01*
X152299748Y-69380102D01*
X152341922Y-69351922D01*
X152370102Y-69309748D01*
X152377500Y-69272558D01*
X152377500Y-68508608D01*
X153062500Y-68508608D01*
X153075225Y-68629684D01*
X153077771Y-68653901D01*
X153138019Y-68839328D01*
X153138020Y-68839329D01*
X153235501Y-69008172D01*
X153329423Y-69112482D01*
X153365963Y-69153064D01*
X153465634Y-69225479D01*
X153523695Y-69267663D01*
X153701802Y-69346962D01*
X153701808Y-69346964D01*
X153892516Y-69387500D01*
X153892517Y-69387500D01*
X154087482Y-69387500D01*
X154087484Y-69387500D01*
X154278192Y-69346964D01*
X154456304Y-69267663D01*
X154614037Y-69153064D01*
X154744497Y-69008174D01*
X154841981Y-68839326D01*
X154902229Y-68653900D01*
X154917500Y-68508608D01*
X154917500Y-67611392D01*
X154902229Y-67466100D01*
X154841981Y-67280674D01*
X154841980Y-67280673D01*
X154841980Y-67280671D01*
X154841979Y-67280670D01*
X154744498Y-67111827D01*
X154614038Y-66966937D01*
X154614035Y-66966935D01*
X154456305Y-66852337D01*
X154456304Y-66852336D01*
X154278197Y-66773037D01*
X154278191Y-66773035D01*
X154122289Y-66739898D01*
X154087484Y-66732500D01*
X153892516Y-66732500D01*
X153859086Y-66739605D01*
X153701808Y-66773035D01*
X153701803Y-66773037D01*
X153523696Y-66852336D01*
X153523691Y-66852339D01*
X153365969Y-66966930D01*
X153365963Y-66966935D01*
X153235501Y-67111827D01*
X153138020Y-67280670D01*
X153138019Y-67280671D01*
X153077771Y-67466098D01*
X153077771Y-67466100D01*
X153062500Y-67611392D01*
X153062500Y-68508608D01*
X152377500Y-68508608D01*
X152377500Y-66847442D01*
X152370102Y-66810252D01*
X152345235Y-66773036D01*
X152341922Y-66768077D01*
X152299749Y-66739898D01*
X152262559Y-66732500D01*
X152262558Y-66732500D01*
X150637442Y-66732500D01*
X150637441Y-66732500D01*
X150600250Y-66739898D01*
X150558077Y-66768077D01*
X150529898Y-66810250D01*
X150522500Y-66847441D01*
X150522500Y-69272558D01*
X109780500Y-69272558D01*
X109780500Y-65440002D01*
X147095034Y-65440002D01*
X147114858Y-65666599D01*
X147114860Y-65666610D01*
X147173730Y-65886317D01*
X147173734Y-65886326D01*
X147269865Y-66092481D01*
X147269866Y-66092483D01*
X147320973Y-66165471D01*
X147320974Y-66165472D01*
X148002046Y-65484399D01*
X148014835Y-65565148D01*
X148072359Y-65678045D01*
X148161955Y-65767641D01*
X148274852Y-65825165D01*
X148355599Y-65837953D01*
X147674526Y-66519025D01*
X147674526Y-66519026D01*
X147747512Y-66570131D01*
X147747516Y-66570133D01*
X147953673Y-66666265D01*
X147953682Y-66666269D01*
X148173389Y-66725139D01*
X148173400Y-66725141D01*
X148399998Y-66744966D01*
X148400002Y-66744966D01*
X148626599Y-66725141D01*
X148626610Y-66725139D01*
X148846317Y-66666269D01*
X148846331Y-66666264D01*
X149052478Y-66570136D01*
X149125472Y-66519025D01*
X148444401Y-65837953D01*
X148525148Y-65825165D01*
X148638045Y-65767641D01*
X148727641Y-65678045D01*
X148785165Y-65565148D01*
X148797953Y-65484400D01*
X149479025Y-66165472D01*
X149530136Y-66092478D01*
X149626264Y-65886331D01*
X149626269Y-65886317D01*
X149685139Y-65666610D01*
X149685141Y-65666599D01*
X149704966Y-65440002D01*
X149704966Y-65439997D01*
X149685141Y-65213400D01*
X149685139Y-65213389D01*
X149626269Y-64993682D01*
X149626265Y-64993673D01*
X149530133Y-64787516D01*
X149530131Y-64787512D01*
X149479026Y-64714526D01*
X149479025Y-64714526D01*
X148797953Y-65395598D01*
X148785165Y-65314852D01*
X148727641Y-65201955D01*
X148638045Y-65112359D01*
X148525148Y-65054835D01*
X148444400Y-65042046D01*
X149125472Y-64360974D01*
X149125471Y-64360973D01*
X149052483Y-64309866D01*
X149052481Y-64309865D01*
X148846326Y-64213734D01*
X148846317Y-64213730D01*
X148626610Y-64154860D01*
X148626599Y-64154858D01*
X148400002Y-64135034D01*
X148399998Y-64135034D01*
X148173400Y-64154858D01*
X148173389Y-64154860D01*
X147953682Y-64213730D01*
X147953673Y-64213734D01*
X147747513Y-64309868D01*
X147674527Y-64360972D01*
X147674526Y-64360973D01*
X148355600Y-65042046D01*
X148274852Y-65054835D01*
X148161955Y-65112359D01*
X148072359Y-65201955D01*
X148014835Y-65314852D01*
X148002046Y-65395599D01*
X147320973Y-64714526D01*
X147320972Y-64714527D01*
X147269868Y-64787513D01*
X147173734Y-64993673D01*
X147173730Y-64993682D01*
X147114860Y-65213389D01*
X147114858Y-65213400D01*
X147095034Y-65439997D01*
X147095034Y-65440002D01*
X109780500Y-65440002D01*
X109780500Y-64192558D01*
X144002500Y-64192558D01*
X144009898Y-64229749D01*
X144038077Y-64271922D01*
X144080250Y-64300101D01*
X144080252Y-64300102D01*
X144108205Y-64305662D01*
X144117441Y-64307500D01*
X144117442Y-64307500D01*
X145842559Y-64307500D01*
X145849957Y-64306028D01*
X145879748Y-64300102D01*
X145921922Y-64271922D01*
X145950102Y-64229748D01*
X145957500Y-64192558D01*
X145957500Y-62467442D01*
X145950102Y-62430252D01*
X145950101Y-62430250D01*
X145921922Y-62388077D01*
X145879749Y-62359898D01*
X145842559Y-62352500D01*
X145842558Y-62352500D01*
X144117442Y-62352500D01*
X144117441Y-62352500D01*
X144080250Y-62359898D01*
X144038077Y-62388077D01*
X144009898Y-62430250D01*
X144002500Y-62467441D01*
X144002500Y-64192558D01*
X109780500Y-64192558D01*
X109780500Y-63020003D01*
X127237794Y-63020003D01*
X127256498Y-63138104D01*
X127256498Y-63138105D01*
X127310790Y-63244657D01*
X127395342Y-63329209D01*
X127395344Y-63329210D01*
X127395345Y-63329211D01*
X127501892Y-63383500D01*
X127501893Y-63383500D01*
X127501895Y-63383501D01*
X127619997Y-63402206D01*
X127620000Y-63402206D01*
X127620003Y-63402206D01*
X127738104Y-63383501D01*
X127738105Y-63383501D01*
X127738106Y-63383500D01*
X127738108Y-63383500D01*
X127844655Y-63329211D01*
X127929211Y-63244655D01*
X127983500Y-63138108D01*
X127983500Y-63138106D01*
X127983501Y-63138105D01*
X127983501Y-63138104D01*
X128002206Y-63020002D01*
X128002206Y-63010888D01*
X128021891Y-62943849D01*
X128038525Y-62923207D01*
X128059840Y-62901892D01*
X128297490Y-62664242D01*
X128299365Y-62662699D01*
X128302409Y-62659629D01*
X128302693Y-62659472D01*
X128338653Y-62623082D01*
X128338654Y-62623083D01*
X128338990Y-62622743D01*
X128354880Y-62606854D01*
X128354883Y-62606848D01*
X128356262Y-62605470D01*
X128357701Y-62603862D01*
X128397886Y-62563319D01*
X128499330Y-62429042D01*
X128522396Y-62388078D01*
X128581895Y-62282406D01*
X128581898Y-62282401D01*
X128644106Y-62126033D01*
X128645893Y-62118871D01*
X128684834Y-61962756D01*
X128684836Y-61962748D01*
X128688084Y-61933474D01*
X128693027Y-61915240D01*
X128692788Y-61915190D01*
X128695499Y-61902437D01*
X128695499Y-61870061D01*
X128695876Y-61863232D01*
X128696503Y-61857560D01*
X128699097Y-61834139D01*
X128699095Y-61834133D01*
X128698061Y-61822141D01*
X128695499Y-61804113D01*
X128695499Y-61210000D01*
X132737770Y-61210000D01*
X132756643Y-61401626D01*
X132812538Y-61585884D01*
X132903302Y-61755692D01*
X132903306Y-61755699D01*
X133025458Y-61904541D01*
X133174300Y-62026693D01*
X133174307Y-62026697D01*
X133344115Y-62117461D01*
X133344117Y-62117462D01*
X133528376Y-62173357D01*
X133720000Y-62192230D01*
X133911624Y-62173357D01*
X134095883Y-62117462D01*
X134265698Y-62026694D01*
X134414541Y-61904541D01*
X134536694Y-61755698D01*
X134627462Y-61585883D01*
X134683357Y-61401624D01*
X134702230Y-61210000D01*
X135277770Y-61210000D01*
X135296643Y-61401626D01*
X135352538Y-61585884D01*
X135443302Y-61755692D01*
X135443306Y-61755699D01*
X135565458Y-61904541D01*
X135714300Y-62026693D01*
X135714307Y-62026697D01*
X135884115Y-62117461D01*
X135884117Y-62117462D01*
X136068376Y-62173357D01*
X136260000Y-62192230D01*
X136451624Y-62173357D01*
X136635883Y-62117462D01*
X136805698Y-62026694D01*
X136954541Y-61904541D01*
X137076694Y-61755698D01*
X137167462Y-61585883D01*
X137223357Y-61401624D01*
X137242230Y-61210000D01*
X137223357Y-61018376D01*
X137167462Y-60834117D01*
X137090430Y-60690000D01*
X137076697Y-60664307D01*
X137076693Y-60664300D01*
X136954541Y-60515458D01*
X136805699Y-60393306D01*
X136805692Y-60393302D01*
X136635884Y-60302538D01*
X136451626Y-60246643D01*
X136260000Y-60227770D01*
X136068373Y-60246643D01*
X135884115Y-60302538D01*
X135714307Y-60393302D01*
X135714300Y-60393306D01*
X135565458Y-60515458D01*
X135443306Y-60664300D01*
X135443302Y-60664307D01*
X135352538Y-60834115D01*
X135296643Y-61018373D01*
X135277770Y-61210000D01*
X134702230Y-61210000D01*
X134683357Y-61018376D01*
X134627462Y-60834117D01*
X134550430Y-60690000D01*
X134536697Y-60664307D01*
X134536693Y-60664300D01*
X134414541Y-60515458D01*
X134265699Y-60393306D01*
X134265692Y-60393302D01*
X134095884Y-60302538D01*
X133911626Y-60246643D01*
X133720000Y-60227770D01*
X133528373Y-60246643D01*
X133344115Y-60302538D01*
X133174307Y-60393302D01*
X133174300Y-60393306D01*
X133025458Y-60515458D01*
X132903306Y-60664300D01*
X132903302Y-60664307D01*
X132812538Y-60834115D01*
X132756643Y-61018373D01*
X132737770Y-61210000D01*
X128695499Y-61210000D01*
X128695499Y-60669729D01*
X128715184Y-60602690D01*
X128731819Y-60582047D01*
X128748718Y-60565148D01*
X128769211Y-60544655D01*
X128823500Y-60438108D01*
X128823500Y-60438106D01*
X128823501Y-60438105D01*
X128823501Y-60438104D01*
X128842206Y-60320003D01*
X128842206Y-60319996D01*
X128823501Y-60201895D01*
X128823501Y-60201894D01*
X128769209Y-60095342D01*
X128684657Y-60010790D01*
X128578104Y-59956498D01*
X128460003Y-59937794D01*
X128459997Y-59937794D01*
X128341895Y-59956498D01*
X128341894Y-59956498D01*
X128235342Y-60010790D01*
X128150790Y-60095342D01*
X128096498Y-60201894D01*
X128096498Y-60201895D01*
X128077794Y-60319996D01*
X128077794Y-60320003D01*
X128096498Y-60438104D01*
X128096498Y-60438105D01*
X128108620Y-60461895D01*
X128150789Y-60544655D01*
X128204181Y-60598047D01*
X128237665Y-60659368D01*
X128240499Y-60685727D01*
X128240499Y-61823992D01*
X128238169Y-61847915D01*
X128218120Y-61949884D01*
X128212420Y-61969859D01*
X128172512Y-62075288D01*
X128163556Y-62094032D01*
X128106607Y-62191320D01*
X128094647Y-62208306D01*
X128017364Y-62300562D01*
X128013675Y-62304590D01*
X127716791Y-62601475D01*
X127655468Y-62634960D01*
X127629110Y-62637794D01*
X127619997Y-62637794D01*
X127501895Y-62656498D01*
X127501894Y-62656498D01*
X127395342Y-62710790D01*
X127310790Y-62795342D01*
X127256498Y-62901894D01*
X127256498Y-62901895D01*
X127237794Y-63019996D01*
X127237794Y-63020003D01*
X109780500Y-63020003D01*
X109780500Y-59764612D01*
X125041900Y-59764612D01*
X125041911Y-59883918D01*
X125068478Y-60017416D01*
X125068479Y-60017421D01*
X125120583Y-60143174D01*
X125120583Y-60143175D01*
X125196222Y-60256347D01*
X125242385Y-60302500D01*
X125378443Y-60438558D01*
X125411928Y-60499881D01*
X125413236Y-60545633D01*
X125407794Y-60579999D01*
X125407794Y-60580003D01*
X125426498Y-60698104D01*
X125426498Y-60698105D01*
X125480790Y-60804657D01*
X125565342Y-60889209D01*
X125565344Y-60889210D01*
X125565345Y-60889211D01*
X125671892Y-60943500D01*
X125671893Y-60943500D01*
X125671895Y-60943501D01*
X125789997Y-60962206D01*
X125790000Y-60962206D01*
X125790003Y-60962206D01*
X125908104Y-60943501D01*
X125908105Y-60943501D01*
X125908106Y-60943500D01*
X125908108Y-60943500D01*
X126014655Y-60889211D01*
X126099211Y-60804655D01*
X126153500Y-60698108D01*
X126153500Y-60698106D01*
X126153501Y-60698105D01*
X126153501Y-60698104D01*
X126172206Y-60580003D01*
X126172206Y-60579996D01*
X126153501Y-60461895D01*
X126153501Y-60461894D01*
X126142345Y-60440000D01*
X126099211Y-60355345D01*
X126099210Y-60355344D01*
X126099209Y-60355342D01*
X126014657Y-60270790D01*
X125930226Y-60227770D01*
X125908108Y-60216500D01*
X125908107Y-60216499D01*
X125908104Y-60216498D01*
X125790003Y-60197794D01*
X125789999Y-60197794D01*
X125755633Y-60203236D01*
X125686340Y-60194279D01*
X125648558Y-60168443D01*
X125550921Y-60070806D01*
X125550885Y-60070761D01*
X125517306Y-60037190D01*
X125511957Y-60031091D01*
X125475254Y-59983271D01*
X125459070Y-59955245D01*
X125458034Y-59952745D01*
X125440689Y-59910883D01*
X125432308Y-59879614D01*
X125424479Y-59820176D01*
X125423947Y-59812071D01*
X125423947Y-58670000D01*
X132737770Y-58670000D01*
X132756643Y-58861626D01*
X132812538Y-59045884D01*
X132903302Y-59215692D01*
X132903306Y-59215699D01*
X133025458Y-59364541D01*
X133174300Y-59486693D01*
X133174307Y-59486697D01*
X133298417Y-59553035D01*
X133344117Y-59577462D01*
X133528376Y-59633357D01*
X133720000Y-59652230D01*
X133911624Y-59633357D01*
X134095883Y-59577462D01*
X134265698Y-59486694D01*
X134414541Y-59364541D01*
X134536694Y-59215698D01*
X134627462Y-59045883D01*
X134683357Y-58861624D01*
X134702230Y-58670000D01*
X135277770Y-58670000D01*
X135296643Y-58861626D01*
X135352538Y-59045884D01*
X135443302Y-59215692D01*
X135443306Y-59215699D01*
X135565458Y-59364541D01*
X135714300Y-59486693D01*
X135714307Y-59486697D01*
X135838417Y-59553035D01*
X135884117Y-59577462D01*
X136068376Y-59633357D01*
X136260000Y-59652230D01*
X136451624Y-59633357D01*
X136635883Y-59577462D01*
X136719892Y-59532558D01*
X137822500Y-59532558D01*
X137829898Y-59569749D01*
X137858077Y-59611922D01*
X137900250Y-59640101D01*
X137900252Y-59640102D01*
X137928205Y-59645662D01*
X137937441Y-59647500D01*
X137937442Y-59647500D01*
X139662559Y-59647500D01*
X139669957Y-59646028D01*
X139699748Y-59640102D01*
X139741922Y-59611922D01*
X139770102Y-59569748D01*
X139777500Y-59532558D01*
X139777500Y-57807442D01*
X139770102Y-57770252D01*
X139764948Y-57762538D01*
X139741922Y-57728077D01*
X139699749Y-57699898D01*
X139662559Y-57692500D01*
X139662558Y-57692500D01*
X137937442Y-57692500D01*
X137937441Y-57692500D01*
X137900250Y-57699898D01*
X137858077Y-57728077D01*
X137829898Y-57770250D01*
X137822500Y-57807441D01*
X137822500Y-59532558D01*
X136719892Y-59532558D01*
X136805698Y-59486694D01*
X136954541Y-59364541D01*
X137076694Y-59215698D01*
X137167462Y-59045883D01*
X137223357Y-58861624D01*
X137242230Y-58670000D01*
X137223357Y-58478376D01*
X137167462Y-58294117D01*
X137116733Y-58199209D01*
X137076697Y-58124307D01*
X137076693Y-58124300D01*
X136954541Y-57975458D01*
X136805699Y-57853306D01*
X136805692Y-57853302D01*
X136635884Y-57762538D01*
X136451626Y-57706643D01*
X136260000Y-57687770D01*
X136068373Y-57706643D01*
X135884115Y-57762538D01*
X135714307Y-57853302D01*
X135714300Y-57853306D01*
X135565458Y-57975458D01*
X135443306Y-58124300D01*
X135443302Y-58124307D01*
X135352538Y-58294115D01*
X135296643Y-58478373D01*
X135277770Y-58670000D01*
X134702230Y-58670000D01*
X134683357Y-58478376D01*
X134627462Y-58294117D01*
X134576733Y-58199209D01*
X134536697Y-58124307D01*
X134536693Y-58124300D01*
X134414541Y-57975458D01*
X134265699Y-57853306D01*
X134265692Y-57853302D01*
X134095884Y-57762538D01*
X133911626Y-57706643D01*
X133720000Y-57687770D01*
X133528373Y-57706643D01*
X133344115Y-57762538D01*
X133174307Y-57853302D01*
X133174300Y-57853306D01*
X133025458Y-57975458D01*
X132903306Y-58124300D01*
X132903302Y-58124307D01*
X132812538Y-58294115D01*
X132756643Y-58478373D01*
X132737770Y-58670000D01*
X125423947Y-58670000D01*
X125423947Y-58418247D01*
X125424479Y-58410140D01*
X125428448Y-58380009D01*
X125456721Y-58316115D01*
X125515049Y-58277650D01*
X125540380Y-58273854D01*
X125540361Y-58273733D01*
X125668104Y-58253501D01*
X125668105Y-58253501D01*
X125668106Y-58253500D01*
X125668108Y-58253500D01*
X125774655Y-58199211D01*
X125859211Y-58114655D01*
X125913500Y-58008108D01*
X125913500Y-58008106D01*
X125913501Y-58008105D01*
X125913501Y-58008104D01*
X125932206Y-57890003D01*
X125932206Y-57889996D01*
X125913501Y-57771895D01*
X125913501Y-57771894D01*
X125891175Y-57728077D01*
X125859211Y-57665345D01*
X125859210Y-57665344D01*
X125859209Y-57665342D01*
X125774657Y-57580790D01*
X125668104Y-57526498D01*
X125550003Y-57507794D01*
X125549997Y-57507794D01*
X125431895Y-57526498D01*
X125431894Y-57526498D01*
X125325342Y-57580790D01*
X125240790Y-57665342D01*
X125186498Y-57771894D01*
X125186498Y-57771895D01*
X125167794Y-57889996D01*
X125167794Y-57889997D01*
X125167794Y-57890000D01*
X125174911Y-57934940D01*
X125176367Y-57944131D01*
X125167411Y-58013424D01*
X125156989Y-58032427D01*
X125120622Y-58086841D01*
X125068519Y-58212592D01*
X125041953Y-58346086D01*
X125041953Y-58346087D01*
X125041948Y-58391573D01*
X125041947Y-58391592D01*
X125041947Y-58414145D01*
X125041943Y-58464704D01*
X125041947Y-58464743D01*
X125041947Y-59764452D01*
X125041900Y-59764612D01*
X109780500Y-59764612D01*
X109780500Y-51462558D01*
X135012500Y-51462558D01*
X135019898Y-51499749D01*
X135048077Y-51541922D01*
X135090250Y-51570101D01*
X135090252Y-51570102D01*
X135118205Y-51575662D01*
X135127441Y-51577500D01*
X135127442Y-51577500D01*
X136852559Y-51577500D01*
X136859957Y-51576028D01*
X136889748Y-51570102D01*
X136931922Y-51541922D01*
X136960102Y-51499748D01*
X136967500Y-51462558D01*
X136967500Y-50600000D01*
X137547770Y-50600000D01*
X137566643Y-50791626D01*
X137622538Y-50975884D01*
X137713302Y-51145692D01*
X137713306Y-51145699D01*
X137835458Y-51294541D01*
X137984300Y-51416693D01*
X137984303Y-51416695D01*
X138029198Y-51440691D01*
X138136954Y-51498288D01*
X138186797Y-51547248D01*
X138202500Y-51607645D01*
X138202500Y-52496874D01*
X138202509Y-52497091D01*
X138202509Y-52552792D01*
X138225219Y-52725315D01*
X138225220Y-52725317D01*
X138270255Y-52893402D01*
X138289123Y-52938955D01*
X138336849Y-53054180D01*
X138423856Y-53204884D01*
X138423858Y-53204886D01*
X138423860Y-53204890D01*
X138480045Y-53278113D01*
X138529790Y-53342943D01*
X138532720Y-53345873D01*
X138532725Y-53345883D01*
X138532728Y-53345881D01*
X138635055Y-53448211D01*
X138635068Y-53448222D01*
X140353373Y-55166528D01*
X140357454Y-55171030D01*
X140431413Y-55261153D01*
X140444914Y-55281358D01*
X140495546Y-55376086D01*
X140504848Y-55398544D01*
X140536025Y-55501325D01*
X140540766Y-55525165D01*
X140547658Y-55595150D01*
X140552201Y-55641275D01*
X140552500Y-55647355D01*
X140552500Y-59952745D01*
X140552201Y-59958824D01*
X140540777Y-60074834D01*
X140536035Y-60098676D01*
X140504857Y-60201459D01*
X140495555Y-60223917D01*
X140444924Y-60318644D01*
X140431418Y-60338857D01*
X140357531Y-60428888D01*
X140353443Y-60433399D01*
X140123949Y-60662897D01*
X140103469Y-60683375D01*
X140098960Y-60687462D01*
X140008853Y-60761409D01*
X139988641Y-60774914D01*
X139893913Y-60825546D01*
X139871454Y-60834848D01*
X139828058Y-60848011D01*
X139758191Y-60848633D01*
X139699079Y-60811384D01*
X139682707Y-60787803D01*
X139616697Y-60664307D01*
X139616693Y-60664300D01*
X139494541Y-60515458D01*
X139345699Y-60393306D01*
X139345692Y-60393302D01*
X139175884Y-60302538D01*
X138991626Y-60246643D01*
X138800000Y-60227770D01*
X138608373Y-60246643D01*
X138424115Y-60302538D01*
X138254307Y-60393302D01*
X138254300Y-60393306D01*
X138105458Y-60515458D01*
X137983306Y-60664300D01*
X137983302Y-60664307D01*
X137892538Y-60834115D01*
X137836643Y-61018373D01*
X137817770Y-61210000D01*
X137836643Y-61401626D01*
X137892538Y-61585884D01*
X137983302Y-61755692D01*
X137983306Y-61755699D01*
X138105458Y-61904541D01*
X138254300Y-62026693D01*
X138254307Y-62026697D01*
X138424115Y-62117461D01*
X138424117Y-62117462D01*
X138608376Y-62173357D01*
X138800000Y-62192230D01*
X138991624Y-62173357D01*
X139175883Y-62117462D01*
X139345698Y-62026694D01*
X139494541Y-61904541D01*
X139616694Y-61755698D01*
X139704858Y-61590753D01*
X139753818Y-61540911D01*
X139798027Y-61526269D01*
X139885319Y-61514779D01*
X139968537Y-61492482D01*
X140053402Y-61469744D01*
X140053404Y-61469742D01*
X140053408Y-61469742D01*
X140214180Y-61403151D01*
X140364884Y-61316144D01*
X140502943Y-61210210D01*
X140505877Y-61207275D01*
X140505881Y-61207273D01*
X140564468Y-61148687D01*
X140601147Y-61112009D01*
X140601147Y-61112008D01*
X140613057Y-61100099D01*
X140613066Y-61100086D01*
X140771799Y-60941354D01*
X140771807Y-60941349D01*
X140782363Y-60930794D01*
X140782393Y-60930777D01*
X140818694Y-60894475D01*
X140880218Y-60832949D01*
X140986152Y-60694890D01*
X141073160Y-60544184D01*
X141116313Y-60440000D01*
X147467391Y-60440000D01*
X147487771Y-60633901D01*
X147548019Y-60819328D01*
X147548020Y-60819329D01*
X147645501Y-60988172D01*
X147645503Y-60988174D01*
X147775963Y-61133064D01*
X147894695Y-61219328D01*
X147933695Y-61247663D01*
X148111802Y-61326962D01*
X148111808Y-61326964D01*
X148302516Y-61367500D01*
X148302517Y-61367500D01*
X148497482Y-61367500D01*
X148497484Y-61367500D01*
X148688192Y-61326964D01*
X148688194Y-61326962D01*
X148688197Y-61326962D01*
X148779466Y-61286326D01*
X148866305Y-61247663D01*
X149024037Y-61133064D01*
X149154497Y-60988174D01*
X149211981Y-60888608D01*
X150522500Y-60888608D01*
X150528270Y-60943501D01*
X150537771Y-61033901D01*
X150598019Y-61219328D01*
X150598020Y-61219329D01*
X150695501Y-61388172D01*
X150819838Y-61526261D01*
X150825963Y-61533064D01*
X150983691Y-61647660D01*
X150983695Y-61647663D01*
X151161802Y-61726962D01*
X151161808Y-61726964D01*
X151352516Y-61767500D01*
X151352517Y-61767500D01*
X151547482Y-61767500D01*
X151547484Y-61767500D01*
X151738192Y-61726964D01*
X151916304Y-61647663D01*
X152074037Y-61533064D01*
X152204497Y-61388174D01*
X152301981Y-61219326D01*
X152362229Y-61033900D01*
X152377500Y-60888608D01*
X153062500Y-60888608D01*
X153068270Y-60943501D01*
X153077771Y-61033901D01*
X153138019Y-61219328D01*
X153138020Y-61219329D01*
X153235501Y-61388172D01*
X153359838Y-61526261D01*
X153365963Y-61533064D01*
X153523691Y-61647660D01*
X153523695Y-61647663D01*
X153701802Y-61726962D01*
X153701808Y-61726964D01*
X153892516Y-61767500D01*
X153892517Y-61767500D01*
X154087482Y-61767500D01*
X154087484Y-61767500D01*
X154278192Y-61726964D01*
X154456304Y-61647663D01*
X154614037Y-61533064D01*
X154744497Y-61388174D01*
X154841981Y-61219326D01*
X154902229Y-61033900D01*
X154917500Y-60888608D01*
X155602500Y-60888608D01*
X155608270Y-60943501D01*
X155617771Y-61033901D01*
X155678019Y-61219328D01*
X155678020Y-61219329D01*
X155775501Y-61388172D01*
X155899838Y-61526261D01*
X155905963Y-61533064D01*
X156063691Y-61647660D01*
X156063695Y-61647663D01*
X156241802Y-61726962D01*
X156241808Y-61726964D01*
X156432516Y-61767500D01*
X156432517Y-61767500D01*
X156627482Y-61767500D01*
X156627484Y-61767500D01*
X156818192Y-61726964D01*
X156996304Y-61647663D01*
X157154037Y-61533064D01*
X157284497Y-61388174D01*
X157381981Y-61219326D01*
X157442229Y-61033900D01*
X157457500Y-60888608D01*
X157457500Y-59991392D01*
X157442229Y-59846100D01*
X157381981Y-59660674D01*
X157381980Y-59660673D01*
X157381980Y-59660671D01*
X157381979Y-59660670D01*
X157284498Y-59491827D01*
X157154038Y-59346937D01*
X157154035Y-59346935D01*
X156996305Y-59232337D01*
X156996304Y-59232336D01*
X156818197Y-59153037D01*
X156818191Y-59153035D01*
X156668019Y-59121115D01*
X156627484Y-59112500D01*
X156432516Y-59112500D01*
X156399086Y-59119605D01*
X156241808Y-59153035D01*
X156241803Y-59153037D01*
X156063696Y-59232336D01*
X156063691Y-59232339D01*
X155905969Y-59346930D01*
X155905963Y-59346935D01*
X155775501Y-59491827D01*
X155678020Y-59660670D01*
X155678019Y-59660671D01*
X155617771Y-59846098D01*
X155617771Y-59846100D01*
X155602500Y-59991392D01*
X155602500Y-60888608D01*
X154917500Y-60888608D01*
X154917500Y-59991392D01*
X154902229Y-59846100D01*
X154841981Y-59660674D01*
X154841980Y-59660673D01*
X154841980Y-59660671D01*
X154841979Y-59660670D01*
X154744498Y-59491827D01*
X154614038Y-59346937D01*
X154614035Y-59346935D01*
X154456305Y-59232337D01*
X154456304Y-59232336D01*
X154278197Y-59153037D01*
X154278191Y-59153035D01*
X154128019Y-59121115D01*
X154087484Y-59112500D01*
X153892516Y-59112500D01*
X153859086Y-59119605D01*
X153701808Y-59153035D01*
X153701803Y-59153037D01*
X153523696Y-59232336D01*
X153523691Y-59232339D01*
X153365969Y-59346930D01*
X153365963Y-59346935D01*
X153235501Y-59491827D01*
X153138020Y-59660670D01*
X153138019Y-59660671D01*
X153077771Y-59846098D01*
X153077771Y-59846100D01*
X153062500Y-59991392D01*
X153062500Y-60888608D01*
X152377500Y-60888608D01*
X152377500Y-59991392D01*
X152362229Y-59846100D01*
X152301981Y-59660674D01*
X152301980Y-59660673D01*
X152301980Y-59660671D01*
X152301979Y-59660670D01*
X152204498Y-59491827D01*
X152074038Y-59346937D01*
X152074035Y-59346935D01*
X151916305Y-59232337D01*
X151916304Y-59232336D01*
X151738197Y-59153037D01*
X151738191Y-59153035D01*
X151588019Y-59121115D01*
X151547484Y-59112500D01*
X151352516Y-59112500D01*
X151319086Y-59119605D01*
X151161808Y-59153035D01*
X151161803Y-59153037D01*
X150983696Y-59232336D01*
X150983691Y-59232339D01*
X150825969Y-59346930D01*
X150825963Y-59346935D01*
X150695501Y-59491827D01*
X150598020Y-59660670D01*
X150598019Y-59660671D01*
X150537771Y-59846098D01*
X150537771Y-59846100D01*
X150522500Y-59991392D01*
X150522500Y-60888608D01*
X149211981Y-60888608D01*
X149251981Y-60819326D01*
X149312229Y-60633900D01*
X149332609Y-60440000D01*
X149312229Y-60246100D01*
X149251981Y-60060674D01*
X149251980Y-60060673D01*
X149251980Y-60060671D01*
X149251979Y-60060670D01*
X149154498Y-59891827D01*
X149024038Y-59746937D01*
X149024035Y-59746935D01*
X148905308Y-59660674D01*
X148866304Y-59632336D01*
X148688197Y-59553037D01*
X148688191Y-59553035D01*
X148538019Y-59521115D01*
X148497484Y-59512500D01*
X148302516Y-59512500D01*
X148269086Y-59519605D01*
X148111808Y-59553035D01*
X148111803Y-59553037D01*
X147933696Y-59632336D01*
X147933691Y-59632339D01*
X147775969Y-59746930D01*
X147775963Y-59746935D01*
X147645501Y-59891827D01*
X147548020Y-60060670D01*
X147548019Y-60060671D01*
X147487771Y-60246098D01*
X147467391Y-60440000D01*
X141116313Y-60440000D01*
X141139752Y-60383411D01*
X141154220Y-60329415D01*
X141184473Y-60216500D01*
X141184789Y-60215321D01*
X141186557Y-60201895D01*
X141200144Y-60098676D01*
X141207501Y-60042791D01*
X141207500Y-59955781D01*
X141207500Y-59937794D01*
X141207500Y-57590000D01*
X156792777Y-57590000D01*
X156811629Y-57793449D01*
X156867545Y-57989977D01*
X156958620Y-58172878D01*
X157081753Y-58335933D01*
X157232748Y-58473582D01*
X157232750Y-58473584D01*
X157406464Y-58581143D01*
X157406466Y-58581144D01*
X157406468Y-58581145D01*
X157596994Y-58654955D01*
X157797838Y-58692500D01*
X157797841Y-58692500D01*
X158002159Y-58692500D01*
X158002162Y-58692500D01*
X158203006Y-58654955D01*
X158393532Y-58581145D01*
X158567251Y-58473583D01*
X158707106Y-58346088D01*
X158718246Y-58335933D01*
X158749824Y-58294117D01*
X158841380Y-58172878D01*
X158932455Y-57989975D01*
X158988370Y-57793452D01*
X159007223Y-57590000D01*
X158988370Y-57386548D01*
X158932455Y-57190025D01*
X158841380Y-57007122D01*
X158718248Y-56844069D01*
X158718246Y-56844066D01*
X158567251Y-56706417D01*
X158567249Y-56706415D01*
X158393535Y-56598856D01*
X158393526Y-56598852D01*
X158250637Y-56543497D01*
X158203006Y-56525045D01*
X158002162Y-56487500D01*
X157797838Y-56487500D01*
X157598492Y-56524765D01*
X157596994Y-56525045D01*
X157596991Y-56525046D01*
X157406473Y-56598852D01*
X157406464Y-56598856D01*
X157232750Y-56706415D01*
X157232748Y-56706417D01*
X157081753Y-56844066D01*
X156958620Y-57007121D01*
X156867545Y-57190022D01*
X156811629Y-57386550D01*
X156792777Y-57590000D01*
X141207500Y-57590000D01*
X141207500Y-55615562D01*
X141207500Y-55612902D01*
X141207490Y-55612682D01*
X141207491Y-55557210D01*
X141186604Y-55398544D01*
X141184780Y-55384684D01*
X141184779Y-55384682D01*
X141139744Y-55216597D01*
X141120874Y-55171039D01*
X141087310Y-55090005D01*
X151419945Y-55090005D01*
X151440130Y-55333605D01*
X151500138Y-55570573D01*
X151598328Y-55794424D01*
X151694626Y-55941820D01*
X152297452Y-55338993D01*
X152307188Y-55368956D01*
X152395186Y-55507619D01*
X152514903Y-55620040D01*
X152649510Y-55694041D01*
X152047757Y-56295793D01*
X152047758Y-56295794D01*
X152090485Y-56329050D01*
X152090485Y-56329051D01*
X152305468Y-56445394D01*
X152305476Y-56445397D01*
X152536664Y-56524765D01*
X152777779Y-56565000D01*
X153022221Y-56565000D01*
X153263335Y-56524765D01*
X153494523Y-56445397D01*
X153494531Y-56445394D01*
X153709515Y-56329050D01*
X153709516Y-56329048D01*
X153752240Y-56295794D01*
X153752241Y-56295793D01*
X153147534Y-55691086D01*
X153215629Y-55664126D01*
X153348492Y-55567595D01*
X153453175Y-55441055D01*
X153501631Y-55338079D01*
X154105372Y-55941820D01*
X154201669Y-55794429D01*
X154299861Y-55570573D01*
X154359869Y-55333605D01*
X154380055Y-55090005D01*
X154380055Y-55090000D01*
X161792777Y-55090000D01*
X161811629Y-55293449D01*
X161867545Y-55489977D01*
X161958620Y-55672878D01*
X162081753Y-55835933D01*
X162232748Y-55973582D01*
X162232750Y-55973584D01*
X162406464Y-56081143D01*
X162406466Y-56081144D01*
X162406468Y-56081145D01*
X162596994Y-56154955D01*
X162797838Y-56192500D01*
X162797841Y-56192500D01*
X163002159Y-56192500D01*
X163002162Y-56192500D01*
X163203006Y-56154955D01*
X163393532Y-56081145D01*
X163567251Y-55973583D01*
X163718248Y-55835931D01*
X163841380Y-55672878D01*
X163932455Y-55489975D01*
X163988370Y-55293452D01*
X164007223Y-55090000D01*
X163988370Y-54886548D01*
X163932455Y-54690025D01*
X163923669Y-54672381D01*
X163845738Y-54515874D01*
X163841380Y-54507122D01*
X163718248Y-54344069D01*
X163718246Y-54344066D01*
X163567251Y-54206417D01*
X163567249Y-54206415D01*
X163393535Y-54098856D01*
X163393526Y-54098852D01*
X163250637Y-54043497D01*
X163203006Y-54025045D01*
X163002162Y-53987500D01*
X162797838Y-53987500D01*
X162596994Y-54025045D01*
X162596991Y-54025046D01*
X162406473Y-54098852D01*
X162406464Y-54098856D01*
X162232750Y-54206415D01*
X162232748Y-54206417D01*
X162081753Y-54344066D01*
X161958620Y-54507121D01*
X161867545Y-54690022D01*
X161811629Y-54886550D01*
X161792777Y-55090000D01*
X154380055Y-55090000D01*
X154380055Y-55089994D01*
X154359869Y-54846394D01*
X154299861Y-54609426D01*
X154201671Y-54385575D01*
X154105372Y-54238178D01*
X153502546Y-54841004D01*
X153492812Y-54811044D01*
X153404814Y-54672381D01*
X153285097Y-54559960D01*
X153150489Y-54485958D01*
X153752240Y-53884205D01*
X153752240Y-53884204D01*
X153709514Y-53850949D01*
X153709514Y-53850948D01*
X153494531Y-53734605D01*
X153494523Y-53734602D01*
X153263335Y-53655234D01*
X153022221Y-53615000D01*
X152777779Y-53615000D01*
X152536664Y-53655234D01*
X152305476Y-53734602D01*
X152305468Y-53734605D01*
X152090484Y-53850949D01*
X152090478Y-53850953D01*
X152047758Y-53884203D01*
X152047758Y-53884205D01*
X152652466Y-54488913D01*
X152584371Y-54515874D01*
X152451508Y-54612405D01*
X152346825Y-54738945D01*
X152298368Y-54841921D01*
X151694625Y-54238178D01*
X151598329Y-54385572D01*
X151500138Y-54609426D01*
X151440130Y-54846394D01*
X151419945Y-55089994D01*
X151419945Y-55090005D01*
X141087310Y-55090005D01*
X141073151Y-55055820D01*
X140986144Y-54905116D01*
X140913962Y-54811044D01*
X140880210Y-54767056D01*
X140840506Y-54727352D01*
X140840479Y-54727323D01*
X140818687Y-54705532D01*
X140779688Y-54666531D01*
X140779665Y-54666510D01*
X139690712Y-53577558D01*
X149297500Y-53577558D01*
X149304898Y-53614749D01*
X149333077Y-53656922D01*
X149375250Y-53685101D01*
X149375252Y-53685102D01*
X149403205Y-53690662D01*
X149412441Y-53692500D01*
X149412442Y-53692500D01*
X151387559Y-53692500D01*
X151394957Y-53691028D01*
X151424748Y-53685102D01*
X151466922Y-53656922D01*
X151495102Y-53614748D01*
X151502500Y-53577558D01*
X151502500Y-52590000D01*
X156792777Y-52590000D01*
X156811629Y-52793449D01*
X156867545Y-52989977D01*
X156958620Y-53172878D01*
X157081753Y-53335933D01*
X157232748Y-53473582D01*
X157232750Y-53473584D01*
X157406464Y-53581143D01*
X157406466Y-53581144D01*
X157406468Y-53581145D01*
X157596994Y-53654955D01*
X157797838Y-53692500D01*
X157797841Y-53692500D01*
X158002159Y-53692500D01*
X158002162Y-53692500D01*
X158203006Y-53654955D01*
X158393532Y-53581145D01*
X158567251Y-53473583D01*
X158710556Y-53342943D01*
X158718246Y-53335933D01*
X158718248Y-53335931D01*
X158841380Y-53172878D01*
X158932455Y-52989975D01*
X158988370Y-52793452D01*
X159007223Y-52590000D01*
X164292777Y-52590000D01*
X164311629Y-52793449D01*
X164367545Y-52989977D01*
X164458620Y-53172878D01*
X164581753Y-53335933D01*
X164732748Y-53473582D01*
X164732750Y-53473584D01*
X164906464Y-53581143D01*
X164906466Y-53581144D01*
X164906468Y-53581145D01*
X165096994Y-53654955D01*
X165297838Y-53692500D01*
X165297841Y-53692500D01*
X165502159Y-53692500D01*
X165502162Y-53692500D01*
X165703006Y-53654955D01*
X165893532Y-53581145D01*
X166067251Y-53473583D01*
X166210556Y-53342943D01*
X166218246Y-53335933D01*
X166218248Y-53335931D01*
X166341380Y-53172878D01*
X166432455Y-52989975D01*
X166488370Y-52793452D01*
X166507223Y-52590000D01*
X166488370Y-52386548D01*
X166432455Y-52190025D01*
X166341380Y-52007122D01*
X166218248Y-51844069D01*
X166218246Y-51844066D01*
X166067251Y-51706417D01*
X166067249Y-51706415D01*
X165893535Y-51598856D01*
X165893526Y-51598852D01*
X165743174Y-51540606D01*
X165703006Y-51525045D01*
X165502162Y-51487500D01*
X165297838Y-51487500D01*
X165112545Y-51522138D01*
X165096994Y-51525045D01*
X165096991Y-51525046D01*
X164906473Y-51598852D01*
X164906464Y-51598856D01*
X164732750Y-51706415D01*
X164732748Y-51706417D01*
X164581753Y-51844066D01*
X164458620Y-52007121D01*
X164367545Y-52190022D01*
X164311629Y-52386550D01*
X164292777Y-52590000D01*
X159007223Y-52590000D01*
X158988370Y-52386548D01*
X158932455Y-52190025D01*
X158841380Y-52007122D01*
X158718248Y-51844069D01*
X158718246Y-51844066D01*
X158567251Y-51706417D01*
X158567249Y-51706415D01*
X158393535Y-51598856D01*
X158393526Y-51598852D01*
X158243174Y-51540606D01*
X158203006Y-51525045D01*
X158002162Y-51487500D01*
X157797838Y-51487500D01*
X157612545Y-51522138D01*
X157596994Y-51525045D01*
X157596991Y-51525046D01*
X157406473Y-51598852D01*
X157406464Y-51598856D01*
X157232750Y-51706415D01*
X157232748Y-51706417D01*
X157081753Y-51844066D01*
X156958620Y-52007121D01*
X156867545Y-52190022D01*
X156811629Y-52386550D01*
X156792777Y-52590000D01*
X151502500Y-52590000D01*
X151502500Y-51602442D01*
X151501786Y-51598855D01*
X151497538Y-51577500D01*
X151495102Y-51565252D01*
X151483072Y-51547248D01*
X151466922Y-51523077D01*
X151424749Y-51494898D01*
X151387559Y-51487500D01*
X151387558Y-51487500D01*
X149412442Y-51487500D01*
X149412441Y-51487500D01*
X149375250Y-51494898D01*
X149333077Y-51523077D01*
X149304898Y-51565250D01*
X149297500Y-51602441D01*
X149297500Y-53577558D01*
X139690712Y-53577558D01*
X139072423Y-52959269D01*
X139056619Y-52943464D01*
X139052534Y-52938955D01*
X139015155Y-52893408D01*
X138978584Y-52848844D01*
X138965087Y-52828644D01*
X138914451Y-52733908D01*
X138905153Y-52711460D01*
X138873972Y-52608666D01*
X138869233Y-52584840D01*
X138857799Y-52468723D01*
X138857500Y-52462643D01*
X138857500Y-51607645D01*
X138877185Y-51540606D01*
X138923045Y-51498288D01*
X139075698Y-51416694D01*
X139224541Y-51294541D01*
X139346694Y-51145698D01*
X139437462Y-50975883D01*
X139492012Y-50796056D01*
X139530308Y-50737621D01*
X139594120Y-50709165D01*
X139663187Y-50719725D01*
X139715581Y-50765949D01*
X139734199Y-50821242D01*
X139735431Y-50835318D01*
X139735432Y-50835326D01*
X139796566Y-51063483D01*
X139796570Y-51063492D01*
X139896399Y-51277578D01*
X140031894Y-51471082D01*
X140198917Y-51638105D01*
X140392421Y-51773600D01*
X140606507Y-51873429D01*
X140606516Y-51873433D01*
X140820000Y-51930634D01*
X140820000Y-51035501D01*
X140927685Y-51084680D01*
X141034237Y-51100000D01*
X141105763Y-51100000D01*
X141212315Y-51084680D01*
X141320000Y-51035501D01*
X141320000Y-51930633D01*
X141533483Y-51873433D01*
X141533492Y-51873429D01*
X141747578Y-51773600D01*
X141941082Y-51638105D01*
X142108105Y-51471082D01*
X142243600Y-51277578D01*
X142343429Y-51063492D01*
X142343432Y-51063486D01*
X142400636Y-50850000D01*
X141503686Y-50850000D01*
X141529493Y-50809844D01*
X141570000Y-50671889D01*
X141570000Y-50528111D01*
X141529493Y-50390156D01*
X141503686Y-50350000D01*
X142400636Y-50350000D01*
X142400635Y-50349999D01*
X142343432Y-50136513D01*
X142343429Y-50136507D01*
X142243600Y-49922422D01*
X142243599Y-49922420D01*
X142108113Y-49728926D01*
X142108108Y-49728920D01*
X141941082Y-49561894D01*
X141747578Y-49426399D01*
X141533492Y-49326570D01*
X141533486Y-49326567D01*
X141320000Y-49269364D01*
X141320000Y-50164498D01*
X141212315Y-50115320D01*
X141105763Y-50100000D01*
X141034237Y-50100000D01*
X140927685Y-50115320D01*
X140820000Y-50164498D01*
X140820000Y-49269364D01*
X140819999Y-49269364D01*
X140606513Y-49326567D01*
X140606507Y-49326570D01*
X140392422Y-49426399D01*
X140392420Y-49426400D01*
X140198926Y-49561886D01*
X140198920Y-49561891D01*
X140031891Y-49728920D01*
X140031886Y-49728926D01*
X139896400Y-49922420D01*
X139896399Y-49922422D01*
X139796570Y-50136507D01*
X139796566Y-50136516D01*
X139735432Y-50364673D01*
X139735431Y-50364681D01*
X139734199Y-50378757D01*
X139708743Y-50443825D01*
X139652150Y-50484801D01*
X139582388Y-50488675D01*
X139521605Y-50454219D01*
X139492012Y-50403942D01*
X139437462Y-50224117D01*
X139437460Y-50224114D01*
X139437460Y-50224112D01*
X139346697Y-50054307D01*
X139346693Y-50054300D01*
X139224541Y-49905458D01*
X139075699Y-49783306D01*
X139075692Y-49783302D01*
X138905884Y-49692538D01*
X138721626Y-49636643D01*
X138530000Y-49617770D01*
X138338373Y-49636643D01*
X138154115Y-49692538D01*
X137984307Y-49783302D01*
X137984300Y-49783306D01*
X137835458Y-49905458D01*
X137713306Y-50054300D01*
X137713302Y-50054307D01*
X137622538Y-50224115D01*
X137566643Y-50408373D01*
X137547770Y-50600000D01*
X136967500Y-50600000D01*
X136967500Y-49737442D01*
X136960102Y-49700252D01*
X136954948Y-49692538D01*
X136931922Y-49658077D01*
X136889749Y-49629898D01*
X136852559Y-49622500D01*
X136852558Y-49622500D01*
X135127442Y-49622500D01*
X135127441Y-49622500D01*
X135090250Y-49629898D01*
X135048077Y-49658077D01*
X135019898Y-49700250D01*
X135012500Y-49737441D01*
X135012500Y-51462558D01*
X109780500Y-51462558D01*
X109780500Y-48433556D01*
X121414241Y-48433556D01*
X121432945Y-48551657D01*
X121432945Y-48551658D01*
X121487237Y-48658210D01*
X121571789Y-48742762D01*
X121571791Y-48742763D01*
X121571792Y-48742764D01*
X121678339Y-48797053D01*
X121678340Y-48797053D01*
X121678342Y-48797054D01*
X121796444Y-48815759D01*
X121796447Y-48815759D01*
X121796450Y-48815759D01*
X121914551Y-48797054D01*
X121914552Y-48797054D01*
X121914553Y-48797053D01*
X121914555Y-48797053D01*
X122021102Y-48742764D01*
X122105658Y-48658208D01*
X122159947Y-48551661D01*
X122159947Y-48551659D01*
X122159948Y-48551658D01*
X122159948Y-48551657D01*
X122178653Y-48433556D01*
X122178653Y-48433549D01*
X122160262Y-48317434D01*
X122159947Y-48315445D01*
X122159946Y-48315443D01*
X122156931Y-48306161D01*
X122158184Y-48305753D01*
X122147500Y-48261245D01*
X122147500Y-47885349D01*
X122167185Y-47818310D01*
X122183819Y-47797668D01*
X122734202Y-47247285D01*
X123377791Y-46603695D01*
X123439112Y-46570212D01*
X123508804Y-46575196D01*
X123564737Y-46617068D01*
X123578240Y-46643106D01*
X123578517Y-46642966D01*
X123582946Y-46651660D01*
X123582947Y-46651661D01*
X123586536Y-46658704D01*
X123637237Y-46758210D01*
X123721789Y-46842762D01*
X123721791Y-46842763D01*
X123721792Y-46842764D01*
X123828339Y-46897053D01*
X123828340Y-46897053D01*
X123828342Y-46897054D01*
X123946444Y-46915759D01*
X123946447Y-46915759D01*
X123946450Y-46915759D01*
X124064551Y-46897054D01*
X124064552Y-46897054D01*
X124064553Y-46897053D01*
X124064555Y-46897053D01*
X124171102Y-46842764D01*
X124255658Y-46758208D01*
X124278814Y-46712762D01*
X124306359Y-46658704D01*
X124354333Y-46607909D01*
X124416843Y-46591000D01*
X124648665Y-46591000D01*
X124715704Y-46610685D01*
X124736346Y-46627319D01*
X124821789Y-46712762D01*
X124821791Y-46712763D01*
X124821792Y-46712764D01*
X124928339Y-46767053D01*
X124928340Y-46767053D01*
X124928342Y-46767054D01*
X125046444Y-46785759D01*
X125046447Y-46785759D01*
X125046450Y-46785759D01*
X125164551Y-46767054D01*
X125164552Y-46767054D01*
X125164553Y-46767053D01*
X125164555Y-46767053D01*
X125271102Y-46712764D01*
X125355658Y-46628208D01*
X125409947Y-46521661D01*
X125409947Y-46521659D01*
X125409948Y-46521658D01*
X125412964Y-46512377D01*
X125415027Y-46513047D01*
X125439370Y-46461686D01*
X125498678Y-46424749D01*
X125568541Y-46425741D01*
X125619602Y-46456529D01*
X126249891Y-47086819D01*
X126276776Y-47127060D01*
X126280352Y-47135696D01*
X126288726Y-47166956D01*
X126291969Y-47191596D01*
X126292499Y-47199699D01*
X126292495Y-47257243D01*
X126292500Y-47257304D01*
X126292500Y-48078796D01*
X126278985Y-48135091D01*
X126232945Y-48225447D01*
X126232945Y-48225448D01*
X126214241Y-48343549D01*
X126214241Y-48343556D01*
X126232945Y-48461657D01*
X126232945Y-48461658D01*
X126287237Y-48568210D01*
X126371789Y-48652762D01*
X126371791Y-48652763D01*
X126371792Y-48652764D01*
X126478339Y-48707053D01*
X126478340Y-48707053D01*
X126478342Y-48707054D01*
X126596444Y-48725759D01*
X126596447Y-48725759D01*
X126596450Y-48725759D01*
X126714551Y-48707054D01*
X126714552Y-48707054D01*
X126714553Y-48707053D01*
X126714555Y-48707053D01*
X126821102Y-48652764D01*
X126905658Y-48568208D01*
X126959947Y-48461661D01*
X126959947Y-48461659D01*
X126959948Y-48461658D01*
X126959948Y-48461657D01*
X126978653Y-48343556D01*
X126978653Y-48343549D01*
X126959947Y-48225446D01*
X126956931Y-48216161D01*
X126958184Y-48215753D01*
X126947500Y-48171245D01*
X126947500Y-47465713D01*
X127540000Y-47465713D01*
X127555418Y-47617338D01*
X127616299Y-47811381D01*
X127616304Y-47811391D01*
X127715005Y-47989215D01*
X127715005Y-47989216D01*
X127847478Y-48143530D01*
X127847479Y-48143531D01*
X128008304Y-48268018D01*
X128190907Y-48357589D01*
X128290000Y-48383244D01*
X128290000Y-47581110D01*
X128314457Y-47620610D01*
X128403962Y-47688201D01*
X128511840Y-47718895D01*
X128623521Y-47708546D01*
X128723922Y-47658552D01*
X128790000Y-47586069D01*
X128790000Y-48388366D01*
X128791944Y-48388069D01*
X128791945Y-48388069D01*
X128982660Y-48317436D01*
X128982664Y-48317434D01*
X129155267Y-48209850D01*
X129302668Y-48069735D01*
X129302669Y-48069733D01*
X129418856Y-47902804D01*
X129499059Y-47715907D01*
X129540000Y-47516690D01*
X129540000Y-47115000D01*
X128840000Y-47115000D01*
X128840000Y-46615000D01*
X129540000Y-46615000D01*
X129540000Y-46264286D01*
X129524581Y-46112661D01*
X129463700Y-45918618D01*
X129463695Y-45918608D01*
X129364994Y-45740784D01*
X129364994Y-45740783D01*
X129232521Y-45586469D01*
X129232520Y-45586468D01*
X129071695Y-45461981D01*
X128889093Y-45372411D01*
X128790000Y-45346753D01*
X128790000Y-46148889D01*
X128765543Y-46109390D01*
X128676038Y-46041799D01*
X128568160Y-46011105D01*
X128456479Y-46021454D01*
X128356078Y-46071448D01*
X128290000Y-46143930D01*
X128290000Y-45341633D01*
X128288053Y-45341931D01*
X128288047Y-45341933D01*
X128097342Y-45412562D01*
X128097335Y-45412565D01*
X127924732Y-45520149D01*
X127777331Y-45660264D01*
X127777330Y-45660266D01*
X127661143Y-45827195D01*
X127580940Y-46014092D01*
X127540000Y-46213309D01*
X127540000Y-46615000D01*
X128240000Y-46615000D01*
X128240000Y-47115000D01*
X127540000Y-47115000D01*
X127540000Y-47465713D01*
X126947500Y-47465713D01*
X126947500Y-47164397D01*
X126947473Y-47163791D01*
X126947474Y-47150773D01*
X126947476Y-47130342D01*
X126927111Y-47001693D01*
X126886870Y-46877814D01*
X126827745Y-46761756D01*
X126751192Y-46656376D01*
X126751190Y-46656373D01*
X126698518Y-46603697D01*
X126668467Y-46573643D01*
X126668466Y-46573642D01*
X126668465Y-46573641D01*
X126660570Y-46567905D01*
X126661230Y-46566996D01*
X126643483Y-46554101D01*
X126131181Y-46041799D01*
X125593377Y-45503995D01*
X125589732Y-45500016D01*
X125563542Y-45468804D01*
X125563538Y-45468800D01*
X125528259Y-45448432D01*
X125523695Y-45445525D01*
X125490325Y-45422159D01*
X125485740Y-45420021D01*
X125468272Y-45412785D01*
X125463521Y-45411056D01*
X125423399Y-45403981D01*
X125418116Y-45402810D01*
X125378762Y-45392265D01*
X125342672Y-45395424D01*
X125338179Y-45395817D01*
X125332776Y-45396053D01*
X123811786Y-45396053D01*
X123806382Y-45395817D01*
X123800870Y-45395334D01*
X123765797Y-45392265D01*
X123726443Y-45402809D01*
X123721164Y-45403980D01*
X123681045Y-45411055D01*
X123676309Y-45412778D01*
X123658809Y-45420026D01*
X123654240Y-45422157D01*
X123620868Y-45445524D01*
X123616307Y-45448429D01*
X123581022Y-45468801D01*
X123581020Y-45468803D01*
X123554830Y-45500015D01*
X123551174Y-45504004D01*
X121576898Y-47478280D01*
X121572909Y-47481936D01*
X121541697Y-47508126D01*
X121541695Y-47508128D01*
X121521323Y-47543413D01*
X121518418Y-47547974D01*
X121495051Y-47581346D01*
X121492920Y-47585915D01*
X121485672Y-47603415D01*
X121483949Y-47608151D01*
X121476874Y-47648270D01*
X121475703Y-47653549D01*
X121465159Y-47692903D01*
X121468711Y-47733485D01*
X121468947Y-47738892D01*
X121468947Y-48215021D01*
X121455432Y-48271315D01*
X121432947Y-48315445D01*
X121432945Y-48315449D01*
X121414241Y-48433549D01*
X121414241Y-48433556D01*
X109780500Y-48433556D01*
X109780500Y-47465713D01*
X118900000Y-47465713D01*
X118915418Y-47617338D01*
X118976299Y-47811381D01*
X118976304Y-47811391D01*
X119075005Y-47989215D01*
X119075005Y-47989216D01*
X119207478Y-48143530D01*
X119207479Y-48143531D01*
X119368304Y-48268018D01*
X119550907Y-48357589D01*
X119650000Y-48383244D01*
X119650000Y-47581110D01*
X119674457Y-47620610D01*
X119763962Y-47688201D01*
X119871840Y-47718895D01*
X119983521Y-47708546D01*
X120083922Y-47658552D01*
X120150000Y-47586069D01*
X120150000Y-48388366D01*
X120151944Y-48388069D01*
X120151945Y-48388069D01*
X120342660Y-48317436D01*
X120342664Y-48317434D01*
X120515267Y-48209850D01*
X120662668Y-48069735D01*
X120662669Y-48069733D01*
X120778856Y-47902804D01*
X120859059Y-47715907D01*
X120900000Y-47516690D01*
X120900000Y-47115000D01*
X120200000Y-47115000D01*
X120200000Y-46615000D01*
X120900000Y-46615000D01*
X120900000Y-46264286D01*
X120884581Y-46112661D01*
X120823700Y-45918618D01*
X120823695Y-45918608D01*
X120724994Y-45740784D01*
X120724994Y-45740783D01*
X120592521Y-45586469D01*
X120592520Y-45586468D01*
X120431695Y-45461981D01*
X120249093Y-45372411D01*
X120150000Y-45346753D01*
X120150000Y-46148889D01*
X120125543Y-46109390D01*
X120036038Y-46041799D01*
X119928160Y-46011105D01*
X119816479Y-46021454D01*
X119716078Y-46071448D01*
X119650000Y-46143930D01*
X119650000Y-45341633D01*
X119648053Y-45341931D01*
X119648047Y-45341933D01*
X119457342Y-45412562D01*
X119457335Y-45412565D01*
X119284732Y-45520149D01*
X119137331Y-45660264D01*
X119137330Y-45660266D01*
X119021143Y-45827195D01*
X118940940Y-46014092D01*
X118900000Y-46213309D01*
X118900000Y-46615000D01*
X119600000Y-46615000D01*
X119600000Y-47115000D01*
X118900000Y-47115000D01*
X118900000Y-47465713D01*
X109780500Y-47465713D01*
X109780500Y-43135713D01*
X118900000Y-43135713D01*
X118915418Y-43287338D01*
X118976299Y-43481381D01*
X118976304Y-43481391D01*
X119075005Y-43659215D01*
X119075005Y-43659216D01*
X119207478Y-43813530D01*
X119207479Y-43813531D01*
X119368304Y-43938018D01*
X119550907Y-44027589D01*
X119650000Y-44053244D01*
X119650000Y-43251110D01*
X119674457Y-43290610D01*
X119763962Y-43358201D01*
X119871840Y-43388895D01*
X119983521Y-43378546D01*
X120083922Y-43328552D01*
X120150000Y-43256069D01*
X120150000Y-44058366D01*
X120151944Y-44058069D01*
X120151945Y-44058069D01*
X120342660Y-43987436D01*
X120342664Y-43987434D01*
X120515267Y-43879850D01*
X120662668Y-43739735D01*
X120662669Y-43739733D01*
X120778856Y-43572804D01*
X120859059Y-43385907D01*
X120900000Y-43186690D01*
X120900000Y-43135713D01*
X127540000Y-43135713D01*
X127555418Y-43287338D01*
X127616299Y-43481381D01*
X127616304Y-43481391D01*
X127715005Y-43659215D01*
X127715005Y-43659216D01*
X127847478Y-43813530D01*
X127847479Y-43813531D01*
X128008304Y-43938018D01*
X128190907Y-44027589D01*
X128290000Y-44053244D01*
X128290000Y-43251110D01*
X128314457Y-43290610D01*
X128403962Y-43358201D01*
X128511840Y-43388895D01*
X128623521Y-43378546D01*
X128723922Y-43328552D01*
X128790000Y-43256069D01*
X128790000Y-44058366D01*
X128791944Y-44058069D01*
X128791945Y-44058069D01*
X128982660Y-43987436D01*
X128982664Y-43987434D01*
X129155267Y-43879850D01*
X129302668Y-43739735D01*
X129302669Y-43739733D01*
X129418856Y-43572804D01*
X129499059Y-43385907D01*
X129540000Y-43186690D01*
X129540000Y-42935000D01*
X128840000Y-42935000D01*
X128840000Y-42590005D01*
X153919945Y-42590005D01*
X153940130Y-42833605D01*
X154000138Y-43070573D01*
X154098328Y-43294424D01*
X154194626Y-43441820D01*
X154797452Y-42838993D01*
X154807188Y-42868956D01*
X154895186Y-43007619D01*
X155014903Y-43120040D01*
X155149510Y-43194041D01*
X154547757Y-43795793D01*
X154547758Y-43795794D01*
X154590485Y-43829050D01*
X154590485Y-43829051D01*
X154805468Y-43945394D01*
X154805476Y-43945397D01*
X155036664Y-44024765D01*
X155277779Y-44065000D01*
X155522221Y-44065000D01*
X155763335Y-44024765D01*
X155994523Y-43945397D01*
X155994531Y-43945394D01*
X156209515Y-43829050D01*
X156209516Y-43829048D01*
X156252240Y-43795794D01*
X156252241Y-43795793D01*
X155647534Y-43191086D01*
X155715629Y-43164126D01*
X155848492Y-43067595D01*
X155953175Y-42941055D01*
X156001631Y-42838079D01*
X156605372Y-43441820D01*
X156701669Y-43294429D01*
X156799861Y-43070573D01*
X156859869Y-42833605D01*
X156880055Y-42590005D01*
X158919945Y-42590005D01*
X158940130Y-42833605D01*
X159000138Y-43070573D01*
X159098328Y-43294424D01*
X159194626Y-43441820D01*
X159797452Y-42838993D01*
X159807188Y-42868956D01*
X159895186Y-43007619D01*
X160014903Y-43120040D01*
X160149510Y-43194041D01*
X159547757Y-43795793D01*
X159547758Y-43795794D01*
X159590485Y-43829050D01*
X159590485Y-43829051D01*
X159805468Y-43945394D01*
X159805476Y-43945397D01*
X160036664Y-44024765D01*
X160277779Y-44065000D01*
X160522221Y-44065000D01*
X160763335Y-44024765D01*
X160994523Y-43945397D01*
X160994531Y-43945394D01*
X161209515Y-43829050D01*
X161209516Y-43829048D01*
X161252240Y-43795794D01*
X161252241Y-43795793D01*
X160647534Y-43191086D01*
X160715629Y-43164126D01*
X160848492Y-43067595D01*
X160953175Y-42941055D01*
X161001631Y-42838079D01*
X161605372Y-43441820D01*
X161701669Y-43294429D01*
X161799861Y-43070573D01*
X161859869Y-42833605D01*
X161880055Y-42590005D01*
X161880055Y-42589994D01*
X161859869Y-42346394D01*
X161799861Y-42109426D01*
X161701671Y-41885575D01*
X161605372Y-41738178D01*
X161002546Y-42341004D01*
X160992812Y-42311044D01*
X160904814Y-42172381D01*
X160785097Y-42059960D01*
X160650489Y-41985958D01*
X161252240Y-41384205D01*
X161252240Y-41384204D01*
X161209514Y-41350949D01*
X161209514Y-41350948D01*
X160994531Y-41234605D01*
X160994523Y-41234602D01*
X160763335Y-41155234D01*
X160522221Y-41115000D01*
X160277779Y-41115000D01*
X160036664Y-41155234D01*
X159805476Y-41234602D01*
X159805468Y-41234605D01*
X159590484Y-41350949D01*
X159590478Y-41350953D01*
X159547758Y-41384203D01*
X159547758Y-41384205D01*
X160152466Y-41988913D01*
X160084371Y-42015874D01*
X159951508Y-42112405D01*
X159846825Y-42238945D01*
X159798368Y-42341921D01*
X159194625Y-41738178D01*
X159098329Y-41885572D01*
X159000138Y-42109426D01*
X158940130Y-42346394D01*
X158919945Y-42589994D01*
X158919945Y-42590005D01*
X156880055Y-42590005D01*
X156880055Y-42589994D01*
X156859869Y-42346394D01*
X156799861Y-42109426D01*
X156701671Y-41885575D01*
X156605372Y-41738178D01*
X156002546Y-42341004D01*
X155992812Y-42311044D01*
X155904814Y-42172381D01*
X155785097Y-42059960D01*
X155650489Y-41985958D01*
X156252240Y-41384205D01*
X156252240Y-41384204D01*
X156209514Y-41350949D01*
X156209514Y-41350948D01*
X155994531Y-41234605D01*
X155994523Y-41234602D01*
X155763335Y-41155234D01*
X155522221Y-41115000D01*
X155277779Y-41115000D01*
X155036664Y-41155234D01*
X154805476Y-41234602D01*
X154805468Y-41234605D01*
X154590484Y-41350949D01*
X154590478Y-41350953D01*
X154547758Y-41384203D01*
X154547758Y-41384205D01*
X155152466Y-41988913D01*
X155084371Y-42015874D01*
X154951508Y-42112405D01*
X154846825Y-42238945D01*
X154798368Y-42341921D01*
X154194625Y-41738178D01*
X154098329Y-41885572D01*
X154000138Y-42109426D01*
X153940130Y-42346394D01*
X153919945Y-42589994D01*
X153919945Y-42590005D01*
X128840000Y-42590005D01*
X128840000Y-42435000D01*
X129540000Y-42435000D01*
X129540000Y-42234286D01*
X129524581Y-42082661D01*
X129463700Y-41888618D01*
X129463695Y-41888608D01*
X129364994Y-41710784D01*
X129364994Y-41710783D01*
X129232521Y-41556469D01*
X129232520Y-41556468D01*
X129071695Y-41431981D01*
X128889093Y-41342411D01*
X128790000Y-41316753D01*
X128790000Y-42118889D01*
X128765543Y-42079390D01*
X128676038Y-42011799D01*
X128568160Y-41981105D01*
X128456479Y-41991454D01*
X128356078Y-42041448D01*
X128290000Y-42113930D01*
X128290000Y-41311633D01*
X128288053Y-41311931D01*
X128288047Y-41311933D01*
X128097342Y-41382562D01*
X128097335Y-41382565D01*
X127924732Y-41490149D01*
X127777331Y-41630264D01*
X127777330Y-41630266D01*
X127661143Y-41797195D01*
X127580940Y-41984092D01*
X127540000Y-42183309D01*
X127540000Y-42435000D01*
X128240000Y-42435000D01*
X128240000Y-42935000D01*
X127540000Y-42935000D01*
X127540000Y-43135713D01*
X120900000Y-43135713D01*
X120900000Y-42935000D01*
X120200000Y-42935000D01*
X120200000Y-42435000D01*
X120900000Y-42435000D01*
X120900000Y-42234286D01*
X120884581Y-42082661D01*
X120823700Y-41888618D01*
X120823695Y-41888608D01*
X120724994Y-41710784D01*
X120724994Y-41710783D01*
X120592521Y-41556469D01*
X120592520Y-41556468D01*
X120431695Y-41431981D01*
X120249093Y-41342411D01*
X120150000Y-41316753D01*
X120150000Y-42118889D01*
X120125543Y-42079390D01*
X120036038Y-42011799D01*
X119928160Y-41981105D01*
X119816479Y-41991454D01*
X119716078Y-42041448D01*
X119650000Y-42113930D01*
X119650000Y-41311633D01*
X119648053Y-41311931D01*
X119648047Y-41311933D01*
X119457342Y-41382562D01*
X119457335Y-41382565D01*
X119284732Y-41490149D01*
X119137331Y-41630264D01*
X119137330Y-41630266D01*
X119021143Y-41797195D01*
X118940940Y-41984092D01*
X118900000Y-42183309D01*
X118900000Y-42435000D01*
X119600000Y-42435000D01*
X119600000Y-42935000D01*
X118900000Y-42935000D01*
X118900000Y-43135713D01*
X109780500Y-43135713D01*
X109780500Y-43091622D01*
X109780585Y-43088376D01*
X109781674Y-43067595D01*
X109787497Y-42956486D01*
X109788704Y-42935000D01*
X109797803Y-42772968D01*
X109798464Y-42766791D01*
X109822611Y-42614331D01*
X109850227Y-42451796D01*
X109851451Y-42446196D01*
X109892425Y-42293279D01*
X109937083Y-42138268D01*
X109938764Y-42133254D01*
X109996127Y-41983815D01*
X110057366Y-41835972D01*
X110059379Y-41831606D01*
X110132511Y-41688078D01*
X110164463Y-41630264D01*
X110209655Y-41548494D01*
X110211867Y-41544808D01*
X110299980Y-41409127D01*
X110318829Y-41382562D01*
X110392154Y-41279220D01*
X110394486Y-41276143D01*
X110495655Y-41151209D01*
X110497537Y-41148998D01*
X110602773Y-41031239D01*
X110605092Y-41028787D01*
X110718787Y-40915092D01*
X110721239Y-40912773D01*
X110838998Y-40807537D01*
X110841209Y-40805655D01*
X110966143Y-40704486D01*
X110969220Y-40702154D01*
X111099127Y-40609980D01*
X111109046Y-40603537D01*
X111234808Y-40521867D01*
X111238494Y-40519655D01*
X111378078Y-40442511D01*
X111390063Y-40436403D01*
X111521606Y-40369379D01*
X111525972Y-40367366D01*
X111673815Y-40306127D01*
X111823254Y-40248764D01*
X111828268Y-40247083D01*
X111983279Y-40202425D01*
X112136196Y-40161451D01*
X112141796Y-40160227D01*
X112304284Y-40132618D01*
X112456791Y-40108464D01*
X112462968Y-40107803D01*
X112646566Y-40097493D01*
X112778380Y-40090584D01*
X112781622Y-40090500D01*
X171118378Y-40090500D01*
X171121619Y-40090584D01*
G37*
%TD.AperFunction*%
%TD*%
M02*
